<svg width="82" height="122" viewBox="0 0 82 122" fill="none" xmlns="http://www.w3.org/2000/svg">
<path d="M81.9559 62.7809C81.9559 55.5217 80.7266 48.5476 78.4534 42.0746C75.7611 34.355 71.5976 27.3443 66.2975 21.3682C64.778 19.6492 63.1618 18.0156 61.469 16.488C55.5562 11.1353 48.6157 6.92311 40.982 4.20192C34.5775 1.90438 27.6774 0.661926 20.495 0.661926C13.3127 0.661926 6.40847 1.89624 0 4.19378V26.8921C0 26.8921 0 26.8962 0.00403049 26.8921C6.02961 23.3684 13.0225 21.356 20.487 21.356C27.9514 21.356 34.9484 23.3725 40.9739 26.8962C47.193 30.5339 52.3802 35.7767 55.9794 42.0623C59.4658 48.1524 61.4609 55.2243 61.4609 62.7687C61.4609 70.313 59.4658 77.3849 55.9794 83.475C52.3802 89.7606 47.193 94.9993 40.978 98.6412C40.978 98.6412 40.9739 98.6452 40.9739 98.6493V121.352C48.6117 118.631 55.5482 114.418 61.4609 109.066C63.1577 107.534 64.7699 105.904 66.2894 104.185C71.5895 98.2094 75.753 91.1945 78.4454 83.4791C80.7186 77.006 81.9479 70.032 81.9479 62.7727L81.9559 62.7809Z" fill="#F4B400"/>
<path d="M20.487 83.4872C31.8016 83.4872 40.9739 74.2167 40.9739 62.7809C40.9739 51.3451 31.8016 42.0746 20.487 42.0746C9.17233 42.0746 0 51.3451 0 62.7809C0 74.2167 9.17233 83.4872 20.487 83.4872Z" fill="#FFCF64"/>
</svg>
