<svg width="83" height="121" viewBox="0 0 83 121" fill="none" xmlns="http://www.w3.org/2000/svg">
<path d="M0.461945 62.4129C0.461945 55.1537 1.69124 48.1796 3.96444 41.7066C6.6568 33.987 10.8203 26.9763 16.1204 21.0003C17.6399 19.2812 19.2561 17.6477 20.9489 16.12C26.8616 10.7673 33.8021 6.55513 41.4359 3.83394C47.8403 1.53641 54.7405 0.293945 61.9228 0.293945C69.1052 0.293945 76.0054 1.53641 82.4098 3.83394V26.5404C76.3842 23.0167 69.3873 21.0003 61.9228 21.0003C54.4584 21.0003 47.4615 23.0167 41.4359 26.5404C35.2168 30.1782 30.0296 35.421 26.4304 41.7066C22.944 47.7967 20.9489 54.8685 20.9489 62.4129C20.9489 69.9573 22.944 77.0291 26.4304 83.1192C30.0296 89.4049 35.2168 94.6476 41.4359 98.2854C41.4359 98.2854 41.4359 98.2854 41.4359 98.2895V120.996C33.7981 118.275 26.8616 114.063 20.9489 108.71C19.2521 107.178 17.6399 105.549 16.1204 103.83C10.8203 97.8536 6.6568 90.8388 3.96444 83.1233C1.69124 76.6503 0.461945 69.6762 0.461945 62.417V62.4129Z" fill="#3030B7"/>
<path d="M61.9309 83.1192C73.2456 83.1192 82.4179 73.8486 82.4179 62.4129C82.4179 50.9771 73.2456 41.7065 61.9309 41.7065C50.6163 41.7065 41.4439 50.9771 41.4439 62.4129C41.4439 73.8486 50.6163 83.1192 61.9309 83.1192Z" fill="#4141D8"/>
</svg>
