<svg width="118" height="89" viewBox="0 0 118 89" fill="none" xmlns="http://www.w3.org/2000/svg">
<path d="M18.4551 70.7103C23.5335 75.8431 29.281 79.8963 35.4194 82.8497C42.7227 86.3816 50.5741 88.3695 58.502 88.8054C60.7793 88.9358 63.0645 88.9358 65.3337 88.8054C73.2576 88.3654 81.1131 86.3816 88.4163 82.8497C94.5547 79.8963 100.302 75.8431 105.381 70.7103C110.459 65.5775 114.469 59.7685 117.391 53.5643L101.503 37.506C99.7057 44.3049 96.171 50.7291 90.891 56.0655C85.6111 61.402 79.255 64.9746 72.5281 66.7914C65.5836 68.6653 58.2481 68.6653 51.3036 66.7914C44.5767 64.9746 38.2206 61.402 32.9407 56.0655C27.6607 50.7291 24.126 44.3049 22.3284 37.506C20.4784 30.4912 20.4744 23.0772 22.3284 16.0583C22.3284 16.0583 22.3284 16.0583 22.3284 16.0542L6.44829 0C2.95386 7.38144 0.991009 15.321 0.555716 23.3297C0.42674 25.6232 0.42674 27.933 0.555716 30.2346C0.986978 38.2474 2.95386 46.1829 6.44829 53.5643C9.37039 59.7685 13.3807 65.5775 18.4591 70.7103H18.4551Z" fill="#2F6D4F"/>
<path d="M61.9199 47.4864C73.2345 47.4864 82.4069 38.2159 82.4069 26.7801C82.4069 15.3443 73.2345 6.07379 61.9199 6.07379C50.6052 6.07379 41.4329 15.3443 41.4329 26.7801C41.4329 38.2159 50.6052 47.4864 61.9199 47.4864Z" fill="#399665"/>
</svg>
