<?xml version="1.0" encoding="UTF-8"?>
<svg xmlns="http://www.w3.org/2000/svg" xmlns:xlink="http://www.w3.org/1999/xlink" width="367px" height="28px" viewBox="0 0 367 28" version="1.1">
<defs>
<filter id="alpha" filterUnits="objectBoundingBox" x="0%" y="0%" width="100%" height="100%">
  <feColorMatrix type="matrix" in="SourceGraphic" values="0 0 0 0 1 0 0 0 0 1 0 0 0 0 1 0 0 0 1 0"/>
</filter>
<mask id="mask0">
  <g filter="url(#alpha)">
<rect x="0" y="0" width="367" height="28" style="fill:rgb(0%,0%,0%);fill-opacity:0.72549;stroke:none;"/>
  </g>
</mask>
<clipPath id="clip1">
  <rect x="0" y="0" width="367" height="28"/>
</clipPath>
<g id="surface5" clip-path="url(#clip1)">
<path style=" stroke:none;fill-rule:evenodd;fill:rgb(98.039216%,98.039216%,98.039216%);fill-opacity:1;" d="M 125.652344 2.757812 C 128.335938 2.757812 131.019531 2.757812 133.703125 2.757812 C 133.460938 4.585938 133.316406 6.425781 133.28125 8.273438 C 132.714844 8.273438 132.152344 8.273438 131.585938 8.273438 C 131.707031 5.152344 130.292969 3.949219 127.347656 4.667969 C 126.542969 5.433594 126.332031 6.351562 126.710938 7.425781 C 129.300781 9.851562 131.066406 12.75 132.011719 16.121094 C 131.859375 18.671875 130.589844 20.371094 128.195312 21.210938 C 125.558594 21.445312 123.015625 21.304688 120.566406 20.789062 C 120.425781 20.644531 120.285156 20.503906 120.144531 20.363281 C 120.480469 18.917969 120.691406 17.433594 120.78125 15.910156 C 120.953125 15.714844 121.167969 15.574219 121.414062 15.484375 C 122.300781 16.304688 122.9375 17.292969 123.320312 18.453125 C 125.398438 20.359375 127.09375 20.074219 128.40625 17.605469 C 128.613281 16.582031 128.472656 15.59375 127.984375 14.636719 C 126.113281 13.046875 124.558594 11.207031 123.320312 9.121094 C 123.039062 7.847656 123.039062 6.574219 123.320312 5.304688 C 123.898438 4.234375 124.675781 3.382812 125.652344 2.757812 Z M 125.652344 2.757812 "/>
</g>
<mask id="mask1">
  <g filter="url(#alpha)">
<rect x="0" y="0" width="367" height="28" style="fill:rgb(0%,0%,0%);fill-opacity:0.741176;stroke:none;"/>
  </g>
</mask>
<clipPath id="clip2">
  <rect x="0" y="0" width="367" height="28"/>
</clipPath>
<g id="surface8" clip-path="url(#clip2)">
<path style=" stroke:none;fill-rule:evenodd;fill:rgb(97.647059%,98.039216%,97.647059%);fill-opacity:1;" d="M 250.246094 5.304688 C 251.097656 5.691406 251.523438 6.398438 251.519531 7.425781 C 251.445312 7.988281 251.375 8.554688 251.304688 9.121094 C 251.007812 8.066406 250.652344 8.066406 250.246094 9.121094 C 247.550781 12.320312 245.082031 15.714844 242.832031 19.304688 C 241.980469 20.472656 241.132812 20.613281 240.289062 19.726562 C 239.722656 16.328125 239.15625 12.933594 238.59375 9.546875 C 237.511719 12.582031 236.734375 15.691406 236.261719 18.878906 C 235.605469 19.015625 235.324219 19.4375 235.414062 20.152344 C 234.847656 20.152344 234.285156 20.152344 233.71875 20.152344 C 233.820312 19.605469 233.679688 19.179688 233.296875 18.878906 C 234.875 14.28125 236.285156 9.613281 237.53125 4.878906 C 237.054688 4.554688 236.558594 4.273438 236.050781 4.03125 C 235.789062 3.628906 235.859375 3.273438 236.261719 2.96875 C 237.972656 2.617188 239.667969 2.691406 241.347656 3.183594 C 241.917969 7.015625 242.550781 10.835938 243.253906 14.636719 C 245.492188 11.421875 247.820312 8.308594 250.246094 5.304688 Z M 250.246094 5.304688 "/>
</g>
<mask id="mask2">
  <g filter="url(#alpha)">
<rect x="0" y="0" width="367" height="28" style="fill:rgb(0%,0%,0%);fill-opacity:0.760784;stroke:none;"/>
  </g>
</mask>
<clipPath id="clip3">
  <rect x="0" y="0" width="367" height="28"/>
</clipPath>
<g id="surface11" clip-path="url(#clip3)">
<path style=" stroke:none;fill-rule:evenodd;fill:rgb(98.431373%,98.823529%,98.823529%);fill-opacity:1;" d="M 251.941406 19.726562 C 251.519531 19.765625 251.167969 19.621094 250.882812 19.304688 C 250.382812 19.804688 249.746094 20.089844 248.976562 20.152344 C 248.199219 20.117188 247.632812 19.832031 247.28125 19.304688 C 248.4375 15.964844 249.429688 12.570312 250.246094 9.121094 C 250.652344 8.066406 251.007812 8.066406 251.304688 9.121094 C 251.375 8.554688 251.445312 7.988281 251.519531 7.425781 C 251.523438 6.398438 251.097656 5.691406 250.246094 5.304688 C 250.480469 4.5 250.902344 3.792969 251.519531 3.183594 C 253.191406 2.761719 254.886719 2.621094 256.601562 2.757812 C 255.929688 3.804688 255.296875 4.9375 254.695312 6.152344 C 253.574219 10.292969 252.375 14.394531 251.09375 18.453125 C 251.386719 18.886719 251.671875 19.3125 251.941406 19.726562 Z M 251.941406 19.726562 "/>
</g>
<mask id="mask3">
  <g filter="url(#alpha)">
<rect x="0" y="0" width="367" height="28" style="fill:rgb(0%,0%,0%);fill-opacity:0.776471;stroke:none;"/>
  </g>
</mask>
<clipPath id="clip4">
  <rect x="0" y="0" width="367" height="28"/>
</clipPath>
<g id="surface14" clip-path="url(#clip4)">
<path style=" stroke:none;fill-rule:evenodd;fill:rgb(97.647059%,98.039216%,97.647059%);fill-opacity:1;" d="M 300.675781 2.757812 C 302.765625 2.628906 304.816406 2.769531 306.820312 3.183594 C 306.519531 3.910156 306.027344 4.617188 305.339844 5.304688 C 305.886719 8.570312 306.523438 11.820312 307.246094 15.0625 C 309.261719 11.734375 311.167969 8.339844 312.96875 4.878906 C 312.617188 4.503906 312.195312 4.363281 311.695312 4.453125 C 311.625 3.894531 311.765625 3.398438 312.121094 2.96875 C 313.671875 2.6875 315.226562 2.6875 316.78125 2.96875 C 313.335938 9.152344 309.589844 15.300781 305.550781 21.425781 C 304.753906 21.171875 304.328125 20.605469 304.28125 19.726562 C 303.328125 14.796875 302.480469 9.84375 301.738281 4.878906 C 300.457031 4.539062 300.101562 3.832031 300.675781 2.757812 Z M 300.675781 2.757812 "/>
</g>
<mask id="mask4">
  <g filter="url(#alpha)">
<rect x="0" y="0" width="367" height="28" style="fill:rgb(0%,0%,0%);fill-opacity:0.572549;stroke:none;"/>
  </g>
</mask>
<clipPath id="clip5">
  <rect x="0" y="0" width="367" height="28"/>
</clipPath>
<g id="surface17" clip-path="url(#clip5)">
<path style=" stroke:none;fill-rule:evenodd;fill:rgb(98.431373%,98.431373%,98.431373%);fill-opacity:1;" d="M 329.496094 2.757812 C 332.25 2.605469 332.957031 3.664062 331.613281 5.9375 C 329.109375 6.257812 328.40625 5.195312 329.496094 2.757812 Z M 329.496094 2.757812 "/>
</g>
<mask id="mask5">
  <g filter="url(#alpha)">
<rect x="0" y="0" width="367" height="28" style="fill:rgb(0%,0%,0%);fill-opacity:0.258824;stroke:none;"/>
  </g>
</mask>
<clipPath id="clip6">
  <rect x="0" y="0" width="367" height="28"/>
</clipPath>
<g id="surface20" clip-path="url(#clip6)">
<path style=" stroke:none;fill-rule:evenodd;fill:rgb(91.764706%,92.941177%,92.941177%);fill-opacity:1;" d="M 113.785156 1.910156 C 113.320312 2.289062 113.320312 2.644531 113.785156 2.96875 C 113.042969 3.054688 112.335938 3.269531 111.667969 3.605469 C 111.949219 3.890625 112.234375 4.171875 112.515625 4.453125 C 112.367188 4.960938 112.15625 4.960938 111.878906 4.453125 C 111.738281 5.726562 111.597656 7 111.457031 8.273438 C 111.316406 7.988281 111.171875 7.707031 111.03125 7.425781 C 110.914062 7.8125 110.703125 8.09375 110.398438 8.273438 C 110.378906 7.136719 110.664062 6.074219 111.246094 5.089844 C 110.941406 4.441406 110.515625 3.875 109.972656 3.394531 C 110.949219 2.199219 112.222656 1.703125 113.785156 1.910156 Z M 113.785156 1.910156 "/>
</g>
<mask id="mask6">
  <g filter="url(#alpha)">
<rect x="0" y="0" width="367" height="28" style="fill:rgb(0%,0%,0%);fill-opacity:0.976471;stroke:none;"/>
  </g>
</mask>
<clipPath id="clip7">
  <rect x="0" y="0" width="367" height="28"/>
</clipPath>
<g id="surface23" clip-path="url(#clip7)">
<path style=" stroke:none;fill-rule:evenodd;fill:rgb(98.431373%,98.431373%,98.431373%);fill-opacity:1;" d="M 8.6875 18.878906 C 8.558594 19.15625 8.417969 19.4375 8.265625 19.726562 C 9.414062 20.035156 10.542969 20.390625 11.652344 20.789062 C 11.128906 20.886719 10.707031 21.097656 10.382812 21.425781 C 9.019531 21.554688 7.75 21.414062 6.570312 21 C 6.746094 20.695312 7.027344 20.480469 7.417969 20.363281 C 5.535156 19.824219 4.265625 18.625 3.601562 16.757812 C 3.292969 15.042969 3.011719 13.347656 2.753906 11.667969 C 3.664062 10.707031 4.367188 9.574219 4.875 8.273438 C 4.855469 7.882812 4.714844 7.601562 4.449219 7.425781 C 4.449219 7.140625 4.589844 7 4.875 7 C 5.136719 7.046875 5.347656 7.1875 5.507812 7.425781 C 6.066406 6.796875 6.492188 6.089844 6.78125 5.304688 C 6.921875 5.445312 7.0625 5.585938 7.203125 5.726562 C 7.628906 5.160156 8.050781 4.597656 8.476562 4.03125 C 8.617188 4.3125 8.757812 4.597656 8.898438 4.878906 C 9.363281 4.257812 10 3.902344 10.804688 3.816406 C 10.257812 3.609375 9.695312 3.539062 9.113281 3.605469 C 10.597656 2.890625 12.222656 2.46875 13.984375 2.332031 C 15.621094 2.847656 17.246094 2.847656 18.859375 2.332031 C 19.304688 2.730469 19.585938 3.226562 19.707031 3.816406 C 19.191406 5.117188 18.839844 6.460938 18.648438 7.847656 C 18.21875 8.203125 17.722656 8.34375 17.164062 8.273438 C 16.78125 4.964844 14.945312 3.761719 11.652344 4.667969 C 8.136719 6.824219 6.300781 10.003906 6.144531 14.210938 C 6.015625 16.359375 6.863281 17.914062 8.6875 18.878906 Z M 8.6875 18.878906 "/>
</g>
<mask id="mask7">
  <g filter="url(#alpha)">
<rect x="0" y="0" width="367" height="28" style="fill:rgb(0%,0%,0%);fill-opacity:0.815686;stroke:none;"/>
  </g>
</mask>
<clipPath id="clip8">
  <rect x="0" y="0" width="367" height="28"/>
</clipPath>
<g id="surface26" clip-path="url(#clip8)">
<path style=" stroke:none;fill-rule:evenodd;fill:rgb(97.647059%,98.431373%,98.039216%);fill-opacity:1;" d="M 113.785156 1.910156 C 114.046875 1.957031 114.261719 2.097656 114.421875 2.332031 C 114.707031 3.324219 114.707031 4.3125 114.421875 5.304688 C 113.023438 9.644531 111.890625 14.03125 111.03125 18.453125 C 111.609375 17.484375 112.246094 17.414062 112.9375 18.242188 C 112.359375 20.09375 111.089844 21.152344 109.125 21.425781 C 108.222656 21.1875 107.585938 20.625 107.21875 19.726562 C 103.671875 22.5 101.34375 21.722656 100.226562 17.394531 C 100.773438 14.238281 102.328125 11.765625 104.886719 9.96875 C 105.585938 10.101562 106.007812 10.527344 106.160156 11.242188 C 104.570312 13.398438 103.792969 15.800781 103.828125 18.453125 C 104.136719 18.691406 104.488281 18.832031 104.886719 18.878906 C 105.976562 18.429688 106.894531 17.722656 107.640625 16.757812 C 108.539062 14.859375 109.175781 12.878906 109.550781 10.816406 C 109.953125 10.328125 110.378906 9.832031 110.820312 9.332031 C 110.367188 9.246094 109.941406 8.890625 109.550781 8.273438 C 109.832031 8.273438 110.113281 8.273438 110.398438 8.273438 C 110.703125 8.09375 110.914062 7.8125 111.03125 7.425781 C 111.171875 7.707031 111.316406 7.988281 111.457031 8.273438 C 111.597656 7 111.738281 5.726562 111.878906 4.453125 C 112.15625 4.960938 112.367188 4.960938 112.515625 4.453125 C 112.234375 4.171875 111.949219 3.890625 111.667969 3.605469 C 112.335938 3.269531 113.042969 3.054688 113.785156 2.96875 C 113.320312 2.644531 113.320312 2.289062 113.785156 1.910156 Z M 109.550781 10.816406 C 109.175781 12.878906 108.539062 14.859375 107.640625 16.757812 C 106.894531 17.722656 105.976562 18.429688 104.886719 18.878906 C 104.488281 18.832031 104.136719 18.691406 103.828125 18.453125 C 103.792969 15.800781 104.570312 13.398438 106.160156 11.242188 C 107.292969 10.136719 108.425781 9.996094 109.550781 10.816406 Z M 109.550781 10.816406 "/>
</g>
<mask id="mask8">
  <g filter="url(#alpha)">
<rect x="0" y="0" width="367" height="28" style="fill:rgb(0%,0%,0%);fill-opacity:0.286275;stroke:none;"/>
  </g>
</mask>
<clipPath id="clip9">
  <rect x="0" y="0" width="367" height="28"/>
</clipPath>
<g id="surface29" clip-path="url(#clip9)">
<path style=" stroke:none;fill-rule:evenodd;fill:rgb(91.37255%,91.37255%,91.37255%);fill-opacity:1;" d="M 9.113281 3.605469 C 9.695312 3.539062 10.257812 3.609375 10.804688 3.816406 C 10 3.902344 9.363281 4.257812 8.898438 4.878906 C 8.757812 4.597656 8.617188 4.3125 8.476562 4.03125 C 8.050781 4.597656 7.628906 5.160156 7.203125 5.726562 C 7.0625 5.585938 6.921875 5.445312 6.78125 5.304688 C 6.492188 6.089844 6.066406 6.796875 5.507812 7.425781 C 5.347656 7.1875 5.136719 7.046875 4.875 7 C 5.664062 5.074219 7.078125 3.945312 9.113281 3.605469 Z M 9.113281 3.605469 "/>
</g>
<mask id="mask9">
  <g filter="url(#alpha)">
<rect x="0" y="0" width="367" height="28" style="fill:rgb(0%,0%,0%);fill-opacity:0.717647;stroke:none;"/>
  </g>
</mask>
<clipPath id="clip10">
  <rect x="0" y="0" width="367" height="28"/>
</clipPath>
<g id="surface32" clip-path="url(#clip10)">
<path style=" stroke:none;fill-rule:evenodd;fill:rgb(98.039216%,98.431373%,98.431373%);fill-opacity:1;" d="M 196.847656 1.910156 C 197.332031 2.082031 197.757812 2.363281 198.121094 2.757812 C 196.742188 7.527344 195.472656 12.335938 194.304688 17.183594 C 194.378906 17.605469 194.449219 18.03125 194.519531 18.453125 C 195.128906 17.25 195.90625 17.039062 196.847656 17.816406 C 195.789062 20.027344 194.09375 21.15625 191.765625 21.210938 C 190.914062 20.007812 190.703125 18.664062 191.128906 17.183594 C 191.984375 13.890625 192.902344 10.636719 193.882812 7.425781 C 194.1875 7.601562 194.402344 7.882812 194.519531 8.273438 C 194.679688 6.796875 195.175781 5.453125 196 4.242188 C 195.808594 4.066406 195.667969 3.855469 195.578125 3.605469 C 196.175781 3.152344 196.597656 2.585938 196.847656 1.910156 Z M 196.847656 1.910156 "/>
</g>
<mask id="mask10">
  <g filter="url(#alpha)">
<rect x="0" y="0" width="367" height="28" style="fill:rgb(0%,0%,0%);fill-opacity:0.788235;stroke:none;"/>
  </g>
</mask>
<clipPath id="clip11">
  <rect x="0" y="0" width="367" height="28"/>
</clipPath>
<g id="surface35" clip-path="url(#clip11)">
<path style=" stroke:none;fill-rule:evenodd;fill:rgb(93.725491%,94.509804%,94.509804%);fill-opacity:1;" d="M 196.847656 1.910156 C 196.597656 2.585938 196.175781 3.152344 195.578125 3.605469 C 195.667969 3.855469 195.808594 4.066406 196 4.242188 C 195.175781 5.453125 194.679688 6.796875 194.519531 8.273438 C 194.402344 7.882812 194.1875 7.601562 193.882812 7.425781 C 194.050781 6.800781 194.191406 6.164062 194.304688 5.515625 C 193.992188 4.726562 193.566406 4.019531 193.035156 3.394531 C 194.097656 2.453125 195.367188 1.957031 196.847656 1.910156 Z M 196.847656 1.910156 "/>
</g>
<mask id="mask11">
  <g filter="url(#alpha)">
<rect x="0" y="0" width="367" height="28" style="fill:rgb(0%,0%,0%);fill-opacity:0.74902;stroke:none;"/>
  </g>
</mask>
<clipPath id="clip12">
  <rect x="0" y="0" width="367" height="28"/>
</clipPath>
<g id="surface38" clip-path="url(#clip12)">
<path style=" stroke:none;fill-rule:evenodd;fill:rgb(97.647059%,98.039216%,98.039216%);fill-opacity:1;" d="M 138.789062 5.726562 C 139.210938 5.691406 139.566406 5.832031 139.851562 6.152344 C 140.058594 6.988281 140.128906 7.835938 140.0625 8.695312 C 141.882812 8.984375 143.71875 8.84375 145.570312 8.273438 C 146.242188 8.488281 146.738281 8.914062 147.054688 9.546875 C 148.179688 8.460938 149.449219 8.175781 150.867188 8.695312 C 151.890625 10.328125 151.46875 11.460938 149.597656 12.089844 C 148.9375 11.394531 148.230469 11.25 147.476562 11.667969 C 145.761719 14.425781 144.492188 17.394531 143.664062 20.574219 C 142.394531 21.8125 141.476562 21.597656 140.910156 19.9375 C 141.683594 17.128906 142.386719 14.300781 143.027344 11.453125 C 142.941406 10.660156 142.515625 10.164062 141.757812 9.96875 C 140.894531 10.199219 140.046875 10.480469 139.214844 10.816406 C 138.363281 13.171875 137.867188 15.578125 137.730469 18.03125 C 139.261719 17.503906 139.546875 17.929688 138.578125 19.304688 C 137.613281 20.8125 136.269531 21.449219 134.550781 21.210938 C 134.214844 20.75 133.933594 20.257812 133.703125 19.726562 C 134.492188 16.992188 135.199219 14.234375 135.824219 11.453125 C 135.625 10.652344 135.203125 10.019531 134.550781 9.546875 C 136.238281 8.566406 137.648438 7.292969 138.789062 5.726562 Z M 138.789062 5.726562 "/>
</g>
<mask id="mask12">
  <g filter="url(#alpha)">
<rect x="0" y="0" width="367" height="28" style="fill:rgb(0%,0%,0%);fill-opacity:0.796078;stroke:none;"/>
  </g>
</mask>
<clipPath id="clip13">
  <rect x="0" y="0" width="367" height="28"/>
</clipPath>
<g id="surface41" clip-path="url(#clip13)">
<path style=" stroke:none;fill-rule:evenodd;fill:rgb(97.254902%,97.647059%,97.647059%);fill-opacity:1;" d="M 87.089844 5.726562 C 87.511719 5.691406 87.863281 5.832031 88.148438 6.152344 C 88.359375 6.988281 88.429688 7.835938 88.359375 8.695312 C 89.714844 8.558594 90.136719 9.054688 89.632812 10.183594 C 88.9375 10.390625 88.230469 10.460938 87.511719 10.394531 C 86.769531 12.761719 86.277344 15.167969 86.027344 17.605469 C 86.34375 17.121094 86.695312 17.121094 87.089844 17.605469 C 87.546875 17.972656 87.617188 18.398438 87.300781 18.878906 C 86.359375 20.246094 85.089844 21.09375 83.484375 21.425781 C 82.644531 21.089844 82.148438 20.453125 82.003906 19.515625 C 82.816406 16.855469 83.523438 14.167969 84.121094 11.453125 C 83.921875 10.652344 83.5 10.019531 82.851562 9.546875 C 84.453125 8.464844 85.867188 7.191406 87.089844 5.726562 Z M 87.089844 5.726562 "/>
</g>
<mask id="mask13">
  <g filter="url(#alpha)">
<rect x="0" y="0" width="367" height="28" style="fill:rgb(0%,0%,0%);fill-opacity:0.737255;stroke:none;"/>
  </g>
</mask>
<clipPath id="clip14">
  <rect x="0" y="0" width="367" height="28"/>
</clipPath>
<g id="surface44" clip-path="url(#clip14)">
<path style=" stroke:none;fill-rule:evenodd;fill:rgb(97.647059%,98.039216%,97.647059%);fill-opacity:1;" d="M 54.03125 12.515625 C 54.199219 13.226562 54.410156 13.933594 54.667969 14.636719 C 54.738281 14.140625 54.808594 13.644531 54.878906 13.152344 C 54.617188 12.234375 54.617188 11.386719 54.878906 10.605469 C 54.554688 10.089844 54.128906 9.664062 53.609375 9.332031 C 53.84375 9.171875 53.984375 8.957031 54.03125 8.695312 C 55.015625 8.085938 55.933594 8.226562 56.789062 9.121094 C 57.113281 11.867188 56.898438 14.554688 56.152344 17.183594 C 56.933594 17.0625 57.5 17.347656 57.847656 18.03125 C 57.089844 19.847656 55.75 20.976562 53.820312 21.425781 C 53.121094 21.289062 52.695312 20.863281 52.550781 20.152344 C 52.660156 17.496094 53.15625 14.953125 54.03125 12.515625 Z M 54.03125 12.515625 "/>
</g>
<mask id="mask14">
  <g filter="url(#alpha)">
<rect x="0" y="0" width="367" height="28" style="fill:rgb(0%,0%,0%);fill-opacity:0.603922;stroke:none;"/>
  </g>
</mask>
<clipPath id="clip15">
  <rect x="0" y="0" width="367" height="28"/>
</clipPath>
<g id="surface47" clip-path="url(#clip15)">
<path style=" stroke:none;fill-rule:evenodd;fill:rgb(98.431373%,98.431373%,98.431373%);fill-opacity:1;" d="M 329.496094 8.273438 C 330.53125 8.097656 331.097656 8.519531 331.191406 9.546875 C 330.675781 11.847656 330.039062 14.109375 329.28125 16.332031 C 329 17.183594 329 18.03125 329.28125 18.878906 C 329.84375 17.792969 330.621094 17.511719 331.613281 18.03125 C 330.585938 19.554688 329.246094 20.683594 327.585938 21.425781 C 326.332031 21.15625 325.699219 20.378906 325.679688 19.089844 C 326.253906 16.367188 326.960938 13.679688 327.800781 11.03125 C 327.371094 10.535156 326.949219 10.039062 326.527344 9.546875 C 327.425781 8.902344 328.414062 8.476562 329.496094 8.273438 Z M 329.496094 8.273438 "/>
</g>
<mask id="mask15">
  <g filter="url(#alpha)">
<rect x="0" y="0" width="367" height="28" style="fill:rgb(0%,0%,0%);fill-opacity:0.243137;stroke:none;"/>
  </g>
</mask>
<clipPath id="clip16">
  <rect x="0" y="0" width="367" height="28"/>
</clipPath>
<g id="surface50" clip-path="url(#clip16)">
<path style=" stroke:none;fill-rule:evenodd;fill:rgb(90.980393%,90.980393%,90.980393%);fill-opacity:1;" d="M 4.449219 7.425781 C 4.714844 7.601562 4.855469 7.882812 4.875 8.273438 C 4.367188 9.574219 3.664062 10.707031 2.753906 11.667969 C 2.851562 10.058594 3.417969 8.644531 4.449219 7.425781 Z M 4.449219 7.425781 "/>
</g>
<mask id="mask16">
  <g filter="url(#alpha)">
<rect x="0" y="0" width="367" height="28" style="fill:rgb(0%,0%,0%);fill-opacity:0.207843;stroke:none;"/>
  </g>
</mask>
<clipPath id="clip17">
  <rect x="0" y="0" width="367" height="28"/>
</clipPath>
<g id="surface53" clip-path="url(#clip17)">
<path style=" stroke:none;fill-rule:evenodd;fill:rgb(93.725491%,94.509804%,94.117647%);fill-opacity:1;" d="M 41.320312 8.695312 C 40.242188 9.617188 40.523438 10.039062 42.167969 9.96875 C 42.328125 11.269531 41.902344 11.695312 40.894531 11.242188 C 39.8125 11.152344 38.964844 11.71875 38.351562 12.9375 C 38.089844 12.890625 37.878906 12.75 37.71875 12.515625 C 37.769531 13.34375 37.34375 14.050781 36.445312 14.636719 C 36.164062 13.363281 36.164062 12.089844 36.445312 10.816406 C 36.863281 11.792969 37.214844 11.648438 37.503906 10.394531 C 37.128906 9.359375 36.425781 9.003906 35.386719 9.332031 C 35.667969 9.476562 35.953125 9.617188 36.234375 9.757812 C 35.113281 11.617188 34.476562 13.667969 34.328125 15.910156 C 33.886719 15.59375 33.675781 15.167969 33.691406 14.636719 C 33.839844 13.476562 34.121094 12.34375 34.539062 11.242188 C 34.113281 10.675781 33.691406 10.109375 33.265625 9.546875 C 33.410156 9.402344 33.550781 9.261719 33.691406 9.121094 C 34.90625 8.855469 36.109375 8.574219 37.292969 8.273438 C 37.765625 8.886719 38.050781 9.59375 38.140625 10.394531 C 39.066406 9.527344 40.125 8.960938 41.320312 8.695312 Z M 41.320312 8.695312 "/>
</g>
<mask id="mask17">
  <g filter="url(#alpha)">
<rect x="0" y="0" width="367" height="28" style="fill:rgb(0%,0%,0%);fill-opacity:0.827451;stroke:none;"/>
  </g>
</mask>
<clipPath id="clip18">
  <rect x="0" y="0" width="367" height="28"/>
</clipPath>
<g id="surface56" clip-path="url(#clip18)">
<path style=" stroke:none;fill-rule:evenodd;fill:rgb(97.254902%,97.254902%,97.254902%);fill-opacity:1;" d="M 40.894531 11.242188 C 41.902344 11.695312 42.328125 11.269531 42.167969 9.96875 C 40.523438 10.039062 40.242188 9.617188 41.320312 8.695312 C 43.949219 8.453125 44.867188 9.726562 44.074219 12.515625 C 43.605469 14.078125 43.113281 15.632812 42.589844 17.183594 C 42.660156 17.464844 42.730469 17.746094 42.800781 18.03125 C 43.4375 17.5 44.070312 17.5 44.710938 18.03125 C 43.765625 20.300781 42.140625 21.289062 39.835938 21 C 39.503906 20.480469 39.292969 19.914062 39.199219 19.304688 C 39.875 16.628906 40.441406 13.941406 40.894531 11.242188 Z M 40.894531 11.242188 "/>
</g>
<mask id="mask18">
  <g filter="url(#alpha)">
<rect x="0" y="0" width="367" height="28" style="fill:rgb(0%,0%,0%);fill-opacity:0.870588;stroke:none;"/>
  </g>
</mask>
<clipPath id="clip19">
  <rect x="0" y="0" width="367" height="28"/>
</clipPath>
<g id="surface59" clip-path="url(#clip19)">
<path style=" stroke:none;fill-rule:evenodd;fill:rgb(97.254902%,97.647059%,97.647059%);fill-opacity:1;" d="M 50.644531 9.121094 C 50.085938 10.511719 49.519531 11.925781 48.949219 13.363281 C 49.089844 13.644531 49.230469 13.929688 49.371094 14.210938 C 49.761719 13.945312 50.183594 13.804688 50.644531 13.789062 C 49.742188 15.855469 48.964844 17.976562 48.3125 20.152344 C 47.101562 21.347656 46.042969 21.277344 45.132812 19.9375 C 46.023438 17.058594 46.871094 14.160156 47.675781 11.242188 C 47.253906 10.675781 46.828125 10.109375 46.40625 9.546875 C 47.582031 8.898438 48.851562 8.472656 50.21875 8.273438 C 50.558594 8.464844 50.699219 8.75 50.644531 9.121094 Z M 50.644531 9.121094 "/>
</g>
<mask id="mask19">
  <g filter="url(#alpha)">
<rect x="0" y="0" width="367" height="28" style="fill:rgb(0%,0%,0%);fill-opacity:0.52549;stroke:none;"/>
  </g>
</mask>
<clipPath id="clip20">
  <rect x="0" y="0" width="367" height="28"/>
</clipPath>
<g id="surface62" clip-path="url(#clip20)">
<path style=" stroke:none;fill-rule:evenodd;fill:rgb(91.764706%,92.156863%,92.156863%);fill-opacity:1;" d="M 109.550781 8.273438 C 109.941406 8.890625 110.367188 9.246094 110.820312 9.332031 C 110.378906 9.832031 109.953125 10.328125 109.550781 10.816406 C 108.425781 9.996094 107.292969 10.136719 106.160156 11.242188 C 106.007812 10.527344 105.585938 10.101562 104.886719 9.96875 C 106.15625 8.746094 107.710938 8.179688 109.550781 8.273438 Z M 109.550781 8.273438 "/>
</g>
<mask id="mask20">
  <g filter="url(#alpha)">
<rect x="0" y="0" width="367" height="28" style="fill:rgb(0%,0%,0%);fill-opacity:0.72549;stroke:none;"/>
  </g>
</mask>
<clipPath id="clip21">
  <rect x="0" y="0" width="367" height="28"/>
</clipPath>
<g id="surface65" clip-path="url(#clip21)">
<path style=" stroke:none;fill-rule:evenodd;fill:rgb(97.647059%,98.039216%,98.039216%);fill-opacity:1;" d="M 155.316406 8.273438 C 156.429688 8.261719 156.996094 8.828125 157.011719 9.96875 C 155.921875 12.886719 155.144531 15.859375 154.683594 18.878906 C 157.617188 16.265625 159.59375 13.011719 160.617188 9.121094 C 161.464844 8.554688 162.3125 8.554688 163.15625 9.121094 C 162.738281 11.890625 162.101562 14.648438 161.25 17.394531 C 161.390625 17.605469 161.535156 17.816406 161.675781 18.03125 C 162.265625 17.542969 162.828125 17.542969 163.371094 18.03125 C 162.46875 20.242188 160.914062 21.230469 158.707031 21 C 158.101562 20.269531 157.746094 19.421875 157.648438 18.453125 C 156.550781 20.03125 155.066406 21.019531 153.199219 21.425781 C 152.25 21.183594 151.542969 20.617188 151.082031 19.726562 C 151.882812 16.816406 152.730469 13.917969 153.621094 11.03125 C 153.195312 10.535156 152.773438 10.039062 152.351562 9.546875 C 153.25 8.902344 154.238281 8.476562 155.316406 8.273438 Z M 155.316406 8.273438 "/>
</g>
<mask id="mask21">
  <g filter="url(#alpha)">
<rect x="0" y="0" width="367" height="28" style="fill:rgb(0%,0%,0%);fill-opacity:0.388235;stroke:none;"/>
  </g>
</mask>
<clipPath id="clip22">
  <rect x="0" y="0" width="367" height="28"/>
</clipPath>
<g id="surface68" clip-path="url(#clip22)">
<path style=" stroke:none;fill-rule:evenodd;fill:rgb(94.509804%,96.078432%,95.686275%);fill-opacity:1;" d="M 338.816406 10.394531 C 338.847656 9.773438 338.707031 9.210938 338.394531 8.695312 C 339.835938 8.066406 341.246094 8.136719 342.632812 8.910156 C 344.464844 10.609375 344.253906 11.953125 341.996094 12.9375 C 341.035156 12.339844 340.542969 11.492188 340.511719 10.394531 C 339.949219 10.394531 339.382812 10.394531 338.816406 10.394531 Z M 338.816406 10.394531 "/>
</g>
<mask id="mask22">
  <g filter="url(#alpha)">
<rect x="0" y="0" width="367" height="28" style="fill:rgb(0%,0%,0%);fill-opacity:0.101961;stroke:none;"/>
  </g>
</mask>
<clipPath id="clip23">
  <rect x="0" y="0" width="367" height="28"/>
</clipPath>
<g id="surface71" clip-path="url(#clip23)">
<path style=" stroke:none;fill-rule:evenodd;fill:rgb(92.941177%,94.509804%,94.509804%);fill-opacity:1;" d="M 353.652344 8.695312 C 353.113281 9.617188 353.113281 10.535156 353.652344 11.453125 C 353.25 11.660156 352.824219 11.730469 352.378906 11.667969 C 352.378906 11.242188 352.378906 10.816406 352.378906 10.394531 C 351.796875 10.328125 351.230469 10.398438 350.683594 10.605469 C 350.160156 11.3125 349.597656 11.949219 348.988281 12.515625 C 348.292969 11.765625 347.585938 11.339844 346.871094 11.242188 C 348.65625 8.960938 350.917969 8.113281 353.652344 8.695312 Z M 353.652344 8.695312 "/>
</g>
<mask id="mask23">
  <g filter="url(#alpha)">
<rect x="0" y="0" width="367" height="28" style="fill:rgb(0%,0%,0%);fill-opacity:0.764706;stroke:none;"/>
  </g>
</mask>
<clipPath id="clip24">
  <rect x="0" y="0" width="367" height="28"/>
</clipPath>
<g id="surface74" clip-path="url(#clip24)">
<path style=" stroke:none;fill-rule:evenodd;fill:rgb(92.941177%,93.725491%,93.333334%);fill-opacity:1;" d="M 29.03125 8.695312 C 28.824219 9.085938 28.683594 9.511719 28.605469 9.96875 C 29.363281 11.304688 29.574219 12.71875 29.242188 14.210938 C 29.101562 13.929688 28.957031 13.644531 28.816406 13.363281 C 28.699219 13.753906 28.488281 14.035156 28.183594 14.210938 C 28.25 12.929688 28.179688 11.660156 27.96875 10.394531 C 26.996094 9.9375 26.078125 10.078125 25.214844 10.816406 C 24.894531 10.441406 24.46875 10.15625 23.945312 9.96875 C 23.375 10.613281 22.738281 11.175781 22.035156 11.667969 C 21.710938 11.636719 21.5 11.496094 21.402344 11.242188 C 23.417969 8.828125 25.960938 7.980469 29.03125 8.695312 Z M 29.03125 8.695312 "/>
</g>
<mask id="mask24">
  <g filter="url(#alpha)">
<rect x="0" y="0" width="367" height="28" style="fill:rgb(0%,0%,0%);fill-opacity:0.807843;stroke:none;"/>
  </g>
</mask>
<clipPath id="clip25">
  <rect x="0" y="0" width="367" height="28"/>
</clipPath>
<g id="surface77" clip-path="url(#clip25)">
<path style=" stroke:none;fill-rule:evenodd;fill:rgb(98.039216%,98.431373%,98.431373%);fill-opacity:1;" d="M 38.351562 12.9375 C 36.84375 15.117188 35.78125 17.519531 35.175781 20.152344 C 33.945312 21.703125 33.027344 21.488281 32.417969 19.515625 C 32.757812 17.8125 33.179688 16.183594 33.691406 14.636719 C 33.675781 15.167969 33.886719 15.59375 34.328125 15.910156 C 34.476562 13.667969 35.113281 11.617188 36.234375 9.757812 C 35.953125 9.617188 35.667969 9.476562 35.386719 9.332031 C 36.425781 9.003906 37.128906 9.359375 37.503906 10.394531 C 37.214844 11.648438 36.863281 11.792969 36.445312 10.816406 C 36.164062 12.089844 36.164062 13.363281 36.445312 14.636719 C 37.34375 14.050781 37.769531 13.34375 37.71875 12.515625 C 37.878906 12.75 38.089844 12.890625 38.351562 12.9375 Z M 38.351562 12.9375 "/>
</g>
<mask id="mask25">
  <g filter="url(#alpha)">
<rect x="0" y="0" width="367" height="28" style="fill:rgb(0%,0%,0%);fill-opacity:0.717647;stroke:none;"/>
  </g>
</mask>
<clipPath id="clip26">
  <rect x="0" y="0" width="367" height="28"/>
</clipPath>
<g id="surface80" clip-path="url(#clip26)">
<path style=" stroke:none;fill-rule:evenodd;fill:rgb(89.803922%,92.156863%,91.37255%);fill-opacity:1;" d="M 265.078125 8.695312 C 264.53125 10.1875 264.175781 11.742188 264.019531 13.363281 C 263.902344 12.976562 263.691406 12.691406 263.382812 12.515625 C 263.578125 9.890625 262.589844 9.328125 260.417969 10.816406 C 260.1875 10.792969 260.046875 10.652344 259.992188 10.394531 C 261.042969 9.808594 261.042969 9.382812 259.992188 9.121094 C 260.535156 8.527344 261.242188 8.246094 262.113281 8.273438 C 263.09375 8.484375 264.085938 8.625 265.078125 8.695312 Z M 265.078125 8.695312 "/>
</g>
<mask id="mask26">
  <g filter="url(#alpha)">
<rect x="0" y="0" width="367" height="28" style="fill:rgb(0%,0%,0%);fill-opacity:0.564706;stroke:none;"/>
  </g>
</mask>
<clipPath id="clip27">
  <rect x="0" y="0" width="367" height="28"/>
</clipPath>
<g id="surface83" clip-path="url(#clip27)">
<path style=" stroke:none;fill-rule:evenodd;fill:rgb(91.764706%,92.941177%,92.941177%);fill-opacity:1;" d="M 269.316406 9.121094 C 270.738281 9.382812 271.234375 10.234375 270.800781 11.667969 C 270.660156 11.523438 270.515625 11.382812 270.375 11.242188 C 270.257812 11.632812 270.046875 11.914062 269.742188 12.089844 C 269.765625 11.007812 269.34375 10.160156 268.46875 9.546875 C 268.664062 9.207031 268.945312 9.066406 269.316406 9.121094 Z M 269.316406 9.121094 "/>
</g>
<mask id="mask27">
  <g filter="url(#alpha)">
<rect x="0" y="0" width="367" height="28" style="fill:rgb(0%,0%,0%);fill-opacity:0.815686;stroke:none;"/>
  </g>
</mask>
<clipPath id="clip28">
  <rect x="0" y="0" width="367" height="28"/>
</clipPath>
<g id="surface86" clip-path="url(#clip28)">
<path style=" stroke:none;fill-rule:evenodd;fill:rgb(96.862745%,97.647059%,97.254902%);fill-opacity:1;" d="M 287.117188 21 C 286.738281 20.675781 286.457031 20.253906 286.269531 19.726562 C 285.917969 19.351562 285.496094 19.210938 284.996094 19.304688 C 284.605469 16.5625 283.96875 13.875 283.089844 11.242188 C 282.59375 10.652344 281.957031 10.296875 281.183594 10.183594 C 280.78125 9.878906 280.710938 9.523438 280.972656 9.121094 C 282.015625 8.816406 283.074219 8.535156 284.148438 8.273438 C 284.679688 8.5 285.171875 8.785156 285.632812 9.121094 C 286.277344 11.570312 287.054688 13.976562 287.964844 16.332031 C 288.828125 15.011719 289.535156 13.597656 290.082031 12.089844 C 288.332031 10.640625 288.402344 9.367188 290.292969 8.273438 C 291.515625 8.652344 292.148438 9.5 292.203125 10.816406 C 291.171875 14.574219 289.476562 17.96875 287.117188 21 Z M 287.117188 21 "/>
</g>
<mask id="mask28">
  <g filter="url(#alpha)">
<rect x="0" y="0" width="367" height="28" style="fill:rgb(0%,0%,0%);fill-opacity:0.415686;stroke:none;"/>
  </g>
</mask>
<clipPath id="clip29">
  <rect x="0" y="0" width="367" height="28"/>
</clipPath>
<g id="surface89" clip-path="url(#clip29)">
<path style=" stroke:none;fill-rule:evenodd;fill:rgb(94.509804%,95.686275%,95.294118%);fill-opacity:1;" d="M 214.648438 11.242188 C 214.242188 11.433594 213.890625 11.71875 213.589844 12.089844 C 213.503906 11.347656 213.292969 10.640625 212.953125 9.96875 C 212.753906 11.121094 212.328125 12.113281 211.683594 12.9375 C 211.085938 10.265625 212.214844 8.710938 215.070312 8.273438 C 216.074219 8.773438 217.0625 8.773438 218.039062 8.273438 C 218.453125 8.476562 218.804688 8.757812 219.097656 9.121094 C 219.09375 10.339844 218.882812 11.542969 218.460938 12.726562 C 217.484375 12.84375 216.988281 12.347656 216.980469 11.242188 C 215.914062 9.835938 215.136719 9.835938 214.648438 11.242188 Z M 214.648438 11.242188 "/>
</g>
<mask id="mask29">
  <g filter="url(#alpha)">
<rect x="0" y="0" width="367" height="28" style="fill:rgb(0%,0%,0%);fill-opacity:0.843137;stroke:none;"/>
  </g>
</mask>
<clipPath id="clip30">
  <rect x="0" y="0" width="367" height="28"/>
</clipPath>
<g id="surface92" clip-path="url(#clip30)">
<path style=" stroke:none;fill-rule:evenodd;fill:rgb(98.039216%,98.431373%,98.431373%);fill-opacity:1;" d="M 214.648438 11.242188 C 215.203125 12.632812 215.980469 13.90625 216.980469 15.0625 C 218.109375 18.03125 217.191406 20.082031 214.222656 21.210938 C 212.523438 21.363281 210.828125 21.292969 209.140625 21 C 209.179688 19.457031 209.460938 17.972656 209.988281 16.546875 C 210.390625 16.285156 210.742188 16.355469 211.046875 16.757812 C 211.175781 17.769531 211.527344 18.691406 212.105469 19.515625 C 213.398438 19.96875 214.246094 19.546875 214.648438 18.242188 C 213.710938 16.4375 212.722656 14.667969 211.683594 12.9375 C 212.328125 12.113281 212.753906 11.121094 212.953125 9.96875 C 213.292969 10.640625 213.503906 11.347656 213.589844 12.089844 C 213.890625 11.71875 214.242188 11.433594 214.648438 11.242188 Z M 214.648438 11.242188 "/>
</g>
<mask id="mask30">
  <g filter="url(#alpha)">
<rect x="0" y="0" width="367" height="28" style="fill:rgb(0%,0%,0%);fill-opacity:0.784314;stroke:none;"/>
  </g>
</mask>
<clipPath id="clip31">
  <rect x="0" y="0" width="367" height="28"/>
</clipPath>
<g id="surface95" clip-path="url(#clip31)">
<path style=" stroke:none;fill-rule:evenodd;fill:rgb(97.254902%,97.647059%,97.647059%);fill-opacity:1;" d="M 269.742188 12.089844 C 270.046875 11.914062 270.257812 11.632812 270.375 11.242188 C 270.515625 11.382812 270.660156 11.523438 270.800781 11.667969 C 271.234375 10.234375 270.738281 9.382812 269.316406 9.121094 C 270.332031 8.820312 271.390625 8.539062 272.496094 8.273438 C 273.152344 9.015625 273.503906 9.722656 273.554688 10.394531 C 274.726562 9.503906 275.996094 8.796875 277.367188 8.273438 C 278.902344 8.328125 279.609375 9.105469 279.488281 10.605469 C 279.171875 13.074219 278.605469 15.480469 277.792969 17.816406 C 277.933594 18.03125 278.074219 18.242188 278.214844 18.453125 C 278.769531 17.441406 279.195312 17.441406 279.488281 18.453125 C 279.164062 19.839844 278.316406 20.761719 276.945312 21.210938 C 276.152344 21.515625 275.519531 21.300781 275.039062 20.574219 C 274.859375 17.503906 275.351562 14.535156 276.519531 11.667969 C 276.378906 11.382812 276.238281 11.101562 276.097656 10.816406 C 272.972656 13.339844 271.066406 16.59375 270.375 20.574219 C 269.511719 20.96875 268.59375 21.109375 267.621094 21 C 267.957031 17.933594 268.660156 14.960938 269.742188 12.089844 Z M 269.742188 12.089844 "/>
</g>
<mask id="mask31">
  <g filter="url(#alpha)">
<rect x="0" y="0" width="367" height="28" style="fill:rgb(0%,0%,0%);fill-opacity:0.529412;stroke:none;"/>
  </g>
</mask>
<clipPath id="clip32">
  <rect x="0" y="0" width="367" height="28"/>
</clipPath>
<g id="surface98" clip-path="url(#clip32)">
<path style=" stroke:none;fill-rule:evenodd;fill:rgb(97.254902%,97.647059%,97.647059%);fill-opacity:1;" d="M 318.898438 8.273438 C 322.363281 7.917969 324.339844 9.472656 324.832031 12.9375 C 323.738281 16.652344 321.476562 19.410156 318.050781 21.210938 C 313.261719 21.601562 311.355469 19.410156 312.332031 14.636719 C 313.511719 11.402344 315.699219 9.28125 318.898438 8.273438 Z M 318.898438 9.96875 C 321.296875 10.125 322.074219 11.398438 321.230469 13.789062 C 320.613281 16.09375 319.410156 18 317.628906 19.515625 C 317.0625 19.796875 316.5 19.796875 315.933594 19.515625 C 314.917969 15.6875 315.90625 12.507812 318.898438 9.96875 Z M 318.898438 9.96875 "/>
</g>
<mask id="mask32">
  <g filter="url(#alpha)">
<rect x="0" y="0" width="367" height="28" style="fill:rgb(0%,0%,0%);fill-opacity:0.788235;stroke:none;"/>
  </g>
</mask>
<clipPath id="clip33">
  <rect x="0" y="0" width="367" height="28"/>
</clipPath>
<g id="surface101" clip-path="url(#clip33)">
<path style=" stroke:none;fill-rule:evenodd;fill:rgb(96.862745%,98.039216%,97.647059%);fill-opacity:1;" d="M 355.347656 19.726562 C 355.621094 19.855469 355.902344 19.996094 356.195312 20.152344 C 356.394531 19.023438 356.960938 18.175781 357.886719 17.605469 C 357.824219 18.816406 358.390625 19.523438 359.582031 19.726562 C 360.351562 19.535156 360.777344 19.039062 360.855469 18.242188 C 359.640625 16.230469 358.648438 14.109375 357.886719 11.878906 C 358.019531 9.691406 359.148438 8.492188 361.277344 8.273438 C 362.636719 8.539062 363.976562 8.820312 365.304688 9.121094 C 365.742188 10.472656 365.460938 11.601562 364.457031 12.515625 C 363.78125 11.453125 362.863281 10.605469 361.703125 9.96875 C 361.1875 10.132812 360.902344 10.488281 360.855469 11.03125 C 361.929688 12.546875 362.847656 14.171875 363.609375 15.910156 C 364.316406 19.234375 362.976562 21.070312 359.582031 21.425781 C 358.484375 21.148438 357.421875 21.148438 356.40625 21.425781 C 355.730469 21.0625 355.375 20.496094 355.347656 19.726562 Z M 355.347656 19.726562 "/>
</g>
<mask id="mask33">
  <g filter="url(#alpha)">
<rect x="0" y="0" width="367" height="28" style="fill:rgb(0%,0%,0%);fill-opacity:0.564706;stroke:none;"/>
  </g>
</mask>
<clipPath id="clip34">
  <rect x="0" y="0" width="367" height="28"/>
</clipPath>
<g id="surface104" clip-path="url(#clip34)">
<path style=" stroke:none;fill-rule:evenodd;fill:rgb(91.37255%,93.333334%,92.941177%);fill-opacity:1;" d="M 98.53125 8.695312 C 98.214844 9.933594 98.003906 11.207031 97.894531 12.515625 C 97.777344 12.125 97.566406 11.84375 97.257812 11.667969 C 97.257812 11.242188 97.257812 10.816406 97.257812 10.394531 C 96.261719 10.289062 95.414062 10.570312 94.714844 11.242188 C 94.808594 10.742188 94.667969 10.320312 94.292969 9.96875 C 93.128906 11.277344 91.859375 12.410156 90.480469 13.363281 C 92.066406 9.773438 94.75 8.21875 98.53125 8.695312 Z M 98.53125 8.695312 "/>
</g>
<mask id="mask34">
  <g filter="url(#alpha)">
<rect x="0" y="0" width="367" height="28" style="fill:rgb(0%,0%,0%);fill-opacity:0.815686;stroke:none;"/>
  </g>
</mask>
<clipPath id="clip35">
  <rect x="0" y="0" width="367" height="28"/>
</clipPath>
<g id="surface107" clip-path="url(#clip35)">
<path style=" stroke:none;fill-rule:evenodd;fill:rgb(97.254902%,97.647059%,97.647059%);fill-opacity:1;" d="M 29.03125 8.695312 C 30.128906 9.015625 30.90625 9.722656 31.359375 10.816406 C 31.71875 17.53125 28.539062 20.996094 21.824219 21.210938 C 18.847656 19.195312 18.210938 16.578125 19.917969 13.363281 C 20.214844 12.480469 20.707031 11.773438 21.402344 11.242188 C 21.5 11.496094 21.710938 11.636719 22.035156 11.667969 C 22.738281 11.175781 23.375 10.613281 23.945312 9.96875 C 24.46875 10.15625 24.894531 10.441406 25.214844 10.816406 C 22.804688 13.230469 22.027344 16.058594 22.882812 19.304688 C 23.820312 19.832031 24.738281 19.761719 25.640625 19.089844 C 26.769531 17.609375 27.617188 15.984375 28.183594 14.210938 C 28.488281 14.035156 28.699219 13.753906 28.816406 13.363281 C 28.957031 13.644531 29.101562 13.929688 29.242188 14.210938 C 29.574219 12.71875 29.363281 11.304688 28.605469 9.96875 C 28.683594 9.511719 28.824219 9.085938 29.03125 8.695312 Z M 28.183594 14.210938 C 27.617188 15.984375 26.769531 17.609375 25.640625 19.089844 C 24.738281 19.761719 23.820312 19.832031 22.882812 19.304688 C 22.027344 16.058594 22.804688 13.230469 25.214844 10.816406 C 26.078125 10.078125 26.996094 9.9375 27.96875 10.394531 C 28.179688 11.660156 28.25 12.929688 28.183594 14.210938 Z M 28.183594 14.210938 "/>
</g>
<mask id="mask35">
  <g filter="url(#alpha)">
<rect x="0" y="0" width="367" height="28" style="fill:rgb(0%,0%,0%);fill-opacity:0.2;stroke:none;"/>
  </g>
</mask>
<clipPath id="clip36">
  <rect x="0" y="0" width="367" height="28"/>
</clipPath>
<g id="surface110" clip-path="url(#clip36)">
<path style=" stroke:none;fill-rule:evenodd;fill:rgb(94.117647%,94.901961%,94.509804%);fill-opacity:1;" d="M 54.03125 8.695312 C 53.984375 8.957031 53.84375 9.171875 53.609375 9.332031 C 54.128906 9.664062 54.554688 10.089844 54.878906 10.605469 C 54.617188 11.386719 54.617188 12.234375 54.878906 13.152344 C 54.808594 13.644531 54.738281 14.140625 54.667969 14.636719 C 54.410156 13.933594 54.199219 13.226562 54.03125 12.515625 C 54.097656 11.933594 54.027344 11.367188 53.820312 10.816406 C 52.539062 11.609375 51.480469 12.597656 50.644531 13.789062 C 50.183594 13.804688 49.761719 13.945312 49.371094 14.210938 C 49.230469 13.929688 49.089844 13.644531 48.949219 13.363281 C 49.519531 11.925781 50.085938 10.511719 50.644531 9.121094 C 50.96875 9.445312 51.179688 9.867188 51.277344 10.394531 C 52.15625 9.722656 53.074219 9.15625 54.03125 8.695312 Z M 54.03125 8.695312 "/>
</g>
<mask id="mask36">
  <g filter="url(#alpha)">
<rect x="0" y="0" width="367" height="28" style="fill:rgb(0%,0%,0%);fill-opacity:0.898039;stroke:none;"/>
  </g>
</mask>
<clipPath id="clip37">
  <rect x="0" y="0" width="367" height="28"/>
</clipPath>
<g id="surface113" clip-path="url(#clip37)">
<path style=" stroke:none;fill-rule:evenodd;fill:rgb(98.039216%,98.431373%,98.039216%);fill-opacity:1;" d="M 64.203125 11.242188 C 63.878906 12.035156 63.457031 12.742188 62.933594 13.363281 C 62.855469 12.335938 62.570312 12.335938 62.085938 13.363281 C 61.394531 15.007812 60.972656 16.703125 60.8125 18.453125 C 61.238281 18.453125 61.660156 18.453125 62.085938 18.453125 C 62.367188 18.453125 62.507812 18.597656 62.507812 18.878906 C 62.195312 18.824219 61.914062 18.894531 61.660156 19.089844 C 62.085938 19.230469 62.507812 19.375 62.933594 19.515625 C 62.320312 19.988281 61.613281 20.273438 60.8125 20.363281 C 62.21875 20.574219 63.632812 20.644531 65.050781 20.574219 C 61.226562 22.265625 59.109375 20.992188 58.695312 16.757812 C 58.546875 15.238281 58.972656 13.964844 59.964844 12.9375 C 59.992188 13.167969 60.132812 13.3125 60.390625 13.363281 C 61.519531 12.230469 62.648438 11.101562 63.78125 9.96875 C 64.15625 10.320312 64.296875 10.742188 64.203125 11.242188 Z M 64.203125 11.242188 "/>
</g>
<mask id="mask37">
  <g filter="url(#alpha)">
<rect x="0" y="0" width="367" height="28" style="fill:rgb(0%,0%,0%);fill-opacity:0.34902;stroke:none;"/>
  </g>
</mask>
<clipPath id="clip38">
  <rect x="0" y="0" width="367" height="28"/>
</clipPath>
<g id="surface116" clip-path="url(#clip38)">
<path style=" stroke:none;fill-rule:evenodd;fill:rgb(92.156863%,93.333334%,92.941177%);fill-opacity:1;" d="M 74.375 12.515625 C 74.484375 11.886719 74.34375 11.324219 73.949219 10.816406 C 73.386719 11.382812 72.820312 11.949219 72.253906 12.515625 C 72 12.460938 71.855469 12.320312 71.832031 12.089844 C 73.839844 8.832031 76.664062 7.769531 80.308594 8.910156 C 82.109375 10.542969 81.894531 11.886719 79.671875 12.9375 C 78.613281 12.238281 77.976562 11.246094 77.765625 9.96875 C 76.253906 10.355469 75.125 11.203125 74.375 12.515625 Z M 74.375 12.515625 "/>
</g>
<mask id="mask38">
  <g filter="url(#alpha)">
<rect x="0" y="0" width="367" height="28" style="fill:rgb(0%,0%,0%);fill-opacity:0.882353;stroke:none;"/>
  </g>
</mask>
<clipPath id="clip39">
  <rect x="0" y="0" width="367" height="28"/>
</clipPath>
<g id="surface119" clip-path="url(#clip39)">
<path style=" stroke:none;fill-rule:evenodd;fill:rgb(96.470588%,97.254902%,97.254902%);fill-opacity:1;" d="M 98.53125 8.695312 C 100.121094 9.261719 100.617188 10.390625 100.015625 12.089844 C 98.15625 14.222656 95.828125 15.566406 93.019531 16.121094 C 92.238281 17.726562 92.734375 18.648438 94.503906 18.878906 C 95.8125 18.707031 96.941406 18.140625 97.894531 17.183594 C 98.285156 17.414062 98.640625 17.695312 98.953125 18.03125 C 96.683594 21.125 93.859375 21.902344 90.480469 20.363281 C 88.800781 18.011719 88.800781 15.679688 90.480469 13.363281 C 91.859375 12.410156 93.128906 11.277344 94.292969 9.96875 C 94.667969 10.320312 94.808594 10.742188 94.714844 11.242188 C 94.351562 12.042969 93.929688 12.820312 93.445312 13.574219 C 93.726562 13.644531 94.011719 13.71875 94.292969 13.789062 C 95.398438 13.25 96.386719 12.542969 97.257812 11.667969 C 97.566406 11.84375 97.777344 12.125 97.894531 12.515625 C 98.003906 11.207031 98.214844 9.933594 98.53125 8.695312 Z M 97.257812 11.667969 C 96.386719 12.542969 95.398438 13.25 94.292969 13.789062 C 94.011719 13.71875 93.726562 13.644531 93.445312 13.574219 C 93.929688 12.820312 94.351562 12.042969 94.714844 11.242188 C 95.414062 10.570312 96.261719 10.289062 97.257812 10.394531 C 97.257812 10.816406 97.257812 11.242188 97.257812 11.667969 Z M 97.257812 11.667969 "/>
</g>
<mask id="mask39">
  <g filter="url(#alpha)">
<rect x="0" y="0" width="367" height="28" style="fill:rgb(0%,0%,0%);fill-opacity:0.756863;stroke:none;"/>
  </g>
</mask>
<clipPath id="clip40">
  <rect x="0" y="0" width="367" height="28"/>
</clipPath>
<g id="surface122" clip-path="url(#clip40)">
<path style=" stroke:none;fill-rule:evenodd;fill:rgb(97.254902%,98.039216%,97.647059%);fill-opacity:1;" d="M 259.992188 9.121094 C 261.042969 9.382812 261.042969 9.808594 259.992188 10.394531 C 260.046875 10.652344 260.1875 10.792969 260.417969 10.816406 C 258.339844 12.988281 257.492188 15.535156 257.875 18.453125 C 258.394531 18.925781 258.957031 18.996094 259.570312 18.667969 C 261.449219 16.949219 262.71875 14.898438 263.382812 12.515625 C 263.691406 12.691406 263.902344 12.976562 264.019531 13.363281 C 264.175781 11.742188 264.53125 10.1875 265.078125 8.695312 C 266.035156 8.109375 266.742188 8.390625 267.199219 9.546875 C 266.230469 12.1875 265.382812 14.875 264.65625 17.605469 C 265.460938 17.917969 266.308594 17.917969 267.199219 17.605469 C 266.644531 19.644531 265.304688 20.914062 263.171875 21.425781 C 262.339844 21.089844 261.707031 20.523438 261.265625 19.726562 C 257.804688 22.488281 255.402344 21.78125 254.0625 17.605469 C 254.476562 14.433594 255.890625 11.816406 258.296875 9.757812 C 258.824219 9.421875 259.390625 9.210938 259.992188 9.121094 Z M 263.382812 12.515625 C 262.71875 14.898438 261.449219 16.949219 259.570312 18.667969 C 258.957031 18.996094 258.394531 18.925781 257.875 18.453125 C 257.492188 15.535156 258.339844 12.988281 260.417969 10.816406 C 262.589844 9.328125 263.578125 9.890625 263.382812 12.515625 Z M 263.382812 12.515625 "/>
</g>
<mask id="mask40">
  <g filter="url(#alpha)">
<rect x="0" y="0" width="367" height="28" style="fill:rgb(0%,0%,0%);fill-opacity:0.713725;stroke:none;"/>
  </g>
</mask>
<clipPath id="clip41">
  <rect x="0" y="0" width="367" height="28"/>
</clipPath>
<g id="surface125" clip-path="url(#clip41)">
<path style=" stroke:none;fill-rule:evenodd;fill:rgb(98.039216%,98.431373%,98.039216%);fill-opacity:1;" d="M 338.394531 8.695312 C 338.707031 9.210938 338.847656 9.773438 338.816406 10.394531 C 336.355469 12.519531 335.4375 15.207031 336.0625 18.453125 C 336.410156 19.015625 336.902344 19.296875 337.546875 19.304688 C 336.992188 19.613281 336.425781 19.96875 335.851562 20.363281 C 336.277344 20.503906 336.699219 20.644531 337.121094 20.789062 C 336.734375 20.90625 336.453125 21.117188 336.277344 21.425781 C 333.105469 20.449219 331.902344 18.328125 332.671875 15.0625 C 333.421875 11.84375 335.328125 9.722656 338.394531 8.695312 Z M 338.394531 8.695312 "/>
</g>
<mask id="mask41">
  <g filter="url(#alpha)">
<rect x="0" y="0" width="367" height="28" style="fill:rgb(0%,0%,0%);fill-opacity:0.898039;stroke:none;"/>
  </g>
</mask>
<clipPath id="clip42">
  <rect x="0" y="0" width="367" height="28"/>
</clipPath>
<g id="surface128" clip-path="url(#clip42)">
<path style=" stroke:none;fill-rule:evenodd;fill:rgb(94.117647%,95.294118%,95.294118%);fill-opacity:1;" d="M 62.085938 18.453125 C 61.660156 18.453125 61.238281 18.453125 60.8125 18.453125 C 60.972656 16.703125 61.394531 15.007812 62.085938 13.363281 C 62.570312 12.335938 62.855469 12.335938 62.933594 13.363281 C 63.398438 13.828125 63.964844 13.898438 64.628906 13.574219 C 65.789062 12.777344 66.496094 11.714844 66.746094 10.394531 C 65.746094 10.289062 64.898438 10.570312 64.203125 11.242188 C 64.296875 10.742188 64.15625 10.320312 63.78125 9.96875 C 62.648438 11.101562 61.519531 12.230469 60.390625 13.363281 C 60.132812 13.3125 59.992188 13.167969 59.964844 12.9375 C 61.519531 10.398438 63.78125 8.84375 66.746094 8.273438 C 69.085938 8.558594 70.003906 9.832031 69.5 12.089844 C 67.566406 14.152344 65.238281 15.496094 62.507812 16.121094 C 62.125 16.84375 61.984375 17.621094 62.085938 18.453125 Z M 62.933594 13.363281 C 63.457031 12.742188 63.878906 12.035156 64.203125 11.242188 C 64.898438 10.570312 65.746094 10.289062 66.746094 10.394531 C 66.496094 11.714844 65.789062 12.777344 64.628906 13.574219 C 63.964844 13.898438 63.398438 13.828125 62.933594 13.363281 Z M 62.933594 13.363281 "/>
</g>
<mask id="mask42">
  <g filter="url(#alpha)">
<rect x="0" y="0" width="367" height="28" style="fill:rgb(0%,0%,0%);fill-opacity:0.819608;stroke:none;"/>
  </g>
</mask>
<clipPath id="clip43">
  <rect x="0" y="0" width="367" height="28"/>
</clipPath>
<g id="surface131" clip-path="url(#clip43)">
<path style=" stroke:none;fill-rule:evenodd;fill:rgb(96.862745%,97.647059%,97.254902%);fill-opacity:1;" d="M 74.375 12.515625 C 73.761719 14.484375 73.621094 16.464844 73.949219 18.453125 C 74.347656 18.902344 74.84375 19.183594 75.433594 19.304688 C 76.542969 19.003906 77.605469 18.578125 78.613281 18.03125 C 78.941406 19.359375 78.375 20.277344 76.917969 20.789062 C 72.945312 22.191406 70.683594 20.777344 70.136719 16.546875 C 70.160156 14.796875 70.726562 13.3125 71.832031 12.089844 C 71.855469 12.320312 72 12.460938 72.253906 12.515625 C 72.820312 11.949219 73.386719 11.382812 73.949219 10.816406 C 74.34375 11.324219 74.484375 11.886719 74.375 12.515625 Z M 74.375 12.515625 "/>
</g>
<mask id="mask43">
  <g filter="url(#alpha)">
<rect x="0" y="0" width="367" height="28" style="fill:rgb(0%,0%,0%);fill-opacity:0.756863;stroke:none;"/>
  </g>
</mask>
<clipPath id="clip44">
  <rect x="0" y="0" width="367" height="28"/>
</clipPath>
<g id="surface134" clip-path="url(#clip44)">
<path style=" stroke:none;fill-rule:evenodd;fill:rgb(94.901961%,96.470588%,96.078432%);fill-opacity:1;" d="M 202.78125 15.484375 C 201.789062 15.183594 201.648438 14.617188 202.359375 13.789062 C 204.277344 13.53125 205.546875 12.472656 206.171875 10.605469 C 205.179688 10.289062 204.332031 10.5 203.628906 11.242188 C 203.207031 11.207031 202.855469 11.347656 202.570312 11.667969 C 202.429688 11.382812 202.289062 11.101562 202.148438 10.816406 C 201.480469 11.289062 200.917969 11.855469 200.453125 12.515625 C 200.253906 12.261719 200.183594 11.980469 200.238281 11.667969 C 202.425781 8.449219 205.179688 7.742188 208.503906 9.546875 C 208.824219 10.734375 208.683594 11.867188 208.078125 12.9375 C 206.609375 14.417969 204.84375 15.265625 202.78125 15.484375 Z M 202.78125 15.484375 "/>
</g>
<mask id="mask44">
  <g filter="url(#alpha)">
<rect x="0" y="0" width="367" height="28" style="fill:rgb(0%,0%,0%);fill-opacity:0.6;stroke:none;"/>
  </g>
</mask>
<clipPath id="clip45">
  <rect x="0" y="0" width="367" height="28"/>
</clipPath>
<g id="surface137" clip-path="url(#clip45)">
<path style=" stroke:none;fill-rule:evenodd;fill:rgb(96.470588%,97.647059%,97.254902%);fill-opacity:1;" d="M 353.652344 8.695312 C 355.402344 9.503906 355.753906 10.777344 354.710938 12.515625 C 352.953125 14.703125 350.691406 15.976562 347.929688 16.332031 C 347.613281 17.15625 347.683594 17.933594 348.140625 18.667969 C 349.128906 18.949219 350.121094 18.949219 351.109375 18.667969 C 351.847656 17.792969 352.695312 17.578125 353.652344 18.03125 C 352.097656 20.574219 349.835938 21.636719 346.871094 21.210938 C 344.492188 19.820312 343.714844 17.769531 344.539062 15.0625 C 344.910156 13.5 345.6875 12.226562 346.871094 11.242188 C 347.585938 11.339844 348.292969 11.765625 348.988281 12.515625 C 348.894531 13.011719 349.039062 13.4375 349.414062 13.789062 C 350.527344 13.234375 351.515625 12.527344 352.378906 11.667969 C 352.824219 11.730469 353.25 11.660156 353.652344 11.453125 C 353.113281 10.535156 353.113281 9.617188 353.652344 8.695312 Z M 353.652344 8.695312 "/>
</g>
<mask id="mask45">
  <g filter="url(#alpha)">
<rect x="0" y="0" width="367" height="28" style="fill:rgb(0%,0%,0%);fill-opacity:0.839216;stroke:none;"/>
  </g>
</mask>
<clipPath id="clip46">
  <rect x="0" y="0" width="367" height="28"/>
</clipPath>
<g id="surface140" clip-path="url(#clip46)">
<path style=" stroke:none;fill-rule:evenodd;fill:rgb(97.647059%,98.431373%,98.039216%);fill-opacity:1;" d="M 203.628906 11.242188 C 202.984375 11.96875 202.558594 12.820312 202.359375 13.789062 C 201.648438 14.617188 201.789062 15.183594 202.78125 15.484375 C 201.15625 15.894531 200.730469 16.886719 201.511719 18.453125 C 201.859375 18.832031 202.285156 18.972656 202.78125 18.878906 C 202.15625 19.6875 201.308594 20.183594 200.238281 20.363281 C 201.503906 20.574219 202.773438 20.644531 204.054688 20.574219 C 199.257812 22.074219 197.210938 20.238281 197.910156 15.0625 C 198.382812 13.679688 199.160156 12.546875 200.238281 11.667969 C 200.183594 11.980469 200.253906 12.261719 200.453125 12.515625 C 200.917969 11.855469 201.480469 11.289062 202.148438 10.816406 C 202.289062 11.101562 202.429688 11.382812 202.570312 11.667969 C 202.855469 11.347656 203.207031 11.207031 203.628906 11.242188 Z M 203.628906 11.242188 "/>
</g>
<mask id="mask46">
  <g filter="url(#alpha)">
<rect x="0" y="0" width="367" height="28" style="fill:rgb(0%,0%,0%);fill-opacity:0.65098;stroke:none;"/>
  </g>
</mask>
<clipPath id="clip47">
  <rect x="0" y="0" width="367" height="28"/>
</clipPath>
<g id="surface143" clip-path="url(#clip47)">
<path style=" stroke:none;fill-rule:evenodd;fill:rgb(97.647059%,98.431373%,98.039216%);fill-opacity:1;" d="M 170.152344 8.273438 C 172.761719 8.144531 175.023438 8.921875 176.929688 10.605469 C 175.988281 12.289062 175 13.984375 173.964844 15.695312 C 172.460938 16.457031 170.90625 17.09375 169.304688 17.605469 C 171.964844 18.085938 173.800781 19.570312 174.8125 22.0625 C 174.199219 24.515625 172.644531 25.929688 170.152344 26.304688 C 167.875 26.894531 165.894531 26.398438 164.21875 24.816406 C 163.355469 22.644531 163.921875 20.945312 165.914062 19.726562 C 166.230469 18.554688 166.65625 17.421875 167.183594 16.332031 C 165.070312 12.5 166.058594 9.8125 170.152344 8.273438 Z M 171 9.96875 C 171.882812 9.949219 172.449219 10.371094 172.695312 11.242188 C 172.390625 12.589844 171.898438 13.859375 171.210938 15.0625 C 169.890625 15.707031 169.113281 15.28125 168.878906 13.789062 C 169.199219 12.230469 169.90625 10.957031 171 9.96875 Z M 167.183594 20.574219 C 168.738281 20.503906 170.152344 20.929688 171.421875 21.847656 C 172.03125 23.007812 171.75 23.925781 170.574219 24.605469 C 166.660156 25.433594 165.53125 24.089844 167.183594 20.574219 Z M 167.183594 20.574219 "/>
</g>
<mask id="mask47">
  <g filter="url(#alpha)">
<rect x="0" y="0" width="367" height="28" style="fill:rgb(0%,0%,0%);fill-opacity:0.67451;stroke:none;"/>
  </g>
</mask>
<clipPath id="clip48">
  <rect x="0" y="0" width="367" height="28"/>
</clipPath>
<g id="surface146" clip-path="url(#clip48)">
<path style=" stroke:none;fill-rule:evenodd;fill:rgb(98.039216%,98.431373%,98.039216%);fill-opacity:1;" d="M 183.710938 8.273438 C 186.058594 8.390625 188.179688 9.097656 190.070312 10.394531 C 189.117188 11.867188 188.269531 13.425781 187.527344 15.0625 C 186.089844 16.367188 184.394531 17.144531 182.441406 17.394531 C 184.171875 18.296875 185.796875 19.355469 187.3125 20.574219 C 188.046875 23.667969 186.847656 25.574219 183.710938 26.304688 C 181.109375 26.976562 178.917969 26.339844 177.144531 24.394531 C 177.074219 23.96875 177.003906 23.546875 176.929688 23.121094 C 178.25 20.953125 179.378906 18.691406 180.320312 16.332031 C 178.046875 12.257812 179.175781 9.574219 183.710938 8.273438 Z M 184.136719 9.96875 C 185.128906 9.972656 185.695312 10.46875 185.832031 11.453125 C 185.582031 13.304688 184.664062 14.648438 183.078125 15.484375 C 182.464844 15.183594 182.113281 14.6875 182.015625 14 C 182.132812 12.285156 182.839844 10.941406 184.136719 9.96875 Z M 180.320312 20.574219 C 182.359375 20.464844 183.910156 21.242188 184.984375 22.910156 C 184.867188 23.710938 184.441406 24.277344 183.710938 24.605469 C 182.582031 24.890625 181.453125 24.890625 180.320312 24.605469 C 178.746094 23.304688 178.746094 21.964844 180.320312 20.574219 Z M 180.320312 20.574219 "/>
</g>
<mask id="mask48">
  <g filter="url(#alpha)">
<rect x="0" y="0" width="367" height="28" style="fill:rgb(0%,0%,0%);fill-opacity:0.678431;stroke:none;"/>
  </g>
</mask>
<clipPath id="clip49">
  <rect x="0" y="0" width="367" height="28"/>
</clipPath>
<g id="surface149" clip-path="url(#clip49)">
<path style=" stroke:none;fill-rule:evenodd;fill:rgb(97.647059%,98.039216%,97.647059%);fill-opacity:1;" d="M 222.699219 17.183594 C 223.40625 17.289062 224.042969 17.570312 224.605469 18.03125 C 225.277344 20.390625 224.640625 22.300781 222.699219 23.757812 C 222.152344 23.964844 221.585938 24.035156 221.003906 23.96875 C 221.125 22.925781 221.546875 22.003906 222.277344 21.210938 C 221.0625 19.675781 221.203125 18.332031 222.699219 17.183594 Z M 222.699219 17.183594 "/>
</g>
<mask id="mask49">
  <g filter="url(#alpha)">
<rect x="0" y="0" width="367" height="28" style="fill:rgb(0%,0%,0%);fill-opacity:0.160784;stroke:none;"/>
  </g>
</mask>
<clipPath id="clip50">
  <rect x="0" y="0" width="367" height="28"/>
</clipPath>
<g id="surface152" clip-path="url(#clip50)">
<path style=" stroke:none;fill-rule:evenodd;fill:rgb(92.156863%,92.156863%,92.156863%);fill-opacity:1;" d="M 2.753906 11.667969 C 3.011719 13.347656 3.292969 15.042969 3.601562 16.757812 C 4.265625 18.625 5.535156 19.824219 7.417969 20.363281 C 7.027344 20.480469 6.746094 20.695312 6.570312 21 C 3.621094 19.660156 2.066406 17.328125 1.90625 14 C 2.097656 13.140625 2.382812 12.359375 2.753906 11.667969 Z M 2.753906 11.667969 "/>
</g>
<mask id="mask50">
  <g filter="url(#alpha)">
<rect x="0" y="0" width="367" height="28" style="fill:rgb(0%,0%,0%);fill-opacity:0.447059;stroke:none;"/>
  </g>
</mask>
<clipPath id="clip51">
  <rect x="0" y="0" width="367" height="28"/>
</clipPath>
<g id="surface155" clip-path="url(#clip51)">
<path style=" stroke:none;fill-rule:evenodd;fill:rgb(92.941177%,93.333334%,93.333334%);fill-opacity:1;" d="M 10.382812 21.425781 C 10.707031 21.097656 11.128906 20.886719 11.652344 20.789062 C 10.542969 20.390625 9.414062 20.035156 8.265625 19.726562 C 8.417969 19.4375 8.558594 19.15625 8.6875 18.878906 C 10.078125 19.246094 11.492188 19.175781 12.925781 18.667969 C 14.105469 17.792969 15.378906 17.15625 16.738281 16.757812 C 16.636719 17.929688 16.070312 18.847656 15.042969 19.515625 C 13.554688 20.40625 12 21.042969 10.382812 21.425781 Z M 10.382812 21.425781 "/>
</g>
<mask id="mask51">
  <g filter="url(#alpha)">
<rect x="0" y="0" width="367" height="28" style="fill:rgb(0%,0%,0%);fill-opacity:0.701961;stroke:none;"/>
  </g>
</mask>
<clipPath id="clip52">
  <rect x="0" y="0" width="367" height="28"/>
</clipPath>
<g id="surface158" clip-path="url(#clip52)">
<path style=" stroke:none;fill-rule:evenodd;fill:rgb(93.725491%,94.509804%,94.509804%);fill-opacity:1;" d="M 204.054688 20.574219 C 202.773438 20.644531 201.503906 20.574219 200.238281 20.363281 C 201.308594 20.183594 202.15625 19.6875 202.78125 18.878906 C 204.113281 18.683594 205.386719 18.261719 206.597656 17.605469 C 206.878906 17.746094 207.160156 17.890625 207.445312 18.03125 C 206.667969 19.375 205.539062 20.226562 204.054688 20.574219 Z M 204.054688 20.574219 "/>
</g>
<mask id="mask52">
  <g filter="url(#alpha)">
<rect x="0" y="0" width="367" height="28" style="fill:rgb(0%,0%,0%);fill-opacity:0.686275;stroke:none;"/>
  </g>
</mask>
<clipPath id="clip53">
  <rect x="0" y="0" width="367" height="28"/>
</clipPath>
<g id="surface161" clip-path="url(#clip53)">
<path style=" stroke:none;fill-rule:evenodd;fill:rgb(89.411765%,91.37255%,90.980393%);fill-opacity:1;" d="M 357.886719 17.605469 C 356.960938 18.175781 356.394531 19.023438 356.195312 20.152344 C 355.902344 19.996094 355.621094 19.855469 355.347656 19.726562 C 355.285156 18.242188 355.851562 17.109375 357.039062 16.332031 C 357.640625 16.546875 357.925781 16.972656 357.886719 17.605469 Z M 357.886719 17.605469 "/>
</g>
<mask id="mask53">
  <g filter="url(#alpha)">
<rect x="0" y="0" width="367" height="28" style="fill:rgb(0%,0%,0%);fill-opacity:0.192157;stroke:none;"/>
  </g>
</mask>
<clipPath id="clip54">
  <rect x="0" y="0" width="367" height="28"/>
</clipPath>
<g id="surface164" clip-path="url(#clip54)">
<path style=" stroke:none;fill-rule:evenodd;fill:rgb(92.941177%,93.725491%,92.941177%);fill-opacity:1;" d="M 65.050781 20.574219 C 63.632812 20.644531 62.21875 20.574219 60.8125 20.363281 C 61.613281 20.273438 62.320312 19.988281 62.933594 19.515625 C 62.507812 19.375 62.085938 19.230469 61.660156 19.089844 C 61.914062 18.894531 62.195312 18.824219 62.507812 18.878906 C 64.375 19.144531 65.929688 18.582031 67.171875 17.183594 C 67.972656 17.339844 68.324219 17.761719 68.230469 18.453125 C 67.441406 19.601562 66.382812 20.308594 65.050781 20.574219 Z M 65.050781 20.574219 "/>
</g>
<mask id="mask54">
  <g filter="url(#alpha)">
<rect x="0" y="0" width="367" height="28" style="fill:rgb(0%,0%,0%);fill-opacity:0.843137;stroke:none;"/>
  </g>
</mask>
<clipPath id="clip55">
  <rect x="0" y="0" width="367" height="28"/>
</clipPath>
<g id="surface167" clip-path="url(#clip55)">
<path style=" stroke:none;fill-rule:evenodd;fill:rgb(91.764706%,92.54902%,92.156863%);fill-opacity:1;" d="M 336.277344 21.425781 C 336.453125 21.117188 336.734375 20.90625 337.121094 20.789062 C 336.699219 20.644531 336.277344 20.503906 335.851562 20.363281 C 336.425781 19.96875 336.992188 19.613281 337.546875 19.304688 C 338.964844 19.066406 340.234375 18.5 341.359375 17.605469 C 341.972656 18.761719 341.6875 19.683594 340.511719 20.363281 C 339.191406 21.097656 337.78125 21.449219 336.277344 21.425781 Z M 336.277344 21.425781 "/>
</g>
<mask id="mask55">
  <g filter="url(#alpha)">
<rect x="0" y="0" width="367" height="28" style="fill:rgb(0%,0%,0%);fill-opacity:0.509804;stroke:none;"/>
  </g>
</mask>
<clipPath id="clip56">
  <rect x="0" y="0" width="367" height="28"/>
</clipPath>
<g id="surface170" clip-path="url(#clip56)">
<path style=" stroke:none;fill-rule:evenodd;fill:rgb(92.941177%,94.509804%,94.117647%);fill-opacity:1;" d="M 247.28125 19.304688 C 247.632812 19.832031 248.199219 20.117188 248.976562 20.152344 C 249.746094 20.089844 250.382812 19.804688 250.882812 19.304688 C 251.167969 19.621094 251.519531 19.765625 251.941406 19.726562 C 253.621094 20.371094 253.550781 20.9375 251.730469 21.425781 C 249.835938 20.867188 247.929688 20.867188 246.007812 21.425781 C 245.492188 20.230469 245.914062 19.523438 247.28125 19.304688 Z M 247.28125 19.304688 "/>
</g>
<mask id="mask56">
  <g filter="url(#alpha)">
<rect x="0" y="0" width="367" height="28" style="fill:rgb(0%,0%,0%);fill-opacity:0.533333;stroke:none;"/>
  </g>
</mask>
<clipPath id="clip57">
  <rect x="0" y="0" width="367" height="28"/>
</clipPath>
<g id="surface173" clip-path="url(#clip57)">
<path style=" stroke:none;fill-rule:evenodd;fill:rgb(90.196079%,91.764706%,91.37255%);fill-opacity:1;" d="M 233.296875 18.878906 C 233.679688 19.179688 233.820312 19.605469 233.71875 20.152344 C 234.285156 20.152344 234.847656 20.152344 235.414062 20.152344 C 235.324219 19.4375 235.605469 19.015625 236.261719 18.878906 C 236.675781 19.4375 237.097656 20.003906 237.53125 20.574219 C 235.988281 20.921875 234.433594 21.203125 232.871094 21.425781 C 232.234375 21.445312 231.8125 21.160156 231.601562 20.574219 C 231.890625 19.71875 232.457031 19.152344 233.296875 18.878906 Z M 233.296875 18.878906 "/>
</g>
<mask id="mask57">
  <g filter="url(#alpha)">
<rect x="0" y="0" width="367" height="28" style="fill:rgb(0%,0%,0%);fill-opacity:0.572549;stroke:none;"/>
  </g>
</mask>
<clipPath id="clip58">
  <rect x="0" y="0" width="367" height="28"/>
</clipPath>
<g id="surface176" clip-path="url(#clip58)">
<path style=" stroke:none;fill-rule:evenodd;fill:rgb(90.980393%,91.37255%,90.980393%);fill-opacity:1;" d="M 284.996094 19.304688 C 285.496094 19.210938 285.917969 19.351562 286.269531 19.726562 C 286.457031 20.253906 286.738281 20.675781 287.117188 21 C 286.484375 21.976562 285.847656 22.96875 285.210938 23.96875 C 284.730469 24.664062 284.09375 25.089844 283.300781 25.242188 C 282.238281 24.15625 281.179688 24.15625 280.125 25.242188 C 280.003906 24.855469 279.792969 24.570312 279.488281 24.394531 C 280.167969 23.125 281.160156 22.84375 282.453125 23.546875 C 284.199219 22.652344 285.046875 21.238281 284.996094 19.304688 Z M 284.996094 19.304688 "/>
</g>
<mask id="mask58">
  <g filter="url(#alpha)">
<rect x="0" y="0" width="367" height="28" style="fill:rgb(0%,0%,0%);fill-opacity:0.921569;stroke:none;"/>
  </g>
</mask>
<clipPath id="clip59">
  <rect x="0" y="0" width="367" height="28"/>
</clipPath>
<g id="surface179" clip-path="url(#clip59)">
<path style=" stroke:none;fill-rule:evenodd;fill:rgb(97.647059%,98.431373%,98.039216%);fill-opacity:1;" d="M 279.488281 24.394531 C 279.792969 24.570312 280.003906 24.855469 280.125 25.242188 C 281.179688 24.15625 282.238281 24.15625 283.300781 25.242188 C 282.183594 26.6875 280.914062 26.828125 279.488281 25.667969 C 279 25.164062 279 24.738281 279.488281 24.394531 Z M 279.488281 24.394531 "/>
</g>
</defs>
<g id="surface1">
<use xlink:href="#surface5" mask="url(#mask0)"/>
<use xlink:href="#surface8" mask="url(#mask1)"/>
<use xlink:href="#surface11" mask="url(#mask2)"/>
<use xlink:href="#surface14" mask="url(#mask3)"/>
<use xlink:href="#surface17" mask="url(#mask4)"/>
<use xlink:href="#surface20" mask="url(#mask5)"/>
<use xlink:href="#surface23" mask="url(#mask6)"/>
<use xlink:href="#surface26" mask="url(#mask7)"/>
<use xlink:href="#surface29" mask="url(#mask8)"/>
<use xlink:href="#surface32" mask="url(#mask9)"/>
<use xlink:href="#surface35" mask="url(#mask10)"/>
<use xlink:href="#surface38" mask="url(#mask11)"/>
<use xlink:href="#surface41" mask="url(#mask12)"/>
<use xlink:href="#surface44" mask="url(#mask13)"/>
<use xlink:href="#surface47" mask="url(#mask14)"/>
<use xlink:href="#surface50" mask="url(#mask15)"/>
<use xlink:href="#surface53" mask="url(#mask16)"/>
<use xlink:href="#surface56" mask="url(#mask17)"/>
<use xlink:href="#surface59" mask="url(#mask18)"/>
<use xlink:href="#surface62" mask="url(#mask19)"/>
<use xlink:href="#surface65" mask="url(#mask20)"/>
<use xlink:href="#surface68" mask="url(#mask21)"/>
<use xlink:href="#surface71" mask="url(#mask22)"/>
<use xlink:href="#surface74" mask="url(#mask23)"/>
<use xlink:href="#surface77" mask="url(#mask24)"/>
<use xlink:href="#surface80" mask="url(#mask25)"/>
<use xlink:href="#surface83" mask="url(#mask26)"/>
<use xlink:href="#surface86" mask="url(#mask27)"/>
<use xlink:href="#surface89" mask="url(#mask28)"/>
<use xlink:href="#surface92" mask="url(#mask29)"/>
<use xlink:href="#surface95" mask="url(#mask30)"/>
<use xlink:href="#surface98" mask="url(#mask31)"/>
<use xlink:href="#surface101" mask="url(#mask32)"/>
<use xlink:href="#surface104" mask="url(#mask33)"/>
<use xlink:href="#surface107" mask="url(#mask34)"/>
<use xlink:href="#surface110" mask="url(#mask35)"/>
<use xlink:href="#surface113" mask="url(#mask36)"/>
<use xlink:href="#surface116" mask="url(#mask37)"/>
<use xlink:href="#surface119" mask="url(#mask38)"/>
<use xlink:href="#surface122" mask="url(#mask39)"/>
<use xlink:href="#surface125" mask="url(#mask40)"/>
<use xlink:href="#surface128" mask="url(#mask41)"/>
<use xlink:href="#surface131" mask="url(#mask42)"/>
<use xlink:href="#surface134" mask="url(#mask43)"/>
<use xlink:href="#surface137" mask="url(#mask44)"/>
<use xlink:href="#surface140" mask="url(#mask45)"/>
<use xlink:href="#surface143" mask="url(#mask46)"/>
<use xlink:href="#surface146" mask="url(#mask47)"/>
<use xlink:href="#surface149" mask="url(#mask48)"/>
<use xlink:href="#surface152" mask="url(#mask49)"/>
<use xlink:href="#surface155" mask="url(#mask50)"/>
<use xlink:href="#surface158" mask="url(#mask51)"/>
<use xlink:href="#surface161" mask="url(#mask52)"/>
<use xlink:href="#surface164" mask="url(#mask53)"/>
<use xlink:href="#surface167" mask="url(#mask54)"/>
<use xlink:href="#surface170" mask="url(#mask55)"/>
<use xlink:href="#surface173" mask="url(#mask56)"/>
<use xlink:href="#surface176" mask="url(#mask57)"/>
<use xlink:href="#surface179" mask="url(#mask58)"/>
</g>
</svg>
