<svg width="365" height="25" viewBox="0 0 365 25" fill="none" xmlns="http://www.w3.org/2000/svg">
<path d="M13.3149 1.67223C14.2092 1.88408 14.7492 1.99001 14.9384 1.99001C15.2549 1.99001 15.4819 1.93705 15.6092 1.83112C15.7364 1.7252 15.8465 1.57691 15.9325 1.38272H16.4759L15.5094 6.78478L15.0451 6.7177C14.9487 5.65141 14.7183 4.7899 14.3468 4.13671C13.6692 2.92919 12.5444 2.3219 10.9794 2.3219C8.57162 2.3219 6.59039 3.55767 5.03222 6.0292C3.67356 8.17238 2.99593 10.4991 2.99593 13.006C2.99593 14.8702 3.4087 16.2755 4.23422 17.2288C5.05974 18.1821 6.12259 18.6587 7.41934 18.6587C8.71609 18.6587 9.98876 18.3233 11.1066 17.6525C11.7671 17.2464 12.6338 16.5191 13.7001 15.4669L14.1267 15.8518C13.1636 17.1052 12.0732 18.0903 10.8556 18.8106C9.63792 19.5308 8.2999 19.891 6.83804 19.891C4.63666 19.891 2.94777 19.1778 1.76797 17.7478C0.588165 16.3178 0 14.6513 0 12.7447C0 10.0084 0.98373 7.48387 2.95465 5.17122C5.11132 2.62907 7.73578 1.358 10.8211 1.358C11.5848 1.358 12.4171 1.46392 13.3115 1.67577L13.3149 1.67223Z" fill="white"/>
<path d="M27.7374 8.56427C28.3324 9.35516 28.6282 10.2873 28.6282 11.3642C28.6282 13.2355 27.8234 15.0715 26.217 16.8722C24.5557 18.7435 22.7877 19.6791 20.9028 19.6791C19.7161 19.6791 18.7667 19.326 18.0513 18.6199C17.3358 17.9137 16.9816 16.9216 16.9816 15.6399C16.9816 13.7086 17.7796 11.8585 19.379 10.0931C21.0128 8.28534 22.7808 7.37793 24.6795 7.37793C26.1242 7.37793 27.1423 7.77338 27.7374 8.56427ZM19.747 18.3621C20.1048 18.8423 20.6276 19.0824 21.3155 19.0824C22.7155 19.0824 23.9606 17.9949 25.0441 15.8235C25.9625 13.9628 26.4234 12.2504 26.4234 10.6863C26.4234 10.0225 26.3443 9.48933 26.1895 9.08329C25.8868 8.31712 25.3399 7.93226 24.5385 7.93226C23.2245 7.93226 21.9897 8.94206 20.8374 10.9652C19.7539 12.8541 19.2139 14.7113 19.2139 16.5403C19.2139 17.2747 19.3928 17.8784 19.7505 18.3621H19.747Z" fill="white"/>
<path d="M29.9664 19.3896L32.1746 11.2088C32.3638 10.5168 32.4739 10.0966 32.5048 9.95186C32.5358 9.8071 32.5496 9.64821 32.5496 9.47874C32.5496 9.22099 32.4773 9.01974 32.3363 8.87498C32.1953 8.73022 31.9166 8.65606 31.5039 8.65606C31.4007 8.65606 31.3009 8.66313 31.2012 8.67726C31.1014 8.69138 30.9914 8.70549 30.871 8.72315V8.28534C31.4248 8.19707 31.8203 8.12998 32.0577 8.08762C32.2916 8.04525 32.5461 7.99228 32.8213 7.92873L35.1155 7.41324C35.1671 7.44855 35.2015 7.48738 35.2187 7.53328L33.5092 13.2249C34.5652 11.576 35.4492 10.3473 36.1578 9.54582C37.4029 8.12646 38.5208 7.41324 39.508 7.41324C39.8898 7.41324 40.2165 7.48739 40.4952 7.63921C41.0214 7.92873 41.2863 8.45482 41.2863 9.21393C41.2863 9.42578 41.2656 9.64821 41.2209 9.87771C41.1762 10.1072 41.1212 10.3544 41.0524 10.6192L39.3566 16.9604C39.3222 17.0946 39.2844 17.2535 39.2397 17.4441C39.1984 17.6348 39.1743 17.769 39.1743 17.8466C39.1743 17.9808 39.2053 18.0973 39.2638 18.2032C39.3222 18.3092 39.4185 18.3621 39.5527 18.3621C39.766 18.3621 40.0136 18.228 40.2957 17.9596C40.5777 17.6913 41.0352 17.1158 41.6681 16.2331L42.043 16.5791C41.3516 17.5571 40.8047 18.2491 40.3988 18.6446C39.7075 19.3437 39.0471 19.6897 38.4142 19.6897C38.1287 19.6897 37.8501 19.5908 37.5852 19.3931C37.3203 19.1954 37.1862 18.8353 37.1862 18.3127C37.1862 18.1644 37.1965 18.002 37.2172 17.836C37.2378 17.6701 37.2653 17.5218 37.2997 17.3982L38.9473 10.9652C39.0333 10.6121 39.0918 10.3226 39.1227 10.0966C39.1537 9.87065 39.1675 9.71177 39.1675 9.61291C39.1675 9.40106 39.1159 9.21746 39.0196 9.06211C38.9198 8.90676 38.7444 8.82908 38.4933 8.82908C37.8397 8.82908 37.0177 9.42931 36.0236 10.6298C35.4389 11.343 34.8472 12.1939 34.2453 13.1825C33.7947 13.9487 33.4439 14.6972 33.1859 15.4245C32.9279 16.1519 32.5151 17.4759 31.9545 19.3966H29.9732L29.9664 19.3896Z" fill="white"/>
<path d="M43.1745 19.3896L45.3828 11.2088C45.572 10.5168 45.682 10.0966 45.713 9.95186C45.7439 9.8071 45.7577 9.64821 45.7577 9.47874C45.7577 9.22099 45.6855 9.01974 45.5444 8.87498C45.4034 8.73022 45.1248 8.65606 44.712 8.65606C44.6088 8.65606 44.5091 8.66313 44.4093 8.67726C44.3096 8.69138 44.1995 8.70549 44.0791 8.72315V8.28534C44.6329 8.19707 45.0285 8.12998 45.2658 8.08762C45.4997 8.04525 45.7543 7.99228 46.0294 7.92873L48.3237 7.41324C48.3753 7.44855 48.4097 7.48738 48.4269 7.53328L46.7174 13.2249C47.7733 11.576 48.6573 10.3473 49.3659 9.54582C50.611 8.12646 51.7289 7.41324 52.7161 7.41324C53.0979 7.41324 53.4247 7.48739 53.7033 7.63921C54.2296 7.92873 54.4944 8.45482 54.4944 9.21393C54.4944 9.42578 54.4738 9.64821 54.4291 9.87771C54.3844 10.1072 54.3293 10.3544 54.2605 10.6192L52.5648 16.9604C52.5304 17.0946 52.4925 17.2535 52.4478 17.4441C52.4065 17.6348 52.3825 17.769 52.3825 17.8466C52.3825 17.9808 52.4134 18.0973 52.4719 18.2032C52.5304 18.3092 52.6267 18.3621 52.7608 18.3621C52.9741 18.3621 53.2218 18.228 53.5038 17.9596C53.7859 17.6913 54.2433 17.1158 54.8762 16.2331L55.2512 16.5791C54.5598 17.5571 54.0129 18.2491 53.607 18.6446C52.9156 19.3437 52.2552 19.6897 51.6223 19.6897C51.3368 19.6897 51.0582 19.5908 50.7934 19.3931C50.5285 19.1954 50.3943 18.8353 50.3943 18.3127C50.3943 18.1644 50.4047 18.002 50.4253 17.836C50.4459 17.6701 50.4735 17.5218 50.5079 17.3982L52.1555 10.9652C52.2415 10.6121 52.2999 10.3226 52.3309 10.0966C52.3618 9.87065 52.3756 9.71177 52.3756 9.61291C52.3756 9.40106 52.324 9.21746 52.2277 9.06211C52.1279 8.90676 51.9525 8.82908 51.7014 8.82908C51.0479 8.82908 50.2258 9.42931 49.2318 10.6298C48.647 11.343 48.0554 12.1939 47.4534 13.1825C47.0028 13.9487 46.652 14.6972 46.394 15.4245C46.1361 16.1519 45.7233 17.4759 45.1626 19.3966H43.1814L43.1745 19.3896Z" fill="white"/>
<path d="M59.3102 10.1849C61.0128 8.35245 62.7705 7.43445 64.5866 7.43445C65.2573 7.43445 65.7905 7.59333 66.1861 7.9111C66.5816 8.22887 66.7777 8.69846 66.7777 9.32341C66.7777 10.591 66.0519 11.6784 64.6038 12.5823C63.1557 13.4862 61.6319 14.037 60.0325 14.2418L59.2964 14.3336C59.1829 14.6972 59.1072 14.9832 59.066 15.2021C59.0212 15.4175 59.0006 15.6894 59.0006 16.0177C59.0006 16.7945 59.2483 17.3983 59.7436 17.8325C60.2389 18.2668 60.8236 18.4822 61.5047 18.4822C62.1857 18.4822 62.8324 18.2633 63.5547 17.8184C63.9675 17.5642 64.5659 17.1052 65.3468 16.4414L65.6804 16.7451C65.2952 17.25 64.7379 17.7655 64.0156 18.2951C62.7326 19.2413 61.4496 19.7109 60.1598 19.7109C59.2483 19.7109 58.4468 19.379 57.7589 18.7188C57.071 18.0585 56.727 17.1087 56.727 15.8765C56.727 13.9205 57.5869 12.0244 59.3067 10.1884L59.3102 10.1849ZM63.4894 11.9574C64.5213 11.0182 65.0372 10.0896 65.0372 9.16452C65.0372 8.8291 64.9615 8.5643 64.8067 8.36657C64.652 8.16885 64.4249 8.06999 64.1223 8.06999C63.565 8.06999 63.0147 8.31361 62.4781 8.80439C61.9415 9.29163 61.4565 9.84596 61.0266 10.4603C60.5691 11.1841 60.2079 11.8726 59.9431 12.5329C59.7952 12.8859 59.6404 13.2849 59.4787 13.7333C61.1229 13.4862 62.4575 12.893 63.4894 11.9574Z" fill="white"/>
<path d="M78.156 8.15824C78.6204 8.64195 78.8508 9.11154 78.8508 9.57054C78.8508 9.98364 78.7305 10.3049 78.4897 10.5344C78.2489 10.7639 77.9634 10.8769 77.6401 10.8769C77.3168 10.8769 77.0553 10.7745 76.8386 10.5733C76.6254 10.3685 76.5153 10.1178 76.5153 9.81769C76.5153 9.58819 76.5875 9.34103 76.7286 9.07623C76.8696 8.81142 76.9418 8.63841 76.9418 8.56074C76.9418 8.40185 76.8524 8.26769 76.677 8.15824C76.5015 8.04878 76.2195 7.99229 75.8308 7.99229C74.4446 7.99229 73.2442 8.80083 72.226 10.4179C71.2079 12.035 70.6988 13.7333 70.6988 15.5093C70.6988 16.5085 70.9052 17.2888 71.318 17.8572C71.7308 18.4222 72.3499 18.7046 73.1754 18.7046C73.8358 18.7046 74.479 18.5069 75.1051 18.115C75.7276 17.7231 76.302 17.2217 76.8283 16.6109L76.9177 16.505L77.2927 16.798C76.6907 17.5854 76.1094 18.1891 75.5522 18.6128C74.5616 19.3472 73.4678 19.7109 72.2639 19.7109C71.06 19.7109 70.1795 19.3331 69.464 18.5775C68.7486 17.8219 68.3943 16.7909 68.3943 15.4846C68.3943 13.4826 69.1888 11.636 70.7814 9.95186C72.3568 8.27475 74.0594 7.43796 75.8893 7.43796C76.9384 7.43796 77.6951 7.67805 78.1594 8.16176L78.156 8.15824Z" fill="white"/>
<path d="M80.3538 18.2704C80.3607 18.1786 80.3814 18.0832 80.4054 17.9844L82.8992 8.74435H80.9386C80.9386 8.50779 80.9558 8.35597 80.9902 8.29241C81.0246 8.22886 81.1106 8.16884 81.2482 8.10528C82.1219 7.72396 82.7994 7.35676 83.2776 7.00369C83.7591 6.65061 84.4127 5.96565 85.2451 4.95585L85.4514 4.70163C85.479 4.66633 85.5099 4.63808 85.5478 4.6169C85.5856 4.59572 85.6269 4.58511 85.6716 4.58511C85.7576 4.60277 85.8161 4.62043 85.8539 4.63808C85.878 4.70164 85.8951 4.7546 85.8986 4.80403C85.902 4.85346 85.8986 4.90289 85.8917 4.95585L85.1315 7.84048H87.2573L87.1025 8.74435H84.877L82.5002 17.6419C82.459 17.8008 82.4693 17.9526 82.5381 18.0973C82.6069 18.2421 82.7238 18.3163 82.8855 18.3163C83.109 18.3163 83.4221 18.0867 83.8279 17.6278C84.0618 17.3806 84.4505 16.8898 85.0043 16.159L85.3379 16.3567L85.1556 16.6356C84.4161 17.776 83.7626 18.5669 83.1984 19.0118C82.6343 19.4567 82.0978 19.6791 81.5887 19.6791C81.1484 19.6791 80.832 19.5591 80.6325 19.3225C80.433 19.086 80.3367 18.8141 80.3367 18.514C80.3367 18.4434 80.3401 18.3622 80.3504 18.2704H80.3538Z" fill="white"/>
<path d="M90.0984 10.1849C91.801 8.35245 93.5587 7.43445 95.3748 7.43445C96.0455 7.43445 96.5787 7.59333 96.9743 7.9111C97.3698 8.22887 97.5659 8.69846 97.5659 9.32341C97.5659 10.591 96.8401 11.6784 95.392 12.5823C93.9439 13.4862 92.4201 14.037 90.8207 14.2418L90.0846 14.3336C89.9711 14.6972 89.8954 14.9832 89.8541 15.2021C89.8094 15.4175 89.7888 15.6894 89.7888 16.0177C89.7888 16.7945 90.0365 17.3983 90.5318 17.8325C91.0271 18.2668 91.6118 18.4822 92.2929 18.4822C92.9739 18.4822 93.6206 18.2633 94.3429 17.8184C94.7557 17.5642 95.3542 17.1052 96.135 16.4414L96.4686 16.7451C96.0834 17.25 95.5261 17.7655 94.8038 18.2951C93.5208 19.2413 92.2378 19.7109 90.948 19.7109C90.0365 19.7109 89.235 19.379 88.5471 18.7188C87.8592 18.0585 87.5152 17.1087 87.5152 15.8765C87.5152 13.9205 88.3751 12.0244 90.0949 10.1884L90.0984 10.1849ZM94.2776 11.9574C95.3095 11.0182 95.8254 10.0896 95.8254 9.16452C95.8254 8.8291 95.7497 8.5643 95.595 8.36657C95.4402 8.16885 95.2132 8.06999 94.9105 8.06999C94.3532 8.06999 93.8029 8.31361 93.2663 8.80439C92.7297 9.29163 92.2447 9.84596 91.8148 10.4603C91.3573 11.1841 90.9961 11.8726 90.7313 12.5329C90.5834 12.8859 90.4286 13.2849 90.2669 13.7333C91.9111 13.4862 93.2457 12.893 94.2776 11.9574Z" fill="white"/>
<path d="M107.888 7.88282C108.053 8.07701 108.184 8.4089 108.277 8.87496L109.794 3.44817C109.835 3.29988 109.866 3.16219 109.876 3.04567C109.89 2.92562 109.897 2.82323 109.897 2.73496C109.897 2.39248 109.835 2.17357 109.711 2.0853C109.588 1.99703 109.409 1.95113 109.175 1.95113C109.027 1.95113 108.893 1.95467 108.769 1.96526C108.645 1.97585 108.48 1.98644 108.274 2.00409V1.56628C109.25 1.43211 110.602 1.20614 112.329 0.877777L112.446 1.01195L112.418 1.15671L109.873 10.6721L108.139 16.9675C108.105 17.1087 108.078 17.2429 108.057 17.3629C108.036 17.483 108.026 17.5924 108.026 17.6913C108.026 17.9314 108.084 18.0867 108.198 18.1573C108.315 18.2279 108.415 18.2633 108.501 18.2633C108.752 18.2633 109.109 18.0373 109.57 17.5853C109.839 17.3099 110.21 16.8827 110.678 16.3072L110.974 16.5967L110.791 16.8757C110.472 17.3629 110.059 17.8572 109.557 18.3621C108.666 19.2554 107.864 19.7038 107.156 19.7038C106.922 19.7038 106.709 19.6508 106.519 19.5449C106.165 19.3331 105.99 18.9553 105.99 18.408C105.99 18.2244 106.014 17.9278 106.065 17.5218C106.117 17.1158 106.196 16.6709 106.303 16.1872C105.649 17.2111 104.934 18.0479 104.153 18.7011C103.376 19.3543 102.526 19.6791 101.604 19.6791C100.854 19.6791 100.201 19.4072 99.6435 18.86C99.0828 18.3127 98.8042 17.4724 98.8042 16.3319C98.8042 14.4112 99.6676 12.434 101.398 10.4073C103.118 8.38771 104.796 7.37791 106.433 7.37791C107.118 7.37791 107.599 7.54386 107.885 7.87928L107.888 7.88282ZM101.463 17.716C101.704 18.1185 102.113 18.3162 102.691 18.3162C103.922 18.3162 105.106 17.3029 106.241 15.2762C107.335 13.3731 107.881 11.5689 107.881 9.8671C107.881 9.33043 107.795 8.88555 107.623 8.53248C107.452 8.1794 107.101 8.00286 106.571 8.00286C105.254 8.00286 103.981 9.0868 102.753 11.2547C101.652 13.1931 101.105 14.8773 101.105 16.3072C101.105 16.8439 101.226 17.3135 101.466 17.716H101.463Z" fill="white"/>
<path d="M119.573 13.8428L120.075 13.9099C120.065 14.2206 120.061 14.4006 120.061 14.4536C120.061 15.8306 120.433 16.9357 121.176 17.769C121.919 18.6022 122.83 19.0189 123.903 19.0189C124.977 19.0189 125.826 18.6446 126.418 17.8926C127.013 17.144 127.309 16.3214 127.309 15.4281C127.309 15.0927 127.254 14.7396 127.14 14.3689C126.968 13.7969 126.683 13.2814 126.287 12.833L124.636 10.9793C123.363 9.54937 122.548 8.52544 122.187 7.90756C121.826 7.28968 121.647 6.61884 121.647 5.89503C121.647 4.78284 122.049 3.75539 122.858 2.81621C123.666 1.87703 124.853 1.40743 126.418 1.40743C127.116 1.40743 127.831 1.52747 128.571 1.7711C129.311 2.01472 129.754 2.13476 129.899 2.13476C130.184 2.13476 130.415 2.05357 130.597 1.89115C130.776 1.72874 130.924 1.55926 131.034 1.38272H131.639L130.569 6.78478L130.105 6.7177C130.064 5.4325 129.902 4.49685 129.63 3.90721C129.132 2.85858 128.193 2.33602 126.81 2.33602C125.96 2.33602 125.269 2.5867 124.736 3.08454C124.203 3.58238 123.938 4.20732 123.938 4.95937C123.938 5.56666 124.058 6.07863 124.299 6.49173C124.54 6.90483 125.001 7.48741 125.678 8.23593L128.065 10.8663C128.495 11.343 128.856 11.8832 129.149 12.487C129.441 13.0907 129.586 13.7933 129.586 14.5948C129.586 16.0071 129.108 17.257 128.148 18.348C127.188 19.439 125.909 19.9828 124.309 19.9828C123.477 19.9828 122.631 19.8168 121.774 19.4849C120.918 19.153 120.388 18.9871 120.182 18.9871C119.872 18.9871 119.649 19.0612 119.511 19.2131C119.373 19.3649 119.249 19.5873 119.136 19.8874H118.672L119.563 13.8357L119.573 13.8428Z" fill="white"/>
<path d="M132.437 18.2704C132.444 18.1786 132.465 18.0832 132.489 17.9844L134.983 8.74435H133.022C133.022 8.50779 133.039 8.35597 133.074 8.29241C133.108 8.22886 133.194 8.16884 133.332 8.10528C134.205 7.72396 134.883 7.35676 135.361 7.00369C135.842 6.65061 136.496 5.96565 137.328 4.95585L137.535 4.70163C137.562 4.66633 137.593 4.63808 137.631 4.6169C137.669 4.59572 137.71 4.58511 137.755 4.58511C137.841 4.60277 137.899 4.62043 137.937 4.63808C137.961 4.70164 137.978 4.7546 137.982 4.80403C137.985 4.85346 137.982 4.90289 137.975 4.95585L137.215 7.84048H139.341L139.186 8.74435H136.96L134.584 17.6419C134.542 17.8008 134.553 17.9526 134.621 18.0973C134.69 18.2421 134.807 18.3163 134.969 18.3163C135.192 18.3163 135.505 18.0867 135.911 17.6278C136.145 17.3806 136.534 16.8898 137.088 16.159L137.421 16.3567L137.239 16.6356C136.499 17.776 135.846 18.5669 135.282 19.0118C134.718 19.4567 134.181 19.6791 133.672 19.6791C133.232 19.6791 132.915 19.5591 132.716 19.3225C132.516 19.086 132.42 18.8141 132.42 18.514C132.42 18.4434 132.423 18.3622 132.434 18.2704H132.437Z" fill="white"/>
<path d="M144.328 7.41322C144.359 7.46265 144.373 7.51561 144.373 7.57916C144.366 7.66743 144.356 7.73805 144.349 7.78042L143.035 12.9424L143.334 12.3316C143.953 11.0852 144.675 9.95183 145.504 8.92085C146.333 7.8934 147.121 7.37791 147.871 7.37791C148.273 7.37791 148.586 7.51561 148.806 7.78748C149.027 8.06288 149.137 8.37359 149.137 8.72666C149.137 9.12211 149.027 9.454 148.81 9.71175C148.59 9.97302 148.287 10.1037 147.902 10.1037C147.637 10.1037 147.434 10.0507 147.296 9.94478C147.159 9.83886 147.052 9.71527 146.973 9.57404L146.818 9.28099C146.784 9.22803 146.743 9.18566 146.695 9.15388C146.646 9.1221 146.588 9.10798 146.519 9.10798C146.182 9.10798 145.7 9.58817 145.068 10.5521C144.435 11.516 143.867 12.5575 143.368 13.6768C143.066 14.3582 142.732 15.2586 142.361 16.3778C142.127 17.084 141.814 18.0867 141.425 19.3825H139.444L141.594 11.4136C141.714 10.9546 141.81 10.545 141.882 10.1813C141.955 9.8212 141.993 9.52462 141.993 9.29512C141.993 9.03031 141.927 8.82906 141.8 8.68429C141.669 8.54306 141.446 8.47245 141.129 8.47245C141.026 8.47245 140.899 8.47951 140.744 8.49716C140.589 8.51482 140.403 8.536 140.19 8.56425V8.12643L140.706 8.02051C141.377 7.87928 142.109 7.73099 142.907 7.57211C143.702 7.41322 144.122 7.33554 144.166 7.33554C144.242 7.33554 144.297 7.36025 144.328 7.40968V7.41322Z" fill="white"/>
<path d="M152.27 9.82829C152.287 9.74002 152.301 9.65881 152.315 9.58467C152.329 9.51052 152.336 9.43284 152.336 9.35164C152.336 8.97384 152.226 8.74081 152.005 8.65608C151.785 8.57134 151.376 8.52897 150.774 8.52897V8.15825L152.693 7.77338L154.771 7.37794C154.816 7.37088 154.853 7.39207 154.888 7.4415C154.922 7.49446 154.936 7.54389 154.926 7.59685L154.888 7.81576L152.38 16.7627C152.318 16.9851 152.277 17.1546 152.25 17.2782C152.222 17.4018 152.212 17.49 152.212 17.543C152.212 17.7478 152.267 17.9067 152.38 18.0197C152.494 18.1362 152.638 18.1927 152.824 18.1927C153.337 18.1927 153.98 17.7301 154.75 16.8015C155.521 15.873 156.205 14.9091 156.807 13.9099C157.347 13.0166 157.843 12.0244 158.297 10.9264C158.575 10.2449 158.974 9.16451 159.497 7.67806H161.444L158.909 17.0769C158.867 17.2535 158.83 17.4159 158.795 17.5677C158.761 17.7195 158.744 17.8431 158.744 17.9385C158.744 18.055 158.768 18.1538 158.819 18.235C158.871 18.3198 158.96 18.3621 159.088 18.3621C159.215 18.3621 159.346 18.3127 159.48 18.2103C159.614 18.1079 159.782 17.9526 159.985 17.7407C160.078 17.6454 160.247 17.4371 160.491 17.1193C160.642 16.9251 160.873 16.6285 161.186 16.2331L161.554 16.4838C161.162 17.1546 160.752 17.7337 160.326 18.2174C159.483 19.1883 158.699 19.6756 157.973 19.6756C157.598 19.6756 157.292 19.5697 157.051 19.3578C156.811 19.146 156.694 18.8176 156.694 18.3692C156.694 18.1397 156.714 17.889 156.759 17.6172C156.804 17.3453 156.869 17.0381 156.965 16.6921C157.127 16.0742 157.33 15.2974 157.581 14.3689L157.918 13.1225H157.825C156.625 15.1845 155.682 16.6427 154.998 17.4971C153.808 18.9624 152.683 19.6968 151.62 19.6968C151.335 19.6968 151.073 19.6332 150.839 19.5132C150.389 19.266 150.162 18.8247 150.162 18.1891C150.162 18.0055 150.169 17.8537 150.189 17.7407C150.206 17.6242 150.237 17.4653 150.279 17.2641L152.287 9.82477L152.27 9.82829Z" fill="white"/>
<path d="M163.215 20.1099C163.711 19.5132 164.495 18.92 165.568 18.3304C165.355 18.1892 165.176 18.0409 165.038 17.8855C164.901 17.7302 164.832 17.5254 164.832 17.2712C164.832 16.911 165.076 16.4944 165.568 16.0283C165.843 15.7635 166.29 15.414 166.909 14.9832C166.359 14.7714 165.884 14.4713 165.492 14.0829C165.011 13.5639 164.77 12.8859 164.77 12.0562C164.77 10.7251 165.279 9.61646 166.29 8.73376C167.305 7.85107 168.56 7.40973 170.057 7.40973C170.838 7.40973 171.501 7.53684 172.041 7.78752C172.585 8.03821 172.901 8.25005 172.998 8.416H174.738V9.4823H173.421C173.472 9.67649 173.51 9.85303 173.538 10.0119C173.562 10.1708 173.576 10.3968 173.576 10.6863C173.576 12.1162 173.035 13.239 171.955 14.0582C170.875 14.8773 169.713 15.2869 168.468 15.2869C168.337 15.2869 168.217 15.2798 168.106 15.2657C167.993 15.2516 167.855 15.2268 167.694 15.1915C167.563 15.1915 167.388 15.3186 167.164 15.5764C166.93 15.8341 166.817 16.0636 166.817 16.2649C166.817 16.565 167.762 17.077 169.654 17.8008C171.536 18.5352 172.478 19.605 172.478 21.0173C172.478 22.0765 172.004 23.0051 171.061 23.8031C170.115 24.601 168.688 25 166.779 25C165.454 25 164.405 24.7105 163.631 24.1279C162.858 23.5453 162.469 22.8356 162.469 21.9953C162.469 21.3315 162.716 20.703 163.212 20.1099H163.215ZM169.843 23.6654C170.518 23.1605 170.855 22.5602 170.855 21.8647C170.855 21.3351 170.679 20.8902 170.325 20.5265C170.136 20.3323 169.83 20.124 169.41 19.9051C169.056 19.7286 168.461 19.4743 167.625 19.1425C166.789 18.8106 166.304 18.6446 166.173 18.6446C165.95 18.6446 165.516 18.9518 164.87 19.5662C164.223 20.1805 163.903 20.8761 163.903 21.6528C163.903 22.825 164.399 23.6336 165.386 24.0749C165.902 24.3044 166.538 24.4209 167.295 24.4209C168.316 24.4209 169.166 24.1703 169.843 23.6654ZM167.088 13.9205C167.363 14.4607 167.859 14.729 168.571 14.729C169.345 14.729 170.036 14.2241 170.642 13.2143C171.247 12.2045 171.55 11.0888 171.55 9.87067C171.55 9.28809 171.426 8.83264 171.175 8.50074C170.924 8.16885 170.552 8.00291 170.053 8.00291C169.09 8.00291 168.313 8.52899 167.725 9.57762C167.136 10.6298 166.841 11.6396 166.841 12.6105C166.841 13.1578 166.923 13.5956 167.085 13.9205H167.088Z" fill="white"/>
<path d="M176.424 20.1099C176.919 19.5132 177.703 18.92 178.776 18.3304C178.563 18.1892 178.384 18.0409 178.247 17.8855C178.109 17.7302 178.04 17.5254 178.04 17.2712C178.04 16.911 178.285 16.4944 178.776 16.0283C179.052 15.7635 179.499 15.414 180.118 14.9832C179.568 14.7714 179.093 14.4713 178.701 14.0829C178.219 13.5639 177.978 12.8859 177.978 12.0562C177.978 10.7251 178.487 9.61646 179.499 8.73376C180.513 7.85107 181.769 7.40973 183.265 7.40973C184.046 7.40973 184.71 7.53684 185.25 7.78752C185.793 8.03821 186.11 8.25005 186.206 8.416H187.947V9.4823H186.629C186.681 9.67649 186.719 9.85303 186.746 10.0119C186.77 10.1708 186.784 10.3968 186.784 10.6863C186.784 12.1162 186.244 13.239 185.164 14.0582C184.084 14.8773 182.921 15.2869 181.676 15.2869C181.545 15.2869 181.425 15.2798 181.315 15.2657C181.201 15.2516 181.064 15.2268 180.902 15.1915C180.771 15.1915 180.596 15.3186 180.372 15.5764C180.138 15.8341 180.025 16.0636 180.025 16.2649C180.025 16.565 180.971 17.077 182.863 17.8008C184.744 18.5352 185.687 19.605 185.687 21.0173C185.687 22.0765 185.212 23.0051 184.27 23.8031C183.324 24.601 181.896 25 179.987 25C178.663 25 177.614 24.7105 176.84 24.1279C176.066 23.5453 175.677 22.8356 175.677 21.9953C175.677 21.3315 175.925 20.703 176.42 20.1099H176.424ZM183.052 23.6654C183.726 23.1605 184.063 22.5602 184.063 21.8647C184.063 21.3351 183.888 20.8902 183.533 20.5265C183.344 20.3323 183.038 20.124 182.618 19.9051C182.264 19.7286 181.669 19.4743 180.833 19.1425C179.997 18.8106 179.512 18.6446 179.382 18.6446C179.158 18.6446 178.725 18.9518 178.078 19.5662C177.432 20.1805 177.112 20.8761 177.112 21.6528C177.112 22.825 177.607 23.6336 178.594 24.0749C179.11 24.3044 179.746 24.4209 180.503 24.4209C181.525 24.4209 182.374 24.1703 183.052 23.6654ZM180.297 13.9205C180.572 14.4607 181.067 14.729 181.779 14.729C182.553 14.729 183.244 14.2241 183.85 13.2143C184.455 12.2045 184.758 11.0888 184.758 9.87067C184.758 9.28809 184.634 8.83264 184.383 8.50074C184.132 8.16885 183.76 8.00291 183.262 8.00291C182.299 8.00291 181.521 8.52899 180.933 9.57762C180.345 10.6298 180.049 11.6396 180.049 12.6105C180.049 13.1578 180.132 13.5956 180.293 13.9205H180.297Z" fill="white"/>
<path d="M193.673 3.32814C193.708 3.21516 193.728 3.09864 193.739 2.98566C193.746 2.87267 193.752 2.77735 193.752 2.70673C193.752 2.40662 193.635 2.22302 193.402 2.15594C193.168 2.08885 192.7 2.0606 191.998 2.07119V1.63338C192.387 1.58042 192.834 1.5204 193.34 1.44978C193.845 1.37917 194.176 1.32974 194.33 1.30502C194.815 1.21675 195.404 1.08611 196.095 0.909576C196.157 0.909576 196.215 0.955467 196.277 1.04374L191.984 16.9569C191.888 17.3382 191.833 17.5677 191.816 17.6454C191.799 17.7231 191.788 17.8043 191.788 17.8819C191.788 18.0514 191.819 18.1926 191.878 18.3127C191.936 18.4327 192.05 18.4928 192.215 18.4928C192.524 18.4928 192.93 18.2103 193.429 17.6454C193.928 17.0805 194.348 16.5332 194.695 16.0036L195.042 16.2543C194.299 17.377 193.721 18.1538 193.309 18.5846C192.593 19.319 191.874 19.6826 191.149 19.6826C190.839 19.6826 190.564 19.6014 190.32 19.4425C189.948 19.206 189.762 18.7999 189.762 18.2244C189.762 18.0055 189.797 17.7089 189.866 17.3382C189.914 17.1193 189.972 16.8616 190.048 16.572L193.673 3.33167V3.32814Z" fill="white"/>
<path d="M199.424 10.1849C201.127 8.35245 202.885 7.43445 204.701 7.43445C205.372 7.43445 205.905 7.59333 206.3 7.9111C206.696 8.22887 206.892 8.69846 206.892 9.32341C206.892 10.591 206.166 11.6784 204.718 12.5823C203.27 13.4862 201.746 14.037 200.147 14.2418L199.411 14.3336C199.297 14.6972 199.222 14.9832 199.18 15.2021C199.136 15.4175 199.115 15.6894 199.115 16.0177C199.115 16.7945 199.363 17.3983 199.858 17.8325C200.353 18.2668 200.938 18.4822 201.619 18.4822C202.3 18.4822 202.947 18.2633 203.669 17.8184C204.082 17.5642 204.68 17.1052 205.461 16.4414L205.795 16.7451C205.409 17.25 204.852 17.7655 204.13 18.2951C202.847 19.2413 201.564 19.7109 200.274 19.7109C199.363 19.7109 198.561 19.379 197.873 18.7188C197.185 18.0585 196.841 17.1087 196.841 15.8765C196.841 13.9205 197.701 12.0244 199.421 10.1884L199.424 10.1849ZM203.604 11.9574C204.636 11.0182 205.151 10.0896 205.151 9.16452C205.151 8.8291 205.076 8.5643 204.921 8.36657C204.766 8.16885 204.539 8.06999 204.237 8.06999C203.679 8.06999 203.129 8.31361 202.592 8.80439C202.056 9.29163 201.571 9.84596 201.141 10.4603C200.683 11.1841 200.322 11.8726 200.057 12.5329C199.909 12.8859 199.755 13.2849 199.593 13.7333C201.237 13.4862 202.572 12.893 203.604 11.9574Z" fill="white"/>
<path d="M208.687 15.4422H209.114C209.303 16.512 209.527 17.2923 209.785 17.7866C210.259 18.6976 210.961 19.1495 211.9 19.1495C212.426 19.1495 212.867 18.9588 213.221 18.581C213.579 18.2032 213.757 17.6984 213.757 17.0734C213.757 16.685 213.713 16.3672 213.623 16.1201C213.534 15.8729 213.42 15.647 213.283 15.4457L212.213 13.818C211.566 12.8294 211.164 12.1692 211.002 11.8337C210.751 11.3324 210.627 10.8275 210.627 10.3261C210.627 9.55994 210.896 8.88203 211.432 8.29239C211.969 7.70629 212.732 7.41324 213.723 7.41324C214.143 7.41324 214.624 7.49445 215.168 7.65686C215.711 7.81928 216.079 7.90049 216.279 7.90049C216.492 7.90049 216.654 7.85812 216.757 7.76985C216.86 7.68158 216.956 7.56153 217.042 7.41324H217.417L216.888 11.1735H216.461C216.348 10.3191 216.182 9.67293 215.959 9.23865C215.546 8.43716 214.893 8.03466 213.998 8.03466C213.62 8.03466 213.283 8.1547 212.987 8.39832C212.691 8.64195 212.543 8.99502 212.543 9.46461C212.543 9.82828 212.609 10.1461 212.743 10.4179C212.877 10.6933 213.18 11.177 213.651 11.8726L214.566 13.2213C215.037 13.9204 215.374 14.4889 215.57 14.9302C215.766 15.3716 215.866 15.8482 215.866 16.3602C215.866 17.3135 215.47 18.1185 214.679 18.7717C213.888 19.4249 212.946 19.7497 211.855 19.7497C211.501 19.7497 210.999 19.6756 210.345 19.5237C209.692 19.3755 209.313 19.2978 209.21 19.2978C209.038 19.2978 208.911 19.3366 208.828 19.4178C208.746 19.4955 208.67 19.6156 208.601 19.7744H208.175L208.691 15.4457L208.687 15.4422Z" fill="white"/>
<path d="M220.733 17.0522C220.957 16.7909 221.29 16.6603 221.738 16.6603C222.185 16.6603 222.563 16.8404 222.845 17.204C223.131 17.5677 223.272 18.0267 223.272 18.581C223.272 19.4708 222.938 20.2829 222.271 21.0173C221.604 21.7481 220.933 22.306 220.252 22.6873L219.853 22.9133L219.609 22.4755C220.142 22.0871 220.551 21.7552 220.833 21.4833C221.339 20.9714 221.593 20.5124 221.593 20.1063C221.593 19.9898 221.573 19.8804 221.528 19.7744C221.483 19.6685 221.425 19.5767 221.346 19.4955L221.101 19.2448C220.785 18.92 220.585 18.6693 220.51 18.4963C220.434 18.3233 220.393 18.0691 220.393 17.7337C220.393 17.5395 220.506 17.3135 220.73 17.0522H220.733Z" fill="white"/>
<path d="M230.99 18.9518C231.737 18.8564 232.27 18.5775 232.583 18.1185C232.896 17.6595 233.281 16.6003 233.739 14.9408L236.896 3.23635C236.999 2.84091 236.824 2.55845 236.373 2.39603C235.923 2.23362 235.441 2.14534 234.936 2.13828V1.70047H239.758L241.609 14.9691H241.701L251.05 1.70047H255.432V2.13828C254.734 2.22655 254.256 2.37485 253.995 2.58316C253.733 2.79148 253.489 3.3105 253.266 4.14023L250.029 16.1342C249.932 16.4767 249.857 16.7839 249.798 17.0487C249.74 17.3135 249.712 17.5501 249.712 17.7619C249.712 18.2386 249.874 18.5493 250.201 18.694C250.528 18.8388 251.05 18.9271 251.773 18.9518V19.3896H244.494V18.9518C245.224 18.8988 245.746 18.7964 246.056 18.6481C246.572 18.3904 246.937 17.9031 247.153 17.1864L250.593 4.38737H250.5L240.16 19.3896H239.703L237.677 4.86403H237.584L234.64 16.3178C234.578 16.565 234.523 16.8192 234.471 17.084C234.42 17.3488 234.392 17.5571 234.392 17.7054C234.392 18.1891 234.595 18.5316 235.001 18.7223C235.259 18.8458 235.675 18.92 236.253 18.9482V19.3861H230.997V18.9482L230.99 18.9518Z" fill="white"/>
<path d="M262.921 7.92168C263.12 8.11587 263.278 8.37361 263.392 8.69138L263.457 8.87851L263.746 7.87931C263.78 7.76632 263.811 7.68865 263.839 7.64981C263.866 7.61097 263.925 7.58625 264.025 7.57566L265.511 7.40619C265.59 7.40619 265.634 7.42031 265.648 7.45209C265.662 7.48387 265.659 7.53683 265.641 7.61804C265.603 7.73102 265.576 7.82282 265.559 7.8899C265.542 7.95698 265.514 8.05231 265.476 8.17589L264.2 12.9142C263.922 13.9452 263.688 14.8384 263.492 15.587C263.175 16.9428 263.013 17.716 263.013 17.9102C263.013 18.0338 263.044 18.122 263.11 18.1821C263.175 18.2386 263.254 18.2668 263.347 18.2668C263.423 18.2668 263.509 18.2421 263.605 18.1856C263.701 18.1326 263.815 18.0514 263.949 17.949L264.179 17.7654C264.252 17.7054 264.334 17.6313 264.424 17.5465C264.513 17.4618 264.623 17.3594 264.75 17.2358L265.593 16.3884L265.903 16.6674C264.984 17.8396 264.245 18.6375 263.691 19.0577C263.137 19.4779 262.604 19.6862 262.102 19.6862C261.775 19.6862 261.524 19.5732 261.349 19.3437C261.173 19.1142 261.084 18.8282 261.084 18.4857C261.084 18.168 261.142 17.7125 261.259 17.1193C261.376 16.5261 261.49 16.0248 261.6 15.6187C261.445 15.8835 261.187 16.2719 260.822 16.7768C260.458 17.2853 260.007 17.776 259.477 18.2527C258.851 18.8282 258.249 19.2342 257.675 19.4708C257.228 19.6297 256.798 19.7109 256.385 19.7109C255.69 19.7109 255.057 19.4178 254.493 18.8282C253.926 18.2421 253.644 17.4088 253.644 16.3284C253.644 14.4748 254.462 12.5364 256.096 10.5238C257.782 8.4301 259.529 7.38147 261.338 7.38147C262.026 7.38147 262.556 7.56154 262.927 7.92521L262.921 7.92168ZM262.504 8.42657C262.219 8.12646 261.871 7.97464 261.462 7.97464C260.045 7.97464 258.731 9.07977 257.513 11.29C256.444 13.2355 255.911 14.9091 255.911 16.3143C255.911 17.0204 256.058 17.5359 256.354 17.8572C256.65 18.1785 257.018 18.341 257.455 18.341C258.752 18.341 260 17.2676 261.201 15.1209C262.356 13.1684 262.938 11.403 262.938 9.83182C262.938 9.19628 262.793 8.72669 262.508 8.42657H262.504Z" fill="white"/>
<path d="M266.924 19.3896L269.133 11.2088C269.322 10.5168 269.432 10.0966 269.463 9.95186C269.494 9.8071 269.508 9.64821 269.508 9.47874C269.508 9.22099 269.435 9.01974 269.294 8.87498C269.153 8.73022 268.875 8.65606 268.462 8.65606C268.359 8.65606 268.259 8.66313 268.159 8.67726C268.06 8.69138 267.949 8.70549 267.829 8.72315V8.28534C268.383 8.19707 268.778 8.12998 269.016 8.08762C269.25 8.04525 269.504 7.99228 269.779 7.92873L272.074 7.41324C272.125 7.44855 272.16 7.48738 272.177 7.53328L270.467 13.2249C271.523 11.576 272.407 10.3473 273.116 9.54582C274.361 8.12646 275.479 7.41324 276.466 7.41324C276.848 7.41324 277.175 7.48739 277.453 7.63921C277.979 7.92873 278.244 8.45482 278.244 9.21393C278.244 9.42578 278.224 9.64821 278.179 9.87771C278.134 10.1072 278.079 10.3544 278.01 10.6192L276.315 16.9604C276.28 17.0946 276.242 17.2535 276.198 17.4441C276.156 17.6348 276.132 17.769 276.132 17.8466C276.132 17.9808 276.163 18.0973 276.222 18.2032C276.28 18.3092 276.377 18.3621 276.511 18.3621C276.724 18.3621 276.972 18.228 277.254 17.9596C277.536 17.6913 277.993 17.1158 278.626 16.2331L279.001 16.5791C278.31 17.5571 277.763 18.2491 277.357 18.6446C276.666 19.3437 276.005 19.6897 275.372 19.6897C275.087 19.6897 274.808 19.5908 274.543 19.3931C274.278 19.1954 274.144 18.8353 274.144 18.3127C274.144 18.1644 274.155 18.002 274.175 17.836C274.196 17.6701 274.223 17.5218 274.258 17.3982L275.905 10.9652C275.991 10.6121 276.05 10.3226 276.081 10.0966C276.112 9.87065 276.126 9.71177 276.126 9.61291C276.126 9.40106 276.074 9.21746 275.978 9.06211C275.878 8.90676 275.702 8.82908 275.451 8.82908C274.798 8.82908 273.976 9.42931 272.982 10.6298C272.397 11.343 271.805 12.1939 271.203 13.1825C270.753 13.9487 270.402 14.6972 270.144 15.4245C269.886 16.1519 269.473 17.4759 268.913 19.3966H266.931L266.924 19.3896Z" fill="white"/>
<path d="M279.228 23.0439C279.4 22.8391 279.648 22.7403 279.974 22.7403C280.188 22.7403 280.377 22.7827 280.542 22.8674C280.707 22.9521 280.876 23.0722 281.058 23.2311L281.24 23.3652C281.292 23.4076 281.35 23.4429 281.416 23.4641C281.481 23.4853 281.55 23.4959 281.629 23.4959C282.048 23.4959 282.726 22.9239 283.662 21.7835C284.594 20.643 285.062 19.8133 285.062 19.2907C285.062 18.7682 284.9 17.829 284.577 16.3814C284.253 14.9373 283.944 13.6486 283.641 12.5223C283.221 10.937 282.836 9.86007 282.485 9.29868C282.138 8.73375 281.622 8.45129 280.944 8.45129C280.893 8.45129 280.803 8.45836 280.679 8.47248C280.556 8.4866 280.342 8.51131 280.04 8.54662V8.10881L283.558 7.40619L283.83 7.37794C284.043 7.35322 284.46 8.34537 285.069 10.3579C285.619 12.1692 285.959 13.4826 286.094 14.3088L286.616 17.4689C287.521 15.9118 288.181 14.7219 288.604 13.8887C289.43 12.2539 289.843 11.11 289.843 10.4532C289.843 10.3014 289.815 10.1567 289.767 10.0084C289.715 9.8636 289.595 9.73649 289.406 9.63057L289.186 9.51052C289.048 9.43991 288.887 9.30574 288.701 9.11155C288.515 8.91735 288.422 8.65608 288.422 8.32772C288.422 8.05232 288.508 7.82282 288.68 7.63922C288.852 7.45209 289.11 7.36029 289.454 7.36029C289.884 7.36029 290.231 7.49092 290.5 7.7522C290.768 8.01348 290.899 8.45836 290.899 9.0833C290.899 10.0295 290.397 11.5478 289.389 13.6415C288.615 15.2374 287.751 16.7839 286.795 18.2809C285.598 20.1487 284.573 21.5928 283.713 22.6061C282.344 24.202 281.209 25 280.308 25C279.954 25 279.644 24.8905 279.372 24.6681C279.101 24.4492 278.967 24.1455 278.967 23.7677C278.967 23.4853 279.053 23.2417 279.225 23.0404L279.228 23.0439Z" fill="white"/>
<path d="M306.364 1.70047V2.13828C305.727 2.17359 305.263 2.25832 304.97 2.38896C304.53 2.60081 304.314 2.96801 304.314 3.48703C304.314 3.55765 304.317 3.63179 304.327 3.70594C304.334 3.78009 304.345 3.85423 304.355 3.92485L306.051 15.7141H306.205L311.527 6.27987C311.795 5.81028 312.049 5.32656 312.29 4.83225C312.693 3.99546 312.895 3.41289 312.895 3.08806C312.895 2.76323 312.772 2.54079 312.521 2.42781C312.273 2.31482 311.846 2.21596 311.244 2.13828V1.70047H316.142V2.13828C315.764 2.21949 315.482 2.31483 315.296 2.43134C315.111 2.54786 314.904 2.80206 314.67 3.19751L304.823 19.8945H304.307L302.074 5.78203C301.806 4.11198 301.579 3.11277 301.383 2.77735C301.19 2.44193 300.726 2.23008 299.997 2.14182V1.704H306.364V1.70047Z" fill="white"/>
<path d="M322.643 8.56427C323.238 9.35516 323.534 10.2873 323.534 11.3642C323.534 13.2355 322.729 15.0715 321.123 16.8722C319.462 18.7435 317.694 19.6791 315.809 19.6791C314.622 19.6791 313.673 19.326 312.957 18.6199C312.242 17.9137 311.888 16.9216 311.888 15.6399C311.888 13.7086 312.686 11.8585 314.285 10.0931C315.919 8.28534 317.687 7.37793 319.585 7.37793C321.03 7.37793 322.048 7.77338 322.643 8.56427ZM314.653 18.3621C315.011 18.8423 315.534 19.0824 316.222 19.0824C317.621 19.0824 318.867 17.9949 319.95 15.8235C320.868 13.9628 321.329 12.2504 321.329 10.6863C321.329 10.0225 321.25 9.48933 321.095 9.08329C320.793 8.31712 320.246 7.93226 319.444 7.93226C318.131 7.93226 316.896 8.94206 315.743 10.9652C314.66 12.8541 314.12 14.7113 314.12 16.5403C314.12 17.2747 314.299 17.8784 314.656 18.3621H314.653Z" fill="white"/>
<path d="M330.389 7.38497C330.438 7.41675 330.455 7.45205 330.448 7.49795L327.844 16.9498C327.724 17.4547 327.662 17.7548 327.662 17.8501C327.662 17.9843 327.689 18.0973 327.741 18.1962C327.782 18.3021 327.892 18.355 328.064 18.355C328.357 18.355 328.742 18.0938 329.227 17.5747C329.512 17.264 329.86 16.8262 330.272 16.2507L330.606 16.5402L330.475 16.7274C329.829 17.6524 329.296 18.3197 328.876 18.7258C328.216 19.3613 327.569 19.6791 326.943 19.6791C326.571 19.6791 326.265 19.5202 326.021 19.2024C325.777 18.8847 325.653 18.5104 325.653 18.0761C325.653 17.8219 325.67 17.5959 325.705 17.4088C325.739 17.2181 325.804 16.9392 325.897 16.5685L327.734 9.7647C327.762 9.65878 327.782 9.56345 327.799 9.47165C327.817 9.38338 327.827 9.29511 327.827 9.20684C327.827 8.88908 327.713 8.69135 327.486 8.6172C327.259 8.54306 326.809 8.50422 326.141 8.50422V8.0664C326.85 7.97814 327.359 7.91105 327.672 7.86161C327.985 7.81218 328.298 7.76276 328.611 7.70979C329.02 7.63918 329.409 7.56151 329.777 7.47324C330.145 7.38497 330.352 7.35672 330.396 7.38849L330.389 7.38497ZM329.172 4.06958C328.921 3.78712 328.797 3.44817 328.797 3.0492C328.797 2.65022 328.921 2.30067 329.172 2.01821C329.419 1.73575 329.722 1.59451 330.073 1.59451C330.424 1.59451 330.73 1.73575 330.981 2.01821C331.236 2.30067 331.363 2.64669 331.363 3.0492C331.363 3.4517 331.236 3.79771 330.981 4.07664C330.727 4.35557 330.424 4.49328 330.073 4.49328C329.722 4.49328 329.419 4.35204 329.172 4.06958Z" fill="white"/>
<path d="M342.263 8.15824C342.728 8.64195 342.958 9.11154 342.958 9.57054C342.958 9.98364 342.838 10.3049 342.597 10.5344C342.356 10.7639 342.071 10.8769 341.747 10.8769C341.424 10.8769 341.163 10.7745 340.946 10.5733C340.733 10.3685 340.622 10.1178 340.622 9.81769C340.622 9.58819 340.695 9.34103 340.836 9.07623C340.977 8.81142 341.049 8.63841 341.049 8.56074C341.049 8.40185 340.96 8.26769 340.784 8.15824C340.609 8.04878 340.327 7.99229 339.938 7.99229C338.552 7.99229 337.351 8.80083 336.333 10.4179C335.315 12.035 334.806 13.7333 334.806 15.5093C334.806 16.5085 335.012 17.2888 335.425 17.8572C335.838 18.4222 336.457 18.7046 337.283 18.7046C337.943 18.7046 338.586 18.5069 339.212 18.115C339.835 17.7231 340.409 17.2217 340.936 16.6109L341.025 16.505L341.4 16.798C340.798 17.5854 340.217 18.1891 339.659 18.6128C338.669 19.3472 337.575 19.7109 336.371 19.7109C335.167 19.7109 334.287 19.3331 333.571 18.5775C332.856 17.8219 332.501 16.7909 332.501 15.4846C332.501 13.4826 333.296 11.636 334.889 9.95186C336.464 8.27475 338.167 7.43796 339.996 7.43796C341.046 7.43796 341.802 7.67805 342.267 8.16176L342.263 8.15824Z" fill="white"/>
<path d="M346.865 10.1849C348.568 8.35245 350.326 7.43445 352.142 7.43445C352.813 7.43445 353.346 7.59333 353.741 7.9111C354.137 8.22887 354.333 8.69846 354.333 9.32341C354.333 10.591 353.607 11.6784 352.159 12.5823C350.711 13.4862 349.187 14.037 347.588 14.2418L346.852 14.3336C346.738 14.6972 346.662 14.9832 346.621 15.2021C346.576 15.4175 346.556 15.6894 346.556 16.0177C346.556 16.7945 346.803 17.3983 347.299 17.8325C347.794 18.2668 348.379 18.4822 349.06 18.4822C349.741 18.4822 350.388 18.2633 351.11 17.8184C351.523 17.5642 352.121 17.1052 352.902 16.4414L353.236 16.7451C352.85 17.25 352.293 17.7655 351.571 18.2951C350.288 19.2413 349.005 19.7109 347.715 19.7109C346.803 19.7109 346.002 19.379 345.314 18.7188C344.626 18.0585 344.282 17.1087 344.282 15.8765C344.282 13.9205 345.142 12.0244 346.862 10.1884L346.865 10.1849ZM351.048 11.9574C352.08 11.0182 352.596 10.0896 352.596 9.16452C352.596 8.8291 352.52 8.5643 352.365 8.36657C352.211 8.16885 351.984 8.06999 351.681 8.06999C351.124 8.06999 350.573 8.31361 350.037 8.80439C349.5 9.29163 349.015 9.84596 348.585 10.4603C348.128 11.1841 347.767 11.8726 347.502 12.5329C347.354 12.8859 347.199 13.2849 347.037 13.7333C348.681 13.4862 350.016 12.893 351.048 11.9574Z" fill="white"/>
<path d="M356.128 15.4422H356.555C356.744 16.512 356.968 17.2923 357.226 17.7866C357.7 18.6976 358.402 19.1495 359.341 19.1495C359.867 19.1495 360.308 18.9588 360.662 18.581C361.02 18.2032 361.199 17.6984 361.199 17.0734C361.199 16.685 361.154 16.3672 361.064 16.1201C360.975 15.8729 360.861 15.647 360.724 15.4457L359.654 13.818C359.007 12.8294 358.605 12.1692 358.443 11.8337C358.192 11.3324 358.068 10.8275 358.068 10.3261C358.068 9.55994 358.337 8.88203 358.873 8.29239C359.41 7.70629 360.173 7.41324 361.164 7.41324C361.584 7.41324 362.065 7.49445 362.609 7.65686C363.152 7.81928 363.52 7.90049 363.72 7.90049C363.933 7.90049 364.095 7.85812 364.198 7.76985C364.301 7.68158 364.397 7.56153 364.483 7.41324H364.858L364.329 11.1735H363.902C363.789 10.3191 363.623 9.67293 363.4 9.23865C362.987 8.43716 362.334 8.03466 361.439 8.03466C361.061 8.03466 360.724 8.1547 360.428 8.39832C360.132 8.64195 359.984 8.99502 359.984 9.46461C359.984 9.82828 360.05 10.1461 360.184 10.4179C360.318 10.6933 360.621 11.177 361.092 11.8726L362.007 13.2213C362.478 13.9204 362.815 14.4889 363.011 14.9302C363.207 15.3716 363.307 15.8482 363.307 16.3602C363.307 17.3135 362.911 18.1185 362.12 18.7717C361.329 19.4249 360.387 19.7497 359.296 19.7497C358.942 19.7497 358.44 19.6756 357.786 19.5237C357.133 19.3755 356.754 19.2978 356.651 19.2978C356.479 19.2978 356.352 19.3366 356.269 19.4178C356.187 19.4955 356.111 19.6156 356.042 19.7744H355.616L356.132 15.4457L356.128 15.4422Z" fill="white"/>
</svg>
