<svg width="522" height="144" viewBox="0 0 522 144" fill="none" xmlns="http://www.w3.org/2000/svg">
<path d="M17.9942 40.7656C15.5557 40.7656 13.218 40.4845 10.969 39.9305C8.72405 39.3724 6.67657 38.4966 4.83061 37.303C2.98464 36.1094 1.45305 34.5696 0.23584 32.6875L5.66088 26.3408C6.5355 27.958 7.66806 29.2738 9.05858 30.2963C10.4491 31.3147 11.9605 32.0765 13.5969 32.5776C15.2333 33.0786 16.8132 33.3271 18.3368 33.3271C19.4411 33.3271 20.4205 33.2008 21.279 32.9523C22.1335 32.7038 22.8106 32.3087 23.3063 31.771C23.8021 31.2332 24.048 30.5204 24.048 29.6364C24.048 28.6343 23.7699 27.8399 23.2217 27.2411C22.6695 26.6463 21.8312 26.1453 20.7107 25.742C19.5862 25.3387 18.1715 24.9639 16.4585 24.6177L12.7465 23.8111C11.2633 23.5056 9.83244 23.0982 8.46208 22.5971C7.09171 22.0961 5.85434 21.4158 4.74999 20.5481C3.64564 19.6804 2.77908 18.605 2.15032 17.3177C1.52157 16.0304 1.2072 14.4621 1.2072 12.6126C1.2072 10.0748 1.84402 7.94831 3.12168 6.23331C4.39532 4.52238 6.12034 3.23104 8.28874 2.36742C10.4571 1.50381 12.8392 1.06793 15.4267 1.06793C19.0058 1.06793 22.1939 1.72379 24.9911 3.03143C27.7882 4.33907 29.9889 6.14776 31.585 8.45752L26.0471 14.7472C24.7896 12.7471 23.133 11.2072 21.0775 10.1318C19.0219 9.05634 16.8898 8.51455 14.6811 8.51455C13.6896 8.51455 12.815 8.65713 12.0532 8.94636C11.2915 9.23558 10.703 9.63888 10.2838 10.1603C9.86467 10.6817 9.65509 11.305 9.65509 12.0342C9.65509 13.46 10.2355 14.4987 11.3963 15.1505C12.557 15.8064 14.1289 16.3645 16.1079 16.8248L20.4487 17.8636C22.2383 18.2872 23.8666 18.8086 25.3297 19.4238C26.7927 20.0389 28.0623 20.7884 29.1264 21.6765C30.1904 22.5605 31.0126 23.64 31.5809 24.9069C32.1533 26.1779 32.4354 27.677 32.4354 29.4083C32.4354 31.8728 31.8067 33.9504 30.5491 35.6409C29.2916 37.3356 27.5787 38.6147 25.4103 39.4783C23.2419 40.3419 20.7672 40.7778 17.9861 40.7778L17.9942 40.7656Z" fill="white"/>
<path d="M52.6563 40.7085C49.8028 40.7085 47.2031 40.1993 44.8614 39.1809C42.5197 38.1625 40.4923 36.749 38.7794 34.9403C37.0664 33.1316 35.7444 31.0173 34.8094 28.5935C33.8743 26.1697 33.4108 23.5707 33.4108 20.8007C33.4108 18.0306 33.8783 15.4438 34.8094 13.0363C35.7404 10.6328 37.0664 8.52677 38.7794 6.71808C40.4923 4.90938 42.5197 3.49582 44.8614 2.47741C47.2031 1.459 49.7987 0.949799 52.6563 0.949799C55.514 0.949799 58.1177 1.459 60.4795 2.47741C62.8414 3.49582 64.8647 4.91345 66.5615 6.71808C68.2543 8.52677 69.5683 10.6328 70.5034 13.0363C71.4344 15.4397 71.9019 18.0306 71.9019 20.8007C71.9019 23.5707 71.4344 26.1697 70.5034 28.5935C69.5683 31.0173 68.2584 33.1356 66.5615 34.9403C64.8687 36.749 62.8414 38.1625 60.4795 39.1809C58.1177 40.1993 55.5099 40.7085 52.6563 40.7085ZM52.6563 32.6875C55.0182 32.6875 56.9851 32.1783 58.5651 31.1599C60.145 30.1415 61.3259 28.728 62.1038 26.9193C62.8817 25.1106 63.2727 23.0737 63.2727 20.8007C63.2727 18.5276 62.8817 16.4419 62.1038 14.6535C61.3219 12.8652 60.141 11.4598 58.5651 10.4414C56.9851 9.42297 55.0142 8.91377 52.6563 8.91377C50.2985 8.91377 48.384 9.42297 46.8041 10.4414C45.2241 11.4598 44.0351 12.8652 43.2331 14.6535C42.435 16.4419 42.036 18.4909 42.036 20.8007C42.036 23.1104 42.435 25.1106 43.2331 26.9193C44.0311 28.728 45.2201 30.1415 46.8041 31.1599C48.384 32.1783 50.3348 32.6875 52.6563 32.6875Z" fill="white"/>
<path d="M90.8009 40.7656C85.4726 40.7656 81.4542 39.352 78.7538 36.5249C76.0493 33.6978 74.6991 29.2616 74.6991 23.2204V1.52011H82.8649V23.3345C82.8649 26.6423 83.5098 29.0498 84.8076 30.5489C86.1014 32.048 88.1206 32.8016 90.8614 32.8016C93.6021 32.8016 95.706 32.0521 96.9434 30.5489C98.1807 29.0498 98.7974 26.6423 98.7974 23.3345V1.52011H106.963V23.2204C106.963 29.2616 105.629 33.6937 102.965 36.5249C100.301 39.352 96.2461 40.7656 90.8009 40.7656Z" fill="white"/>
<path d="M138.252 8.84859H107.245V1.52011H138.252V8.84859ZM126.829 40.1912H118.664V1.52011H126.829V40.1871V40.1912Z" fill="white"/>
<path d="M147.046 40.1912H138.881V1.52011H147.046V40.1871V40.1912ZM166.747 24.3162H142.593V16.9877H166.747V24.3162ZM171.544 40.1912H163.378V1.52011H171.544V40.1871V40.1912Z" fill="white"/>
<path d="M190.33 28.4143H174.913V21.6602H190.33V28.4143Z" fill="white"/>
<path d="M209.801 40.7656C207.363 40.7656 205.025 40.4845 202.776 39.9305C200.531 39.3724 198.483 38.4966 196.637 37.303C194.792 36.1094 193.26 34.5696 192.043 32.6875L197.468 26.3408C198.342 27.958 199.475 29.2738 200.865 30.2963C202.256 31.3147 203.767 32.0765 205.404 32.5776C207.04 33.0786 208.62 33.3271 210.144 33.3271C211.248 33.3271 212.227 33.2008 213.086 32.9523C213.94 32.7038 214.617 32.3087 215.113 31.771C215.609 31.2332 215.855 30.5204 215.855 29.6364C215.855 28.6343 215.577 27.8399 215.029 27.2411C214.476 26.6463 213.638 26.1453 212.518 25.742C211.393 25.3387 209.978 24.9639 208.265 24.6177L204.553 23.8111C203.07 23.5056 201.639 23.0982 200.269 22.5971C198.899 22.0961 197.661 21.4158 196.557 20.5481C195.452 19.6804 194.586 18.605 193.957 17.3177C193.328 16.0304 193.014 14.4621 193.014 12.6126C193.014 10.0748 193.651 7.94831 194.929 6.23331C196.202 4.52238 197.927 3.23104 200.096 2.36742C202.264 1.50381 204.646 1.06793 207.234 1.06793C210.813 1.06793 214.001 1.72379 216.798 3.03143C219.595 4.33907 221.796 6.14776 223.392 8.45752L217.854 14.7472C216.596 12.7471 214.94 11.2072 212.884 10.1318C210.829 9.05634 208.697 8.51455 206.488 8.51455C205.496 8.51455 204.622 8.65713 203.86 8.94636C203.098 9.23558 202.51 9.63888 202.091 10.1603C201.672 10.6817 201.462 11.305 201.462 12.0342C201.462 13.46 202.042 14.4987 203.203 15.1505C204.364 15.8064 205.936 16.3645 207.915 16.8248L212.256 17.8636C214.045 18.2872 215.673 18.8086 217.137 19.4238C218.6 20.0389 219.869 20.7884 220.933 21.6765C221.997 22.5605 222.82 23.64 223.388 24.9069C223.96 26.1779 224.242 27.677 224.242 29.4083C224.242 31.8728 223.614 33.9504 222.356 35.6409C221.098 37.3356 219.386 38.6147 217.217 39.4783C215.049 40.3419 212.574 40.7778 209.793 40.7778L209.801 40.7656Z" fill="white"/>
<path d="M244.463 40.7085C241.61 40.7085 239.01 40.1993 236.668 39.1809C234.327 38.1625 232.299 36.749 230.586 34.9403C228.873 33.1316 227.551 31.0173 226.616 28.5935C225.681 26.1697 225.218 23.5707 225.218 20.8007C225.218 18.0306 225.685 15.4438 226.616 13.0363C227.547 10.6328 228.873 8.52677 230.586 6.71808C232.299 4.90938 234.327 3.49582 236.668 2.47741C239.01 1.459 241.606 0.949799 244.463 0.949799C247.321 0.949799 249.924 1.459 252.286 2.47741C254.648 3.49582 256.672 4.91345 258.368 6.71808C260.061 8.52677 261.375 10.6328 262.31 13.0363C263.241 15.4397 263.709 18.0306 263.709 20.8007C263.709 23.5707 263.241 26.1697 262.31 28.5935C261.375 31.0173 260.065 33.1356 258.368 34.9403C256.676 36.749 254.648 38.1625 252.286 39.1809C249.924 40.1993 247.317 40.7085 244.463 40.7085ZM244.463 32.6875C246.825 32.6875 248.792 32.1783 250.372 31.1599C251.952 30.1415 253.133 28.728 253.911 26.9193C254.689 25.1106 255.08 23.0737 255.08 20.8007C255.08 18.5276 254.689 16.4419 253.911 14.6535C253.129 12.8652 251.948 11.4598 250.372 10.4414C248.792 9.42297 246.821 8.91377 244.463 8.91377C242.105 8.91377 240.191 9.42297 238.611 10.4414C237.031 11.4598 235.842 12.8652 235.04 14.6535C234.242 16.4419 233.843 18.4909 233.843 20.8007C233.843 23.1104 234.242 25.1106 235.04 26.9193C235.838 28.728 237.027 30.1415 238.611 31.1599C240.191 32.1783 242.142 32.6875 244.463 32.6875Z" fill="white"/>
<path d="M282.608 40.7656C277.279 40.7656 273.261 39.352 270.561 36.5249C267.856 33.6978 266.506 29.2616 266.506 23.2204V1.52011H274.672V23.3345C274.672 26.6423 275.317 29.0498 276.614 30.5489C277.908 32.048 279.927 32.8016 282.668 32.8016C285.409 32.8016 287.513 32.0521 288.75 30.5489C289.988 29.0498 290.604 26.6423 290.604 23.3345V1.52011H298.77V23.2204C298.77 29.2616 297.436 33.6937 294.772 36.5249C292.108 39.352 288.053 40.7656 282.608 40.7656Z" fill="white"/>
<path d="M330.063 8.84859H299.056V1.52011H330.063V8.84859ZM318.64 40.1912H310.475V1.52011H318.64V40.1871V40.1912Z" fill="white"/>
<path d="M338.853 40.1912H330.688V1.52011H338.853V40.1871V40.1912ZM358.554 24.3162H334.4V16.9877H358.554V24.3162ZM363.351 40.1912H355.185V1.52011H363.351V40.1871V40.1912Z" fill="white"/>
<path d="M17.9942 91.9713C15.5557 91.9713 13.218 91.6902 10.969 91.1362C8.72405 90.5781 6.67657 89.7022 4.83061 88.5087C2.98464 87.3151 1.45305 85.7753 0.23584 83.8932L5.66088 77.5465C6.5355 79.1637 7.66806 80.4795 9.05858 81.502C10.4491 82.5204 11.9605 83.2822 13.5969 83.7832C15.2333 84.2843 16.8132 84.5328 18.3368 84.5328C19.4411 84.5328 20.4205 84.4065 21.279 84.158C22.1335 83.9095 22.8106 83.5144 23.3063 82.9767C23.8021 82.4389 24.048 81.726 24.048 80.8421C24.048 79.84 23.7699 79.0456 23.2217 78.4468C22.6695 77.852 21.8312 77.351 20.7107 76.9477C19.5862 76.5444 18.1715 76.1696 16.4585 75.8233L12.7465 75.0168C11.2633 74.7112 9.83244 74.3039 8.46208 73.8028C7.09171 73.3018 5.85434 72.6215 4.74999 71.7538C3.64564 70.8861 2.77908 69.8106 2.15032 68.5234C1.52157 67.2361 1.2072 65.6678 1.2072 63.8183C1.2072 61.2804 1.84402 59.154 3.12168 57.439C4.39532 55.7281 6.12034 54.4367 8.28874 53.5731C10.4571 52.7095 12.8392 52.2736 15.4267 52.2736C19.0058 52.2736 22.1939 52.9295 24.9911 54.2371C27.7882 55.5448 29.9889 57.3535 31.585 59.6632L26.0471 65.9529C24.7896 63.9527 23.133 62.4129 21.0775 61.3375C19.0219 60.262 16.8898 59.7202 14.6811 59.7202C13.6896 59.7202 12.815 59.8628 12.0532 60.152C11.2915 60.4413 10.703 60.8446 10.2838 61.366C9.86467 61.8874 9.65509 62.5107 9.65509 63.2399C9.65509 64.6656 10.2355 65.7044 11.3963 66.3562C12.557 67.0121 14.1289 67.5701 16.1079 68.0305L20.4487 69.0692C22.2383 69.4929 23.8666 70.0143 25.3297 70.6295C26.7927 71.2446 28.0623 71.9941 29.1264 72.8822C30.1904 73.7662 31.0126 74.8457 31.5809 76.1126C32.1533 77.3835 32.4354 78.8826 32.4354 80.6139C32.4354 83.0785 31.8067 85.1561 30.5491 86.8466C29.2916 88.5413 27.5787 89.8204 25.4103 90.684C23.2419 91.5476 20.7672 91.9835 17.9861 91.9835L17.9942 91.9713Z" fill="white"/>
<path d="M52.6563 91.9142C49.8028 91.9142 47.2031 91.405 44.8614 90.3866C42.5197 89.3682 40.4923 87.9546 38.7794 86.1459C37.0664 84.3372 35.7444 82.223 34.8094 79.7992C33.8743 77.3754 33.4108 74.7764 33.4108 72.0063C33.4108 69.2362 33.8783 66.6495 34.8094 64.242C35.7404 61.8385 37.0664 59.7324 38.7794 57.9238C40.4923 56.1151 42.5197 54.7015 44.8614 53.6831C47.2031 52.6647 49.7987 52.1555 52.6563 52.1555C55.514 52.1555 58.1177 52.6647 60.4795 53.6831C62.8414 54.7015 64.8647 56.1191 66.5615 57.9238C68.2543 59.7324 69.5683 61.8385 70.5034 64.242C71.4344 66.6454 71.9019 69.2362 71.9019 72.0063C71.9019 74.7764 71.4344 77.3754 70.5034 79.7992C69.5683 82.223 68.2584 84.3413 66.5615 86.1459C64.8687 87.9546 62.8414 89.3682 60.4795 90.3866C58.1177 91.405 55.5099 91.9142 52.6563 91.9142ZM52.6563 83.8932C55.0182 83.8932 56.9851 83.384 58.5651 82.3656C60.145 81.3472 61.3259 79.9336 62.1038 78.1249C62.8817 76.3162 63.2727 74.2794 63.2727 72.0063C63.2727 69.7332 62.8817 67.6475 62.1038 65.8592C61.3219 64.0709 60.141 62.6655 58.5651 61.6471C56.9851 60.6286 55.0142 60.1194 52.6563 60.1194C50.2985 60.1194 48.384 60.6286 46.8041 61.6471C45.2241 62.6655 44.0351 64.0709 43.2331 65.8592C42.435 67.6475 42.036 69.6966 42.036 72.0063C42.036 74.3161 42.435 76.3162 43.2331 78.1249C44.0311 79.9336 45.2201 81.3472 46.8041 82.3656C48.384 83.384 50.3348 83.8932 52.6563 83.8932Z" fill="white"/>
<path d="M93.0821 91.8572C89.0839 91.8572 85.666 90.9732 82.8326 89.2012C79.9951 87.4332 77.8267 85.0461 76.3234 82.0438C74.82 79.0415 74.0663 75.6971 74.0663 72.0023C74.0663 68.3075 74.816 64.9141 76.3234 61.9322C77.8267 58.9503 79.9951 56.5754 82.8326 54.8033C85.6701 53.0354 89.0839 52.1473 93.0821 52.1473C95.8591 52.1473 98.354 52.5914 100.563 53.4753C102.771 54.3593 104.682 55.6303 106.302 57.2842C107.918 58.9381 109.224 60.9016 110.212 63.1706L103.247 68.8248C102.864 67.2076 102.247 65.737 101.393 64.409C100.539 63.081 99.414 62.0218 98.0235 61.2356C96.633 60.4494 94.9684 60.0543 93.0257 60.0543C90.817 60.0543 88.9509 60.5635 87.4314 61.5819C85.9079 62.6003 84.7672 64.0057 84.0055 65.794C83.2437 67.5824 82.8648 69.6518 82.8648 71.9982C82.8648 74.3446 83.2437 76.3651 84.0055 78.1738C84.7672 79.9825 85.9079 81.3961 87.4314 82.4145C88.9549 83.4329 90.821 83.9421 93.0257 83.9421C94.9684 83.9421 96.633 83.547 98.0235 82.7607C99.414 81.9705 100.534 80.9154 101.393 79.5874C102.251 78.2594 102.868 76.7888 103.247 75.1715L110.212 80.8258C109.22 83.0948 107.918 85.0583 106.302 86.7122C104.682 88.3661 102.771 89.6371 100.563 90.521C98.354 91.405 95.8591 91.849 93.0821 91.849V91.8572Z" fill="white"/>
<path d="M120.433 91.3928H112.267V52.7258H120.433V91.3928Z" fill="white"/>
<path d="M129.288 91.3928H120.606L134.939 52.7258H145.446L159.779 91.3928H150.815L142.363 67.5009L140.078 59.3047L137.792 67.5009L129.284 91.3928H129.288ZM150.299 82.7933H128.599V75.8111H150.299V82.7933Z" fill="white"/>
<path d="M168.061 91.3928H159.896V52.7258H168.061V91.3928ZM187.19 91.3928H162.749V84.0643H187.19V91.3928Z" fill="white"/>
<path d="M206.831 91.3928H198.665V52.7258H209.458L215.681 67.0976L219.281 78.5812L222.88 67.0976L229.103 52.7258H239.897V91.3928H231.731V76.9069L232.872 61.3252L228.305 74.1939L223.565 84.6998H215L210.26 74.1939L205.633 61.3252L206.831 76.9069V91.3928Z" fill="white"/>
<path d="M262.334 91.9142C259.481 91.9142 256.881 91.405 254.539 90.3866C252.198 89.3682 250.17 87.9546 248.457 86.1459C246.744 84.3372 245.423 82.223 244.487 79.7992C243.552 77.3754 243.089 74.7764 243.089 72.0063C243.089 69.2362 243.556 66.6495 244.487 64.242C245.418 61.8385 246.744 59.7324 248.457 57.9238C250.17 56.1151 252.198 54.7015 254.539 53.6831C256.881 52.6647 259.477 52.1555 262.334 52.1555C265.192 52.1555 267.796 52.6647 270.158 53.6831C272.519 54.7015 274.543 56.1191 276.24 57.9238C277.932 59.7324 279.246 61.8385 280.181 64.242C281.112 66.6454 281.58 69.2362 281.58 72.0063C281.58 74.7764 281.112 77.3754 280.181 79.7992C279.246 82.223 277.936 84.3413 276.24 86.1459C274.547 87.9546 272.519 89.3682 270.158 90.3866C267.796 91.405 265.188 91.9142 262.334 91.9142ZM262.334 83.8932C264.696 83.8932 266.663 83.384 268.243 82.3656C269.823 81.3472 271.004 79.9336 271.782 78.1249C272.56 76.3162 272.951 74.2794 272.951 72.0063C272.951 69.7332 272.56 67.6475 271.782 65.8592C271 64.0709 269.819 62.6655 268.243 61.6471C266.663 60.6286 264.692 60.1194 262.334 60.1194C259.977 60.1194 258.062 60.6286 256.482 61.6471C254.902 62.6655 253.713 64.0709 252.911 65.8592C252.113 67.6475 251.714 69.6966 251.714 72.0063C251.714 74.3161 252.113 76.3162 252.911 78.1249C253.709 79.9336 254.898 81.3472 256.482 82.3656C258.062 83.384 260.013 83.8932 262.334 83.8932Z" fill="white"/>
<path d="M304.364 91.3928H293.913L280.323 52.7258H289.915L296.481 73.5625L299.278 85.9137L302.131 73.5625L308.697 52.7258H317.947L304.356 91.3928H304.364Z" fill="white"/>
<path d="M326.464 91.3928H318.298V52.7258H326.464V91.3928ZM346.39 60.0543H321.151V52.7258H346.39V60.0543ZM343.138 75.5219H321.151V68.1934H343.138V75.5219ZM346.39 91.3928H321.151V84.0643H346.39V91.3928Z" fill="white"/>
<path d="M357.127 91.3928H348.962V52.7258H359.755L365.978 67.0976L369.578 78.5812L373.177 67.0976L379.4 52.7258H390.194V91.3928H382.028V76.9069L383.168 61.3252L378.602 74.1939L373.862 84.6998H365.297L360.557 74.1939L355.93 61.3252L357.127 76.9069V91.3928Z" fill="white"/>
<path d="M403.893 91.3928H395.727V52.7258H403.893V91.3928ZM423.824 60.0543H398.585V52.7258H423.824V60.0543ZM420.567 75.5219H398.581V68.1934H420.567V75.5219ZM423.824 91.3928H398.585V84.0643H423.824V91.3928Z" fill="white"/>
<path d="M434.557 91.3928H426.391V52.7258H434.327L447.918 72.927L451.401 78.9885L450.885 69.8677V52.7258H459.05V91.3928H451.284L437.35 71.0205L433.924 65.3052L434.553 74.8864V91.3928H434.557Z" fill="white"/>
<path d="M490.69 60.0543H459.683V52.7258H490.69V60.0543ZM479.271 91.3928H471.106V52.7258H479.271V91.3928Z" fill="white"/>
<path d="M507.42 91.9713C504.982 91.9713 502.644 91.6902 500.395 91.1362C498.15 90.5781 496.103 89.7022 494.257 88.5087C492.411 87.3151 490.879 85.7753 489.662 83.8932L495.087 77.5465C495.962 79.1637 497.094 80.4795 498.485 81.502C499.875 82.5204 501.387 83.2822 503.023 83.7832C504.659 84.2843 506.239 84.5328 507.763 84.5328C508.867 84.5328 509.847 84.4065 510.705 84.158C511.56 83.9095 512.237 83.5144 512.732 82.9767C513.228 82.4389 513.474 81.726 513.474 80.8421C513.474 79.84 513.196 79.0456 512.648 78.4468C512.096 77.852 511.257 77.351 510.137 76.9477C509.012 76.5444 507.598 76.1696 505.885 75.8233L502.173 75.0168C500.689 74.7112 499.259 74.3039 497.888 73.8028C496.518 73.3018 495.28 72.6215 494.176 71.7538C493.072 70.8861 492.205 69.8106 491.576 68.5234C490.948 67.2361 490.633 65.6678 490.633 63.8183C490.633 61.2804 491.27 59.154 492.548 57.439C493.821 55.7281 495.546 54.4367 497.715 53.5731C499.883 52.7095 502.265 52.2736 504.853 52.2736C508.432 52.2736 511.62 52.9295 514.417 54.2371C517.214 55.5448 519.415 57.3535 521.011 59.6632L515.473 65.9529C514.216 63.9527 512.559 62.4129 510.504 61.3375C508.448 60.262 506.316 59.7202 504.107 59.7202C503.116 59.7202 502.241 59.8628 501.479 60.152C500.718 60.4413 500.129 60.8446 499.71 61.366C499.291 61.8874 499.081 62.5107 499.081 63.2399C499.081 64.6656 499.662 65.7044 500.822 66.3562C501.983 67.0121 503.555 67.5701 505.534 68.0305L509.875 69.0692C511.664 69.4929 513.293 70.0143 514.756 70.6295C516.219 71.2446 517.488 71.9941 518.552 72.8822C519.617 73.7662 520.439 74.8457 521.007 76.1126C521.579 77.3835 521.862 78.8826 521.862 80.6139C521.862 83.0785 521.233 85.1561 519.975 86.8466C518.718 88.5413 517.005 89.8204 514.836 90.684C512.668 91.5476 510.193 91.9835 507.412 91.9835L507.42 91.9713Z" fill="white"/>
<path d="M19.3645 143.063C15.3663 143.063 11.9484 142.179 9.115 140.407C6.27754 138.639 4.10913 136.252 2.60576 133.249C1.10239 130.247 0.348694 126.903 0.348694 123.208C0.348694 119.513 1.09835 116.12 2.60576 113.138C4.10913 110.156 6.27754 107.781 9.115 106.009C11.9525 104.241 15.3663 103.353 19.3645 103.353C22.1415 103.353 24.6364 103.797 26.8451 104.681C29.0538 105.565 30.9643 106.836 32.5845 108.49C34.2008 110.144 35.5066 112.107 36.4941 114.376L29.5294 120.031C29.1465 118.413 28.5299 116.943 27.6754 115.615C26.8209 114.287 25.6964 113.228 24.3059 112.441C22.9154 111.655 21.2508 111.26 19.3081 111.26C17.0994 111.26 15.2333 111.769 13.7138 112.788C12.1903 113.806 11.0496 115.211 10.2879 117C9.5261 118.788 9.14723 120.857 9.14723 123.204C9.14723 125.55 9.5261 127.571 10.2879 129.38C11.0496 131.188 12.1903 132.602 13.7138 133.62C15.2373 134.639 17.1034 135.148 19.3081 135.148C21.2508 135.148 22.9154 134.753 24.3059 133.966C25.6964 133.176 26.8169 132.121 27.6754 130.793C28.5339 129.465 29.1505 127.994 29.5294 126.377L36.4941 132.031C35.5026 134.3 34.2008 136.264 32.5845 137.918C30.9643 139.572 29.0538 140.843 26.8451 141.727C24.6364 142.611 22.1415 143.055 19.3645 143.055V143.063Z" fill="white"/>
<path d="M55.7921 143.12C52.9385 143.12 50.3388 142.611 47.9971 141.592C45.6554 140.574 43.6281 139.16 41.9151 137.352C40.2022 135.543 38.8801 133.429 37.9451 131.005C37.01 128.581 36.5465 125.982 36.5465 123.212C36.5465 120.442 37.014 117.855 37.9451 115.448C38.8761 113.044 40.2022 110.938 41.9151 109.129C43.6281 107.321 45.6554 105.907 47.9971 104.889C50.3388 103.87 52.9345 103.361 55.7921 103.361C58.6497 103.361 61.2534 103.87 63.6152 104.889C65.9771 105.907 68.0004 107.325 69.6973 109.129C71.3901 110.938 72.704 113.044 73.6391 115.448C74.5701 117.851 75.0377 120.442 75.0377 123.212C75.0377 125.982 74.5701 128.581 73.6391 131.005C72.704 133.429 71.3941 135.547 69.6973 137.352C68.0045 139.16 65.9771 140.574 63.6152 141.592C61.2534 142.611 58.6457 143.12 55.7921 143.12ZM55.7921 135.095C58.154 135.095 60.1208 134.586 61.7008 133.567C63.2807 132.549 64.4617 131.135 65.2395 129.327C66.0174 127.518 66.4084 125.481 66.4084 123.208C66.4084 120.935 66.0174 118.849 65.2395 117.061C64.4576 115.272 63.2767 113.867 61.7008 112.849C60.1208 111.83 58.1499 111.321 55.7921 111.321C53.4342 111.321 51.5198 111.83 49.9398 112.849C48.3599 113.867 47.1709 115.272 46.3688 117.061C45.5708 118.849 45.1717 120.898 45.1717 123.208C45.1717 125.518 45.5708 127.518 46.3688 129.327C47.1668 131.135 48.3558 132.549 49.9398 133.567C51.5198 134.586 53.4705 135.095 55.7921 135.095Z" fill="white"/>
<path d="M86.3996 142.598H78.2338V103.931H86.1699L99.7606 124.133L103.243 130.194L102.727 121.073V103.931H110.893V142.598H103.126L89.1927 122.226L85.7668 116.511L86.3956 126.092V142.598H86.3996Z" fill="white"/>
<path d="M135.281 142.598H124.83L111.24 103.931H120.832L127.398 124.768L130.195 137.119L133.048 124.768L139.614 103.931H148.864L135.273 142.598H135.281Z" fill="white"/>
<path d="M157.38 142.598H149.215V103.931H157.38V142.598ZM177.307 111.26H152.068V103.931H177.307V111.26ZM174.055 126.728H152.068V119.399H174.055V126.728ZM177.307 142.598H152.068V135.27H177.307V142.598Z" fill="white"/>
<path d="M188.044 142.598H179.879V103.931H188.044V142.598ZM198.153 128.113H183.079V121.477H197.355C198.536 121.477 199.584 121.301 200.495 120.955C201.41 120.609 202.123 120.071 202.635 119.338C203.151 118.609 203.405 117.627 203.405 116.393C203.405 115.158 203.147 114.16 202.635 113.39C202.119 112.621 201.406 112.075 200.495 111.745C199.58 111.419 198.532 111.256 197.355 111.256H183.079V103.927H197.641C200.382 103.927 202.836 104.359 205.009 105.227C207.177 106.095 208.882 107.419 210.119 109.211C211.357 110.999 211.973 113.26 211.973 115.994C211.973 118.727 211.353 120.813 210.119 122.487C208.882 124.161 207.226 125.383 205.15 126.153C203.074 126.923 200.745 127.29 198.153 127.249V128.117V128.113ZM213.457 142.598H204.033L197.581 131.632C196.819 130.361 195.952 129.461 194.981 128.919C194.01 128.381 192.688 128.113 191.011 128.113L198.89 126.728C200.414 126.842 201.68 127.159 202.687 127.681C203.695 128.202 204.561 128.862 205.287 129.673C206.008 130.479 206.714 131.445 207.399 132.557L213.453 142.598H213.457Z" fill="white"/>
<path d="M229.103 143.063C226.056 143.063 223.344 142.313 220.966 140.81C218.588 139.311 216.709 137.087 215.339 134.146C213.969 131.2 213.283 127.559 213.283 123.208C213.283 119.362 214.033 115.945 215.54 112.963C217.044 109.981 219.224 107.634 222.078 105.923C224.932 104.213 228.418 103.357 232.529 103.357C235.233 103.357 237.696 103.76 239.925 104.571C242.154 105.378 244.072 106.555 245.693 108.091C247.309 109.631 248.558 111.46 249.433 113.574L242.525 118.882C242.182 117.46 241.573 116.169 240.699 115.016C239.824 113.863 238.708 112.946 237.358 112.274C236.007 111.602 234.399 111.264 232.533 111.264C230.211 111.264 228.269 111.773 226.709 112.792C225.149 113.81 223.988 115.207 223.227 116.975C222.465 118.747 222.086 120.825 222.086 123.208C222.086 125.591 222.485 127.807 223.283 129.616C224.081 131.424 225.242 132.818 226.765 133.799C228.289 134.781 230.135 135.27 232.303 135.27C234.129 135.27 235.681 134.981 236.958 134.406C238.232 133.828 239.28 133.001 240.098 131.926C240.916 130.85 241.553 129.599 242.013 128.174H242.585L242.355 128.52C242.242 131.559 241.65 134.166 240.586 136.341C239.518 138.517 238.027 140.179 236.104 141.336C234.181 142.488 231.848 143.067 229.107 143.067L229.103 143.063ZM249.715 142.598H244.29L242.347 128.516H231.384V121.88H249.715V142.598Z" fill="white"/>
<path d="M262.334 142.598H254.169V103.931H262.334V142.598ZM282.265 111.26H257.026V103.931H282.265V111.26ZM279.009 126.728H257.022V119.399H279.009V126.728ZM282.265 142.598H257.026V135.27H282.265V142.598Z" fill="white"/>
<path d="M292.998 142.598H284.833V103.931H292.769L306.359 124.133L309.842 130.194L309.326 121.073V103.931H317.492V142.598H309.725L295.792 122.226L292.366 116.511L292.994 126.092V142.598H292.998Z" fill="white"/>
<path d="M339.708 143.063C335.709 143.063 332.292 142.179 329.458 140.407C326.621 138.639 324.452 136.252 322.949 133.249C321.446 130.247 320.692 126.903 320.692 123.208C320.692 119.513 321.442 116.12 322.949 113.138C324.452 110.156 326.621 107.781 329.458 106.009C332.296 104.241 335.709 103.353 339.708 103.353C342.485 103.353 344.98 103.797 347.188 104.681C349.397 105.565 351.307 106.836 352.928 108.49C354.544 110.144 355.85 112.107 356.837 114.376L349.873 120.031C349.49 118.413 348.873 116.943 348.019 115.615C347.164 114.287 346.04 113.228 344.649 112.441C343.259 111.655 341.594 111.26 339.651 111.26C337.443 111.26 335.576 111.769 334.057 112.788C332.533 113.806 331.393 115.211 330.631 117C329.869 118.788 329.49 120.857 329.49 123.204C329.49 125.55 329.869 127.571 330.631 129.38C331.393 131.188 332.533 132.602 334.057 133.62C335.58 134.639 337.447 135.148 339.651 135.148C341.594 135.148 343.259 134.753 344.649 133.966C346.04 133.176 347.16 132.121 348.019 130.793C348.877 129.465 349.494 127.994 349.873 126.377L356.837 132.031C355.846 134.3 354.544 136.264 352.928 137.918C351.307 139.572 349.397 140.843 347.188 141.727C344.98 142.611 342.485 143.055 339.708 143.055V143.063Z" fill="white"/>
<path d="M367.063 142.598H358.897V103.931H367.063V142.598ZM386.989 111.26H361.75V103.931H386.989V111.26ZM383.737 126.728H361.75V119.399H383.737V126.728ZM386.989 142.598H361.75V135.27H386.989V142.598Z" fill="white"/>
</svg>
