<svg width="199" height="54" viewBox="0 0 199 54" fill="none" xmlns="http://www.w3.org/2000/svg">
<g clip-path="url(#clip0_16_1217)">
<path d="M67.3643 12.7832C66.7349 12.7832 66.1315 12.7095 65.551 12.5643C64.9716 12.418 64.4431 12.1884 63.9667 11.8755C63.4902 11.5627 63.0949 11.159 62.7807 10.6657L64.181 9.00196C64.4067 9.42589 64.699 9.77081 65.0579 10.0388C65.4168 10.3058 65.8069 10.5055 66.2293 10.6368C66.6517 10.7682 67.0595 10.8333 67.4527 10.8333C67.7377 10.8333 67.9905 10.8002 68.2121 10.7351C68.4327 10.6699 68.6074 10.5664 68.7354 10.4254C68.8633 10.2844 68.9268 10.0976 68.9268 9.86585C68.9268 9.60316 68.855 9.39493 68.7135 9.23795C68.571 9.08205 68.3546 8.9507 68.0654 8.84498C67.7752 8.73927 67.41 8.64103 66.9679 8.55026L66.0098 8.33882C65.627 8.25874 65.2577 8.15195 64.904 8.02061C64.5503 7.88926 64.2309 7.71093 63.9459 7.48348C63.6608 7.25603 63.4372 6.97411 63.2749 6.63667C63.1126 6.29923 63.0314 5.88811 63.0314 5.40331C63.0314 4.73804 63.1958 4.18062 63.5256 3.73106C63.8543 3.28256 64.2996 2.94406 64.8592 2.71767C65.4189 2.49129 66.0337 2.37703 66.7016 2.37703C67.6254 2.37703 68.4483 2.54895 69.1702 2.89173C69.8922 3.23451 70.4602 3.70864 70.8721 4.31411L69.4428 5.96286C69.1182 5.43855 68.6906 5.0349 68.1601 4.75299C67.6295 4.47108 67.0792 4.32906 66.5091 4.32906C66.2532 4.32906 66.0275 4.36643 65.8309 4.44225C65.6343 4.51806 65.4824 4.62378 65.3742 4.76047C65.266 4.89715 65.2119 5.06053 65.2119 5.25168C65.2119 5.62542 65.3617 5.89772 65.6613 6.06858C65.9609 6.2405 66.3666 6.3868 66.8774 6.50747L67.9978 6.77977C68.4597 6.89082 68.88 7.02751 69.2576 7.18875C69.6352 7.35 69.9629 7.54648 70.2376 7.77927C70.5122 8.01099 70.7244 8.29397 70.8711 8.62608C71.0188 8.95924 71.0916 9.35221 71.0916 9.80605C71.0916 10.4521 70.9294 10.9967 70.6048 11.4399C70.2802 11.8841 69.8381 12.2194 69.2784 12.4458C68.7187 12.6722 68.08 12.7864 67.3622 12.7864L67.3643 12.7832Z" fill="white"/>
<path d="M76.3108 12.7683C75.5743 12.7683 74.9033 12.6348 74.2989 12.3678C73.6945 12.1009 73.1712 11.7303 72.7291 11.2562C72.2869 10.7821 71.9457 10.2278 71.7044 9.59248C71.463 8.95711 71.3434 8.27582 71.3434 7.54968C71.3434 6.82355 71.4641 6.14546 71.7044 5.51437C71.9447 4.88434 72.2869 4.33226 72.7291 3.85813C73.1712 3.38401 73.6945 3.01347 74.2989 2.7465C74.9033 2.47954 75.5732 2.34606 76.3108 2.34606C77.0484 2.34606 77.7204 2.47954 78.33 2.7465C78.9396 3.01347 79.4619 3.38508 79.8998 3.85813C80.3367 4.33226 80.6759 4.88434 80.9172 5.51437C81.1575 6.1444 81.2782 6.82355 81.2782 7.54968C81.2782 8.27582 81.1575 8.95711 80.9172 9.59248C80.6759 10.2278 80.3378 10.7831 79.8998 11.2562C79.4629 11.7303 78.9396 12.1009 78.33 12.3678C77.7204 12.6348 77.0473 12.7683 76.3108 12.7683ZM76.3108 10.6657C76.9204 10.6657 77.4281 10.5322 77.8359 10.2652C78.2437 9.99826 78.5485 9.62772 78.7493 9.15359C78.95 8.67947 79.0509 8.14554 79.0509 7.54968C79.0509 6.95382 78.95 6.40709 78.7493 5.9383C78.5474 5.46952 78.2426 5.10111 77.8359 4.83415C77.4281 4.56719 76.9194 4.4337 76.3108 4.4337C75.7022 4.4337 75.2081 4.56719 74.8003 4.83415C74.3925 5.10111 74.0856 5.46952 73.8786 5.9383C73.6726 6.40709 73.5696 6.94421 73.5696 7.54968C73.5696 8.15515 73.6726 8.67947 73.8786 9.15359C74.0846 9.62772 74.3915 9.99826 74.8003 10.2652C75.2081 10.5322 75.7116 10.6657 76.3108 10.6657Z" fill="white"/>
<path d="M86.1561 12.7832C84.7809 12.7832 83.7437 12.4127 83.0467 11.6716C82.3487 10.9305 82.0002 9.7676 82.0002 8.18398V2.49556H84.1078V8.21388C84.1078 9.08098 84.2743 9.71207 84.6092 10.105C84.9432 10.498 85.4644 10.6956 86.1718 10.6956C86.8792 10.6956 87.4222 10.4991 87.7416 10.105C88.0609 9.71207 88.2201 9.08098 88.2201 8.21388V2.49556H90.3277V8.18398C90.3277 9.7676 89.9834 10.9294 89.2958 11.6716C88.6081 12.4127 87.5616 12.7832 86.1561 12.7832Z" fill="white"/>
<path d="M98.4035 4.41662H90.4005V2.49556H98.4035V4.41662ZM95.4553 12.6326H93.3477V2.49556H95.4553V12.6316V12.6326Z" fill="white"/>
<path d="M100.673 12.6326H98.5658V2.49556H100.673V12.6316V12.6326ZM105.758 8.47124H99.5239V6.55018H105.758V8.47124ZM106.996 12.6326H104.889V2.49556H106.996V12.6316V12.6326Z" fill="white"/>
<path d="M111.845 9.54549H107.866V7.775H111.845V9.54549Z" fill="white"/>
<path d="M116.871 12.7832C116.241 12.7832 115.638 12.7095 115.058 12.5643C114.478 12.418 113.95 12.1884 113.473 11.8755C112.997 11.5627 112.601 11.159 112.287 10.6657L113.688 9.00196C113.913 9.42589 114.206 9.77081 114.565 10.0388C114.923 10.3058 115.314 10.5055 115.736 10.6368C116.158 10.7682 116.566 10.8333 116.959 10.8333C117.244 10.8333 117.497 10.8002 117.719 10.7351C117.939 10.6699 118.114 10.5664 118.242 10.4254C118.37 10.2844 118.433 10.0976 118.433 9.86585C118.433 9.60316 118.362 9.39493 118.22 9.23795C118.078 9.08205 117.861 8.9507 117.572 8.84498C117.282 8.73927 116.917 8.64103 116.474 8.55026L115.516 8.33882C115.134 8.25874 114.764 8.15195 114.411 8.02061C114.057 7.88926 113.737 7.71093 113.452 7.48348C113.167 7.25603 112.944 6.97411 112.781 6.63667C112.619 6.29923 112.538 5.88811 112.538 5.40331C112.538 4.73804 112.702 4.18062 113.032 3.73106C113.361 3.28256 113.806 2.94406 114.366 2.71767C114.925 2.49129 115.54 2.37703 116.208 2.37703C117.132 2.37703 117.955 2.54895 118.677 2.89173C119.399 3.23451 119.967 3.70864 120.379 4.31411L118.949 5.96286C118.625 5.43855 118.197 5.0349 117.667 4.75299C117.136 4.47108 116.586 4.32906 116.016 4.32906C115.76 4.32906 115.534 4.36643 115.337 4.44225C115.141 4.51806 114.989 4.62378 114.881 4.76047C114.773 4.89715 114.718 5.06053 114.718 5.25168C114.718 5.62542 114.868 5.89772 115.168 6.06858C115.467 6.2405 115.873 6.3868 116.384 6.50747L117.504 6.77977C117.966 6.89082 118.387 7.02751 118.764 7.18875C119.142 7.35 119.47 7.54648 119.744 7.77927C120.019 8.01099 120.231 8.29397 120.378 8.62608C120.525 8.95924 120.598 9.35221 120.598 9.80605C120.598 10.4521 120.436 10.9967 120.111 11.4399C119.787 11.8841 119.345 12.2194 118.785 12.4458C118.225 12.6722 117.587 12.7864 116.869 12.7864L116.871 12.7832Z" fill="white"/>
<path d="M125.817 12.7683C125.081 12.7683 124.41 12.6348 123.805 12.3678C123.201 12.1009 122.678 11.7303 122.236 11.2562C121.793 10.7821 121.452 10.2278 121.211 9.59248C120.97 8.95711 120.85 8.27582 120.85 7.54968C120.85 6.82355 120.971 6.14546 121.211 5.51437C121.451 4.88434 121.793 4.33226 122.236 3.85813C122.678 3.38401 123.201 3.01347 123.805 2.7465C124.41 2.47954 125.08 2.34606 125.817 2.34606C126.555 2.34606 127.227 2.47954 127.837 2.7465C128.446 3.01347 128.968 3.38508 129.406 3.85813C129.843 4.33226 130.182 4.88434 130.424 5.51437C130.664 6.1444 130.785 6.82355 130.785 7.54968C130.785 8.27582 130.664 8.95711 130.424 9.59248C130.182 10.2278 129.844 10.7831 129.406 11.2562C128.969 11.7303 128.446 12.1009 127.837 12.3678C127.227 12.6348 126.554 12.7683 125.817 12.7683ZM125.817 10.6657C126.427 10.6657 126.935 10.5322 127.342 10.2652C127.75 9.99826 128.055 9.62772 128.256 9.15359C128.457 8.67947 128.557 8.14554 128.557 7.54968C128.557 6.95382 128.457 6.40709 128.256 5.9383C128.054 5.46952 127.749 5.10111 127.342 4.83415C126.935 4.56719 126.426 4.4337 125.817 4.4337C125.209 4.4337 124.715 4.56719 124.307 4.83415C123.899 5.10111 123.592 5.46952 123.385 5.9383C123.179 6.40709 123.076 6.94421 123.076 7.54968C123.076 8.15515 123.179 8.67947 123.385 9.15359C123.591 9.62772 123.898 9.99826 124.307 10.2652C124.715 10.5322 125.218 10.6657 125.817 10.6657Z" fill="white"/>
<path d="M135.663 12.7832C134.287 12.7832 133.25 12.4127 132.553 11.6716C131.855 10.9305 131.507 9.7676 131.507 8.18398V2.49556H133.614V8.21388C133.614 9.08098 133.781 9.71207 134.116 10.105C134.45 10.498 134.971 10.6956 135.678 10.6956C136.386 10.6956 136.929 10.4991 137.248 10.105C137.567 9.71207 137.727 9.08098 137.727 8.21388V2.49556H139.834V8.18398C139.834 9.7676 139.49 10.9294 138.802 11.6716C138.115 12.4127 137.068 12.7832 135.663 12.7832Z" fill="white"/>
<path d="M147.911 4.41662H139.908V2.49556H147.911V4.41662ZM144.963 12.6326H142.855V2.49556H144.963V12.6316V12.6326Z" fill="white"/>
<path d="M150.18 12.6326H148.072V2.49556H150.18V12.6316V12.6326ZM155.265 8.47124H149.03V6.55018H155.265V8.47124ZM156.503 12.6326H154.395V2.49556H156.503V12.6316V12.6326Z" fill="white"/>
<path d="M67.3643 26.2061C66.7349 26.2061 66.1315 26.1324 65.551 25.9871C64.9716 25.8409 64.4431 25.6113 63.9667 25.2984C63.4902 24.9855 63.0949 24.5819 62.7807 24.0885L64.181 22.4248C64.4067 22.8487 64.699 23.1937 65.0579 23.4617C65.4168 23.7287 65.8069 23.9283 66.2293 24.0597C66.6517 24.191 67.0595 24.2562 67.4527 24.2562C67.7377 24.2562 67.9905 24.2231 68.2121 24.1579C68.4327 24.0928 68.6074 23.9892 68.7354 23.8482C68.8633 23.7073 68.9268 23.5204 68.9268 23.2887C68.9268 23.026 68.855 22.8178 68.7135 22.6608C68.571 22.5049 68.3546 22.3736 68.0654 22.2678C67.7752 22.1621 67.41 22.0639 66.9679 21.9731L66.0098 21.7617C65.627 21.6816 65.2577 21.5748 64.904 21.4435C64.5503 21.3121 64.2309 21.1338 63.9459 20.9063C63.6608 20.6789 63.4372 20.397 63.2749 20.0595C63.1126 19.7221 63.0314 19.311 63.0314 18.8262C63.0314 18.1609 63.1958 17.6035 63.5256 17.1539C63.8543 16.7054 64.2996 16.3669 64.8592 16.1405C65.4189 15.9141 66.0337 15.7999 66.7016 15.7999C67.6254 15.7999 68.4483 15.9718 69.1702 16.3146C69.8922 16.6574 70.4602 17.1315 70.8721 17.737L69.4428 19.3857C69.1182 18.8614 68.6906 18.4578 68.1601 18.1758C67.6295 17.8939 67.0792 17.7519 66.5091 17.7519C66.2532 17.7519 66.0275 17.7893 65.8309 17.8651C65.6343 17.9409 65.4824 18.0466 65.3742 18.1833C65.266 18.32 65.2119 18.4834 65.2119 18.6745C65.2119 19.0483 65.3617 19.3206 65.6613 19.4914C65.9609 19.6634 66.3666 19.8096 66.8774 19.9303L67.9978 20.2026C68.4597 20.3137 68.88 20.4504 69.2576 20.6116C69.6352 20.7728 69.9629 20.9693 70.2376 21.2021C70.5122 21.4338 70.7244 21.7168 70.8711 22.0489C71.0188 22.3821 71.0916 22.7751 71.0916 23.2289C71.0916 23.8749 70.9294 24.4195 70.6048 24.8627C70.2802 25.3069 69.8381 25.6422 69.2784 25.8686C68.7187 26.095 68.08 26.2093 67.3622 26.2093L67.3643 26.2061Z" fill="white"/>
<path d="M76.3108 26.1911C75.5743 26.1911 74.9033 26.0576 74.2989 25.7907C73.6945 25.5237 73.1712 25.1532 72.7291 24.679C72.2869 24.2049 71.9457 23.6507 71.7044 23.0153C71.463 22.38 71.3434 21.6987 71.3434 20.9725C71.3434 20.2464 71.4641 19.5683 71.7044 18.9372C71.9447 18.3072 72.2869 17.7551 72.7291 17.281C73.1712 16.8069 73.6945 16.4363 74.2989 16.1694C74.9033 15.9024 75.5732 15.7689 76.3108 15.7689C77.0484 15.7689 77.7204 15.9024 78.33 16.1694C78.9396 16.4363 79.4619 16.8079 79.8998 17.281C80.3367 17.7551 80.6759 18.3072 80.9172 18.9372C81.1575 19.5672 81.2782 20.2464 81.2782 20.9725C81.2782 21.6987 81.1575 22.38 80.9172 23.0153C80.6759 23.6507 80.3378 24.206 79.8998 24.679C79.4629 25.1532 78.9396 25.5237 78.33 25.7907C77.7204 26.0576 77.0473 26.1911 76.3108 26.1911ZM76.3108 24.0885C76.9204 24.0885 77.4281 23.955 77.8359 23.6881C78.2437 23.4211 78.5485 23.0506 78.7493 22.5764C78.95 22.1023 79.0509 21.5684 79.0509 20.9725C79.0509 20.3767 78.95 19.8299 78.7493 19.3611C78.5474 18.8924 78.2426 18.524 77.8359 18.257C77.4281 17.99 76.9194 17.8566 76.3108 17.8566C75.7022 17.8566 75.2081 17.99 74.8003 18.257C74.3925 18.524 74.0856 18.8924 73.8786 19.3611C73.6726 19.8299 73.5696 20.3671 73.5696 20.9725C73.5696 21.578 73.6726 22.1023 73.8786 22.5764C74.0846 23.0506 74.3915 23.4211 74.8003 23.6881C75.2081 23.955 75.7116 24.0885 76.3108 24.0885Z" fill="white"/>
<path d="M86.745 26.1762C85.713 26.1762 84.8308 25.9444 84.0995 25.4799C83.3671 25.0165 82.8075 24.3907 82.4194 23.6037C82.0314 22.8167 81.8369 21.94 81.8369 20.9715C81.8369 20.0029 82.0304 19.1134 82.4194 18.3317C82.8075 17.5501 83.3671 16.9275 84.0995 16.463C84.8319 15.9996 85.713 15.7668 86.745 15.7668C87.4617 15.7668 88.1057 15.8832 88.6757 16.1149C89.2458 16.3466 89.7389 16.6798 90.1571 17.1133C90.5743 17.5469 90.9113 18.0616 91.1662 18.6564L89.3686 20.1385C89.2698 19.7146 89.1106 19.3291 88.89 18.981C88.6695 18.6329 88.3793 18.3552 88.0204 18.1491C87.6615 17.943 87.2318 17.8395 86.7304 17.8395C86.1603 17.8395 85.6787 17.9729 85.2865 18.2399C84.8932 18.5069 84.5988 18.8753 84.4022 19.3441C84.2056 19.8128 84.1078 20.3553 84.1078 20.9704C84.1078 21.5855 84.2056 22.1151 84.4022 22.5893C84.5988 23.0634 84.8932 23.4339 85.2865 23.7009C85.6797 23.9678 86.1614 24.1013 86.7304 24.1013C87.2318 24.1013 87.6615 23.9977 88.0204 23.7916C88.3793 23.5845 88.6685 23.3079 88.89 22.9598C89.1116 22.6117 89.2708 22.2262 89.3686 21.8022L91.1662 23.2844C90.9103 23.8792 90.5743 24.3939 90.1571 24.8275C89.7389 25.261 89.2458 25.5942 88.6757 25.8259C88.1057 26.0576 87.4617 26.174 86.745 26.174V26.1762Z" fill="white"/>
<path d="M93.8044 26.0544H91.6968V15.9184H93.8044V26.0544Z" fill="white"/>
<path d="M96.0899 26.0544H93.8491L97.5484 15.9184H100.26L103.96 26.0544H101.646L99.4646 19.7915L98.8748 17.643L98.285 19.7915L96.0889 26.0544H96.0899ZM101.513 23.8002H95.912V21.9699H101.513V23.8002Z" fill="white"/>
<path d="M106.098 26.0544H103.99V15.9184H106.098V26.0544ZM111.035 26.0544H104.726V24.1334H111.035V26.0544Z" fill="white"/>
<path d="M116.104 26.0544H113.997V15.9184H116.782L118.389 19.6858L119.318 22.696L120.247 19.6858L121.853 15.9184H124.639V26.0544H122.531V22.2571L122.825 18.1726L121.647 21.546L120.423 24.2999H118.213L116.989 21.546L115.795 18.1726L116.104 22.2571V26.0544Z" fill="white"/>
<path d="M130.43 26.1911C129.694 26.1911 129.023 26.0576 128.418 25.7907C127.814 25.5237 127.29 25.1532 126.848 24.679C126.406 24.2049 126.065 23.6507 125.824 23.0153C125.582 22.38 125.463 21.6987 125.463 20.9725C125.463 20.2464 125.583 19.5683 125.824 18.9372C126.064 18.3072 126.406 17.7551 126.848 17.281C127.29 16.8069 127.814 16.4363 128.418 16.1694C129.023 15.9024 129.692 15.7689 130.43 15.7689C131.168 15.7689 131.84 15.9024 132.449 16.1694C133.059 16.4363 133.581 16.8079 134.019 17.281C134.456 17.7551 134.795 18.3072 135.036 18.9372C135.277 19.5672 135.397 20.2464 135.397 20.9725C135.397 21.6987 135.277 22.38 135.036 23.0153C134.795 23.6507 134.457 24.206 134.019 24.679C133.582 25.1532 133.059 25.5237 132.449 25.7907C131.84 26.0576 131.167 26.1911 130.43 26.1911ZM130.43 24.0885C131.04 24.0885 131.547 23.955 131.955 23.6881C132.363 23.4211 132.668 23.0506 132.868 22.5764C133.069 22.1023 133.17 21.5684 133.17 20.9725C133.17 20.3767 133.069 19.8299 132.868 19.3611C132.667 18.8924 132.362 18.524 131.955 18.257C131.547 17.99 131.039 17.8566 130.43 17.8566C129.821 17.8566 129.327 17.99 128.92 18.257C128.512 18.524 128.205 18.8924 127.998 19.3611C127.792 19.8299 127.689 20.3671 127.689 20.9725C127.689 21.578 127.792 22.1023 127.998 22.5764C128.204 23.0506 128.511 23.4211 128.92 23.6881C129.327 23.955 129.831 24.0885 130.43 24.0885Z" fill="white"/>
<path d="M141.278 26.0544H138.581L135.073 15.9184H137.549L139.243 21.3804L139.965 24.6182L140.702 21.3804L142.397 15.9184H144.784L141.276 26.0544H141.278Z" fill="white"/>
<path d="M146.982 26.0544H144.875V15.9184H146.982V26.0544ZM152.125 17.8395H145.611V15.9184H152.125V17.8395ZM151.286 21.8941H145.611V19.973H151.286V21.8941ZM152.125 26.0544H145.611V24.1334H152.125V26.0544Z" fill="white"/>
<path d="M154.897 26.0544H152.789V15.9184H155.575L157.181 19.6858L158.11 22.696L159.039 19.6858L160.645 15.9184H163.431V26.0544H161.324V22.2571L161.618 18.1726L160.439 21.546L159.216 24.2999H157.005L155.782 21.546L154.588 18.1726L154.897 22.2571V26.0544Z" fill="white"/>
<path d="M166.967 26.0544H164.86V15.9184H166.967V26.0544ZM172.112 17.8395H165.597V15.9184H172.112V17.8395ZM171.271 21.8941H165.596V19.973H171.271V21.8941ZM172.112 26.0544H165.597V24.1334H172.112V26.0544Z" fill="white"/>
<path d="M174.882 26.0544H172.774V15.9184H174.823L178.33 21.2139L179.229 22.8028L179.096 20.4119V15.9184H181.204V26.0544H179.199L175.603 20.7141L174.718 19.2159L174.881 21.7275V26.0544H174.882Z" fill="white"/>
<path d="M189.37 17.8395H181.367V15.9184H189.37V17.8395ZM186.423 26.0544H184.315V15.9184H186.423V26.0544Z" fill="white"/>
<path d="M193.688 26.2061C193.059 26.2061 192.456 26.1324 191.875 25.9871C191.296 25.8409 190.767 25.6113 190.291 25.2984C189.814 24.9855 189.419 24.5819 189.105 24.0885L190.505 22.4248C190.731 22.8487 191.023 23.1937 191.382 23.4617C191.741 23.7287 192.131 23.9283 192.553 24.0597C192.976 24.191 193.383 24.2562 193.777 24.2562C194.062 24.2562 194.315 24.2231 194.536 24.1579C194.757 24.0928 194.931 23.9892 195.059 23.8482C195.187 23.7073 195.251 23.5204 195.251 23.2887C195.251 23.026 195.179 22.8178 195.038 22.6608C194.895 22.5049 194.679 22.3736 194.389 22.2678C194.099 22.1621 193.734 22.0639 193.292 21.9731L192.334 21.7617C191.951 21.6816 191.582 21.5748 191.228 21.4435C190.874 21.3121 190.555 21.1338 190.27 20.9063C189.985 20.6789 189.761 20.397 189.599 20.0595C189.437 19.7221 189.355 19.311 189.355 18.8262C189.355 18.1609 189.52 17.6035 189.85 17.1539C190.178 16.7054 190.624 16.3669 191.183 16.1405C191.743 15.9141 192.358 15.7999 193.026 15.7999C193.949 15.7999 194.772 15.9718 195.494 16.3146C196.216 16.6574 196.784 17.1315 197.196 17.737L195.767 19.3857C195.442 18.8614 195.015 18.4578 194.484 18.1758C193.954 17.8939 193.403 17.7519 192.833 17.7519C192.577 17.7519 192.351 17.7893 192.155 17.8651C191.958 17.9409 191.806 18.0466 191.698 18.1833C191.59 18.32 191.536 18.4834 191.536 18.6745C191.536 19.0483 191.686 19.3206 191.985 19.4914C192.285 19.6634 192.691 19.8096 193.201 19.9303L194.322 20.2026C194.784 20.3137 195.204 20.4504 195.582 20.6116C195.959 20.7728 196.287 20.9693 196.562 21.2021C196.836 21.4338 197.048 21.7168 197.195 22.0489C197.343 22.3821 197.416 22.7751 197.416 23.2289C197.416 23.8749 197.253 24.4195 196.929 24.8627C196.604 25.3069 196.162 25.6422 195.602 25.8686C195.043 26.095 194.404 26.2093 193.686 26.2093L193.688 26.2061Z" fill="white"/>
<path d="M67.7183 39.599C66.6863 39.599 65.8041 39.3673 65.0728 38.9028C64.3404 38.4393 63.7807 37.8136 63.3927 37.0266C63.0047 36.2396 62.8102 35.3628 62.8102 34.3943C62.8102 33.4258 63.0036 32.5363 63.3927 31.7546C63.7807 30.9729 64.3404 30.3504 65.0728 29.8859C65.8052 29.4224 66.6863 29.1896 67.7183 29.1896C68.435 29.1896 69.079 29.306 69.649 29.5377C70.2191 29.7695 70.7122 30.1026 71.1304 30.5362C71.5476 30.9697 71.8846 31.4844 72.1395 32.0792L70.3419 33.5614C70.243 33.1375 70.0839 32.752 69.8633 32.4038C69.6428 32.0557 69.3526 31.7781 68.9937 31.572C68.6348 31.3659 68.2051 31.2623 67.7037 31.2623C67.1336 31.2623 66.652 31.3958 66.2598 31.6628C65.8665 31.9297 65.5721 32.2981 65.3755 32.7669C65.1789 33.2357 65.0811 33.7782 65.0811 34.3932C65.0811 35.0083 65.1789 35.538 65.3755 36.0121C65.5721 36.4862 65.8665 36.8568 66.2598 37.1237C66.653 37.3907 67.1347 37.5242 67.7037 37.5242C68.2051 37.5242 68.6348 37.4206 68.9937 37.2145C69.3526 37.0073 69.6418 36.7308 69.8633 36.3826C70.0849 36.0345 70.2441 35.649 70.3419 35.2251L72.1395 36.7073C71.8836 37.3021 71.5476 37.8168 71.1304 38.2503C70.7122 38.6839 70.2191 39.017 69.649 39.2487C69.079 39.4805 68.435 39.5969 67.7183 39.5969V39.599Z" fill="white"/>
<path d="M77.1201 39.614C76.3836 39.614 75.7126 39.4805 75.1082 39.2135C74.5038 38.9465 73.9805 38.576 73.5384 38.1019C73.0963 37.6278 72.7551 37.0735 72.5137 36.4382C72.2724 35.8028 72.1527 35.1215 72.1527 34.3954C72.1527 33.6692 72.2734 32.9912 72.5137 32.3601C72.754 31.73 73.0963 31.178 73.5384 30.7038C73.9805 30.2297 74.5038 29.8592 75.1082 29.5922C75.7126 29.3252 76.3826 29.1918 77.1201 29.1918C77.8577 29.1918 78.5297 29.3252 79.1394 29.5922C79.749 29.8592 80.2712 30.2308 80.7092 30.7038C81.1461 31.178 81.4852 31.73 81.7266 32.3601C81.9669 32.9901 82.0876 33.6692 82.0876 34.3954C82.0876 35.1215 81.9669 35.8028 81.7266 36.4382C81.4852 37.0735 81.1471 37.6288 80.7092 38.1019C80.2722 38.576 79.749 38.9465 79.1394 39.2135C78.5297 39.4805 77.8567 39.614 77.1201 39.614ZM77.1201 37.5103C77.7298 37.5103 78.2374 37.3768 78.6452 37.1098C79.053 36.8429 79.3578 36.4723 79.5586 35.9982C79.7594 35.5241 79.8603 34.9902 79.8603 34.3943C79.8603 33.7985 79.7594 33.2517 79.5586 32.7829C79.3568 32.3141 79.052 31.9457 78.6452 31.6788C78.2374 31.4118 77.7287 31.2783 77.1201 31.2783C76.5116 31.2783 76.0174 31.4118 75.6096 31.6788C75.2018 31.9457 74.895 32.3141 74.6879 32.7829C74.482 33.2517 74.379 33.7888 74.379 34.3943C74.379 34.9998 74.482 35.5241 74.6879 35.9982C74.8939 36.4723 75.2008 36.8429 75.6096 37.1098C76.0174 37.3768 76.5209 37.5103 77.1201 37.5103Z" fill="white"/>
<path d="M85.0201 39.4773H82.9125V29.3413H84.9608L88.4687 34.6367L89.3675 36.2257L89.2344 33.8348V29.3413H91.342V39.4773H89.3374L85.7411 34.137L84.8568 32.6388L85.0191 35.1504V39.4773H85.0201Z" fill="white"/>
<path d="M97.6368 39.4773H94.9394L91.4315 29.3413H93.9074L95.602 34.8033L96.324 38.041L97.0605 34.8033L98.7552 29.3413H101.143L97.6348 39.4773H97.6368Z" fill="white"/>
<path d="M103.341 39.4773H101.233V29.3413H103.341V39.4773ZM108.484 31.2623H101.97V29.3413H108.484V31.2623ZM107.644 35.3169H101.97V33.3959H107.644V35.3169ZM108.484 39.4773H101.97V37.5562H108.484V39.4773Z" fill="white"/>
<path d="M111.255 39.4773H109.148V29.3413H111.255V39.4773ZM113.864 35.68H109.974V33.9405H113.658C113.963 33.9405 114.234 33.8946 114.469 33.8038C114.705 33.713 114.889 33.5721 115.021 33.3799C115.154 33.1887 115.22 32.9314 115.22 32.6078C115.22 32.2842 115.153 32.0226 115.021 31.8208C114.888 31.619 114.704 31.4759 114.469 31.3894C114.233 31.304 113.962 31.2613 113.658 31.2613H109.974V29.3402H113.732C114.44 29.3402 115.073 29.4534 115.634 29.6808C116.194 29.9083 116.634 30.2553 116.953 30.7252C117.272 31.194 117.432 31.7866 117.432 32.5032C117.432 33.2197 117.271 33.7664 116.953 34.2053C116.634 34.6442 116.206 34.9646 115.67 35.1664C115.135 35.3682 114.533 35.4643 113.864 35.4536V35.6811V35.68ZM117.814 39.4773H115.382L113.717 36.6026C113.52 36.2695 113.296 36.0335 113.046 35.8914C112.795 35.7505 112.454 35.68 112.021 35.68L114.055 35.3169C114.448 35.3468 114.775 35.4301 115.035 35.5668C115.295 35.7035 115.518 35.8765 115.706 36.089C115.892 36.3004 116.074 36.5535 116.251 36.845L117.813 39.4773H117.814Z" fill="white"/>
<path d="M121.853 39.599C121.066 39.599 120.366 39.4025 119.752 39.0085C119.139 38.6155 118.654 38.0325 118.3 37.2615C117.947 36.4894 117.77 35.5348 117.77 34.3943C117.77 33.3863 117.963 32.4903 118.352 31.7087C118.74 30.927 119.303 30.3119 120.04 29.8634C120.776 29.4149 121.676 29.1907 122.737 29.1907C123.435 29.1907 124.071 29.2964 124.646 29.5089C125.221 29.7203 125.716 30.029 126.135 30.4315C126.552 30.8352 126.874 31.3146 127.1 31.8689L125.317 33.2603C125.229 32.8876 125.071 32.5491 124.846 32.2469C124.62 31.9447 124.332 31.7044 123.983 31.5282C123.635 31.352 123.22 31.2634 122.738 31.2634C122.139 31.2634 121.637 31.3969 121.235 31.6638C120.832 31.9308 120.533 32.2971 120.336 32.7605C120.139 33.225 120.042 33.7696 120.042 34.3943C120.042 35.019 120.145 35.5999 120.351 36.074C120.557 36.5482 120.856 36.9134 121.249 37.1707C121.643 37.4281 122.119 37.5562 122.679 37.5562C123.15 37.5562 123.551 37.4804 123.88 37.3298C124.209 37.1782 124.48 36.9614 124.691 36.6795C124.902 36.3976 125.066 36.0698 125.185 35.696H125.333L125.273 35.7868C125.244 36.5834 125.091 37.2668 124.817 37.8371C124.541 38.4073 124.156 38.843 123.66 39.1462C123.164 39.4484 122.561 39.6001 121.854 39.6001L121.853 39.599ZM127.173 39.4773H125.773L125.271 35.7857H122.442V34.0462H127.173V39.4773Z" fill="white"/>
<path d="M130.43 39.4773H128.322V29.3413H130.43V39.4773ZM135.574 31.2623H129.06V29.3413H135.574V31.2623ZM134.734 35.3169H129.059V33.3959H134.734V35.3169ZM135.574 39.4773H129.06V37.5562H135.574V39.4773Z" fill="white"/>
<path d="M138.345 39.4773H136.237V29.3413H138.285L141.793 34.6367L142.692 36.2257L142.559 33.8348V29.3413H144.666V39.4773H142.662L139.066 34.137L138.181 32.6388L138.344 35.1504V39.4773H138.345Z" fill="white"/>
<path d="M150.401 39.599C149.369 39.599 148.486 39.3673 147.755 38.9028C147.023 38.4393 146.463 37.8136 146.075 37.0266C145.687 36.2396 145.492 35.3628 145.492 34.3943C145.492 33.4258 145.686 32.5363 146.075 31.7546C146.463 30.9729 147.023 30.3504 147.755 29.8859C148.487 29.4224 149.369 29.1896 150.401 29.1896C151.117 29.1896 151.761 29.306 152.331 29.5377C152.901 29.7695 153.395 30.1026 153.813 30.5362C154.23 30.9697 154.567 31.4844 154.822 32.0792L153.024 33.5614C152.925 33.1375 152.766 32.752 152.546 32.4038C152.325 32.0557 152.035 31.7781 151.676 31.572C151.317 31.3659 150.887 31.2623 150.386 31.2623C149.816 31.2623 149.334 31.3958 148.942 31.6628C148.549 31.9297 148.254 32.2981 148.058 32.7669C147.861 33.2357 147.763 33.7782 147.763 34.3932C147.763 35.0083 147.861 35.538 148.058 36.0121C148.254 36.4862 148.549 36.8568 148.942 37.1237C149.335 37.3907 149.817 37.5242 150.386 37.5242C150.887 37.5242 151.317 37.4206 151.676 37.2145C152.035 37.0073 152.324 36.7308 152.546 36.3826C152.767 36.0345 152.926 35.649 153.024 35.2251L154.822 36.7073C154.566 37.3021 154.23 37.8168 153.813 38.2503C153.395 38.6839 152.901 39.017 152.331 39.2487C151.761 39.4805 151.117 39.5969 150.401 39.5969V39.599Z" fill="white"/>
<path d="M157.461 39.4773H155.353V29.3413H157.461V39.4773ZM162.604 31.2623H156.09V29.3413H162.604V31.2623ZM161.765 35.3169H156.09V33.3959H161.765V35.3169ZM162.604 39.4773H156.09V37.5562H162.604V39.4773Z" fill="white"/>
<path d="M52.3674 0V54" stroke="#999999" stroke-miterlimit="10"/>
<path d="M23.0727 40.3262C14.9261 40.3262 8.29843 33.5229 8.29843 25.1606C8.29843 16.7983 14.9261 9.99506 23.0727 9.99506C31.2192 9.99506 37.847 16.7983 37.847 25.1606C37.847 33.5229 31.2192 40.3262 23.0727 40.3262ZM23.0727 13.363C16.7352 13.363 11.5795 18.6553 11.5795 25.1606C11.5795 31.666 16.7352 36.9582 23.0727 36.9582C29.4102 36.9582 34.5659 31.666 34.5659 25.1606C34.5659 18.6553 29.4102 13.363 23.0727 13.363Z" fill="#E03C33"/>
<path d="M16.8944 18.5357C18.2052 19.8812 19.6886 20.9437 21.273 21.7179C23.158 22.6437 25.1845 23.1648 27.2307 23.2791C27.8185 23.3133 28.4084 23.3133 28.994 23.2791C31.0393 23.1638 33.0668 22.6437 34.9518 21.7179C36.5362 20.9437 38.0196 19.8812 39.3304 18.5357C40.6412 17.1902 41.6763 15.6675 42.4305 14.0411L38.3296 9.83167C37.8657 11.6139 36.9533 13.2979 35.5906 14.6968C34.2278 16.0957 32.5872 17.0322 30.851 17.5084C29.0585 17.9996 27.1652 17.9996 25.3728 17.5084C23.6365 17.0322 21.996 16.0957 20.6332 14.6968C19.2704 13.2979 18.3581 11.6139 17.8941 9.83167C17.4166 7.99284 17.4156 6.04936 17.8941 4.20946C17.8941 4.20946 17.8941 4.20946 17.8941 4.20839L13.7953 0C12.8934 1.93494 12.3868 4.01618 12.2744 6.11556C12.2411 6.71676 12.2411 7.32223 12.2744 7.92557C12.3857 10.026 12.8934 12.1062 13.7953 14.0411C14.5496 15.6675 15.5847 17.1902 16.8954 18.5357H16.8944Z" fill="#2F6D4F"/>
<path d="M28.1129 12.4479C31.0333 12.4479 33.4007 10.0178 33.4007 7.02003C33.4007 4.0223 31.0333 1.59216 28.1129 1.59216C25.1925 1.59216 22.8251 4.0223 22.8251 7.02003C22.8251 10.0178 25.1925 12.4479 28.1129 12.4479Z" fill="#399665"/>
<path d="M21.1533 29.8261C21.1533 27.9232 20.8361 26.095 20.2493 24.3982C19.5544 22.3746 18.4798 20.5368 17.1118 18.9703C16.7196 18.5197 16.3025 18.0915 15.8655 17.691C14.3394 16.2879 12.548 15.1837 10.5777 14.4704C8.92468 13.8681 7.1437 13.5424 5.2899 13.5424C3.43609 13.5424 1.65407 13.866 0 14.4683V20.4183C0 20.4183 0 20.4194 0.00104029 20.4183C1.55628 19.4946 3.36119 18.9671 5.28782 18.9671C7.21444 18.9671 9.02039 19.4957 10.5756 20.4194C12.1808 21.373 13.5197 22.7473 14.4486 24.395C15.3485 25.9914 15.8634 27.8452 15.8634 29.8229C15.8634 31.8005 15.3485 33.6543 14.4486 35.2507C13.5197 36.8984 12.1808 38.2717 10.5767 39.2263C10.5767 39.2263 10.5756 39.2274 10.5756 39.2285V45.1796C12.547 44.4662 14.3373 43.3621 15.8634 41.9589C16.3014 41.5574 16.7175 41.1303 17.1097 40.6797C18.4777 39.1131 19.5523 37.2743 20.2472 35.2518C20.834 33.555 21.1513 31.7268 21.1513 29.8239L21.1533 29.8261Z" fill="#F4B400"/>
<path d="M5.28782 35.2539C8.2082 35.2539 10.5756 32.8238 10.5756 29.8261C10.5756 26.8283 8.2082 24.3982 5.28782 24.3982C2.36744 24.3982 0 26.8283 0 29.8261C0 32.8238 2.36744 35.2539 5.28782 35.2539Z" fill="#FFCF64"/>
<path d="M19.9934 38.6422C19.9934 36.7393 20.3107 34.9112 20.8974 33.2143C21.5924 31.1908 22.667 29.353 24.035 27.7865C24.4272 27.3358 24.8443 26.9076 25.2812 26.5072C26.8074 25.104 28.5987 23.9999 30.5691 23.2866C32.2221 22.6843 34.0031 22.3586 35.8569 22.3586C37.7107 22.3586 39.4917 22.6843 41.1447 23.2866V29.2387C39.5894 28.3151 37.7835 27.7865 35.8569 27.7865C33.9302 27.7865 32.1243 28.3151 30.5691 29.2387C28.9639 30.1923 27.625 31.5667 26.696 33.2143C25.7962 34.8108 25.2812 36.6646 25.2812 38.6422C25.2812 40.6199 25.7962 42.4737 26.696 44.0701C27.625 45.7178 28.9639 47.0921 30.5691 48.0457C30.5691 48.0457 30.5691 48.0457 30.5691 48.0467V53.9989C28.5977 53.2856 26.8074 52.1815 25.2812 50.7783C24.8433 50.3768 24.4272 49.9497 24.035 49.499C22.667 47.9325 21.5924 46.0937 20.8974 44.0711C20.3107 42.3743 19.9934 40.5462 19.9934 38.6433V38.6422Z" fill="#3030B7"/>
<path d="M35.859 44.0701C38.7793 44.0701 41.1468 41.6399 41.1468 38.6422C41.1468 35.6445 38.7793 33.2143 35.859 33.2143C32.9386 33.2143 30.5711 35.6445 30.5711 38.6422C30.5711 41.6399 32.9386 44.0701 35.859 44.0701Z" fill="#4141D8"/>
<path d="M62.7734 51.6294C63.0096 51.6112 63.1771 51.576 63.2728 51.5247C63.434 51.4361 63.5474 51.2695 63.6119 51.0239L64.7802 46.6949C64.1674 46.6949 63.7617 46.7418 63.5651 46.8369C63.3675 46.9319 63.1376 47.2192 62.8754 47.6997L62.735 47.6719L63.0668 46.4108H67.3268L66.9752 47.7478L66.8348 47.7275L66.8545 47.4434C66.8545 47.1925 66.7994 47.0045 66.6881 46.8807C66.5768 46.7568 66.3573 46.6949 66.0296 46.6949H65.5843L64.465 50.7751C64.439 50.8627 64.4192 50.9417 64.4067 51.0111C64.3838 51.1157 64.3713 51.198 64.3713 51.2588C64.3713 51.419 64.4192 51.5183 64.5159 51.5568C64.6116 51.5952 64.801 51.6187 65.0819 51.6272V51.7597H62.7745V51.6272L62.7734 51.6294Z" fill="#999999"/>
<path d="M67.6847 46.3916C67.8522 46.367 67.9884 46.3478 68.0925 46.3339C68.1965 46.319 68.286 46.3051 68.3619 46.2923C68.6719 46.2314 68.8384 46.1972 68.8623 46.1919C68.8862 46.1866 68.9039 46.1844 68.9174 46.1844C68.9486 46.2004 68.9642 46.2207 68.9642 46.2442L67.9978 49.8204C68.3203 49.3239 68.5845 48.9608 68.7895 48.7312C69.1484 48.3361 69.4771 48.1386 69.7767 48.1386C69.8995 48.1386 70.018 48.1792 70.1325 48.2603C70.2469 48.3415 70.3041 48.4878 70.3041 48.6992C70.3041 48.7505 70.2979 48.8156 70.2844 48.8957C70.2708 48.9758 70.2552 49.0463 70.2375 49.1082L69.7205 51.026C69.7049 51.0794 69.6914 51.1307 69.681 51.1798C69.6706 51.2289 69.6654 51.2738 69.6654 51.3144C69.6654 51.3603 69.6758 51.3934 69.6966 51.4169C69.7174 51.4393 69.7476 51.451 69.7861 51.451C69.8672 51.451 69.9619 51.3934 70.0711 51.2791C70.1387 51.2076 70.2646 51.0495 70.4498 50.8071L70.5507 50.9032C70.3686 51.1809 70.2147 51.3838 70.0867 51.5119C69.861 51.7383 69.6331 51.8526 69.4053 51.8526C69.3013 51.8526 69.2149 51.8195 69.1442 51.7522C69.0745 51.686 69.0391 51.5899 69.0391 51.4639C69.0391 51.4297 69.0412 51.3966 69.0454 51.3656C69.0495 51.3347 69.0568 51.3005 69.0672 51.2631L69.656 48.917C69.6612 48.8957 69.6654 48.8733 69.6696 48.8508C69.6737 48.8284 69.6758 48.8049 69.6758 48.7804C69.6758 48.7142 69.656 48.6618 69.6175 48.6245C69.5759 48.5871 69.5229 48.5679 69.4584 48.5679C69.2846 48.5679 69.0662 48.711 68.803 48.9982C68.5387 49.2855 68.3172 49.578 68.1362 49.877C68.0124 50.0885 67.9187 50.2871 67.8553 50.474C67.7918 50.6608 67.6701 51.0901 67.4891 51.7629H66.8826L68.1934 46.9052C68.2017 46.871 68.2059 46.8411 68.209 46.8177C68.2111 46.7931 68.2131 46.7707 68.2131 46.7493C68.2131 46.6351 68.1767 46.5656 68.1039 46.5432C68.0311 46.5208 67.8917 46.5144 67.6868 46.5251V46.3927L67.6847 46.3916Z" fill="#999999"/>
<path d="M71.7616 48.9779C72.2765 48.4237 72.8081 48.1461 73.3574 48.1461C73.5602 48.1461 73.7215 48.1941 73.8411 48.2902C73.9608 48.3863 74.0201 48.5283 74.0201 48.7174C74.0201 49.1007 73.8006 49.4296 73.3626 49.703C72.9246 49.9764 72.4638 50.1429 71.98 50.2049L71.7574 50.2326C71.7231 50.3426 71.7002 50.4291 71.6877 50.4953C71.6742 50.5605 71.6679 50.6427 71.6679 50.742C71.6679 50.9769 71.7429 51.1595 71.8927 51.2909C72.0425 51.4222 72.2193 51.4874 72.4253 51.4874C72.6313 51.4874 72.8268 51.4211 73.0453 51.2866C73.1701 51.2097 73.3511 51.0709 73.5873 50.8701L73.6882 50.962C73.5717 51.1147 73.4032 51.2706 73.1847 51.4308C72.7967 51.7169 72.4086 51.859 72.0185 51.859C71.7428 51.859 71.5005 51.7586 71.2924 51.5589C71.0843 51.3592 70.9803 51.072 70.9803 50.6993C70.9803 50.1077 71.2404 49.5343 71.7605 48.979L71.7616 48.9779ZM73.0255 49.514C73.3376 49.2299 73.4937 48.9491 73.4937 48.6693C73.4937 48.5679 73.4708 48.4878 73.424 48.428C73.3772 48.3682 73.3085 48.3383 73.2169 48.3383C73.0484 48.3383 72.882 48.412 72.7197 48.5604C72.5574 48.7077 72.4107 48.8754 72.2807 49.0612C72.1423 49.2801 72.0331 49.4883 71.953 49.688C71.9083 49.7948 71.8614 49.9155 71.8126 50.0511C72.3098 49.9763 72.7134 49.7969 73.0255 49.514Z" fill="#999999"/>
<path d="M77.5591 48.2251C77.685 48.3126 77.7474 48.4579 77.7474 48.6608C77.7474 48.7515 77.7256 48.8775 77.6829 49.0377C77.6403 49.199 77.5623 49.4584 77.4499 49.8162C77.7391 49.3634 77.9888 49.0174 78.1979 48.7804C78.5766 48.3511 78.9105 48.1364 79.1997 48.1364C79.3225 48.1364 79.4348 48.1792 79.5357 48.2646C79.6377 48.35 79.6886 48.4867 79.6886 48.6757C79.6886 48.7344 79.6637 48.8765 79.6148 49.1028L79.001 51.2877C78.9906 51.3218 78.9948 51.3581 79.0124 51.3934C79.0301 51.4297 79.0645 51.4478 79.1144 51.4478C79.1612 51.4478 79.2018 51.4361 79.2371 51.4115C79.2725 51.388 79.3172 51.3475 79.3713 51.2909C79.4234 51.2375 79.466 51.1905 79.4983 51.151C79.5305 51.1104 79.6241 50.9951 79.7771 50.8018L79.8977 50.8979L79.8582 50.9545C79.671 51.2268 79.4827 51.4446 79.2923 51.6059C79.1019 51.7671 78.9147 51.8483 78.7305 51.8483C78.6473 51.8483 78.5766 51.8269 78.5193 51.7842C78.4309 51.7148 78.3862 51.5984 78.3862 51.4361C78.3862 51.3955 78.3893 51.3539 78.3955 51.308C78.4018 51.262 78.4122 51.2118 78.4247 51.1553L79.0301 48.9096C79.0384 48.8775 79.0436 48.8508 79.0478 48.8295C79.052 48.8081 79.0541 48.7868 79.0541 48.7654C79.0541 48.7013 79.0374 48.6522 79.0041 48.617C78.9708 48.5817 78.9292 48.5647 78.8793 48.5647C78.7014 48.5647 78.4944 48.6992 78.2582 48.9694C78.0221 49.2395 77.8161 49.5129 77.6403 49.7916C77.4811 50.0746 77.3688 50.3127 77.3032 50.5028C77.2377 50.6939 77.1191 51.1125 76.9464 51.7597H76.3399L77.1212 48.9096C77.1264 48.885 77.1305 48.8626 77.1347 48.8391C77.1389 48.8167 77.141 48.7932 77.141 48.7686C77.141 48.7045 77.1274 48.6544 77.0993 48.618C77.0713 48.5817 77.0255 48.5636 76.962 48.5636C76.7945 48.5636 76.5875 48.7035 76.342 48.9843C76.0955 49.2652 75.8947 49.5268 75.7376 49.7703C75.5836 50.0084 75.4359 50.3245 75.2944 50.7206C75.2122 50.9609 75.102 51.3069 74.9657 51.7586H74.3665L75.1186 48.9117C75.1259 48.8818 75.1332 48.854 75.1384 48.8263C75.1436 48.7996 75.1457 48.7707 75.1457 48.7409C75.1457 48.6362 75.1103 48.5721 75.0406 48.5508C74.9699 48.5294 74.8346 48.5219 74.6349 48.5305V48.3981C74.896 48.3554 75.3194 48.2678 75.9051 48.1332L75.9363 48.161L75.4942 49.8002C75.7875 49.3666 76.0642 49.0035 76.3264 48.712C76.6853 48.3255 77.0026 48.1322 77.2772 48.1322C77.3833 48.1322 77.477 48.161 77.5581 48.2197L77.5591 48.2251Z" fill="#999999"/>
<path d="M81.0764 48.9779C81.5913 48.4237 82.1229 48.1461 82.6722 48.1461C82.8751 48.1461 83.0363 48.1941 83.1559 48.2902C83.2756 48.3863 83.3349 48.5283 83.3349 48.7174C83.3349 49.1007 83.1154 49.4296 82.6774 49.703C82.2394 49.9764 81.7786 50.1429 81.2948 50.2049L81.0722 50.2326C81.0379 50.3426 81.015 50.4291 81.0025 50.4953C80.989 50.5605 80.9828 50.6427 80.9828 50.742C80.9828 50.9769 81.0577 51.1595 81.2075 51.2909C81.3573 51.4222 81.5341 51.4874 81.7401 51.4874C81.9461 51.4874 82.1416 51.4211 82.3601 51.2866C82.4849 51.2097 82.666 51.0709 82.9021 50.8701L83.003 50.962C82.8865 51.1147 82.718 51.2706 82.4995 51.4308C82.1115 51.7169 81.7234 51.859 81.3333 51.859C81.0577 51.859 80.8153 51.7586 80.6072 51.5589C80.3991 51.3592 80.2951 51.072 80.2951 50.6993C80.2951 50.1077 80.5552 49.5343 81.0753 48.979L81.0764 48.9779ZM82.3403 49.514C82.6524 49.2299 82.8085 48.9491 82.8085 48.6693C82.8085 48.5679 82.7856 48.4878 82.7388 48.428C82.692 48.3682 82.6233 48.3383 82.5318 48.3383C82.3632 48.3383 82.1968 48.412 82.0345 48.5604C81.8722 48.7077 81.7255 48.8754 81.5955 49.0612C81.4571 49.2801 81.3479 49.4883 81.2678 49.688C81.2231 49.7948 81.1762 49.9155 81.1274 50.0511C81.6246 49.9763 82.0283 49.7969 82.3403 49.514Z" fill="#999999"/>
<path d="M84.3845 51.7233C84.2982 51.6336 84.2555 51.5258 84.2555 51.3998C84.2555 51.2738 84.2992 51.167 84.3866 51.0784C84.474 50.9897 84.578 50.946 84.7008 50.946C84.8235 50.946 84.9276 50.9908 85.0149 51.0784C85.1023 51.167 85.146 51.2738 85.146 51.3998C85.146 51.5258 85.1034 51.6336 85.017 51.7233C84.9307 51.813 84.8256 51.8579 84.7008 51.8579C84.5759 51.8579 84.4709 51.813 84.3845 51.7233ZM85.1803 48.9245C85.095 48.8348 85.0514 48.728 85.0514 48.602C85.0514 48.476 85.095 48.3692 85.1824 48.2795C85.2698 48.1898 85.3738 48.145 85.4966 48.145C85.6193 48.145 85.7234 48.1898 85.8108 48.2795C85.8981 48.3692 85.9418 48.476 85.9418 48.602C85.9418 48.728 85.8992 48.8348 85.8128 48.9245C85.7265 49.0142 85.6214 49.0591 85.4966 49.0591C85.3718 49.0591 85.2667 49.0142 85.1803 48.9245Z" fill="#999999"/>
<path d="M92.6819 46.4033C92.9524 46.4674 93.1157 46.4994 93.1729 46.4994C93.2686 46.4994 93.3373 46.4834 93.3758 46.4514C93.4143 46.4193 93.4476 46.3745 93.4736 46.3158H93.6379L93.3456 47.9496L93.2052 47.9293C93.1761 47.6068 93.1064 47.3462 92.994 47.1487C92.7891 46.7835 92.4489 46.5998 91.9756 46.5998C91.2473 46.5998 90.6481 46.9736 90.1769 47.7211C89.766 48.3692 89.561 49.0729 89.561 49.8311C89.561 50.3949 89.6859 50.8199 89.9355 51.1083C90.1852 51.3966 90.5067 51.5407 90.8989 51.5407C91.291 51.5407 91.676 51.4393 92.014 51.2364C92.2138 51.1136 92.4759 50.8936 92.7984 50.5754L92.9274 50.6918C92.6361 51.0709 92.3064 51.3688 91.9381 51.5867C91.5698 51.8045 91.1652 51.9134 90.723 51.9134C90.0573 51.9134 89.5465 51.6977 89.1896 51.2652C88.8328 50.8328 88.6549 50.3287 88.6549 49.7521C88.6549 48.9245 88.9525 48.161 89.5485 47.4616C90.2008 46.6927 90.9946 46.3083 91.9277 46.3083C92.1586 46.3083 92.4104 46.3403 92.6809 46.4044L92.6819 46.4033Z" fill="white"/>
<path d="M97.0439 48.4878C97.2238 48.727 97.3133 49.0089 97.3133 49.3346C97.3133 49.9005 97.0699 50.4558 96.5841 51.0004C96.0816 51.5664 95.5469 51.8494 94.9768 51.8494C94.6179 51.8494 94.3308 51.7426 94.1144 51.529C93.898 51.3154 93.7909 51.0154 93.7909 50.6277C93.7909 50.0436 94.0322 49.4841 94.5159 48.9501C95.0101 48.4034 95.5448 48.129 96.119 48.129C96.556 48.129 96.8639 48.2486 97.0439 48.4878ZM94.6273 51.451C94.7354 51.5963 94.8936 51.6689 95.1016 51.6689C95.525 51.6689 95.9016 51.34 96.2293 50.6833C96.5071 50.1205 96.6465 49.6026 96.6465 49.1295C96.6465 48.9288 96.6225 48.7675 96.5757 48.6447C96.4842 48.413 96.3188 48.2966 96.0764 48.2966C95.679 48.2966 95.3055 48.602 94.957 49.2139C94.6293 49.7852 94.466 50.3469 94.466 50.9C94.466 51.1222 94.5201 51.3048 94.6283 51.451H94.6273Z" fill="white"/>
<path d="M97.718 51.7618L98.3858 49.2876C98.4431 49.0783 98.4763 48.9512 98.4857 48.9074C98.4951 48.8637 98.4992 48.8156 98.4992 48.7643C98.4992 48.6864 98.4774 48.6255 98.4347 48.5817C98.3921 48.538 98.3078 48.5155 98.183 48.5155C98.1518 48.5155 98.1216 48.5177 98.0914 48.5219C98.0613 48.5262 98.028 48.5305 97.9916 48.5358V48.4034C98.1591 48.3767 98.2787 48.3564 98.3505 48.3436C98.4212 48.3308 98.4982 48.3148 98.5814 48.2956L99.2753 48.1397C99.2909 48.1503 99.3013 48.1621 99.3065 48.176L98.7895 49.8973C99.1088 49.3986 99.3762 49.027 99.5905 48.7846C99.9671 48.3554 100.305 48.1397 100.604 48.1397C100.719 48.1397 100.818 48.1621 100.902 48.208C101.061 48.2956 101.142 48.4547 101.142 48.6843C101.142 48.7483 101.135 48.8156 101.122 48.885C101.108 48.9544 101.092 49.0292 101.071 49.1093L100.558 51.0271C100.548 51.0677 100.536 51.1157 100.523 51.1734C100.51 51.2311 100.503 51.2716 100.503 51.2951C100.503 51.3357 100.512 51.371 100.53 51.403C100.548 51.435 100.577 51.451 100.617 51.451C100.682 51.451 100.757 51.4105 100.842 51.3293C100.927 51.2482 101.066 51.0741 101.257 50.8071L101.37 50.9118C101.161 51.2076 100.996 51.4169 100.873 51.5365C100.664 51.7479 100.464 51.8526 100.273 51.8526C100.187 51.8526 100.102 51.8227 100.022 51.7629C99.9421 51.7031 99.9015 51.5941 99.9015 51.4361C99.9015 51.3912 99.9047 51.3421 99.9109 51.2919C99.9171 51.2417 99.9255 51.1969 99.9359 51.1595L100.434 49.2139C100.46 49.1071 100.478 49.0196 100.487 48.9512C100.497 48.8829 100.501 48.8348 100.501 48.8049C100.501 48.7408 100.485 48.6853 100.456 48.6383C100.426 48.5914 100.373 48.5679 100.297 48.5679C100.099 48.5679 99.8506 48.7494 99.5499 49.1125C99.3731 49.3282 99.1941 49.5855 99.0121 49.8845C98.8758 50.1162 98.7697 50.3426 98.6917 50.5626C98.6137 50.7826 98.4888 51.183 98.3193 51.7639H97.72L97.718 51.7618Z" fill="white"/>
<path d="M101.713 51.7618L102.381 49.2876C102.438 49.0783 102.471 48.9512 102.48 48.9074C102.49 48.8637 102.494 48.8156 102.494 48.7643C102.494 48.6864 102.472 48.6255 102.429 48.5817C102.387 48.538 102.303 48.5155 102.178 48.5155C102.147 48.5155 102.116 48.5177 102.086 48.5219C102.056 48.5262 102.023 48.5305 101.986 48.5358V48.4034C102.154 48.3767 102.273 48.3564 102.345 48.3436C102.416 48.3308 102.493 48.3148 102.576 48.2956L103.27 48.1397C103.286 48.1503 103.296 48.1621 103.301 48.176L102.784 49.8973C103.104 49.3986 103.371 49.027 103.585 48.7846C103.962 48.3554 104.3 48.1397 104.598 48.1397C104.714 48.1397 104.813 48.1621 104.897 48.208C105.056 48.2956 105.136 48.4547 105.136 48.6843C105.136 48.7483 105.13 48.8156 105.117 48.885C105.103 48.9544 105.086 49.0292 105.066 49.1093L104.553 51.0271C104.542 51.0677 104.531 51.1157 104.517 51.1734C104.505 51.2311 104.498 51.2716 104.498 51.2951C104.498 51.3357 104.507 51.371 104.525 51.403C104.542 51.435 104.571 51.451 104.612 51.451C104.677 51.451 104.751 51.4105 104.837 51.3293C104.922 51.2482 105.06 51.0741 105.252 50.8071L105.365 50.9118C105.156 51.2076 104.991 51.4169 104.868 51.5365C104.659 51.7479 104.459 51.8526 104.268 51.8526C104.181 51.8526 104.097 51.8227 104.017 51.7629C103.937 51.7031 103.896 51.5941 103.896 51.4361C103.896 51.3912 103.899 51.3421 103.906 51.2919C103.912 51.2417 103.92 51.1969 103.931 51.1595L104.429 49.2139C104.455 49.1071 104.473 49.0196 104.482 48.9512C104.491 48.8829 104.495 48.8348 104.495 48.8049C104.495 48.7408 104.48 48.6853 104.451 48.6383C104.421 48.5914 104.368 48.5679 104.292 48.5679C104.094 48.5679 103.845 48.7494 103.545 49.1125C103.368 49.3282 103.189 49.5855 103.007 49.8845C102.871 50.1162 102.764 50.3426 102.686 50.5626C102.608 50.7826 102.484 51.183 102.314 51.7639H101.715L101.713 51.7618Z" fill="white"/>
<path d="M106.593 48.9779C107.108 48.4237 107.639 48.1461 108.189 48.1461C108.391 48.1461 108.553 48.1941 108.672 48.2902C108.792 48.3863 108.851 48.5283 108.851 48.7174C108.851 49.1007 108.632 49.4296 108.194 49.703C107.756 49.9764 107.295 50.1429 106.811 50.2049L106.589 50.2326C106.554 50.3426 106.531 50.4291 106.519 50.4953C106.505 50.5605 106.499 50.6427 106.499 50.742C106.499 50.9769 106.574 51.1595 106.724 51.2909C106.874 51.4222 107.05 51.4874 107.256 51.4874C107.462 51.4874 107.658 51.4211 107.876 51.2866C108.001 51.2097 108.182 51.0709 108.418 50.8701L108.519 50.962C108.403 51.1147 108.234 51.2706 108.016 51.4308C107.628 51.7169 107.24 51.859 106.85 51.859C106.574 51.859 106.332 51.7586 106.124 51.5589C105.915 51.3592 105.811 51.072 105.811 50.6993C105.811 50.1077 106.072 49.5343 106.592 48.979L106.593 48.9779ZM107.857 49.514C108.169 49.2299 108.325 48.9491 108.325 48.6693C108.325 48.5679 108.302 48.4878 108.255 48.428C108.208 48.3682 108.14 48.3383 108.048 48.3383C107.88 48.3383 107.713 48.412 107.551 48.5604C107.389 48.7077 107.242 48.8754 107.112 49.0612C106.973 49.2801 106.864 49.4883 106.784 49.688C106.739 49.7948 106.693 49.9155 106.644 50.0511C107.141 49.9763 107.545 49.7969 107.857 49.514Z" fill="white"/>
<path d="M112.293 48.365C112.433 48.5113 112.503 48.6533 112.503 48.7921C112.503 48.917 112.466 49.0142 112.393 49.0836C112.321 49.153 112.234 49.1872 112.136 49.1872C112.039 49.1872 111.96 49.1562 111.894 49.0954C111.83 49.0334 111.796 48.9576 111.796 48.8669C111.796 48.7974 111.818 48.7227 111.861 48.6426C111.903 48.5625 111.925 48.5102 111.925 48.4867C111.925 48.4386 111.898 48.3981 111.845 48.365C111.792 48.3319 111.707 48.3148 111.589 48.3148C111.17 48.3148 110.807 48.5593 110.499 49.0484C110.191 49.5375 110.037 50.0511 110.037 50.5882C110.037 50.8904 110.1 51.1264 110.224 51.2983C110.349 51.4692 110.536 51.5546 110.786 51.5546C110.986 51.5546 111.18 51.4948 111.37 51.3763C111.558 51.2578 111.732 51.1061 111.891 50.9214L111.918 50.8894L112.031 50.978C111.849 51.2161 111.674 51.3987 111.505 51.5269C111.205 51.749 110.875 51.859 110.51 51.859C110.146 51.859 109.88 51.7447 109.664 51.5162C109.447 51.2877 109.34 50.9759 109.34 50.5808C109.34 49.9753 109.58 49.4168 110.062 48.9074C110.539 48.4002 111.054 48.1471 111.607 48.1471C111.924 48.1471 112.153 48.2197 112.294 48.366L112.293 48.365Z" fill="white"/>
<path d="M112.957 51.4233C112.959 51.3955 112.966 51.3667 112.973 51.3368L113.727 48.5422H113.134C113.134 48.4707 113.139 48.4248 113.15 48.4055C113.16 48.3863 113.186 48.3682 113.228 48.3489C113.492 48.2336 113.697 48.1226 113.841 48.0158C113.987 47.909 114.185 47.7018 114.437 47.3964L114.499 47.3195C114.507 47.3089 114.517 47.3003 114.528 47.2939C114.54 47.2875 114.552 47.2843 114.566 47.2843C114.592 47.2896 114.609 47.295 114.621 47.3003C114.628 47.3195 114.633 47.3356 114.634 47.3505C114.635 47.3655 114.634 47.3804 114.632 47.3964L114.402 48.2689H115.045L114.998 48.5422H114.325L113.606 51.2332C113.594 51.2813 113.597 51.3272 113.618 51.371C113.639 51.4147 113.674 51.4372 113.723 51.4372C113.791 51.4372 113.885 51.3678 114.008 51.2289C114.079 51.1542 114.196 51.0058 114.364 50.7847L114.465 50.8445L114.409 50.9289C114.186 51.2738 113.988 51.513 113.818 51.6475C113.647 51.7821 113.485 51.8494 113.331 51.8494C113.198 51.8494 113.102 51.813 113.042 51.7415C112.981 51.67 112.952 51.5877 112.952 51.497C112.952 51.4756 112.953 51.451 112.956 51.4233H112.957Z" fill="white"/>
<path d="M115.904 48.9779C116.419 48.4237 116.951 48.1461 117.5 48.1461C117.703 48.1461 117.864 48.1941 117.984 48.2902C118.104 48.3863 118.163 48.5283 118.163 48.7174C118.163 49.1007 117.943 49.4296 117.505 49.703C117.067 49.9764 116.607 50.1429 116.123 50.2049L115.9 50.2326C115.866 50.3426 115.843 50.4291 115.831 50.4953C115.817 50.5605 115.811 50.6427 115.811 50.742C115.811 50.9769 115.886 51.1595 116.035 51.2909C116.185 51.4222 116.362 51.4874 116.568 51.4874C116.774 51.4874 116.97 51.4211 117.188 51.2866C117.313 51.2097 117.494 51.0709 117.73 50.8701L117.831 50.962C117.715 51.1147 117.546 51.2706 117.328 51.4308C116.939 51.7169 116.551 51.859 116.161 51.859C115.886 51.859 115.643 51.7586 115.435 51.5589C115.227 51.3592 115.123 51.072 115.123 50.6993C115.123 50.1077 115.383 49.5343 115.903 48.979L115.904 48.9779ZM117.168 49.514C117.48 49.2299 117.636 48.9491 117.636 48.6693C117.636 48.5679 117.614 48.4878 117.567 48.428C117.52 48.3682 117.451 48.3383 117.36 48.3383C117.191 48.3383 117.025 48.412 116.863 48.5604C116.7 48.7077 116.554 48.8754 116.424 49.0612C116.285 49.2801 116.176 49.4883 116.096 49.688C116.051 49.7948 116.004 49.9155 115.955 50.0511C116.453 49.9763 116.856 49.7969 117.168 49.514Z" fill="white"/>
<path d="M121.285 48.2817C121.335 48.3404 121.374 48.4408 121.402 48.5817L121.861 46.9405C121.874 46.8956 121.883 46.854 121.886 46.8187C121.89 46.7824 121.892 46.7514 121.892 46.7248C121.892 46.6212 121.874 46.555 121.836 46.5283C121.799 46.5016 121.745 46.4877 121.674 46.4877C121.629 46.4877 121.589 46.4888 121.551 46.492C121.514 46.4952 121.464 46.4984 121.401 46.5037V46.3713C121.697 46.3307 122.106 46.2624 122.628 46.1631L122.663 46.2036L122.655 46.2474L121.885 49.1253L121.361 51.0292C121.35 51.072 121.342 51.1125 121.336 51.1488C121.33 51.1852 121.326 51.2183 121.326 51.2482C121.326 51.3208 121.344 51.3678 121.378 51.3891C121.414 51.4105 121.444 51.4211 121.47 51.4211C121.546 51.4211 121.654 51.3528 121.794 51.2161C121.875 51.1328 121.987 51.0036 122.128 50.8296L122.218 50.9171L122.163 51.0015C122.066 51.1488 121.941 51.2983 121.789 51.451C121.52 51.7212 121.278 51.8568 121.063 51.8568C120.992 51.8568 120.928 51.8408 120.871 51.8088C120.764 51.7447 120.711 51.6304 120.711 51.4649C120.711 51.4094 120.718 51.3197 120.733 51.1969C120.749 51.0741 120.773 50.9395 120.805 50.7933C120.608 51.1029 120.391 51.356 120.155 51.5536C119.92 51.7511 119.663 51.8494 119.384 51.8494C119.157 51.8494 118.96 51.7671 118.791 51.6016C118.622 51.4361 118.537 51.182 118.537 50.837C118.537 50.2561 118.799 49.6581 119.322 49.0452C119.842 48.4344 120.35 48.129 120.845 48.129C121.052 48.129 121.197 48.1792 121.284 48.2806L121.285 48.2817ZM119.342 51.2556C119.414 51.3774 119.538 51.4372 119.713 51.4372C120.085 51.4372 120.443 51.1307 120.786 50.5177C121.117 49.9422 121.283 49.3965 121.283 48.8818C121.283 48.7195 121.257 48.5849 121.205 48.4782C121.153 48.3714 121.047 48.318 120.886 48.318C120.488 48.318 120.103 48.6458 119.732 49.3015C119.399 49.8877 119.233 50.3971 119.233 50.8296C119.233 50.9919 119.27 51.1339 119.343 51.2556H119.342Z" fill="white"/>
<path d="M124.819 50.0842L124.971 50.1045C124.967 50.1985 124.966 50.2529 124.966 50.2689C124.966 50.6854 125.079 51.0196 125.303 51.2716C125.528 51.5237 125.804 51.6497 126.128 51.6497C126.453 51.6497 126.71 51.5365 126.889 51.309C127.069 51.0826 127.158 50.8338 127.158 50.5637C127.158 50.4622 127.142 50.3554 127.107 50.2433C127.055 50.0703 126.969 49.9144 126.849 49.7788L126.35 49.2182C125.965 48.7857 125.719 48.476 125.609 48.2891C125.5 48.1023 125.446 47.8994 125.446 47.6805C125.446 47.3441 125.568 47.0334 125.812 46.7493C126.057 46.4653 126.416 46.3232 126.889 46.3232C127.1 46.3232 127.316 46.3595 127.54 46.4332C127.764 46.5069 127.898 46.5432 127.942 46.5432C128.028 46.5432 128.098 46.5187 128.153 46.4695C128.207 46.4204 128.252 46.3692 128.285 46.3158H128.468L128.144 47.9496L128.004 47.9293C127.992 47.5406 127.943 47.2576 127.86 47.0793C127.71 46.7621 127.426 46.6041 127.007 46.6041C126.75 46.6041 126.541 46.6799 126.38 46.8305C126.219 46.981 126.139 47.17 126.139 47.3975C126.139 47.5812 126.175 47.736 126.248 47.8609C126.321 47.9859 126.46 48.1621 126.665 48.3885L127.387 49.184C127.517 49.3282 127.626 49.4915 127.715 49.6741C127.803 49.8567 127.847 50.0693 127.847 50.3117C127.847 50.7388 127.702 51.1168 127.412 51.4468C127.122 51.7767 126.735 51.9412 126.251 51.9412C125.999 51.9412 125.743 51.891 125.484 51.7906C125.225 51.6902 125.065 51.6401 125.003 51.6401C124.909 51.6401 124.842 51.6625 124.8 51.7084C124.758 51.7543 124.721 51.8216 124.687 51.9124H124.546L124.816 50.0821L124.819 50.0842Z" fill="white"/>
<path d="M128.709 51.4233C128.711 51.3955 128.718 51.3667 128.725 51.3368L129.479 48.5422H128.886C128.886 48.4707 128.891 48.4248 128.902 48.4055C128.912 48.3863 128.938 48.3682 128.98 48.3489C129.244 48.2336 129.449 48.1226 129.594 48.0158C129.739 47.909 129.937 47.7018 130.189 47.3964L130.251 47.3195C130.259 47.3089 130.269 47.3003 130.28 47.2939C130.292 47.2875 130.304 47.2843 130.318 47.2843C130.344 47.2896 130.361 47.295 130.373 47.3003C130.38 47.3195 130.385 47.3356 130.386 47.3505C130.387 47.3655 130.386 47.3804 130.384 47.3964L130.154 48.2689H130.797L130.75 48.5422H130.077L129.359 51.2332C129.346 51.2813 129.349 51.3272 129.37 51.371C129.391 51.4147 129.426 51.4372 129.475 51.4372C129.543 51.4372 129.637 51.3678 129.76 51.2289C129.831 51.1542 129.948 51.0058 130.116 50.7847L130.217 50.8445L130.162 50.9289C129.938 51.2738 129.74 51.513 129.57 51.6475C129.399 51.7821 129.237 51.8494 129.083 51.8494C128.95 51.8494 128.854 51.813 128.794 51.7415C128.733 51.67 128.704 51.5877 128.704 51.497C128.704 51.4756 128.705 51.451 128.708 51.4233H128.709Z" fill="white"/>
<path d="M132.306 48.1397C132.315 48.1546 132.319 48.1706 132.319 48.1898C132.317 48.2165 132.314 48.2379 132.312 48.2507L131.915 49.8119L132.005 49.6272C132.192 49.2502 132.411 48.9074 132.661 48.5956C132.912 48.2849 133.15 48.129 133.377 48.129C133.499 48.129 133.594 48.1706 133.66 48.2528C133.727 48.3361 133.76 48.4301 133.76 48.5369C133.76 48.6565 133.727 48.7569 133.661 48.8348C133.595 48.9138 133.503 48.9533 133.387 48.9533C133.306 48.9533 133.245 48.9373 133.203 48.9053C133.162 48.8733 133.13 48.8359 133.106 48.7932L133.059 48.7045C133.048 48.6885 133.036 48.6757 133.021 48.6661C133.007 48.6565 132.989 48.6522 132.968 48.6522C132.866 48.6522 132.721 48.7974 132.529 49.089C132.338 49.3805 132.166 49.6955 132.015 50.034C131.924 50.2401 131.823 50.5124 131.711 50.8509C131.64 51.0645 131.545 51.3678 131.428 51.7597H130.828L131.479 49.3495C131.515 49.2107 131.544 49.0868 131.566 48.9768C131.588 48.8679 131.599 48.7782 131.599 48.7088C131.599 48.6287 131.58 48.5679 131.541 48.5241C131.502 48.4814 131.434 48.46 131.338 48.46C131.307 48.46 131.269 48.4621 131.222 48.4675C131.175 48.4728 131.119 48.4792 131.054 48.4878V48.3554L131.21 48.3233C131.413 48.2806 131.635 48.2358 131.876 48.1877C132.116 48.1397 132.243 48.1162 132.257 48.1162C132.28 48.1162 132.296 48.1236 132.306 48.1386V48.1397Z" fill="white"/>
<path d="M134.708 48.8701C134.713 48.8434 134.717 48.8188 134.721 48.7964C134.725 48.774 134.727 48.7505 134.727 48.7259C134.727 48.6116 134.694 48.5412 134.628 48.5155C134.561 48.4899 134.437 48.4771 134.255 48.4771V48.365L134.836 48.2486L135.464 48.129C135.478 48.1268 135.489 48.1332 135.499 48.1482C135.51 48.1642 135.514 48.1792 135.511 48.1952L135.499 48.2614L134.741 50.9673C134.722 51.0346 134.71 51.0858 134.701 51.1232C134.693 51.1606 134.69 51.1873 134.69 51.2033C134.69 51.2652 134.707 51.3133 134.741 51.3475C134.775 51.3827 134.819 51.3998 134.875 51.3998C135.03 51.3998 135.225 51.2599 135.458 50.9791C135.691 50.6982 135.898 50.4067 136.08 50.1045C136.243 49.8343 136.393 49.5343 136.53 49.2022C136.615 48.9961 136.735 48.6693 136.893 48.2197H137.482L136.715 51.0623C136.703 51.1157 136.692 51.1649 136.681 51.2108C136.671 51.2567 136.666 51.2941 136.666 51.3229C136.666 51.3581 136.673 51.388 136.688 51.4126C136.704 51.4382 136.731 51.451 136.77 51.451C136.808 51.451 136.848 51.4361 136.888 51.4051C136.929 51.3742 136.98 51.3272 137.041 51.2631C137.069 51.2343 137.12 51.1713 137.194 51.0752C137.24 51.0164 137.309 50.9267 137.404 50.8071L137.515 50.883C137.397 51.0858 137.273 51.261 137.144 51.4073C136.889 51.7009 136.652 51.8483 136.433 51.8483C136.319 51.8483 136.227 51.8163 136.154 51.7522C136.081 51.6881 136.046 51.5888 136.046 51.4532C136.046 51.3838 136.052 51.308 136.065 51.2257C136.079 51.1435 136.099 51.0506 136.128 50.946C136.177 50.7591 136.238 50.5242 136.314 50.2433L136.416 49.8664H136.388C136.025 50.49 135.74 50.931 135.533 51.1894C135.173 51.6326 134.833 51.8547 134.511 51.8547C134.425 51.8547 134.346 51.8355 134.275 51.7992C134.139 51.7244 134.07 51.5909 134.07 51.3987C134.07 51.3432 134.072 51.2973 134.078 51.2631C134.084 51.2279 134.093 51.1798 134.105 51.1189L134.713 48.869L134.708 48.8701Z" fill="white"/>
<path d="M138.018 51.9796C138.168 51.7992 138.405 51.6198 138.729 51.4414C138.665 51.3987 138.611 51.3539 138.569 51.3069C138.528 51.2599 138.507 51.198 138.507 51.1211C138.507 51.0122 138.581 50.8862 138.729 50.7452C138.813 50.6651 138.948 50.5594 139.135 50.4291C138.969 50.365 138.825 50.2743 138.707 50.1568C138.561 49.9998 138.488 49.7948 138.488 49.5439C138.488 49.1413 138.642 48.806 138.948 48.539C139.255 48.2721 139.635 48.1386 140.087 48.1386C140.323 48.1386 140.524 48.177 140.687 48.2528C140.852 48.3287 140.947 48.3927 140.977 48.4429H141.503V48.7654H141.104C141.12 48.8241 141.132 48.8775 141.14 48.9256C141.147 48.9736 141.151 49.042 141.151 49.1295C141.151 49.562 140.988 49.9016 140.661 50.1493C140.335 50.3971 139.983 50.521 139.606 50.521C139.567 50.521 139.53 50.5188 139.497 50.5145C139.463 50.5103 139.421 50.5028 139.372 50.4921C139.333 50.4921 139.28 50.5306 139.212 50.6085C139.141 50.6865 139.107 50.7559 139.107 50.8167C139.107 50.9075 139.393 51.0624 139.965 51.2813C140.534 51.5034 140.819 51.8269 140.819 52.2541C140.819 52.5744 140.676 52.8553 140.391 53.0966C140.105 53.3379 139.673 53.4586 139.096 53.4586C138.695 53.4586 138.378 53.371 138.144 53.1948C137.91 53.0186 137.792 52.804 137.792 52.5499C137.792 52.3491 137.867 52.159 138.017 51.9796H138.018ZM140.023 53.055C140.226 52.9023 140.328 52.7207 140.328 52.5104C140.328 52.3502 140.275 52.2156 140.168 52.1056C140.111 52.0469 140.018 51.9839 139.891 51.9177C139.784 51.8643 139.604 51.7874 139.352 51.687C139.099 51.5867 138.952 51.5365 138.913 51.5365C138.845 51.5365 138.714 51.6294 138.518 51.8152C138.323 52.001 138.226 52.2114 138.226 52.4463C138.226 52.8008 138.376 53.0453 138.674 53.1788C138.83 53.2482 139.023 53.2835 139.252 53.2835C139.561 53.2835 139.818 53.2077 140.023 53.055ZM139.189 50.1077C139.273 50.2711 139.422 50.3522 139.638 50.3522C139.872 50.3522 140.081 50.1995 140.264 49.8941C140.447 49.5887 140.539 49.2513 140.539 48.8829C140.539 48.7067 140.501 48.5689 140.425 48.4686C140.349 48.3682 140.237 48.318 140.086 48.318C139.795 48.318 139.56 48.4771 139.382 48.7942C139.204 49.1125 139.114 49.4179 139.114 49.7115C139.114 49.877 139.139 50.0095 139.188 50.1077H139.189Z" fill="white"/>
<path d="M142.013 51.9796C142.162 51.7992 142.4 51.6198 142.724 51.4414C142.66 51.3987 142.606 51.3539 142.564 51.3069C142.522 51.2599 142.502 51.198 142.502 51.1211C142.502 51.0122 142.575 50.8862 142.724 50.7452C142.807 50.6651 142.943 50.5594 143.13 50.4291C142.964 50.365 142.82 50.2743 142.701 50.1568C142.556 49.9998 142.483 49.7948 142.483 49.5439C142.483 49.1413 142.637 48.806 142.943 48.539C143.25 48.2721 143.629 48.1386 144.082 48.1386C144.318 48.1386 144.519 48.177 144.682 48.2528C144.846 48.3287 144.942 48.3927 144.971 48.4429H145.498V48.7654H145.099C145.115 48.8241 145.126 48.8775 145.135 48.9256C145.142 48.9736 145.146 49.042 145.146 49.1295C145.146 49.562 144.983 49.9016 144.656 50.1493C144.329 50.3971 143.978 50.521 143.601 50.521C143.562 50.521 143.525 50.5188 143.492 50.5145C143.458 50.5103 143.416 50.5028 143.367 50.4921C143.328 50.4921 143.275 50.5306 143.207 50.6085C143.136 50.6865 143.102 50.7559 143.102 50.8167C143.102 50.9075 143.388 51.0624 143.96 51.2813C144.529 51.5034 144.814 51.8269 144.814 52.2541C144.814 52.5744 144.671 52.8553 144.386 53.0966C144.1 53.3379 143.668 53.4586 143.09 53.4586C142.69 53.4586 142.373 53.371 142.139 53.1948C141.904 53.0186 141.787 52.804 141.787 52.5499C141.787 52.3491 141.862 52.159 142.012 51.9796H142.013ZM144.017 53.055C144.221 52.9023 144.323 52.7207 144.323 52.5104C144.323 52.3502 144.27 52.2156 144.163 52.1056C144.106 52.0469 144.013 51.9839 143.886 51.9177C143.779 51.8643 143.599 51.7874 143.346 51.687C143.094 51.5867 142.947 51.5365 142.907 51.5365C142.84 51.5365 142.709 51.6294 142.513 51.8152C142.317 52.001 142.221 52.2114 142.221 52.4463C142.221 52.8008 142.371 53.0453 142.669 53.1788C142.825 53.2482 143.018 53.2835 143.246 53.2835C143.555 53.2835 143.812 53.2077 144.017 53.055ZM143.184 50.1077C143.267 50.2711 143.417 50.3522 143.632 50.3522C143.866 50.3522 144.076 50.1995 144.259 49.8941C144.442 49.5887 144.533 49.2513 144.533 48.8829C144.533 48.7067 144.496 48.5689 144.42 48.4686C144.344 48.3682 144.232 48.318 144.081 48.318C143.789 48.318 143.554 48.4771 143.376 48.7942C143.199 49.1125 143.109 49.4179 143.109 49.7115C143.109 49.877 143.134 50.0095 143.183 50.1077H143.184Z" fill="white"/>
<path d="M147.23 46.9041C147.24 46.87 147.246 46.8347 147.25 46.8006C147.252 46.7664 147.254 46.7376 147.254 46.7162C147.254 46.6254 147.218 46.5699 147.148 46.5496C147.077 46.5293 146.935 46.5208 146.723 46.524V46.3916C146.841 46.3756 146.976 46.3574 147.129 46.3361C147.282 46.3147 147.382 46.2997 147.428 46.2923C147.575 46.2656 147.753 46.2261 147.962 46.1727C147.981 46.1727 147.999 46.1866 148.017 46.2133L146.719 51.026C146.69 51.1414 146.673 51.2108 146.668 51.2343C146.663 51.2578 146.66 51.2823 146.66 51.3058C146.66 51.3571 146.669 51.3998 146.687 51.4361C146.704 51.4724 146.739 51.4906 146.789 51.4906C146.882 51.4906 147.005 51.4051 147.156 51.2343C147.307 51.0634 147.434 50.8979 147.539 50.7377L147.644 50.8135C147.419 51.1531 147.244 51.388 147.119 51.5183C146.903 51.7404 146.686 51.8504 146.466 51.8504C146.373 51.8504 146.289 51.8259 146.215 51.7778C146.103 51.7063 146.047 51.5835 146.047 51.4094C146.047 51.3432 146.057 51.2535 146.078 51.1414C146.093 51.0752 146.11 50.9972 146.133 50.9096L147.23 46.9052V46.9041Z" fill="white"/>
<path d="M148.969 48.9779C149.484 48.4237 150.016 48.1461 150.565 48.1461C150.768 48.1461 150.929 48.1941 151.049 48.2902C151.168 48.3863 151.228 48.5283 151.228 48.7174C151.228 49.1007 151.008 49.4296 150.57 49.703C150.132 49.9764 149.671 50.1429 149.188 50.2049L148.965 50.2326C148.931 50.3426 148.908 50.4291 148.895 50.4953C148.882 50.5605 148.875 50.6427 148.875 50.742C148.875 50.9769 148.95 51.1595 149.1 51.2909C149.25 51.4222 149.427 51.4874 149.633 51.4874C149.839 51.4874 150.034 51.4211 150.253 51.2866C150.378 51.2097 150.559 51.0709 150.795 50.8701L150.896 50.962C150.779 51.1147 150.611 51.2706 150.392 51.4308C150.004 51.7169 149.616 51.859 149.226 51.859C148.95 51.859 148.708 51.7586 148.5 51.5589C148.292 51.3592 148.188 51.072 148.188 50.6993C148.188 50.1077 148.448 49.5343 148.968 48.979L148.969 48.9779ZM150.233 49.514C150.545 49.2299 150.701 48.9491 150.701 48.6693C150.701 48.5679 150.678 48.4878 150.632 48.428C150.585 48.3682 150.516 48.3383 150.424 48.3383C150.256 48.3383 150.09 48.412 149.927 48.5604C149.765 48.7077 149.618 48.8754 149.488 49.0612C149.35 49.2801 149.241 49.4883 149.161 49.688C149.116 49.7948 149.069 49.9155 149.02 50.0511C149.517 49.9763 149.921 49.7969 150.233 49.514Z" fill="white"/>
<path d="M151.771 50.5679H151.9C151.957 50.8915 152.024 51.1275 152.102 51.277C152.246 51.5525 152.458 51.6892 152.742 51.6892C152.901 51.6892 153.035 51.6315 153.142 51.5173C153.25 51.403 153.304 51.2503 153.304 51.0613C153.304 50.9438 153.291 50.8477 153.263 50.773C153.236 50.6982 153.202 50.6299 153.16 50.569L152.837 50.0767C152.641 49.7777 152.52 49.578 152.471 49.4766C152.395 49.325 152.357 49.1723 152.357 49.0206C152.357 48.7889 152.439 48.5839 152.601 48.4055C152.763 48.2283 152.994 48.1397 153.294 48.1397C153.421 48.1397 153.566 48.1642 153.731 48.2133C153.895 48.2625 154.006 48.287 154.067 48.287C154.131 48.287 154.18 48.2742 154.211 48.2475C154.242 48.2208 154.271 48.1845 154.298 48.1397H154.411L154.251 49.2769H154.122C154.087 49.0185 154.037 48.8231 153.97 48.6917C153.845 48.4493 153.647 48.3276 153.377 48.3276C153.262 48.3276 153.16 48.3639 153.071 48.4376C152.982 48.5113 152.937 48.618 152.937 48.7601C152.937 48.8701 152.957 48.9662 152.997 49.0484C153.038 49.1317 153.129 49.278 153.272 49.4883L153.548 49.8963C153.691 50.1077 153.793 50.2796 153.852 50.4131C153.912 50.5466 153.942 50.6907 153.942 50.8456C153.942 51.1339 153.822 51.3774 153.583 51.5749C153.344 51.7725 153.059 51.8707 152.729 51.8707C152.622 51.8707 152.47 51.8483 152.272 51.8024C152.074 51.7575 151.96 51.734 151.929 51.734C151.877 51.734 151.838 51.7458 151.813 51.7703C151.788 51.7938 151.765 51.8301 151.745 51.8782H151.616L151.772 50.569L151.771 50.5679Z" fill="white"/>
<path d="M155.414 51.0549C155.481 50.9759 155.582 50.9363 155.717 50.9363C155.853 50.9363 155.967 50.9908 156.052 51.1008C156.139 51.2108 156.181 51.3496 156.181 51.5173C156.181 51.7864 156.081 52.032 155.879 52.2541C155.677 52.4751 155.474 52.6438 155.268 52.7592L155.147 52.8275L155.074 52.6951C155.235 52.5776 155.359 52.4772 155.444 52.395C155.597 52.2402 155.674 52.1014 155.674 51.9786C155.674 51.9433 155.668 51.9102 155.654 51.8782C155.641 51.8462 155.623 51.8184 155.599 51.7938L155.525 51.718C155.429 51.6198 155.369 51.544 155.346 51.4916C155.323 51.4393 155.311 51.3624 155.311 51.261C155.311 51.2022 155.345 51.1339 155.413 51.0549H155.414Z" fill="white"/>
<path d="M158.516 51.6294C158.742 51.6005 158.903 51.5162 158.998 51.3774C159.092 51.2385 159.209 50.9182 159.347 50.4163L160.302 46.8764C160.333 46.7568 160.28 46.6714 160.144 46.6222C160.008 46.5731 159.862 46.5464 159.709 46.5443V46.4119H161.168L161.727 50.4248H161.755L164.583 46.4119H165.908V46.5443C165.697 46.571 165.552 46.6158 165.473 46.6788C165.394 46.7418 165.32 46.8988 165.253 47.1498L164.274 50.7772C164.245 50.8808 164.222 50.9737 164.204 51.0538C164.187 51.1339 164.178 51.2054 164.178 51.2695C164.178 51.4137 164.227 51.5076 164.326 51.5514C164.425 51.5952 164.583 51.6219 164.801 51.6294V51.7618H162.6V51.6294C162.821 51.6134 162.979 51.5824 163.072 51.5375C163.228 51.4596 163.339 51.3122 163.404 51.0955L164.445 47.2245H164.416L161.289 51.7618H161.151L160.538 47.3687H160.51L159.62 50.8328C159.601 50.9075 159.584 50.9844 159.569 51.0645C159.553 51.1446 159.545 51.2076 159.545 51.2524C159.545 51.3987 159.606 51.5023 159.729 51.56C159.807 51.5973 159.933 51.6198 160.108 51.6283V51.7607H158.518V51.6283L158.516 51.6294Z" fill="white"/>
<path d="M168.173 48.2934C168.233 48.3522 168.281 48.4301 168.315 48.5262L168.335 48.5828L168.423 48.2806C168.433 48.2464 168.442 48.2229 168.451 48.2112C168.459 48.1995 168.477 48.192 168.507 48.1888L168.956 48.1375C168.98 48.1375 168.994 48.1418 168.998 48.1514C169.002 48.161 169.001 48.177 168.996 48.2016C168.984 48.2358 168.976 48.2635 168.971 48.2838C168.966 48.3041 168.957 48.3329 168.946 48.3703L168.56 49.8034C168.476 50.1152 168.405 50.3853 168.346 50.6117C168.25 51.0218 168.201 51.2556 168.201 51.3144C168.201 51.3517 168.21 51.3784 168.23 51.3966C168.25 51.4137 168.274 51.4222 168.302 51.4222C168.325 51.4222 168.351 51.4147 168.38 51.3977C168.409 51.3816 168.443 51.3571 168.484 51.3261L168.554 51.2706C168.576 51.2524 168.6 51.23 168.628 51.2044C168.655 51.1787 168.688 51.1478 168.726 51.1104L168.981 50.8541L169.075 50.9385C168.797 51.293 168.573 51.5343 168.406 51.6614C168.238 51.7885 168.077 51.8515 167.925 51.8515C167.827 51.8515 167.751 51.8173 167.698 51.7479C167.644 51.6785 167.617 51.592 167.617 51.4884C167.617 51.3923 167.635 51.2546 167.67 51.0752C167.706 50.8958 167.74 50.7441 167.773 50.6213C167.727 50.7014 167.649 50.8189 167.538 50.9716C167.428 51.1254 167.292 51.2738 167.132 51.4179C166.942 51.592 166.76 51.7148 166.586 51.7863C166.451 51.8344 166.321 51.859 166.196 51.859C165.986 51.859 165.795 51.7703 165.624 51.592C165.453 51.4147 165.367 51.1627 165.367 50.836C165.367 50.2753 165.615 49.6891 166.109 49.0804C166.619 48.4472 167.147 48.13 167.694 48.13C167.902 48.13 168.063 48.1845 168.175 48.2945L168.173 48.2934ZM168.047 48.4461C167.961 48.3554 167.856 48.3094 167.732 48.3094C167.303 48.3094 166.906 48.6437 166.538 49.3121C166.214 49.9005 166.053 50.4067 166.053 50.8317C166.053 51.0453 166.098 51.2012 166.187 51.2983C166.276 51.3955 166.388 51.4446 166.52 51.4446C166.912 51.4446 167.29 51.12 167.653 50.4708C168.002 49.8802 168.178 49.3463 168.178 48.8711C168.178 48.6789 168.134 48.5369 168.048 48.4461H168.047Z" fill="white"/>
<path d="M169.384 51.7618L170.052 49.2876C170.109 49.0783 170.142 48.9512 170.152 48.9074C170.161 48.8637 170.165 48.8156 170.165 48.7643C170.165 48.6864 170.143 48.6255 170.101 48.5817C170.058 48.538 169.974 48.5155 169.849 48.5155C169.818 48.5155 169.787 48.5177 169.757 48.5219C169.727 48.5262 169.694 48.5305 169.657 48.5358V48.4034C169.825 48.3767 169.945 48.3564 170.016 48.3436C170.087 48.3308 170.164 48.3148 170.247 48.2956L170.941 48.1397C170.957 48.1503 170.967 48.1621 170.972 48.176L170.455 49.8973C170.775 49.3986 171.042 49.027 171.256 48.7846C171.633 48.3554 171.971 48.1397 172.27 48.1397C172.385 48.1397 172.484 48.1621 172.568 48.208C172.727 48.2956 172.807 48.4547 172.807 48.6843C172.807 48.7483 172.801 48.8156 172.788 48.885C172.774 48.9544 172.758 49.0292 172.737 49.1093L172.224 51.0271C172.213 51.0677 172.202 51.1157 172.188 51.1734C172.176 51.2311 172.169 51.2716 172.169 51.2951C172.169 51.3357 172.178 51.371 172.196 51.403C172.213 51.435 172.243 51.451 172.283 51.451C172.348 51.451 172.423 51.4105 172.508 51.3293C172.593 51.2482 172.732 51.0741 172.923 50.8071L173.036 50.9118C172.827 51.2076 172.662 51.4169 172.539 51.5365C172.33 51.7479 172.13 51.8526 171.939 51.8526C171.852 51.8526 171.768 51.8227 171.688 51.7629C171.608 51.7031 171.567 51.5941 171.567 51.4361C171.567 51.3912 171.571 51.3421 171.577 51.2919C171.583 51.2417 171.591 51.1969 171.602 51.1595L172.1 49.2139C172.126 49.1071 172.144 49.0196 172.153 48.9512C172.162 48.8829 172.167 48.8348 172.167 48.8049C172.167 48.7408 172.151 48.6853 172.122 48.6383C172.092 48.5914 172.039 48.5679 171.963 48.5679C171.765 48.5679 171.516 48.7494 171.216 49.1125C171.039 49.3282 170.86 49.5855 170.678 49.8845C170.542 50.1162 170.436 50.3426 170.358 50.5626C170.28 50.7826 170.155 51.183 169.985 51.7639H169.386L169.384 51.7618Z" fill="white"/>
<path d="M173.105 52.867C173.157 52.8051 173.232 52.7752 173.331 52.7752C173.395 52.7752 173.452 52.788 173.502 52.8136C173.552 52.8392 173.603 52.8756 173.658 52.9236L173.714 52.9642C173.729 52.977 173.747 52.9877 173.767 52.9941C173.786 53.0005 173.807 53.0037 173.831 53.0037C173.958 53.0037 174.163 52.8307 174.446 52.4858C174.728 52.1409 174.869 51.8899 174.869 51.7319C174.869 51.5739 174.82 51.2898 174.723 50.852C174.625 50.4152 174.531 50.0255 174.44 49.6848C174.313 49.2054 174.196 48.8797 174.09 48.7099C173.985 48.539 173.829 48.4536 173.624 48.4536C173.609 48.4536 173.581 48.4557 173.544 48.46C173.507 48.4643 173.442 48.4718 173.351 48.4824V48.35L174.415 48.1375L174.497 48.129C174.561 48.1215 174.687 48.4216 174.871 49.0302C175.038 49.578 175.141 49.9753 175.181 50.2252L175.34 51.1809C175.613 50.71 175.813 50.3501 175.941 50.0981C176.191 49.6037 176.315 49.2577 176.315 49.0591C176.315 49.0132 176.307 48.9694 176.292 48.9245C176.277 48.8807 176.24 48.8423 176.183 48.8103L176.117 48.774C176.075 48.7526 176.026 48.712 175.97 48.6533C175.914 48.5946 175.886 48.5155 175.886 48.4162C175.886 48.3329 175.912 48.2635 175.964 48.208C176.016 48.1514 176.094 48.1236 176.198 48.1236C176.328 48.1236 176.433 48.1631 176.514 48.2422C176.595 48.3212 176.635 48.4557 176.635 48.6447C176.635 48.9309 176.483 49.3901 176.178 50.0233C175.944 50.506 175.683 50.9737 175.394 51.4265C175.032 51.9914 174.722 52.4281 174.462 52.7346C174.048 53.2173 173.704 53.4586 173.432 53.4586C173.325 53.4586 173.231 53.4255 173.149 53.3582C173.067 53.292 173.026 53.2002 173.026 53.0859C173.026 53.0005 173.052 52.9268 173.104 52.8659L173.105 52.867Z" fill="white"/>
<path d="M181.312 46.4119V46.5443C181.119 46.555 180.979 46.5806 180.891 46.6201C180.757 46.6842 180.692 46.7952 180.692 46.9522C180.692 46.9736 180.693 46.996 180.696 47.0184C180.698 47.0408 180.701 47.0633 180.704 47.0846L181.217 50.6502H181.264L182.873 47.7969C182.955 47.6548 183.031 47.5086 183.104 47.3591C183.226 47.106 183.287 46.9298 183.287 46.8315C183.287 46.7333 183.25 46.666 183.174 46.6318C183.099 46.5977 182.97 46.5678 182.788 46.5443V46.4119H184.269V46.5443C184.155 46.5688 184.07 46.5977 184.014 46.6329C183.957 46.6682 183.895 46.745 183.824 46.8646L180.846 51.9145H180.69L180.015 47.6463C179.933 47.1412 179.865 46.839 179.806 46.7376C179.747 46.6361 179.607 46.5721 179.386 46.5454V46.4129H181.312V46.4119Z" fill="white"/>
<path d="M186.236 48.4878C186.416 48.727 186.505 49.0089 186.505 49.3346C186.505 49.9005 186.262 50.4558 185.776 51.0004C185.273 51.5664 184.739 51.8494 184.169 51.8494C183.81 51.8494 183.522 51.7426 183.306 51.529C183.09 51.3154 182.983 51.0154 182.983 50.6277C182.983 50.0436 183.224 49.4841 183.708 48.9501C184.202 48.4034 184.737 48.129 185.311 48.129C185.748 48.129 186.056 48.2486 186.236 48.4878ZM183.819 51.451C183.927 51.5963 184.085 51.6689 184.293 51.6689C184.717 51.6689 185.093 51.34 185.421 50.6833C185.699 50.1205 185.838 49.6026 185.838 49.1295C185.838 48.9288 185.814 48.7675 185.767 48.6447C185.676 48.413 185.51 48.2966 185.268 48.2966C184.871 48.2966 184.497 48.602 184.149 49.2139C183.821 49.7852 183.658 50.3469 183.658 50.9C183.658 51.1222 183.712 51.3048 183.82 51.451H183.819Z" fill="white"/>
<path d="M188.578 48.1311C188.593 48.1407 188.598 48.1514 188.596 48.1653L187.808 51.0239C187.772 51.1766 187.753 51.2674 187.753 51.2962C187.753 51.3368 187.762 51.371 187.777 51.4009C187.79 51.4329 187.823 51.4489 187.875 51.4489C187.963 51.4489 188.08 51.3699 188.227 51.2129C188.313 51.1189 188.418 50.9865 188.543 50.8125L188.644 50.9L188.604 50.9566C188.409 51.2364 188.247 51.4382 188.121 51.561C187.921 51.7532 187.725 51.8494 187.536 51.8494C187.424 51.8494 187.331 51.8013 187.257 51.7052C187.183 51.6091 187.146 51.4959 187.146 51.3646C187.146 51.2877 187.151 51.2193 187.161 51.1627C187.172 51.1051 187.192 51.0207 187.22 50.9086L187.775 48.8508C187.784 48.8188 187.79 48.79 187.795 48.7622C187.8 48.7355 187.803 48.7088 187.803 48.6821C187.803 48.586 187.769 48.5262 187.7 48.5038C187.632 48.4814 187.495 48.4696 187.294 48.4696V48.3372C187.508 48.3105 187.662 48.2902 187.756 48.2753C187.851 48.2603 187.946 48.2454 188.04 48.2293C188.164 48.208 188.282 48.1845 188.393 48.1578C188.504 48.1311 188.567 48.1226 188.58 48.1322L188.578 48.1311ZM188.21 47.1284C188.134 47.043 188.097 46.9405 188.097 46.8198C188.097 46.6991 188.134 46.5934 188.21 46.508C188.285 46.4226 188.376 46.3798 188.483 46.3798C188.589 46.3798 188.681 46.4226 188.757 46.508C188.834 46.5934 188.873 46.6981 188.873 46.8198C188.873 46.9415 188.834 47.0462 188.757 47.1305C188.68 47.2149 188.589 47.2565 188.483 47.2565C188.376 47.2565 188.285 47.2138 188.21 47.1284Z" fill="white"/>
<path d="M192.169 48.365C192.31 48.5113 192.38 48.6533 192.38 48.7921C192.38 48.917 192.343 49.0142 192.27 49.0836C192.198 49.153 192.111 49.1872 192.013 49.1872C191.916 49.1872 191.837 49.1562 191.771 49.0954C191.707 49.0334 191.673 48.9576 191.673 48.8669C191.673 48.7974 191.695 48.7227 191.738 48.6426C191.78 48.5625 191.802 48.5102 191.802 48.4867C191.802 48.4386 191.775 48.3981 191.722 48.365C191.669 48.3319 191.584 48.3148 191.466 48.3148C191.047 48.3148 190.684 48.5593 190.376 49.0484C190.068 49.5375 189.914 50.0511 189.914 50.5882C189.914 50.8904 189.977 51.1264 190.101 51.2983C190.226 51.4692 190.413 51.5546 190.663 51.5546C190.863 51.5546 191.057 51.4948 191.247 51.3763C191.435 51.2578 191.609 51.1061 191.768 50.9214L191.795 50.8894L191.908 50.978C191.726 51.2161 191.55 51.3987 191.382 51.5269C191.082 51.749 190.752 51.859 190.387 51.859C190.023 51.859 189.757 51.7447 189.541 51.5162C189.324 51.2877 189.217 50.9759 189.217 50.5808C189.217 49.9753 189.457 49.4168 189.939 48.9074C190.416 48.4002 190.93 48.1471 191.484 48.1471C191.801 48.1471 192.03 48.2197 192.17 48.366L192.169 48.365Z" fill="white"/>
<path d="M193.561 48.9779C194.076 48.4237 194.608 48.1461 195.157 48.1461C195.36 48.1461 195.521 48.1941 195.641 48.2902C195.761 48.3863 195.82 48.5283 195.82 48.7174C195.82 49.1007 195.6 49.4296 195.162 49.703C194.724 49.9764 194.264 50.1429 193.78 50.2049L193.557 50.2326C193.523 50.3426 193.5 50.4291 193.487 50.4953C193.474 50.5605 193.468 50.6427 193.468 50.742C193.468 50.9769 193.543 51.1595 193.692 51.2909C193.842 51.4222 194.019 51.4874 194.225 51.4874C194.431 51.4874 194.627 51.4211 194.845 51.2866C194.97 51.2097 195.151 51.0709 195.387 50.8701L195.488 50.962C195.371 51.1147 195.203 51.2706 194.984 51.4308C194.596 51.7169 194.208 51.859 193.818 51.859C193.543 51.859 193.3 51.7586 193.092 51.5589C192.884 51.3592 192.78 51.072 192.78 50.6993C192.78 50.1077 193.04 49.5343 193.56 48.979L193.561 48.9779ZM194.826 49.514C195.138 49.2299 195.294 48.9491 195.294 48.6693C195.294 48.5679 195.272 48.4878 195.225 48.428C195.178 48.3682 195.109 48.3383 195.018 48.3383C194.849 48.3383 194.683 48.412 194.521 48.5604C194.358 48.7077 194.212 48.8754 194.081 49.0612C193.943 49.2801 193.834 49.4883 193.754 49.688C193.709 49.7948 193.662 49.9155 193.613 50.0511C194.111 49.9763 194.514 49.7969 194.826 49.514Z" fill="white"/>
<path d="M196.363 50.5679H196.492C196.549 50.8915 196.617 51.1275 196.695 51.277C196.838 51.5525 197.051 51.6892 197.335 51.6892C197.494 51.6892 197.627 51.6315 197.734 51.5173C197.842 51.403 197.896 51.2503 197.896 51.0613C197.896 50.9438 197.883 50.8477 197.856 50.773C197.829 50.6982 197.794 50.6299 197.753 50.569L197.429 50.0767C197.234 49.7777 197.112 49.578 197.063 49.4766C196.987 49.325 196.95 49.1723 196.95 49.0206C196.95 48.7889 197.031 48.5839 197.193 48.4055C197.355 48.2283 197.586 48.1397 197.886 48.1397C198.013 48.1397 198.158 48.1642 198.323 48.2133C198.487 48.2625 198.598 48.287 198.659 48.287C198.723 48.287 198.772 48.2742 198.803 48.2475C198.835 48.2208 198.864 48.1845 198.89 48.1397H199.003L198.843 49.2769H198.714C198.68 49.0185 198.63 48.8231 198.562 48.6917C198.437 48.4493 198.24 48.3276 197.969 48.3276C197.855 48.3276 197.753 48.3639 197.663 48.4376C197.574 48.5113 197.529 48.618 197.529 48.7601C197.529 48.8701 197.549 48.9662 197.589 49.0484C197.63 49.1317 197.721 49.278 197.864 49.4883L198.141 49.8963C198.283 50.1077 198.385 50.2796 198.444 50.4131C198.504 50.5466 198.534 50.6907 198.534 50.8456C198.534 51.1339 198.414 51.3774 198.175 51.5749C197.936 51.7725 197.651 51.8707 197.321 51.8707C197.214 51.8707 197.062 51.8483 196.864 51.8024C196.667 51.7575 196.552 51.734 196.521 51.734C196.469 51.734 196.43 51.7458 196.406 51.7703C196.381 51.7938 196.358 51.8301 196.337 51.8782H196.208L196.364 50.569L196.363 50.5679Z" fill="white"/>
</g>
<defs>
<clipPath id="clip0_16_1217">
<rect width="199" height="54" fill="white"/>
</clipPath>
</defs>
</svg>
