<svg width="529" height="28" viewBox="0 0 529 28" fill="none" xmlns="http://www.w3.org/2000/svg">
<path d="M0.207659 20.9565C1.12258 20.8873 1.77148 20.7528 2.14229 20.5573C2.76701 20.2192 3.20634 19.5837 3.45623 18.6468L7.98248 2.1322C5.60853 2.1322 4.03664 2.31144 3.27488 2.67399C2.50909 3.03655 1.61835 4.13236 0.602663 5.9655L0.0585327 5.85958L1.34426 1.04861H17.8491L16.4868 6.14882L15.9427 6.07142L16.0193 4.98783C16.0193 4.03053 15.8056 3.31356 15.3744 2.84101C14.9431 2.36847 14.0927 2.1322 12.8231 2.1322H11.098L6.76123 17.6976C6.66047 18.0316 6.58389 18.3331 6.53553 18.5979C6.44686 18.9971 6.39851 19.3107 6.39851 19.5429C6.39851 20.154 6.58389 20.5328 6.95872 20.6795C7.32953 20.8261 8.06308 20.9158 9.15131 20.9484V21.4535H0.211693V20.9484L0.207659 20.9565Z" fill="#999999"/>
<path d="M19.2356 0.975285C19.8845 0.881591 20.4125 0.808262 20.8155 0.755305C21.2186 0.698274 21.5652 0.645323 21.8594 0.596439C23.0605 0.364242 23.7054 0.233884 23.7981 0.213516C23.8908 0.193148 23.9593 0.184998 24.0117 0.184998C24.1326 0.246102 24.1931 0.3235 24.1931 0.41312L20.4487 14.0557C21.6982 12.1615 22.7219 10.7765 23.5159 9.90064C24.9065 8.39339 26.1801 7.63976 27.3409 7.63976C27.8165 7.63976 28.2759 7.79456 28.7193 8.10416C29.1626 8.41375 29.3843 8.97184 29.3843 9.77842C29.3843 9.97395 29.3601 10.2225 29.3078 10.528C29.2554 10.8335 29.1949 11.1024 29.1264 11.3386L27.1232 18.6549C27.0628 18.8586 27.0104 19.0541 26.9701 19.2415C26.9298 19.4289 26.9096 19.6 26.9096 19.7548C26.9096 19.9299 26.9499 20.0562 27.0305 20.1458C27.1111 20.2314 27.228 20.2762 27.3772 20.2762C27.6915 20.2762 28.0583 20.0562 28.4815 19.6203C28.7435 19.3474 29.2312 18.7445 29.9486 17.8198L30.3396 18.1864C29.6342 19.2456 29.0377 20.0196 28.5419 20.5084C27.6673 21.372 26.7847 21.8079 25.902 21.8079C25.4989 21.8079 25.1644 21.6816 24.8903 21.425C24.6203 21.1724 24.4833 20.8058 24.4833 20.3251C24.4833 20.1947 24.4913 20.0684 24.5075 19.9503C24.5236 19.8322 24.5518 19.7018 24.5921 19.5592L26.8733 10.6094C26.8935 10.528 26.9096 10.4424 26.9257 10.3569C26.9419 10.2713 26.9499 10.1817 26.9499 10.088C26.9499 9.83545 26.8733 9.63585 26.7242 9.49327C26.563 9.35069 26.3574 9.27737 26.1075 9.27737C25.4345 9.27737 24.5881 9.82324 23.5683 10.919C22.5446 12.0149 21.6861 13.131 20.9848 14.2716C20.5052 15.0782 20.1424 15.8359 19.8966 16.5488C19.6507 17.2617 19.1791 18.8993 18.4778 21.4657H16.1281L21.2065 2.93471C21.2387 2.80435 21.2548 2.69028 21.2669 2.60066C21.275 2.50697 21.2831 2.42143 21.2831 2.33996C21.2831 1.90408 21.142 1.63928 20.8598 1.55374C20.5777 1.46819 20.0376 1.44375 19.2436 1.48449V0.979363L19.2356 0.975285Z" fill="#999999"/>
<path d="M35.031 10.8416C37.0261 8.72742 39.0857 7.66827 41.2138 7.66827C41.9997 7.66827 42.6245 7.85159 43.088 8.21822C43.5515 8.58485 43.7812 9.12664 43.7812 9.84768C43.7812 11.3101 42.9308 12.5648 41.234 13.6077C39.5371 14.6505 37.7516 15.286 35.8774 15.5223L35.0149 15.6282C34.8819 16.0478 34.7932 16.3777 34.7449 16.6303C34.6925 16.8788 34.6683 17.1924 34.6683 17.5713C34.6683 18.4675 34.9585 19.1641 35.5389 19.6652C36.1193 20.1662 36.8045 20.4147 37.6025 20.4147C38.4005 20.4147 39.1583 20.1621 40.0047 19.6489C40.4883 19.3556 41.1896 18.826 42.1045 18.0601L42.4955 18.4105C42.0441 18.993 41.3912 19.5878 40.5448 20.1988C39.0414 21.2905 37.538 21.8323 36.0266 21.8323C34.9585 21.8323 34.0194 21.4494 33.2133 20.6876C32.4072 19.9259 32.0042 18.8301 32.0042 17.4084C32.0042 15.1516 33.0118 12.964 35.027 10.8457L35.031 10.8416ZM39.9281 12.8866C41.1372 11.803 41.7418 10.7317 41.7418 9.66436C41.7418 9.27736 41.6531 8.97185 41.4718 8.74372C41.2904 8.5156 41.0244 8.40154 40.6697 8.40154C40.0168 8.40154 39.3719 8.68261 38.7431 9.24885C38.1144 9.81101 37.5461 10.4506 37.0423 11.1594C36.5062 11.9945 36.083 12.7888 35.7726 13.5506C35.5993 13.958 35.418 14.4183 35.2285 14.9356C37.1551 14.6505 38.7189 13.9661 39.9281 12.8866Z" fill="#999999"/>
<path d="M57.493 7.96973C57.9807 8.30377 58.2225 8.85779 58.2225 9.63178C58.2225 9.97804 58.1379 10.4587 57.9726 11.0698C57.8074 11.6849 57.5051 12.6748 57.0698 14.0395C58.1903 12.3122 59.1576 10.9924 59.9677 10.088C61.4348 8.45043 62.7286 7.63162 63.8491 7.63162C64.3247 7.63162 64.7599 7.79457 65.1509 8.12047C65.5459 8.44636 65.7434 8.96777 65.7434 9.68881C65.7434 9.91286 65.6467 10.4547 65.4572 11.3183L63.0792 19.6529C63.0389 19.7833 63.0551 19.9218 63.1236 20.0562C63.1921 20.1947 63.3251 20.264 63.5186 20.264C63.6999 20.264 63.8571 20.2192 63.9942 20.1255C64.1312 20.0359 64.3045 19.8811 64.5141 19.6652C64.7156 19.4615 64.8809 19.2822 65.0058 19.1315C65.1308 18.9767 65.4935 18.5368 66.086 17.7994L66.5535 18.1661L66.4004 18.382C65.6749 19.4208 64.9454 20.2518 64.2078 20.8669C63.4702 21.482 62.7447 21.7916 62.0313 21.7916C61.7089 21.7916 61.4348 21.7101 61.2131 21.5472C60.8705 21.2824 60.6972 20.8384 60.6972 20.2192C60.6972 20.0644 60.7093 19.9055 60.7335 19.7303C60.7577 19.5552 60.798 19.3637 60.8463 19.1478L63.1921 10.5809C63.2243 10.4587 63.2445 10.3569 63.2606 10.2754C63.2767 10.1939 63.2848 10.1125 63.2848 10.031C63.2848 9.78659 63.2203 9.59919 63.0913 9.46476C62.9624 9.33033 62.8011 9.26516 62.6077 9.26516C61.9185 9.26516 61.1164 9.77843 60.2015 10.8091C59.2866 11.8397 58.4885 12.8825 57.8074 13.9458C57.1907 15.0253 56.7554 15.9337 56.5015 16.6588C56.2476 17.388 55.7881 18.9849 55.119 21.4535H52.7693L55.7962 10.5809C55.8163 10.4872 55.8324 10.4017 55.8485 10.3121C55.8647 10.2265 55.8727 10.1369 55.8727 10.0432C55.8727 9.79881 55.8203 9.60734 55.7115 9.46884C55.6027 9.33034 55.4253 9.26108 55.1795 9.26108C54.5306 9.26108 53.7285 9.79473 52.7773 10.8661C51.8221 11.9375 51.0442 12.9355 50.4356 13.8643C49.8391 14.7727 49.2668 15.9785 48.7186 17.4898C48.4002 18.4064 47.973 19.7263 47.445 21.4494H45.1234L48.0375 10.5891C48.0657 10.475 48.0939 10.3691 48.1141 10.2632C48.1342 10.1614 48.1422 10.0514 48.1422 9.93731C48.1422 9.53809 48.0052 9.29367 47.7352 9.2122C47.4611 9.13073 46.9371 9.10221 46.1633 9.1348V8.62967C47.1749 8.46673 48.8154 8.13268 51.0845 7.6194L51.2054 7.72532L49.4925 13.9784C50.6291 12.3245 51.7012 10.9394 52.7169 9.82732C54.1074 8.35266 55.3367 7.61533 56.4007 7.61533C56.8118 7.61533 57.1746 7.72532 57.4889 7.94937L57.493 7.96973Z" fill="#999999"/>
<path d="M71.12 10.8416C73.1151 8.72742 75.1747 7.66827 77.3028 7.66827C78.0888 7.66827 78.7135 7.85159 79.177 8.21822C79.6405 8.58485 79.8702 9.12664 79.8702 9.84768C79.8702 11.3101 79.0198 12.5648 77.323 13.6077C75.6261 14.6505 73.8406 15.286 71.9665 15.5223L71.1039 15.6282C70.9709 16.0478 70.8823 16.3777 70.8339 16.6303C70.7815 16.8788 70.7573 17.1924 70.7573 17.5713C70.7573 18.4675 71.0475 19.1641 71.6279 19.6652C72.2083 20.1662 72.8935 20.4147 73.6915 20.4147C74.4895 20.4147 75.2473 20.1621 76.0937 19.6489C76.5773 19.3556 77.2786 18.826 78.1935 18.0601L78.5845 18.4105C78.1331 18.993 77.4801 19.5878 76.6337 20.1988C75.1304 21.2905 73.627 21.8323 72.1156 21.8323C71.0475 21.8323 70.1084 21.4494 69.3023 20.6876C68.4962 19.9259 68.0931 18.8301 68.0931 17.4084C68.0931 15.1516 69.1008 12.964 71.116 10.8457L71.12 10.8416ZM76.0171 12.8866C77.2262 11.803 77.8308 10.7317 77.8308 9.66436C77.8308 9.27736 77.7421 8.97185 77.5608 8.74372C77.3794 8.5156 77.1134 8.40154 76.7587 8.40154C76.1057 8.40154 75.4609 8.68261 74.8321 9.24885C74.2034 9.81101 73.6351 10.4506 73.1312 11.1594C72.5952 11.9945 72.172 12.7888 71.8617 13.5506C71.6883 13.958 71.507 14.4183 71.3175 14.9356C73.2441 14.6505 74.8079 13.9661 76.0171 12.8866Z" fill="#999999"/>
<path d="M83.937 21.315C83.6024 20.9728 83.4372 20.5613 83.4372 20.0807C83.4372 19.6 83.6065 19.1926 83.945 18.8545C84.2836 18.5164 84.6867 18.3494 85.1623 18.3494C85.6379 18.3494 86.0409 18.5204 86.3794 18.8545C86.718 19.1926 86.8873 19.6 86.8873 20.0807C86.8873 20.5613 86.722 20.9728 86.3875 21.315C86.053 21.6571 85.6459 21.8282 85.1623 21.8282C84.6786 21.8282 84.2715 21.6571 83.937 21.315ZM87.0203 10.638C86.6898 10.2958 86.5205 9.88841 86.5205 9.40772C86.5205 8.92703 86.6898 8.51965 87.0284 8.17747C87.3669 7.83528 87.77 7.66418 88.2456 7.66418C88.7212 7.66418 89.1242 7.83528 89.4628 8.17747C89.8013 8.51965 89.9706 8.92703 89.9706 9.40772C89.9706 9.88841 89.8054 10.2958 89.4708 10.638C89.1363 10.9801 88.7292 11.1512 88.2456 11.1512C87.7619 11.1512 87.3548 10.9801 87.0203 10.638Z" fill="#999999"/>
<path d="M116.084 1.02008C117.132 1.2645 117.765 1.38672 117.987 1.38672C118.357 1.38672 118.623 1.32561 118.773 1.2034C118.922 1.08119 119.051 0.910101 119.151 0.68605H119.788L118.656 6.91872L118.112 6.84132C117.999 5.61108 117.729 4.61711 117.293 3.86349C116.499 2.4703 115.181 1.76964 113.347 1.76964C110.526 1.76964 108.205 3.19542 106.379 6.04697C104.787 8.51967 103.993 11.2042 103.993 14.0965C103.993 16.2474 104.476 17.8687 105.444 18.9685C106.411 20.0684 107.656 20.6184 109.176 20.6184C110.695 20.6184 112.187 20.2314 113.497 19.4574C114.27 18.9889 115.286 18.1497 116.536 16.9358L117.035 17.3798C115.907 18.826 114.629 19.9625 113.202 20.7935C111.776 21.6246 110.208 22.0401 108.495 22.0401C105.915 22.0401 103.936 21.2172 102.554 19.5674C101.171 17.9175 100.482 15.9948 100.482 13.795C100.482 10.638 101.635 7.7253 103.944 5.05706C106.471 2.12404 109.547 0.657532 113.162 0.657532C114.057 0.657532 115.032 0.779739 116.08 1.02416L116.084 1.02008Z" fill="white"/>
<path d="M132.984 8.97184C133.681 9.88433 134.028 10.9598 134.028 12.2022C134.028 14.3613 133.085 16.4796 131.203 18.5571C129.256 20.7161 127.184 21.7957 124.975 21.7957C123.585 21.7957 122.472 21.3883 121.634 20.5736C120.796 19.7588 120.381 18.6141 120.381 17.1354C120.381 14.9071 121.316 12.7725 123.19 10.7357C125.104 8.65002 127.176 7.60309 129.401 7.60309C131.094 7.60309 132.287 8.05934 132.984 8.97184ZM123.621 20.2762C124.04 20.8302 124.653 21.1072 125.459 21.1072C127.099 21.1072 128.559 19.8525 129.828 17.3472C130.904 15.2004 131.444 13.2247 131.444 11.4201C131.444 10.6542 131.352 10.0391 131.17 9.57066C130.816 8.68668 130.175 8.24265 129.236 8.24265C127.696 8.24265 126.249 9.40771 124.899 11.7419C123.629 13.9213 122.996 16.064 122.996 18.1742C122.996 19.0215 123.206 19.7181 123.625 20.2762H123.621Z" fill="white"/>
<path d="M135.596 21.4616L138.183 12.023C138.405 11.2246 138.534 10.7398 138.57 10.5728C138.607 10.4058 138.623 10.2224 138.623 10.0269C138.623 9.72954 138.538 9.49734 138.373 9.33032C138.208 9.1633 137.881 9.07775 137.397 9.07775C137.276 9.07775 137.16 9.08591 137.043 9.1022C136.926 9.11849 136.797 9.13478 136.656 9.15515V8.65002C137.305 8.54818 137.768 8.47078 138.046 8.4219C138.32 8.37301 138.619 8.3119 138.941 8.23858L141.629 7.64383C141.69 7.68457 141.73 7.72937 141.75 7.78233L139.747 14.349C140.985 12.4467 142.02 11.029 142.851 10.1043C144.31 8.46671 145.62 7.64383 146.776 7.64383C147.224 7.64383 147.607 7.72938 147.933 7.90455C148.55 8.23859 148.86 8.84556 148.86 9.72139C148.86 9.96581 148.836 10.2224 148.784 10.4872C148.731 10.752 148.667 11.0372 148.586 11.3427L146.599 18.659C146.559 18.8138 146.514 18.9971 146.462 19.217C146.414 19.437 146.385 19.5918 146.385 19.6814C146.385 19.8362 146.422 19.9707 146.49 20.0929C146.559 20.2151 146.672 20.2762 146.829 20.2762C147.079 20.2762 147.369 20.1214 147.699 19.8118C148.03 19.5022 148.566 18.8382 149.307 17.8198L149.747 18.219C148.937 19.3474 148.296 20.1458 147.82 20.6021C147.01 21.4087 146.236 21.8079 145.495 21.8079C145.16 21.8079 144.834 21.6938 144.523 21.4657C144.213 21.2376 144.056 20.8221 144.056 20.2192C144.056 20.0481 144.068 19.8607 144.092 19.6692C144.116 19.4778 144.148 19.3067 144.189 19.1641L146.119 11.7419C146.22 11.3345 146.289 11.0005 146.325 10.7398C146.361 10.4791 146.377 10.2958 146.377 10.1817C146.377 9.93729 146.317 9.72547 146.204 9.54623C146.087 9.36699 145.882 9.27736 145.587 9.27736C144.822 9.27736 143.858 9.96989 142.693 11.3549C142.008 12.1778 141.315 13.1595 140.61 14.3002C140.082 15.1841 139.671 16.0478 139.368 16.8869C139.066 17.7261 138.582 19.2537 137.925 21.4698H135.604L135.596 21.4616Z" fill="white"/>
<path d="M151.073 21.4616L153.66 12.023C153.882 11.2246 154.011 10.7398 154.047 10.5728C154.084 10.4058 154.1 10.2224 154.1 10.0269C154.1 9.72954 154.015 9.49734 153.85 9.33032C153.685 9.1633 153.358 9.07775 152.874 9.07775C152.754 9.07775 152.637 9.08591 152.52 9.1022C152.403 9.11849 152.274 9.13478 152.133 9.15515V8.65002C152.782 8.54818 153.245 8.47078 153.523 8.4219C153.797 8.37301 154.096 8.3119 154.418 8.23858L157.106 7.64383C157.167 7.68457 157.207 7.72937 157.227 7.78233L155.224 14.349C156.462 12.4467 157.497 11.029 158.328 10.1043C159.787 8.46671 161.097 7.64383 162.253 7.64383C162.701 7.64383 163.084 7.72938 163.41 7.90455C164.027 8.23859 164.337 8.84556 164.337 9.72139C164.337 9.96581 164.313 10.2224 164.261 10.4872C164.208 10.752 164.144 11.0372 164.063 11.3427L162.076 18.659C162.036 18.8138 161.991 18.9971 161.939 19.217C161.891 19.437 161.862 19.5918 161.862 19.6814C161.862 19.8362 161.899 19.9707 161.967 20.0929C162.036 20.2151 162.149 20.2762 162.306 20.2762C162.556 20.2762 162.846 20.1214 163.176 19.8118C163.507 19.5022 164.043 18.8382 164.785 17.8198L165.224 18.219C164.414 19.3474 163.773 20.1458 163.297 20.6021C162.487 21.4087 161.713 21.8079 160.972 21.8079C160.637 21.8079 160.311 21.6938 160 21.4657C159.69 21.2376 159.533 20.8221 159.533 20.2192C159.533 20.0481 159.545 19.8607 159.569 19.6692C159.593 19.4778 159.626 19.3067 159.666 19.1641L161.596 11.7419C161.697 11.3345 161.766 11.0005 161.802 10.7398C161.838 10.4791 161.854 10.2958 161.854 10.1817C161.854 9.93729 161.794 9.72547 161.681 9.54623C161.564 9.36699 161.359 9.27736 161.064 9.27736C160.299 9.27736 159.335 9.96989 158.171 11.3549C157.485 12.1778 156.792 13.1595 156.087 14.3002C155.559 15.1841 155.148 16.0478 154.845 16.8869C154.543 17.7261 154.059 19.2537 153.402 21.4698H151.081L151.073 21.4616Z" fill="white"/>
<path d="M169.98 10.8416C171.975 8.72742 174.034 7.66827 176.163 7.66827C176.949 7.66827 177.573 7.85159 178.037 8.21822C178.5 8.58485 178.73 9.12664 178.73 9.84768C178.73 11.3101 177.88 12.5648 176.183 13.6077C174.486 14.6505 172.7 15.286 170.826 15.5223L169.964 15.6282C169.831 16.0478 169.742 16.3777 169.694 16.6303C169.641 16.8788 169.617 17.1924 169.617 17.5713C169.617 18.4675 169.907 19.1641 170.488 19.6652C171.068 20.1662 171.753 20.4147 172.551 20.4147C173.349 20.4147 174.107 20.1621 174.953 19.6489C175.437 19.3556 176.138 18.826 177.053 18.0601L177.444 18.4105C176.993 18.993 176.34 19.5878 175.494 20.1988C173.99 21.2905 172.487 21.8323 170.975 21.8323C169.907 21.8323 168.968 21.4494 168.162 20.6876C167.356 19.9259 166.953 18.8301 166.953 17.4084C166.953 15.1516 167.961 12.964 169.976 10.8457L169.98 10.8416ZM174.877 12.8866C176.086 11.803 176.691 10.7317 176.691 9.66436C176.691 9.27736 176.602 8.97185 176.421 8.74372C176.239 8.5156 175.973 8.40154 175.618 8.40154C174.966 8.40154 174.321 8.68261 173.692 9.24885C173.063 9.81101 172.495 10.4506 171.991 11.1594C171.455 11.9945 171.032 12.7888 170.721 13.5506C170.548 13.958 170.367 14.4183 170.177 14.9356C172.104 14.6505 173.668 13.9661 174.877 12.8866Z" fill="white"/>
<path d="M192.063 8.50339C192.607 9.06148 192.877 9.60327 192.877 10.1328C192.877 10.6095 192.736 10.9802 192.454 11.2449C192.172 11.5097 191.837 11.6401 191.458 11.6401C191.079 11.6401 190.773 11.522 190.519 11.2898C190.269 11.0535 190.14 10.7643 190.14 10.418C190.14 10.1532 190.225 9.86805 190.39 9.56253C190.556 9.257 190.64 9.0574 190.64 8.96778C190.64 8.78446 190.535 8.62967 190.33 8.50339C190.124 8.37711 189.794 8.31193 189.338 8.31193C187.714 8.31193 186.307 9.24479 185.114 11.1105C183.921 12.9762 183.325 14.9357 183.325 16.9847C183.325 18.1375 183.567 19.0378 184.05 19.6937C184.534 20.3455 185.259 20.6714 186.227 20.6714C187.001 20.6714 187.754 20.4432 188.488 19.9911C189.217 19.5389 189.89 18.9604 190.507 18.2557L190.612 18.1335L191.051 18.4716C190.346 19.38 189.665 20.0766 189.012 20.5654C187.851 21.4128 186.569 21.8323 185.159 21.8323C183.748 21.8323 182.716 21.3965 181.878 20.5247C181.04 19.6529 180.624 18.4634 180.624 16.9562C180.624 14.6464 181.555 12.5159 183.422 10.5728C185.267 8.63781 187.263 7.67236 189.407 7.67236C190.636 7.67236 191.523 7.94937 192.067 8.50745L192.063 8.50339Z" fill="white"/>
<path d="M194.638 20.1703C194.646 20.0644 194.671 19.9544 194.699 19.8403L197.621 9.17961H195.324C195.324 8.90668 195.344 8.73151 195.384 8.65818C195.424 8.58486 195.525 8.51561 195.686 8.44228C196.71 8.00233 197.504 7.57867 198.064 7.17131C198.629 6.76394 199.394 5.97366 200.37 4.8086L200.612 4.5153C200.644 4.47456 200.68 4.44197 200.724 4.41753C200.769 4.39309 200.817 4.38086 200.87 4.38086C200.97 4.40123 201.039 4.42161 201.083 4.44197C201.111 4.5153 201.131 4.5764 201.135 4.63344C201.14 4.69047 201.136 4.74749 201.127 4.8086L200.237 8.13676H202.728L202.546 9.17961H199.938L197.153 19.4452C197.105 19.6285 197.117 19.8037 197.198 19.9707C197.278 20.1377 197.415 20.2233 197.605 20.2233C197.867 20.2233 198.234 19.9585 198.709 19.4289C198.983 19.1437 199.439 18.5775 200.088 17.7343L200.479 17.9624L200.265 18.2842C199.398 19.6 198.633 20.5125 197.972 21.0258C197.311 21.539 196.682 21.7957 196.085 21.7957C195.569 21.7957 195.199 21.6572 194.965 21.3843C194.731 21.1113 194.618 20.7976 194.618 20.4514C194.618 20.3699 194.622 20.2762 194.634 20.1703H194.638Z" fill="white"/>
<path d="M206.057 10.8416C208.052 8.72742 210.111 7.66827 212.24 7.66827C213.025 7.66827 213.65 7.85159 214.114 8.21822C214.577 8.58485 214.807 9.12664 214.807 9.84768C214.807 11.3101 213.957 12.5648 212.26 13.6077C210.563 14.6505 208.777 15.286 206.903 15.5223L206.041 15.6282C205.908 16.0478 205.819 16.3777 205.771 16.6303C205.718 16.8788 205.694 17.1924 205.694 17.5713C205.694 18.4675 205.984 19.1641 206.565 19.6652C207.145 20.1662 207.83 20.4147 208.628 20.4147C209.426 20.4147 210.184 20.1621 211.03 19.6489C211.514 19.3556 212.215 18.826 213.13 18.0601L213.521 18.4105C213.07 18.993 212.417 19.5878 211.57 20.1988C210.067 21.2905 208.564 21.8323 207.052 21.8323C205.984 21.8323 205.045 21.4494 204.239 20.6876C203.433 19.9259 203.03 18.8301 203.03 17.4084C203.03 15.1516 204.037 12.964 206.053 10.8457L206.057 10.8416ZM210.954 12.8866C212.163 11.803 212.768 10.7317 212.768 9.66436C212.768 9.27736 212.679 8.97185 212.497 8.74372C212.316 8.5156 212.05 8.40154 211.695 8.40154C211.042 8.40154 210.398 8.68261 209.769 9.24885C209.14 9.81101 208.572 10.4506 208.068 11.1594C207.532 11.9945 207.109 12.7888 206.798 13.5506C206.625 13.958 206.444 14.4183 206.254 14.9356C208.181 14.6505 209.745 13.9661 210.954 12.8866Z" fill="white"/>
<path d="M226.902 8.18563C227.096 8.40968 227.249 8.7926 227.358 9.33033L229.135 3.06913C229.184 2.89803 229.22 2.73917 229.232 2.60474C229.248 2.46623 229.256 2.3481 229.256 2.24626C229.256 1.85111 229.184 1.59855 229.039 1.49671C228.893 1.39487 228.684 1.34191 228.41 1.34191C228.236 1.34191 228.079 1.34598 227.934 1.3582C227.789 1.37043 227.596 1.38264 227.354 1.40301V0.897881C228.498 0.743082 230.082 0.482364 232.106 0.103516L232.243 0.258316L232.211 0.425337L229.228 11.4038L227.197 18.6671C227.156 18.8301 227.124 18.9848 227.1 19.1234C227.076 19.2619 227.064 19.3881 227.064 19.5022C227.064 19.7792 227.132 19.9584 227.265 20.0399C227.402 20.1214 227.519 20.1621 227.62 20.1621C227.914 20.1621 228.333 19.9014 228.873 19.38C229.188 19.0623 229.623 18.5693 230.171 17.9053L230.518 18.2394L230.304 18.5612C229.929 19.1234 229.446 19.6937 228.857 20.2762C227.813 21.3068 226.874 21.8242 226.044 21.8242C225.77 21.8242 225.52 21.7631 225.298 21.6409C224.883 21.3965 224.678 20.9606 224.678 20.3292C224.678 20.1173 224.706 19.7751 224.766 19.3067C224.827 18.8382 224.919 18.3249 225.044 17.7668C224.279 18.9482 223.44 19.9136 222.525 20.6673C221.614 21.4209 220.619 21.7957 219.539 21.7957C218.66 21.7957 217.894 21.482 217.241 20.8506C216.584 20.2192 216.258 19.2496 216.258 17.9339C216.258 15.7178 217.27 13.4366 219.297 11.0983C221.312 8.76816 223.279 7.60309 225.198 7.60309C226 7.60309 226.564 7.79456 226.898 8.18155L226.902 8.18563ZM219.373 19.5307C219.656 19.9951 220.135 20.2232 220.812 20.2232C222.255 20.2232 223.642 19.0541 224.972 16.7158C226.253 14.5201 226.894 12.4385 226.894 10.475C226.894 9.85582 226.794 9.34255 226.592 8.93518C226.391 8.52782 225.979 8.32413 225.359 8.32413C223.815 8.32413 222.324 9.57474 220.885 12.076C219.595 14.3124 218.954 16.2555 218.954 17.9053C218.954 18.5245 219.095 19.0663 219.377 19.5307H219.373Z" fill="white"/>
<path d="M240.594 15.0619L241.182 15.1393C241.17 15.4978 241.166 15.7056 241.166 15.7667C241.166 17.3554 241.602 18.6305 242.472 19.5918C243.343 20.5532 244.411 21.0339 245.668 21.0339C246.926 21.0339 247.921 20.6021 248.615 19.7344C249.312 18.8708 249.659 17.9216 249.659 16.891C249.659 16.504 249.594 16.0967 249.461 15.6689C249.259 15.009 248.925 14.4142 248.461 13.8969L246.527 11.7582C245.036 10.1084 244.08 8.92704 243.657 8.21415C243.234 7.50126 243.024 6.72728 243.024 5.89218C243.024 4.60898 243.496 3.42355 244.443 2.33996C245.39 1.25637 246.781 0.714572 248.615 0.714572C249.433 0.714572 250.271 0.853075 251.138 1.13416C252.004 1.41524 252.524 1.55374 252.693 1.55374C253.028 1.55374 253.298 1.46006 253.512 1.27267C253.721 1.08528 253.895 0.889748 254.024 0.686066H254.733L253.479 6.91873L252.935 6.84133C252.887 5.35853 252.698 4.27902 252.379 3.59872C251.795 2.38885 250.694 1.78594 249.074 1.78594C248.079 1.78594 247.268 2.07517 246.644 2.64955C246.019 3.22394 245.709 3.94497 245.709 4.81265C245.709 5.51332 245.85 6.10401 246.132 6.58063C246.414 7.05724 246.954 7.72939 247.748 8.59301L250.545 11.6279C251.049 12.1778 251.472 12.8011 251.815 13.4977C252.157 14.1943 252.327 15.0049 252.327 15.9296C252.327 17.5591 251.766 19.0012 250.642 20.2599C249.517 21.5187 248.018 22.146 246.144 22.146C245.169 22.146 244.177 21.9545 243.173 21.5716C242.17 21.1887 241.549 20.9972 241.307 20.9972C240.945 20.9972 240.683 21.0828 240.521 21.258C240.36 21.4331 240.215 21.6898 240.082 22.036H239.538L240.582 15.0538L240.594 15.0619Z" fill="white"/>
<path d="M255.668 20.1703C255.676 20.0644 255.7 19.9544 255.728 19.8403L258.651 9.17961H256.353C256.353 8.90668 256.373 8.73151 256.414 8.65818C256.454 8.58486 256.555 8.51561 256.716 8.44228C257.74 8.00233 258.534 7.57867 259.094 7.17131C259.658 6.76394 260.424 5.97366 261.399 4.8086L261.641 4.5153C261.673 4.47456 261.71 4.44197 261.754 4.41753C261.798 4.39309 261.847 4.38086 261.899 4.38086C262 4.40123 262.068 4.42161 262.113 4.44197C262.141 4.5153 262.161 4.5764 262.165 4.63344C262.169 4.69047 262.165 4.74749 262.157 4.8086L261.266 8.13676H263.757L263.576 9.17961H260.968L258.183 19.4452C258.135 19.6285 258.147 19.8037 258.227 19.9707C258.308 20.1377 258.445 20.2233 258.634 20.2233C258.896 20.2233 259.263 19.9585 259.739 19.4289C260.013 19.1437 260.468 18.5775 261.117 17.7343L261.508 17.9624L261.295 18.2842C260.428 19.6 259.662 20.5125 259.001 21.0258C258.34 21.539 257.711 21.7957 257.115 21.7957C256.599 21.7957 256.228 21.6572 255.994 21.3843C255.761 21.1113 255.648 20.7976 255.648 20.4514C255.648 20.3699 255.652 20.2762 255.664 20.1703H255.668Z" fill="white"/>
<path d="M269.601 7.64385C269.638 7.70088 269.654 7.76199 269.654 7.83531C269.646 7.93715 269.634 8.01863 269.626 8.06751L268.086 14.0232L268.437 13.3184C269.162 11.8804 270.008 10.5728 270.98 9.38329C271.951 8.19786 272.874 7.60311 273.753 7.60311C274.224 7.60311 274.591 7.76198 274.849 8.07566C275.107 8.3934 275.236 8.75188 275.236 9.15925C275.236 9.61549 275.107 9.99842 274.853 10.2958C274.595 10.5972 274.24 10.748 273.789 10.748C273.479 10.748 273.241 10.6869 273.08 10.5647C272.918 10.4424 272.794 10.2999 272.701 10.1369L272.52 9.79881C272.479 9.73771 272.431 9.68882 272.374 9.65215C272.318 9.61549 272.249 9.59919 272.169 9.59919C271.774 9.59919 271.21 10.1532 270.468 11.2653C269.726 12.3774 269.061 13.5791 268.477 14.8705C268.122 15.6567 267.731 16.6955 267.296 17.9868C267.022 18.8016 266.655 19.9585 266.2 21.4535H263.878L266.397 12.2593C266.538 11.7297 266.651 11.2572 266.736 10.8376C266.82 10.4221 266.865 10.0799 266.865 9.81511C266.865 9.50959 266.788 9.27738 266.639 9.11036C266.486 8.94742 266.224 8.86594 265.853 8.86594C265.732 8.86594 265.583 8.87409 265.402 8.89446C265.22 8.91483 265.003 8.93927 264.753 8.97186V8.46672L265.357 8.34452C266.143 8.18157 267.002 8.01048 267.937 7.82717C268.868 7.64386 269.36 7.55423 269.412 7.55423C269.501 7.55423 269.565 7.58274 269.601 7.63977V7.64385Z" fill="white"/>
<path d="M278.908 10.4302C278.928 10.3284 278.944 10.2347 278.96 10.1491C278.976 10.0636 278.984 9.97395 278.984 9.88025C278.984 9.44437 278.855 9.17551 278.597 9.07775C278.34 8.97998 277.86 8.9311 277.155 8.9311V8.50337L279.404 8.05934L281.838 7.60309C281.89 7.59494 281.935 7.61939 281.975 7.67642C282.015 7.73753 282.031 7.79455 282.019 7.85565L281.975 8.10823L279.037 18.4308C278.964 18.6875 278.916 18.883 278.884 19.0256C278.851 19.1682 278.839 19.27 278.839 19.3311C278.839 19.5674 278.904 19.7507 279.037 19.8811C279.17 20.0155 279.339 20.0807 279.557 20.0807C280.157 20.0807 280.911 19.547 281.814 18.4756C282.717 17.4043 283.519 16.2922 284.224 15.1393C284.857 14.1087 285.437 12.964 285.969 11.6971C286.296 10.9109 286.763 9.66436 287.376 7.94935H289.657L286.687 18.7934C286.638 18.9971 286.594 19.1845 286.554 19.3596C286.513 19.5348 286.493 19.6774 286.493 19.7874C286.493 19.9218 286.521 20.0358 286.582 20.1295C286.642 20.2273 286.747 20.2762 286.896 20.2762C287.045 20.2762 287.199 20.2192 287.356 20.101C287.513 19.9829 287.71 19.8037 287.948 19.5592C288.057 19.4492 288.255 19.2089 288.541 18.8423C288.718 18.6182 288.988 18.276 289.355 17.8198L289.786 18.109C289.327 18.883 288.847 19.5511 288.347 20.1092C287.36 21.2294 286.441 21.7916 285.59 21.7916C285.151 21.7916 284.792 21.6694 284.51 21.425C284.228 21.1805 284.091 20.8017 284.091 20.2843C284.091 20.0196 284.115 19.7303 284.168 19.4167C284.22 19.103 284.297 18.7486 284.409 18.3494C284.599 17.6365 284.837 16.7403 285.131 15.6689L285.526 14.2309H285.417C284.01 16.6099 282.906 18.2923 282.104 19.2781C280.709 20.9687 279.391 21.816 278.146 21.816C277.812 21.816 277.505 21.7427 277.231 21.6042C276.703 21.319 276.437 20.8098 276.437 20.0766C276.437 19.8648 276.445 19.6896 276.469 19.5592C276.49 19.4248 276.526 19.2415 276.574 19.0093L278.928 10.4261L278.908 10.4302Z" fill="white"/>
<path d="M291.733 22.2927C292.313 21.6042 293.232 20.9199 294.49 20.2396C294.24 20.0766 294.03 19.9055 293.869 19.7263C293.708 19.547 293.627 19.3108 293.627 19.0175C293.627 18.602 293.913 18.1213 294.49 17.5835C294.812 17.278 295.336 16.8747 296.061 16.3777C295.417 16.1333 294.86 15.7871 294.401 15.339C293.837 14.7401 293.555 13.958 293.555 13.0007C293.555 11.4649 294.151 10.1858 295.336 9.16739C296.525 8.14898 297.996 7.63977 299.749 7.63977C300.664 7.63977 301.442 7.78642 302.075 8.07565C302.712 8.36488 303.083 8.6093 303.195 8.80076H305.235V10.031H303.691C303.752 10.2551 303.796 10.4587 303.828 10.6421C303.856 10.8254 303.873 11.0861 303.873 11.4201C303.873 13.0699 303.24 14.3654 301.974 15.3104C300.709 16.2555 299.346 16.7281 297.887 16.7281C297.734 16.7281 297.593 16.7199 297.464 16.7036C297.331 16.6873 297.17 16.6588 296.98 16.6181C296.827 16.6181 296.622 16.7647 296.36 17.0621C296.086 17.3595 295.953 17.6243 295.953 17.8565C295.953 18.2027 297.061 18.7934 299.278 19.6285C301.482 20.4758 302.587 21.7101 302.587 23.3396C302.587 24.5617 302.031 25.6331 300.926 26.5537C299.818 27.4743 298.145 27.9347 295.908 27.9347C294.357 27.9347 293.127 27.6006 292.22 26.9285C291.314 26.2563 290.858 25.4375 290.858 24.468C290.858 23.7021 291.148 22.977 291.729 22.2927H291.733ZM299.499 26.3948C300.289 25.8123 300.684 25.1198 300.684 24.3173C300.684 23.7062 300.479 23.1929 300.064 22.7734C299.842 22.5493 299.483 22.309 298.992 22.0564C298.577 21.8527 297.879 21.5594 296.9 21.1765C295.92 20.7936 295.352 20.6021 295.199 20.6021C294.937 20.6021 294.429 20.9565 293.671 21.6653C292.914 22.3741 292.539 23.1767 292.539 24.0729C292.539 25.4253 293.119 26.3582 294.276 26.8674C294.881 27.1322 295.626 27.2666 296.513 27.2666C297.71 27.2666 298.705 26.9774 299.499 26.3948ZM296.271 15.1516C296.594 15.7748 297.174 16.0844 298.008 16.0844C298.915 16.0844 299.725 15.5019 300.435 14.3368C301.144 13.1718 301.499 11.8845 301.499 10.4791C301.499 9.80695 301.354 9.28146 301.059 8.89854C300.765 8.51561 300.33 8.32415 299.745 8.32415C298.617 8.32415 297.706 8.93112 297.017 10.141C296.327 11.3549 295.981 12.52 295.981 13.6402C295.981 14.2717 296.078 14.7768 296.267 15.1516H296.271Z" fill="white"/>
<path d="M307.21 22.2927C307.79 21.6042 308.709 20.9199 309.967 20.2396C309.717 20.0766 309.507 19.9055 309.346 19.7263C309.185 19.547 309.104 19.3108 309.104 19.0175C309.104 18.602 309.39 18.1213 309.967 17.5835C310.289 17.278 310.813 16.8747 311.539 16.3777C310.894 16.1333 310.338 15.7871 309.878 15.339C309.314 14.7401 309.032 13.958 309.032 13.0007C309.032 11.4649 309.628 10.1858 310.813 9.16739C312.002 8.14898 313.473 7.63977 315.227 7.63977C316.141 7.63977 316.919 7.78642 317.552 8.07565C318.189 8.36488 318.56 8.6093 318.673 8.80076H320.712V10.031H319.168C319.229 10.2551 319.273 10.4587 319.305 10.6421C319.334 10.8254 319.35 11.0861 319.35 11.4201C319.35 13.0699 318.717 14.3654 317.451 15.3104C316.186 16.2555 314.823 16.7281 313.364 16.7281C313.211 16.7281 313.07 16.7199 312.941 16.7036C312.808 16.6873 312.647 16.6588 312.458 16.6181C312.304 16.6181 312.099 16.7647 311.837 17.0621C311.563 17.3595 311.43 17.6243 311.43 17.8565C311.43 18.2027 312.538 18.7934 314.755 19.6285C316.96 20.4758 318.064 21.7101 318.064 23.3396C318.064 24.5617 317.508 25.6331 316.403 26.5537C315.295 27.4743 313.622 27.9347 311.385 27.9347C309.834 27.9347 308.604 27.6006 307.698 26.9285C306.791 26.2563 306.335 25.4375 306.335 24.468C306.335 23.7021 306.625 22.977 307.206 22.2927H307.21ZM314.977 26.3948C315.767 25.8123 316.162 25.1198 316.162 24.3173C316.162 23.7062 315.956 23.1929 315.541 22.7734C315.319 22.5493 314.961 22.309 314.469 22.0564C314.054 21.8527 313.356 21.5594 312.377 21.1765C311.398 20.7936 310.829 20.6021 310.676 20.6021C310.414 20.6021 309.906 20.9565 309.149 21.6653C308.391 22.3741 308.016 23.1767 308.016 24.0729C308.016 25.4253 308.596 26.3582 309.753 26.8674C310.358 27.1322 311.103 27.2666 311.99 27.2666C313.187 27.2666 314.183 26.9774 314.977 26.3948ZM311.748 15.1516C312.071 15.7748 312.651 16.0844 313.485 16.0844C314.392 16.0844 315.202 15.5019 315.912 14.3368C316.621 13.1718 316.976 11.8845 316.976 10.4791C316.976 9.80695 316.831 9.28146 316.536 8.89854C316.242 8.51561 315.807 8.32415 315.223 8.32415C314.094 8.32415 313.183 8.93112 312.494 10.141C311.805 11.3549 311.458 12.52 311.458 13.6402C311.458 14.2717 311.555 14.7768 311.744 15.1516H311.748Z" fill="white"/>
<path d="M327.423 2.93063C327.463 2.80028 327.487 2.66585 327.499 2.53549C327.507 2.40513 327.515 2.29515 327.515 2.21368C327.515 1.86742 327.378 1.65559 327.104 1.57819C326.83 1.50079 326.282 1.4682 325.46 1.48042V0.975289C325.915 0.914185 326.439 0.844937 327.032 0.763465C327.624 0.681992 328.011 0.624959 328.193 0.596444C328.761 0.494603 329.45 0.34388 330.26 0.140198C330.333 0.140198 330.401 0.193145 330.474 0.294986L325.444 18.6549C325.331 19.0948 325.266 19.3596 325.246 19.4493C325.226 19.5389 325.214 19.6326 325.214 19.7222C325.214 19.9177 325.25 20.0807 325.319 20.2192C325.387 20.3577 325.52 20.4269 325.714 20.4269C326.077 20.4269 326.552 20.101 327.137 19.4493C327.721 18.7975 328.213 18.1661 328.62 17.555L329.027 17.8442C328.156 19.1397 327.479 20.0359 326.995 20.5329C326.157 21.3802 325.315 21.7997 324.464 21.7997C324.102 21.7997 323.779 21.7061 323.493 21.5227C323.058 21.2498 322.84 20.7813 322.84 20.1173C322.84 19.8648 322.88 19.5226 322.961 19.0949C323.017 18.8423 323.086 18.5449 323.175 18.2109L327.423 2.93471V2.93063Z" fill="white"/>
<path d="M334.162 10.8416C336.157 8.72742 338.216 7.66827 340.345 7.66827C341.13 7.66827 341.755 7.85159 342.219 8.21822C342.682 8.58485 342.912 9.12664 342.912 9.84768C342.912 11.3101 342.062 12.5648 340.365 13.6077C338.668 14.6505 336.882 15.286 335.008 15.5223L334.146 15.6282C334.013 16.0478 333.924 16.3777 333.876 16.6303C333.823 16.8788 333.799 17.1924 333.799 17.5713C333.799 18.4675 334.089 19.1641 334.67 19.6652C335.25 20.1662 335.935 20.4147 336.733 20.4147C337.531 20.4147 338.289 20.1621 339.135 19.6489C339.619 19.3556 340.32 18.826 341.235 18.0601L341.626 18.4105C341.175 18.993 340.522 19.5878 339.676 20.1988C338.172 21.2905 336.669 21.8323 335.157 21.8323C334.089 21.8323 333.15 21.4494 332.344 20.6876C331.538 19.9259 331.135 18.8301 331.135 17.4084C331.135 15.1516 332.143 12.964 334.158 10.8457L334.162 10.8416ZM339.059 12.8866C340.268 11.803 340.873 10.7317 340.873 9.66436C340.873 9.27736 340.784 8.97185 340.602 8.74372C340.421 8.5156 340.155 8.40154 339.8 8.40154C339.147 8.40154 338.503 8.68261 337.874 9.24885C337.245 9.81101 336.677 10.4506 336.173 11.1594C335.637 11.9945 335.214 12.7888 334.903 13.5506C334.73 13.958 334.549 14.4183 334.359 14.9356C336.286 14.6505 337.85 13.9661 339.059 12.8866Z" fill="white"/>
<path d="M345.016 16.9073H345.516C345.737 18.1416 345.999 19.0419 346.302 19.6122C346.858 20.6632 347.68 21.1846 348.78 21.1846C349.397 21.1846 349.913 20.9646 350.328 20.5288C350.747 20.0929 350.957 19.5104 350.957 18.7893C350.957 18.3412 350.904 17.9746 350.8 17.6894C350.695 17.4043 350.562 17.1436 350.401 16.9114L349.147 15.0334C348.389 13.8928 347.918 13.131 347.728 12.744C347.434 12.1656 347.289 11.583 347.289 11.0046C347.289 10.1206 347.603 9.33846 348.232 8.65816C348.861 7.98194 349.756 7.64383 350.917 7.64383C351.408 7.64383 351.972 7.73752 352.609 7.92491C353.246 8.1123 353.677 8.20599 353.911 8.20599C354.161 8.20599 354.35 8.15711 354.471 8.05527C354.592 7.95343 354.705 7.81492 354.806 7.64383H355.245L354.625 11.9823H354.125C353.992 10.9964 353.798 10.251 353.536 9.74991C353.053 8.82519 352.287 8.36079 351.239 8.36079C350.796 8.36079 350.401 8.4993 350.054 8.78038C349.707 9.06146 349.534 9.46882 349.534 10.0106C349.534 10.4302 349.611 10.7968 349.768 11.1105C349.925 11.4282 350.28 11.9863 350.832 12.7888L351.904 14.345C352.456 15.1516 352.851 15.8074 353.081 16.3166C353.311 16.8258 353.428 17.3758 353.428 17.9664C353.428 19.0663 352.964 19.9951 352.037 20.7487C351.11 21.5024 350.006 21.8771 348.728 21.8771C348.313 21.8771 347.724 21.7916 346.959 21.6164C346.193 21.4453 345.749 21.3557 345.628 21.3557C345.427 21.3557 345.278 21.4005 345.181 21.4942C345.084 21.5838 344.996 21.7223 344.915 21.9057H344.415L345.02 16.9114L345.016 16.9073Z" fill="white"/>
<path d="M359.131 18.7649C359.393 18.4634 359.784 18.3127 360.307 18.3127C360.831 18.3127 361.275 18.5205 361.605 18.9401C361.94 19.3596 362.105 19.8892 362.105 20.5288C362.105 21.5553 361.714 22.4923 360.932 23.3396C360.15 24.1828 359.364 24.8265 358.566 25.2664L358.099 25.5271L357.813 25.022C358.437 24.5739 358.917 24.191 359.247 23.8773C359.84 23.2866 360.138 22.7571 360.138 22.2886C360.138 22.1542 360.114 22.0279 360.062 21.9057C360.009 21.7835 359.941 21.6775 359.848 21.5838L359.562 21.2946C359.191 20.9198 358.957 20.6306 358.869 20.431C358.78 20.2314 358.732 19.9381 358.732 19.5511C358.732 19.3271 358.865 19.0663 359.127 18.7649H359.131Z" fill="white"/>
<path d="M371.15 20.9565C372.024 20.8465 372.649 20.5247 373.016 19.9951C373.382 19.4655 373.834 18.2434 374.37 16.3288L378.07 2.82471C378.191 2.36846 377.985 2.04257 377.457 1.85518C376.929 1.66779 376.365 1.56595 375.772 1.5578V1.05267H381.423L383.592 16.3614H383.7L394.655 1.05267H399.79V1.5578C398.972 1.65964 398.412 1.83074 398.105 2.07108C397.799 2.31143 397.513 2.91026 397.251 3.86756L393.458 17.7057C393.345 18.1009 393.257 18.4553 393.188 18.7608C393.12 19.0663 393.087 19.3392 393.087 19.5837C393.087 20.1336 393.277 20.4921 393.66 20.6591C394.043 20.8261 394.655 20.928 395.502 20.9565V21.4616H386.973V20.9565C387.828 20.8954 388.44 20.7772 388.803 20.6062C389.408 20.3088 389.835 19.7466 390.089 18.9197L394.119 4.15271H394.01L381.895 21.4616H381.359L378.985 4.70265H378.876L375.426 17.9175C375.353 18.2027 375.289 18.496 375.228 18.8015C375.168 19.1071 375.136 19.3474 375.136 19.5185C375.136 20.0766 375.374 20.4717 375.849 20.6917C376.151 20.8343 376.639 20.9198 377.316 20.9524V21.4575H371.158V20.9524L371.15 20.9565Z" fill="white"/>
<path d="M408.564 8.23044C408.798 8.45449 408.984 8.75187 409.117 9.1185L409.193 9.3344L409.532 8.18156C409.572 8.05121 409.608 7.96159 409.641 7.91678C409.673 7.87197 409.741 7.84344 409.858 7.83122L411.599 7.6357C411.692 7.6357 411.745 7.65199 411.761 7.68866C411.777 7.72532 411.773 7.78642 411.753 7.88012C411.708 8.01047 411.676 8.11638 411.656 8.19378C411.636 8.27118 411.603 8.38117 411.559 8.52375L410.064 13.9906C409.737 15.1801 409.463 16.2107 409.234 17.0743C408.863 18.6386 408.673 19.5307 408.673 19.7548C408.673 19.8974 408.71 19.9992 408.786 20.0684C408.863 20.1336 408.955 20.1662 409.064 20.1662C409.153 20.1662 409.254 20.1377 409.367 20.0725C409.479 20.0114 409.612 19.9177 409.77 19.7996L410.04 19.5878C410.124 19.5185 410.221 19.433 410.326 19.3352C410.431 19.2374 410.56 19.1193 410.709 18.9767L411.696 17.999L412.059 18.3209C410.983 19.6733 410.116 20.594 409.467 21.0787C408.818 21.5635 408.194 21.8038 407.605 21.8038C407.222 21.8038 406.928 21.6735 406.723 21.4087C406.517 21.1439 406.412 20.8139 406.412 20.4188C406.412 20.0522 406.481 19.5266 406.618 18.8423C406.755 18.1579 406.888 17.5794 407.017 17.111C406.835 17.4165 406.533 17.8646 406.106 18.4471C405.679 19.0337 405.151 19.6 404.53 20.1499C403.796 20.8139 403.091 21.2824 402.418 21.5553C401.894 21.7386 401.39 21.8323 400.907 21.8323C400.092 21.8323 399.351 21.4942 398.69 20.8139C398.025 20.1377 397.694 19.1763 397.694 17.9298C397.694 15.7911 398.654 13.5547 400.568 11.2327C402.543 8.81705 404.59 7.60718 406.71 7.60718C407.517 7.60718 408.137 7.81494 408.573 8.23452L408.564 8.23044ZM408.077 8.81297C407.742 8.46671 407.335 8.29155 406.856 8.29155C405.195 8.29155 403.655 9.5666 402.229 12.1167C400.975 14.3613 400.35 16.2922 400.35 17.9135C400.35 18.7282 400.524 19.323 400.87 19.6937C401.217 20.0644 401.648 20.2518 402.16 20.2518C403.68 20.2518 405.143 19.0134 406.549 16.5366C407.903 14.2839 408.585 12.2471 408.585 10.4343C408.585 9.70103 408.415 9.15923 408.081 8.81297H408.077Z" fill="white"/>
<path d="M413.256 21.4616L415.844 12.023C416.065 11.2246 416.194 10.7398 416.23 10.5728C416.267 10.4058 416.283 10.2224 416.283 10.0269C416.283 9.72954 416.198 9.49734 416.033 9.33032C415.868 9.1633 415.541 9.07775 415.058 9.07775C414.937 9.07775 414.82 9.08591 414.703 9.1022C414.586 9.11849 414.457 9.13478 414.316 9.15515V8.65002C414.965 8.54818 415.428 8.47078 415.707 8.4219C415.981 8.37301 416.279 8.3119 416.601 8.23858L419.29 7.64383C419.35 7.68457 419.39 7.72937 419.411 7.78233L417.407 14.349C418.645 12.4467 419.681 11.029 420.511 10.1043C421.97 8.46671 423.28 7.64383 424.437 7.64383C424.884 7.64383 425.267 7.72938 425.593 7.90455C426.21 8.23859 426.52 8.84556 426.52 9.72139C426.52 9.96581 426.496 10.2224 426.444 10.4872C426.391 10.752 426.327 11.0372 426.246 11.3427L424.259 18.659C424.219 18.8138 424.175 18.9971 424.122 19.217C424.074 19.437 424.046 19.5918 424.046 19.6814C424.046 19.8362 424.082 19.9707 424.15 20.0929C424.219 20.2151 424.332 20.2762 424.489 20.2762C424.739 20.2762 425.029 20.1214 425.36 19.8118C425.69 19.5022 426.226 18.8382 426.968 17.8198L427.407 18.219C426.597 19.3474 425.956 20.1458 425.48 20.6021C424.67 21.4087 423.896 21.8079 423.155 21.8079C422.82 21.8079 422.494 21.6938 422.184 21.4657C421.873 21.2376 421.716 20.8221 421.716 20.2192C421.716 20.0481 421.728 19.8607 421.752 19.6692C421.776 19.4778 421.809 19.3067 421.849 19.1641L423.78 11.7419C423.88 11.3345 423.949 11.0005 423.985 10.7398C424.021 10.4791 424.038 10.2958 424.038 10.1817C424.038 9.93729 423.977 9.72547 423.864 9.54623C423.747 9.36699 423.542 9.27736 423.248 9.27736C422.482 9.27736 421.518 9.96989 420.354 11.3549C419.668 12.1778 418.975 13.1595 418.27 14.3002C417.742 15.1841 417.331 16.0478 417.029 16.8869C416.726 17.7261 416.243 19.2537 415.586 21.4698H413.264L413.256 21.4616Z" fill="white"/>
<path d="M427.673 25.6778C427.875 25.4416 428.165 25.3275 428.548 25.3275C428.798 25.3275 429.019 25.3764 429.213 25.4742C429.406 25.5719 429.604 25.7104 429.817 25.8937L430.031 26.0485C430.091 26.0974 430.16 26.1382 430.236 26.1626C430.313 26.1871 430.394 26.1993 430.486 26.1993C430.978 26.1993 431.772 25.5394 432.868 24.2236C433.961 22.9078 434.509 21.9505 434.509 21.3476C434.509 20.7447 434.319 19.6611 433.941 17.9909C433.562 16.3248 433.199 14.8379 432.844 13.5384C432.352 11.7093 431.901 10.4669 431.49 9.81916C431.083 9.16738 430.478 8.84149 429.684 8.84149C429.624 8.84149 429.519 8.84963 429.374 8.86593C429.229 8.88222 428.979 8.91073 428.624 8.95147V8.44634L432.747 7.63569L433.066 7.6031C433.316 7.57458 433.803 8.71928 434.517 11.0413C435.162 13.131 435.561 14.6464 435.718 15.5997L436.331 19.2456C437.391 17.4491 438.164 16.0763 438.66 15.1149C439.628 13.2288 440.111 11.9089 440.111 11.1512C440.111 10.9761 440.079 10.8091 440.023 10.638C439.962 10.4709 439.821 10.3243 439.599 10.2021L439.341 10.0636C439.18 9.98211 438.991 9.82731 438.773 9.60326C438.555 9.37921 438.447 9.07776 438.447 8.69891C438.447 8.38116 438.547 8.11638 438.749 7.90455C438.95 7.68865 439.253 7.58273 439.656 7.58273C440.16 7.58273 440.567 7.73345 440.881 8.0349C441.195 8.33635 441.349 8.84964 441.349 9.57067C441.349 10.6624 440.76 12.4141 439.579 14.8297C438.672 16.671 437.661 18.4553 436.54 20.1825C435.138 22.3375 433.936 24.0036 432.929 25.1727C431.325 27.014 429.995 27.9346 428.939 27.9346C428.524 27.9346 428.161 27.8084 427.842 27.5517C427.524 27.2992 427.367 26.9488 427.367 26.5129C427.367 26.1871 427.468 25.906 427.669 25.6738L427.673 25.6778Z" fill="white"/>
<path d="M459.47 1.05267V1.5578C458.724 1.59854 458.18 1.6963 457.837 1.84703C457.321 2.09144 457.068 2.51511 457.068 3.11394C457.068 3.19541 457.072 3.28095 457.084 3.3665C457.092 3.45205 457.104 3.53759 457.116 3.61906L459.103 17.221H459.284L465.519 6.33619C465.834 5.79439 466.132 5.2363 466.414 4.66599C466.886 3.70054 467.124 3.02839 467.124 2.65361C467.124 2.27884 466.979 2.0222 466.684 1.89184C466.394 1.76149 465.894 1.64742 465.189 1.5578V1.05267H470.928V1.5578C470.485 1.65149 470.155 1.76149 469.937 1.89592C469.719 2.03035 469.477 2.32365 469.203 2.77989L457.664 22.0442H457.059L454.444 5.7618C454.129 3.83497 453.863 2.68213 453.634 2.29513C453.408 1.90813 452.864 1.66372 452.009 1.56188V1.05675H459.47V1.05267Z" fill="white"/>
<path d="M478.546 8.97184C479.243 9.88433 479.59 10.9598 479.59 12.2022C479.59 14.3613 478.647 16.4796 476.764 18.5571C474.818 20.7161 472.746 21.7957 470.537 21.7957C469.147 21.7957 468.034 21.3883 467.196 20.5736C466.358 19.7588 465.943 18.6141 465.943 17.1354C465.943 14.9071 466.878 12.7725 468.752 10.7357C470.666 8.65002 472.738 7.60309 474.963 7.60309C476.656 7.60309 477.849 8.05934 478.546 8.97184ZM469.183 20.2762C469.602 20.8302 470.215 21.1072 471.021 21.1072C472.661 21.1072 474.12 19.8525 475.39 17.3472C476.466 15.2004 477.006 13.2247 477.006 11.4201C477.006 10.6542 476.913 10.0391 476.732 9.57066C476.377 8.68668 475.737 8.24265 474.798 8.24265C473.258 8.24265 471.811 9.40771 470.461 11.7419C469.191 13.9213 468.558 16.064 468.558 18.1742C468.558 19.0215 468.768 19.7181 469.187 20.2762H469.183Z" fill="white"/>
<path d="M487.622 7.61126C487.679 7.64793 487.699 7.68865 487.691 7.74161L484.64 18.6468C484.499 19.2293 484.426 19.5755 484.426 19.6855C484.426 19.8403 484.459 19.9707 484.519 20.0848C484.567 20.207 484.696 20.2681 484.898 20.2681C485.24 20.2681 485.692 19.9666 486.26 19.3678C486.595 19.0093 487.002 18.5042 487.485 17.8402L487.876 18.1742L487.723 18.3901C486.966 19.4574 486.341 20.2273 485.849 20.6958C485.075 21.4291 484.317 21.7957 483.584 21.7957C483.149 21.7957 482.79 21.6124 482.504 21.2457C482.218 20.8791 482.073 20.4473 482.073 19.9463C482.073 19.6529 482.093 19.3922 482.133 19.1763C482.173 18.9564 482.25 18.6345 482.359 18.2068L484.511 10.3569C484.543 10.2347 484.567 10.1247 484.588 10.0188C484.608 9.91695 484.62 9.81511 484.62 9.71326C484.62 9.34664 484.487 9.11851 484.221 9.03296C483.955 8.94741 483.427 8.9026 482.645 8.9026V8.39747C483.475 8.29563 484.072 8.21823 484.438 8.1612C484.805 8.10416 485.172 8.04714 485.539 7.98603C486.018 7.90456 486.474 7.81495 486.905 7.7131C487.336 7.61126 487.578 7.57867 487.631 7.61533L487.622 7.61126ZM486.196 3.78611C485.901 3.46022 485.756 3.06915 485.756 2.60883C485.756 2.14851 485.901 1.74521 486.196 1.41932C486.486 1.09343 486.841 0.930481 487.252 0.930481C487.663 0.930481 488.022 1.09343 488.316 1.41932C488.614 1.74521 488.763 2.14444 488.763 2.60883C488.763 3.07323 488.614 3.47243 488.316 3.79425C488.017 4.11607 487.663 4.27495 487.252 4.27495C486.841 4.27495 486.486 4.112 486.196 3.78611Z" fill="white"/>
<path d="M501.536 8.50339C502.08 9.06148 502.35 9.60327 502.35 10.1328C502.35 10.6095 502.209 10.9802 501.927 11.2449C501.645 11.5097 501.31 11.6401 500.931 11.6401C500.552 11.6401 500.246 11.522 499.992 11.2898C499.742 11.0535 499.613 10.7643 499.613 10.418C499.613 10.1532 499.698 9.86805 499.863 9.56253C500.028 9.257 500.113 9.0574 500.113 8.96778C500.113 8.78446 500.008 8.62967 499.803 8.50339C499.597 8.37711 499.267 8.31193 498.811 8.31193C497.187 8.31193 495.78 9.24479 494.587 11.1105C493.394 12.9762 492.798 14.9357 492.798 16.9847C492.798 18.1375 493.04 19.0378 493.523 19.6937C494.007 20.3455 494.732 20.6714 495.7 20.6714C496.474 20.6714 497.227 20.4432 497.961 19.9911C498.69 19.5389 499.363 18.9604 499.98 18.2557L500.085 18.1335L500.524 18.4716C499.819 19.38 499.138 20.0766 498.485 20.5654C497.324 21.4128 496.042 21.8323 494.632 21.8323C493.221 21.8323 492.189 21.3965 491.351 20.5247C490.512 19.6529 490.097 18.4634 490.097 16.9562C490.097 14.6464 491.028 12.5159 492.894 10.5728C494.74 8.63781 496.736 7.67236 498.88 7.67236C500.109 7.67236 500.996 7.94937 501.54 8.50745L501.536 8.50339Z" fill="white"/>
<path d="M506.929 10.8416C508.924 8.72742 510.983 7.66827 513.111 7.66827C513.897 7.66827 514.522 7.85159 514.986 8.21822C515.449 8.58485 515.679 9.12664 515.679 9.84768C515.679 11.3101 514.828 12.5648 513.132 13.6077C511.435 14.6505 509.649 15.286 507.775 15.5223L506.912 15.6282C506.779 16.0478 506.691 16.3777 506.642 16.6303C506.59 16.8788 506.566 17.1924 506.566 17.5713C506.566 18.4675 506.856 19.1641 507.436 19.6652C508.017 20.1662 508.702 20.4147 509.5 20.4147C510.298 20.4147 511.056 20.1621 511.902 19.6489C512.386 19.3556 513.087 18.826 514.002 18.0601L514.393 18.4105C513.942 18.993 513.289 19.5878 512.442 20.1988C510.939 21.2905 509.436 21.8323 507.924 21.8323C506.856 21.8323 505.917 21.4494 505.111 20.6876C504.305 19.9259 503.902 18.8301 503.902 17.4084C503.902 15.1516 504.909 12.964 506.925 10.8457L506.929 10.8416ZM511.83 12.8866C513.039 11.803 513.643 10.7317 513.643 9.66436C513.643 9.27736 513.555 8.97185 513.373 8.74372C513.192 8.5156 512.926 8.40154 512.571 8.40154C511.918 8.40154 511.273 8.68261 510.645 9.24885C510.016 9.81101 509.448 10.4506 508.944 11.1594C508.408 11.9945 507.985 12.7888 507.674 13.5506C507.501 13.958 507.32 14.4183 507.13 14.9356C509.057 14.6505 510.621 13.9661 511.83 12.8866Z" fill="white"/>
<path d="M517.783 16.9073H518.282C518.504 18.1416 518.766 19.0419 519.068 19.6122C519.625 20.6632 520.447 21.1846 521.547 21.1846C522.164 21.1846 522.68 20.9646 523.095 20.5288C523.514 20.0929 523.724 19.5104 523.724 18.7893C523.724 18.3412 523.671 17.9746 523.566 17.6894C523.462 17.4043 523.329 17.1436 523.167 16.9114L521.914 15.0334C521.156 13.8928 520.685 13.131 520.495 12.744C520.201 12.1656 520.056 11.583 520.056 11.0046C520.056 10.1206 520.37 9.33846 520.999 8.65816C521.628 7.98194 522.523 7.64383 523.683 7.64383C524.175 7.64383 524.739 7.73752 525.376 7.92491C526.013 8.1123 526.444 8.20599 526.678 8.20599C526.928 8.20599 527.117 8.15711 527.238 8.05527C527.359 7.95343 527.472 7.81492 527.573 7.64383H528.012L527.391 11.9823H526.892C526.759 10.9964 526.565 10.251 526.303 9.74991C525.819 8.82519 525.054 8.36079 524.006 8.36079C523.562 8.36079 523.167 8.4993 522.821 8.78038C522.474 9.06146 522.301 9.46882 522.301 10.0106C522.301 10.4302 522.377 10.7968 522.535 11.1105C522.692 11.4282 523.047 11.9863 523.599 12.7888L524.671 14.345C525.223 15.1516 525.618 15.8074 525.848 16.3166C526.077 16.8258 526.194 17.3758 526.194 17.9664C526.194 19.0663 525.731 19.9951 524.804 20.7487C523.877 21.5024 522.772 21.8771 521.495 21.8771C521.08 21.8771 520.491 21.7916 519.725 21.6164C518.96 21.4453 518.516 21.3557 518.395 21.3557C518.194 21.3557 518.045 21.4005 517.948 21.4942C517.851 21.5838 517.763 21.7223 517.682 21.9057H517.182L517.787 16.9114L517.783 16.9073Z" fill="white"/>
</svg>
