<svg width="2493" height="1034" viewBox="0 0 2493 1034" fill="none" xmlns="http://www.w3.org/2000/svg">
<g clip-path="url(#clip0_18_1476)">
<path d="M1079.72 484.62C1072.28 497.35 1065.88 509.03 1058.78 520.27C1049.75 534.57 1040.33 548.63 1030.73 562.56C1020.78 577.01 1015 577.71 1000.82 566.99C974.87 547.37 948.93 527.75 922.98 508.13C922.08 507.45 921.17 506.79 920.25 506.13C913.22 501.13 911.98 501.36 908.62 509.63C893.6 546.71 878.7 583.84 863.78 620.96C861.61 626.36 859.79 631.91 857.51 637.26C853.21 647.33 847.71 650.23 837.37 646.83C829.92 644.39 822.38 641.5 815.77 637.38C792.48 622.89 769.57 607.79 746.52 592.92C744.97 591.92 743.43 590.91 741.07 589.39C739.36 592.9 737.41 595.88 736.39 599.15C727.79 626.94 719.13 654.71 711.01 682.63C707.98 693.05 708.31 693.47 697.6 693.42C696.85 693.42 696.09 693.42 695.34 693.39C683.33 692.86 680.32 688.4 681.85 676.36C683.87 660.54 684.74 644.58 686.42 628.72C688.77 606.52 691.28 584.33 693.95 562.16C696.49 541.11 699.31 520.09 702 499.05C702.05 498.68 701.94 498.24 702.1 497.93C704.08 494.1 705.18 488.93 708.33 486.81C712.79 483.81 717.52 487.59 720.65 491C734.23 505.83 747.79 520.69 760.78 536.03C774.92 552.73 789.34 569 807.45 581.6C813.29 585.66 815.12 585.64 817.76 578.81C822.98 565.33 828 551.74 832.24 537.93C843.73 500.42 854.91 462.8 865.93 425.15C871.81 405.07 877.76 402.32 896.17 412.66C929.21 431.22 959.64 453.62 989.75 476.5C996.93 481.96 1004.32 487.16 1011.8 492.2C1017.66 496.14 1021.13 495.9 1024.42 489.72C1031.02 477.33 1037.55 464.76 1042.44 451.64C1051.81 426.48 1059.98 400.87 1068.76 375.49C1070.1 371.61 1071.7 367.71 1073.88 364.26C1076.83 359.58 1081.35 359.32 1085.27 363.25C1086.97 364.96 1088.38 367.02 1089.68 369.07C1112.25 404.61 1134.93 440.07 1157.26 475.76C1167.92 492.8 1178 510.21 1188.12 527.59C1193.65 537.09 1192.48 541.96 1182.32 546.36C1164.75 553.97 1146.83 560.74 1128.97 567.68C1123.77 569.7 1120.01 566.94 1116.81 562.97C1105.11 548.46 1096.74 532.17 1090.54 514.67C1087.1 504.95 1083.56 495.26 1079.71 484.6L1079.72 484.62Z" fill="white"/>
<path d="M435.05 549.28C429.42 546.2 425.74 548.2 424.3 553.48C420.39 567.88 416.48 582.31 413.51 596.92C412.18 603.49 412.44 610.59 413.14 617.33C414.42 629.56 421.81 637.76 432.57 643.03C447.3 650.24 463 654.09 479.24 655.92C480.07 656.01 480.9 656 481.73 656.08C496.45 657.46 498.14 656.66 504.87 643.23C513.73 625.54 518.19 606.46 520.99 587.09C524.47 563.05 527.56 538.92 529.52 514.72C530.68 500.32 526.02 494.74 511.89 491.96C496.64 488.95 481.1 487.24 465.63 485.49C445.36 483.21 425.04 481.35 404.65 484.27C404.44 484.3 404.24 484.33 404.03 484.33C389.85 484.28 380.93 491.18 375.99 504.41C367.77 526.42 359.24 548.33 350.47 570.13C345.97 581.31 340.46 592.07 335.8 603.19C329.03 619.39 315.75 620.8 301.01 615.29C294.22 612.75 287.34 610.2 281.13 606.56C278.89 605.25 277.05 600.51 277.54 597.78C278.91 590.07 280.4 581.97 283.95 575.13C294.29 555.21 304.44 535.01 316.9 516.41C336.81 486.69 358.42 458.1 379.5 429.17C387.85 417.72 399.28 411.25 413.65 411.6C426.5 411.92 439.5 412.11 452.15 414.13C493.42 420.71 533.15 432.8 571.2 450.17C577.05 452.84 582.76 455.96 588.11 459.51C610.73 474.54 617.5 490.64 611.69 517.24C603.65 554.03 589.58 588.68 573.1 622.42C561.37 646.42 547.96 669.41 531.56 690.54C516.86 709.47 509.06 711.48 487.84 700.64C448.55 680.58 409.49 660.09 370.39 639.68C361.34 634.95 358.65 628.92 360.43 617.76C364.91 589.61 374.57 563.06 385.92 537.09C390.58 526.42 395.88 516.03 401.02 505.58C405.62 496.22 413.58 491.59 423.7 491.71C449.03 492.02 472.4 499.67 494.15 512.29C500.94 516.23 503.69 522.95 503.93 530.78C504.63 554.05 498.89 576.12 491.53 597.88C489 605.36 486.02 612.7 483.15 620.06C480.95 625.7 476.79 628.6 470.65 628.61C454.41 628.64 438.9 625.01 423.78 619.36C419.08 617.6 418.39 613.71 419.39 609.59C423.92 591.05 428.64 572.56 433.34 554.06C433.73 552.5 434.42 551.02 435.04 549.31L435.05 549.28Z" fill="white"/>
<path d="M1313.88 214.14C1327.7 214.73 1340.09 215.35 1352.49 215.75C1356.8 215.89 1357.8 212.52 1358.61 209.12C1363.23 189.68 1367.77 170.22 1372.57 150.82C1376.52 134.86 1380.59 118.92 1384.99 103.08C1388.86 89.1 1395.08 85.16 1409.37 87.06C1414.1 87.69 1418.85 88.56 1423.44 89.85C1437.33 93.77 1442.97 102.05 1441.01 116.41C1439.46 127.74 1437.37 139.02 1435.12 150.24C1430.53 173.09 1426.38 196.07 1420.64 218.64C1417.17 232.25 1411.64 245.45 1405.94 258.36C1399.42 273.14 1387.19 280.23 1371.03 280.06C1322.47 279.53 1274.1 276.56 1226.13 268.49C1209.17 265.64 1193.87 259.29 1180.1 248.84C1172.22 242.86 1167.86 235.99 1168.01 225.71C1168.75 174.37 1174.08 123.5 1183.26 73.02C1185.09 62.97 1189.97 59.23 1200.19 59.31C1215.03 59.43 1229.67 62.58 1242.34 69.5C1256.32 77.14 1263.02 86.31 1259.52 103.12C1253.57 131.64 1248.23 160.29 1242.79 188.92C1242.33 191.34 1242.18 194.81 1243.53 196.34C1245.22 198.25 1248.56 199.13 1251.3 199.39C1252.05 199.46 1253.53 195.81 1254.05 193.71C1260.62 167.04 1266.85 140.28 1273.68 113.68C1275.89 105.06 1279.17 96.62 1282.76 88.45C1287.85 76.88 1295.48 74.22 1307.11 79.25C1314.56 82.47 1322.04 85.68 1329.26 89.37C1342.19 95.99 1345.5 103.09 1342.98 117.39C1338.38 143.53 1330.88 168.83 1321.25 193.53C1318.84 199.7 1316.78 206.01 1313.9 214.14H1313.88Z" fill="white"/>
<path d="M1387.72 1033.15C1349.09 1033.41 1306.68 1028.39 1296.13 1028.16C1275.68 1027.72 1255.26 1028.19 1234.81 1028.52C1219.07 1028.77 1187.52 1043.26 1178.59 1022.85C1175.18 1015.06 1176.36 1006.13 1177.45 997.7C1181.94 963.17 1181.06 928.76 1183.84 894.25C1185.68 871.35 1192.47 857.37 1216.97 852.91C1279.48 841.56 1348.92 839.86 1389.31 896.85C1412.04 928.92 1433.29 964.34 1453.21 998.12C1469.59 1025.92 1431.03 1032.86 1387.73 1033.15H1387.72Z" fill="white"/>
<path d="M1565.54 843.13C1565.48 831.89 1569.01 824.25 1576.89 818.4C1589.6 808.95 1602.72 803.98 1618.81 809.74C1626.57 812.52 1631.74 817.02 1635.02 824.1C1647.1 850.15 1659.02 876.27 1671.11 902.32C1673.55 907.58 1676.34 912.68 1679.19 917.73C1681.07 921.06 1683.54 921.24 1687.01 919.33C1695.02 914.92 1703.27 910.93 1711.49 906.89C1722.38 901.54 1732.94 902.07 1743.77 907.77C1760.34 916.5 1777.42 924.27 1793.92 933.11C1802.46 937.68 1809.27 937.2 1817.48 931.8C1861.12 903.13 1901.33 870.22 1939.5 834.71C1944.07 830.46 1948.79 826.34 1953.74 822.55C1959.82 817.9 1966.51 817.35 1972.87 821.9C1980.81 827.59 1988.82 833.3 1996.14 839.74C2005.92 848.34 2006.78 858.71 1999.06 869.2C1996.12 873.19 1992.64 876.89 1988.91 880.17C1946.82 917.1 1904.87 954.21 1862.3 990.58C1850.84 1000.37 1837.68 1008.31 1824.77 1016.24C1811.49 1024.4 1798.09 1023.15 1785.76 1013.56C1775.91 1005.89 1766.4 997.78 1756.5 990.18C1751.07 986.01 1745.16 982.47 1739.41 978.71C1735.06 975.86 1730.74 976.06 1726.73 979.38C1717.75 986.8 1708.79 994.24 1699.89 1001.75C1691.94 1008.46 1684.37 1015.67 1676.06 1021.88C1672.06 1024.86 1666.88 1027.09 1661.96 1027.8C1653.82 1028.98 1648.99 1023.47 1645.56 1016.76C1634.38 994.89 1623.24 973 1612.06 951.13C1601.26 930.01 1590.29 908.96 1579.64 887.76C1572.31 873.17 1566.98 857.88 1565.56 843.11L1565.54 843.13Z" fill="white"/>
<path d="M1895.02 654.81C1908.05 657.17 1921.28 658.76 1934.05 662.1C1948.82 665.96 1960.64 674.72 1968.65 688.09C1969.5 689.52 1970.39 690.96 1971.48 692.2C1984.97 707.67 1983.57 723.53 1973.12 739.26C1966.96 748.54 1959.82 757.59 1951.55 764.99C1908.65 803.33 1861.77 835.99 1809.86 861.05C1789.15 871.05 1767.38 877.88 1744.08 873.66C1734.45 871.92 1724.69 868.45 1716.13 863.69C1697.15 853.14 1688.62 833.88 1691.8 812.39C1694.03 797.32 1699.7 783.51 1707.64 770.62C1724.6 743.09 1746.01 719.73 1773.71 702.78C1792.52 691.26 1811.76 680.43 1831.1 669.82C1850.86 658.98 1872.82 657.65 1894.71 656.41C1894.82 655.87 1894.93 655.33 1895.04 654.79L1895.02 654.81Z" fill="white"/>
<path d="M1594.24 439.07C1592.89 446.75 1591.44 458.99 1588.54 470.88C1569.07 550.54 1549.36 630.15 1529.51 709.72C1526.75 720.8 1522.97 731.66 1519.23 742.47C1517.54 747.34 1515.21 752.12 1512.42 756.46C1504.6 768.61 1491.96 769.55 1483.01 758.2C1474.91 747.92 1466.61 737.5 1460.48 726.02C1441.08 689.67 1422.23 653.01 1404.11 616.01C1398.51 604.57 1395.33 591.8 1392.11 579.36C1389.55 569.5 1392.57 560.47 1399.87 553.01C1440.63 511.33 1481.33 469.6 1525.63 431.6C1537.76 421.2 1551.34 414.15 1567.27 411.68C1585.31 408.89 1594.22 416.31 1594.24 439.07Z" fill="white"/>
<path d="M1738.87 633.38C1739.29 648.02 1735.19 661.34 1725.4 672.01C1714.59 683.78 1703.16 695.1 1691.1 705.58C1662.92 730.05 1632.52 751.63 1600.83 771.31C1592.93 776.21 1584.4 780.45 1575.64 783.54C1560.13 789.01 1548.99 780.59 1550.53 764.24C1551.79 750.82 1554.48 737.48 1557.38 724.29C1577.06 634.86 1596.99 545.49 1616.78 456.08C1618.44 448.57 1619.58 440.94 1621.17 433.41C1622.49 427.2 1630.47 420.82 1637.61 419.94C1643.74 419.18 1648.9 422.33 1652.35 429.28C1672.63 470.1 1693.12 510.81 1712.99 551.82C1723.6 573.73 1733.71 595.96 1737.44 620.38C1738.1 624.69 1738.4 629.06 1738.86 633.4L1738.87 633.38Z" fill="white"/>
<path d="M2208.39 950.85C2195.92 951.6 2184.27 952.36 2172.61 952.95C2169.42 953.11 2169.44 954.95 2169.61 957.29C2170.28 966.52 2170.99 975.74 2171.42 984.98C2171.59 988.69 2171.38 992.48 2170.79 996.14C2169.36 1005.05 2164.73 1009.97 2155.78 1010.98C2145.54 1012.13 2135.21 1012.92 2124.92 1012.95C2113.22 1012.98 2109.03 1008.72 2107.75 997.09C2106.44 985.24 2105.19 973.38 2104.13 961.51C2103.78 957.61 2102.67 955.89 2098.26 956.35C2088.89 957.34 2079.46 957.91 2070.04 958.29C2065.95 958.46 2064.84 960.03 2065.33 963.9C2066.13 970.25 2066.57 976.65 2067.12 983.03C2067.38 986.04 2067.74 989.06 2067.71 992.08C2067.56 1007.85 2059.74 1016.38 2044.05 1015.99C2029.33 1015.62 2014.65 1013.81 1999.97 1012.43C1991.25 1011.61 1985.92 1006.54 1984.38 998.04C1981.25 980.71 1982.15 963.29 1984.54 946C1985.52 938.9 1991.16 934.77 1997.84 933.75C2008.35 932.16 2019 931.41 2029.62 930.71C2036.55 930.25 2036.36 930.57 2036.43 923.64C2036.51 915.82 2036.53 907.95 2037.47 900.21C2038.51 891.68 2043.07 887.05 2051.62 885.85C2064.65 884.02 2077.74 882.41 2090.87 881.6C2103.83 880.81 2109.28 886.29 2110.64 899.21C2111.77 910 2113.27 920.76 2114.44 931.55C2114.8 934.89 2115.96 935.97 2119.53 935.63C2128.38 934.8 2137.28 934.3 2146.17 934.12C2150.09 934.04 2151.56 932.87 2151.36 928.89C2150.73 916.63 2150.3 904.36 2149.87 892.09C2149.41 878.89 2154.57 873.63 2167.74 874.59C2179.26 875.44 2190.82 876.4 2202.21 878.24C2214.28 880.2 2218.3 884.68 2219.87 896.89C2220.92 904.98 2221.21 913.2 2221.42 921.37C2221.52 925.32 2222.92 926.6 2226.78 926.62C2236.38 926.69 2246.01 926.83 2255.58 927.49C2267.47 928.31 2272.29 933.34 2273.58 945.15C2274.77 956.12 2276.05 967.07 2277.23 978.04C2279.21 996.38 2269.9 1007.61 2251.39 1008.23C2242.9 1008.51 2234.31 1007.79 2225.87 1006.7C2216.19 1005.46 2212.37 1000.91 2211.55 991.1C2210.56 979.22 2209.74 967.33 2208.83 955.44C2208.7 953.71 2208.49 951.98 2208.38 950.83L2208.39 950.85Z" fill="white"/>
<path d="M1780.25 486.02C1782.48 460.01 1784.17 434.04 1787.07 408.21C1790.31 379.24 1806.52 358.48 1830.69 343.14C1856.9 326.5 1886.21 318.86 1916.18 313.09C1921.68 312.03 1927.3 311.07 1932.87 311.04C1941.53 311 1944.6 316.26 1944.67 324.88C1944.78 338.75 1936.98 345.72 1925.95 351.68C1909.85 360.39 1894.26 370.04 1878.46 379.3C1860.6 389.76 1851.19 405.72 1848.49 425.86C1844 459.26 1844.68 492.72 1847.77 526.19C1847.98 528.47 1848.26 530.74 1848.51 533.02C1850.43 550.74 1853.99 554.97 1871.36 559.53C1898 566.53 1924.65 563.87 1951.29 559.44C1958.06 558.32 1964.81 556.62 1971.62 556.29C1985.05 555.64 1991.33 564.66 1986.34 577.03C1983.54 583.97 1980.39 590.8 1976.94 597.44C1970.77 609.3 1961.04 616.87 1947.66 618.31C1913.83 621.93 1879.93 623.45 1846.22 617.21C1806.24 609.81 1788.17 590.3 1783.69 548.34C1781.49 527.69 1781.34 506.82 1780.27 486.01L1780.25 486.02Z" fill="white"/>
<path d="M2202.13 119.08C2199.12 122.01 2196.71 123.97 2194.76 126.31C2179.32 144.86 2164.08 163.57 2148.57 182.05C2138.68 193.83 2128.73 205.6 2118.17 216.77C2115.39 219.71 2110.19 221.96 2106.18 221.83C2095.83 221.51 2085.38 220.4 2075.24 218.31C2060.83 215.33 2056.14 205.83 2062.81 192.84C2070.97 176.93 2079.28 160.97 2089.07 146.05C2107.1 118.58 2126.04 91.7 2145.09 64.91C2150.1 57.86 2156.49 51.63 2162.96 45.82C2173.83 36.04 2186.96 33.21 2200.08 39.63C2212.47 45.7 2225.15 52.46 2235.32 61.57C2271.13 93.64 2294.41 134.26 2311.28 178.84C2311.94 180.59 2312.67 182.32 2313.45 184.01C2318.7 195.36 2316.44 203.13 2305.12 207.92C2293.27 212.94 2281.08 217.28 2268.77 221.06C2258.2 224.31 2251.84 220.71 2247.08 210.8C2233.67 182.87 2220.19 154.97 2206.7 127.08C2205.54 124.69 2204.07 122.46 2202.13 119.09V119.08Z" fill="white"/>
<path d="M714.84 338.98C714.89 305.23 716.92 271.63 723.28 238.45C724.74 230.81 727.57 223.23 730.96 216.2C735.22 207.38 740.39 205.07 749.9 207.35C759.36 209.62 769.02 211.95 777.82 215.95C818.75 234.6 858.36 255.77 896.17 280.22C904.8 285.8 905.14 288.02 898.18 295.62C893.27 300.98 888.36 306.47 882.74 311.04C836.35 348.73 788.41 384.28 737.24 415.31C735.82 416.17 734.4 417.06 732.92 417.81C723.57 422.56 719.45 420.32 718.64 409.89C716.8 386.28 715.03 362.67 713.24 339.05C713.78 339.02 714.32 338.99 714.86 338.97L714.84 338.98Z" fill="white"/>
<path d="M780.73 883.16C782.49 873.13 783.9 864.32 785.62 855.57C787.15 847.82 788.62 840.02 790.85 832.46C794.44 820.31 803.27 814.02 815.51 816.97C828.76 820.17 841.46 825.67 854.38 830.22C857.05 831.16 859.65 832.31 862.84 833.59C863.84 830.55 864.57 828.22 865.37 825.91C870.84 809.97 875.91 793.89 881.92 778.16C886.76 765.51 894.58 762.52 906.71 768.13C925.01 776.6 943.37 785 961.2 794.38C975.92 802.12 975.15 813.49 961.07 822.71C901.23 861.88 837.81 894.64 774.72 928.03C753.04 939.5 732.29 952.73 710.88 964.72C692.92 974.78 674.59 984.18 656.47 993.96C652.46 996.12 648.65 998.67 644.77 1001.06C635.65 1006.68 626.44 1002.42 625.05 991.81C622.78 974.37 626.84 957.45 629.9 940.54C631.4 932.29 638.78 927.18 647.62 927.79C654.56 928.27 661.56 930.04 668.21 932.23C678.24 935.55 687.98 939.73 698.64 943.85C699.5 941.08 700.55 938.86 700.85 936.55C703.08 919.22 705.16 901.87 707.29 884.53C707.65 881.64 707.92 878.73 708.49 875.88C710.3 866.86 716.29 861.44 725.51 861.66C730.58 861.78 735.92 862.89 740.6 864.84C751.53 869.4 762.14 874.76 772.89 879.76C775.1 880.79 777.37 881.69 780.74 883.13L780.73 883.16Z" fill="white"/>
<path d="M312.43 670.52C369.24 670.29 416.54 704.16 434.37 756.28C438.65 768.78 441.04 782.06 443.08 795.16C445.06 807.86 440.39 814.53 428.07 817.94C419.29 820.37 410.26 822.46 401.21 823.18C389.97 824.08 382.68 818.54 378.83 807.95C377.13 803.26 376.16 798.31 374.53 793.6C367.47 773.27 353.99 759.11 333.48 752.18C320.23 747.7 308.06 749.97 297.22 759.04C287.75 766.96 280.65 776.54 276.41 788.16C275.34 791.09 273.97 794.03 273.58 797.07C271.15 816.05 258.72 822.61 241.47 823.59C233.17 824.06 224.89 824.95 216.58 825.42C206.62 825.99 196.3 815.53 196.73 804.71C196.98 798.53 198.02 792.24 199.75 786.3C206.21 764.02 215.22 742.75 226.91 722.7C246.76 688.65 277.25 672.55 312.43 670.51V670.52Z" fill="white"/>
<path d="M331.76 897.19C367.25 899.58 402.74 901.93 438.22 904.39C454.82 905.54 471.44 906.61 487.99 908.23C511.27 910.52 528.37 922.62 537.93 943.71C544.33 957.82 549.56 972.65 553.45 987.65C557.63 1003.75 552.55 1011.41 536.79 1016.51C529.09 1019 521.15 1020.87 513.2 1022.43C503.1 1024.42 496.02 1020.61 492.46 1010.91C489.38 1002.53 487.01 993.87 484.79 985.21C482.52 976.38 477.11 970.91 468.36 969.26C459.6 967.61 450.67 965.45 441.88 965.69C407.99 966.61 374.12 968.31 340.25 970.02C336.97 970.19 333.61 972.14 330.65 973.89C328.39 975.23 326.2 977.24 324.86 979.48C314.94 996.06 299.02 1000.57 281.28 1001.79C274.85 1002.23 268.44 1003.04 262.02 1003.65C252 1004.6 243.74 996.71 244.42 986.61C244.61 983.74 245.06 980.66 246.31 978.13C256.11 958.41 265.18 938.24 276.41 919.35C284.89 905.08 300.23 899.84 316.19 897.56C321.32 896.83 326.56 896.91 331.74 896.62C331.74 896.81 331.74 896.99 331.74 897.18L331.76 897.19Z" fill="white"/>
<path d="M2100.29 752.53C2096.3 752.57 2094.06 752.57 2091.83 752.62C2078.09 752.94 2064.35 753.23 2050.61 753.62C2041.31 753.88 2035.78 750.22 2035.48 743.41C2035.18 736.65 2040.31 732.34 2049.59 731.72C2053.54 731.45 2057.5 731.39 2061.45 731.31C2072.69 731.09 2083.94 730.67 2095.18 730.81C2100.21 730.87 2102.53 729.34 2102.22 724.14C2101.57 713.14 2101.13 702.13 2100.49 691.14C2100.12 684.91 2096.66 680.89 2090.58 680.02C2076.39 678 2062.19 675.95 2047.92 674.76C2038.62 673.98 2029.19 674.7 2019.82 674.67C2017.33 674.67 2014.76 674.71 2012.38 674.13C2007.27 672.9 2003.73 669.77 2003.57 664.21C2003.4 658.33 2007.01 655.13 2012.29 653.53C2013.28 653.23 2014.34 653.08 2015.37 653.05C2039.54 652.31 2063.7 651.99 2087.58 656.68C2092.86 657.72 2098.1 659.31 2103.12 661.27C2112.95 665.1 2119.21 672.35 2121.1 682.79C2122.43 690.15 2123.36 697.61 2123.89 705.07C2124.36 711.7 2123.87 718.4 2124.19 725.05C2124.28 726.84 2125.78 728.55 2126.64 730.3C2127.32 728.62 2128.45 726.98 2128.62 725.24C2129.23 719.04 2128.99 712.73 2130.01 706.61C2133.11 687.96 2140.4 681.89 2159.33 682.91C2168.83 683.43 2178.45 684.71 2187.63 687.1C2199.28 690.13 2204.25 697.65 2204.34 709.66C2204.38 715.07 2204.19 720.49 2203.77 725.89C2203.49 729.55 2204.52 731.48 2208.47 731.29C2210.34 731.2 2212.23 731.29 2214.09 731.49C2217.94 731.92 2219.16 730.08 2219.33 726.45C2219.69 718.97 2220.4 711.5 2220.97 704.02C2221.06 702.77 2221.15 701.53 2221.29 700.29C2224.73 669.64 2238.63 657.69 2269.31 659.24C2279.29 659.74 2289.25 660.66 2299.21 661.43C2300.65 661.54 2302.11 661.82 2303.49 662.25C2309.19 664.06 2312.46 668.68 2311.84 673.9C2311.22 679.16 2307.06 683.22 2300.99 683.08C2291.22 682.87 2281.45 682.09 2271.7 681.26C2249.6 679.37 2244.72 683.35 2242.73 705.48C2242.17 711.7 2242.04 717.97 2241.25 724.16C2240.6 729.3 2242.19 731.23 2247.56 731.16C2265.67 730.92 2283.79 731.04 2301.91 731.08C2304.81 731.08 2307.81 731.02 2310.59 731.69C2315.73 732.92 2319.1 736.24 2319.2 741.77C2319.3 747.33 2315.96 750.7 2310.88 752.08C2308.12 752.83 2305.11 752.88 2302.22 752.89C2284.1 753 2265.98 753.18 2247.87 752.94C2242.42 752.87 2240.24 754.46 2240.92 760.07C2242 768.96 2242.83 777.88 2243.52 786.8C2243.96 792.52 2248.23 793.49 2252.32 793.74C2266.22 794.59 2280.16 794.99 2294.08 795.53C2297.61 795.67 2301.2 795.33 2304.65 795.91C2310.68 796.91 2314.37 801.23 2314.09 806.53C2313.78 812.39 2310.25 816.05 2304.73 816.55C2283.51 818.48 2262.2 818.93 2241.42 813.58C2226.99 809.87 2220.53 799.18 2220.66 784.11C2220.74 775.19 2219.76 766.24 2218.86 757.35C2218.72 755.95 2216.62 753.9 2215.15 753.62C2202.44 751.24 2201.68 751.93 2199.93 764.62C2198.77 773.07 2197.84 781.59 2196.07 789.92C2192.98 804.5 2184.15 810.5 2169.3 808.7C2166 808.3 2162.73 807.61 2159.48 806.91C2149.52 804.77 2143.17 798.83 2141.17 788.76C2139.42 779.99 2138.02 771.14 2136.49 762.33C2135.22 755.03 2132.57 752.46 2126.87 752.31C2123.26 752.21 2121.79 753.59 2121.03 757.11C2119.05 766.26 2117.05 775.43 2114.3 784.36C2108.25 804.06 2095.17 815.89 2074.18 817.24C2060.29 818.14 2046.33 818.36 2032.4 818.25C2024.27 818.19 2019.33 813.11 2019.63 806.69C2019.92 800.49 2024.86 796.84 2033 796.6C2046.51 796.2 2060.02 795.88 2073.52 795.19C2083.1 794.7 2089.48 789.38 2092.37 780.38C2095.2 771.58 2097.47 762.61 2100.31 752.52L2100.29 752.53ZM2166.46 730.51C2166.46 730.6 2166.46 730.69 2166.46 730.78C2169.57 730.75 2172.7 730.5 2175.79 730.73C2179.96 731.05 2181.57 729.49 2182 725.2C2183.82 707.06 2183.81 706.9 2165.93 705.12C2165.52 705.08 2165.1 705.03 2164.69 704.99C2152.09 703.76 2151.38 704.37 2150.47 717C2149.55 729.8 2150.18 730.5 2162.72 730.54C2163.96 730.54 2165.21 730.52 2166.45 730.5L2166.46 730.51ZM2179.58 752.33C2172.45 752.41 2166.7 752.28 2160.98 752.69C2159.83 752.77 2157.79 755.02 2157.93 756.04C2159.11 764.85 2160.2 773.73 2162.51 782.28C2163.08 784.39 2167.92 785.71 2171.02 786.56C2172.03 786.84 2174.77 784.62 2175.01 783.24C2176.71 773.5 2177.97 763.69 2179.59 752.34L2179.58 752.33Z" fill="white"/>
<path d="M1632.72 398.88C1588.69 398.7 1557.27 397.59 1526.35 391.1C1516.62 389.06 1506.96 386.16 1497.66 382.63C1470.55 372.35 1456.26 352.32 1456.27 323.37C1456.27 303.42 1457.41 283.41 1459.31 263.54C1462.97 225.21 1467.1 186.92 1471.96 148.73C1473.57 136.03 1477.55 123.56 1481.25 111.23C1485.34 97.6 1494.73 89.37 1509.22 88.12C1519.75 87.21 1530.45 85.59 1540.86 86.57C1586.24 90.82 1631.55 95.79 1676.86 100.79C1684.89 101.68 1692.83 103.7 1700.71 105.64C1724.19 111.4 1739.34 126.24 1744.19 149.74C1749.1 173.55 1753.25 197.64 1755.75 221.81C1759.74 260.3 1758.06 298.75 1750.17 336.78C1749.75 338.82 1749.22 340.83 1748.78 342.87C1742.6 371.16 1726.23 388.81 1696.63 392.17C1671.22 395.05 1645.76 397.52 1632.72 398.88ZM1629.86 377.08C1642.51 375.89 1664.98 374.54 1687.22 371.51C1716.37 367.53 1722.54 360.95 1728.92 331.94C1734.13 308.22 1735.66 284.14 1735.88 259.95C1736.2 224.99 1731.4 190.57 1723.49 156.63C1721.77 149.25 1717.09 142.35 1712.82 135.87C1711.22 133.45 1707.01 132.34 1703.76 131.52C1699.78 130.52 1695.51 130.76 1691.47 129.96C1675.13 126.73 1658.98 121.96 1642.49 120.23C1601.34 115.91 1560.06 112.93 1518.83 109.43C1517.59 109.32 1516.33 109.44 1515.08 109.43C1507.96 109.39 1503.1 112.47 1501.31 119.6C1498.57 130.49 1494.75 141.26 1493.44 152.33C1488.42 194.49 1483.79 236.71 1479.91 278.98C1478.34 296.11 1478.37 313.47 1478.97 330.67C1479.43 343.72 1486.84 353.65 1498.77 358.87C1508.81 363.27 1519.3 367.1 1529.98 369.45C1559.61 375.99 1589.83 376.83 1629.87 377.06L1629.86 377.08Z" fill="white"/>
<path d="M2140.05 470.98C2134.15 465.84 2129.22 461.73 2124.5 457.39C2115.62 449.22 2106.36 441.38 2098.19 432.54C2087.98 421.51 2089.01 411.7 2100.32 401.83C2108.79 394.44 2117.44 387.25 2125.97 379.92C2127.83 378.32 2129.52 376.54 2131.85 374.31C2129.47 372.15 2127.49 370.44 2125.61 368.62C2117.55 360.82 2108.76 353.62 2101.65 345.03C2089.81 330.73 2090.08 317.35 2103.02 304.28C2113.5 293.69 2125.61 284.7 2137.1 275.13C2138.65 273.84 2140.71 273.01 2142.67 272.38C2153.67 268.84 2161.6 274.96 2161.87 286.47C2162.5 313.29 2162.06 340.24 2164.57 366.9C2170.13 426.17 2177.17 485.3 2183.76 544.47C2184.72 553.1 2187.12 561.59 2187.75 570.22C2188.48 580.35 2188.29 590.57 2187.97 600.74C2187.68 610.01 2183.05 615.49 2173.9 616.04C2157.93 617 2141.86 617.82 2125.9 617.14C2109.7 616.45 2104.22 604.71 2113.21 591.07C2121.45 578.57 2130.53 566.62 2139.24 554.43C2141.26 551.61 2143.32 548.81 2145.79 545.4C2142.94 543.61 2140.73 542.16 2138.47 540.81C2128.1 534.62 2117.7 528.49 2107.36 522.26C2105.05 520.87 2102.82 519.28 2100.79 517.51C2091.8 509.68 2092.38 499.46 2102.48 493.18C2110.43 488.24 2118.81 484 2126.92 479.3C2131.02 476.92 2134.93 474.22 2140.04 470.95L2140.05 470.98Z" fill="white"/>
<path d="M980.92 343.77C970.12 342.79 959.16 342.62 948.55 340.62C935.1 338.09 930.45 330.62 932.37 316.95C933.7 307.5 935.25 298.06 937.2 288.72C943.28 259.75 949.3 230.76 956.04 201.94C957.59 195.31 961.3 188.94 965.08 183.14C968.84 177.37 974.9 176.45 980.67 180.33C985.38 183.49 989.84 187.28 993.65 191.49C1020.54 221.25 1047.25 251.19 1073.98 281.1C1076.01 283.37 1077.76 285.91 1079.75 288.22C1093.26 303.88 1089.66 325.55 1065.4 330.57C1037.5 336.34 1009.62 341.97 980.93 343.77H980.92Z" fill="white"/>
<path d="M87.5299 1018.05C71.9099 1017.11 57.7299 1016.89 43.7199 1015.24C26.2199 1013.18 14.6299 1003.41 8.92994 986.33C0.72994 961.78 -1.33006 936.59 0.77994 911.09C2.19994 893.96 15.2599 885.74 31.9999 889.78C39.1899 891.52 43.2799 896.52 46.5999 902.46C52.5899 913.16 58.6099 923.84 64.2999 934.7C68.6799 943.06 74.4799 947.54 84.6599 946.55C101.22 944.94 117.91 944.64 134.49 943.24C143.98 942.44 144.6 941.33 146.74 932.11C148.71 923.59 150.45 915.01 152.78 906.59C155.99 894.94 163.46 891.23 174.66 895.51C180.09 897.59 185.47 899.92 190.63 902.6C198.32 906.59 202.43 913.14 202.07 921.88C201.24 941.8 197.79 961.24 189.5 979.5C181.98 996.06 169.57 1007.47 151.23 1010.24C129.65 1013.5 107.9 1015.61 87.5499 1018.06L87.5299 1018.05Z" fill="white"/>
<path d="M1517.1 1016.35C1506.23 1017.05 1497.66 1012.71 1490.91 1004.43C1490.78 1004.27 1490.63 1004.12 1490.52 1003.95C1467.7 969.34 1445.4 934.42 1430.68 895.4C1427.78 887.71 1426.18 879.33 1425.26 871.12C1423.78 858.04 1429.44 849.75 1441.53 844.81C1451.93 840.55 1462.28 836.19 1472.61 831.77C1484.52 826.68 1487.65 828.43 1496.29 838.1C1514.89 858.91 1528.69 882.92 1543.31 906.35C1554.65 924.52 1565.11 943.28 1575.07 962.25C1578.84 969.42 1581.1 977.77 1582.23 985.83C1583.49 994.8 1578.63 1002.15 1569.97 1004.65C1552.63 1009.66 1534.97 1013.56 1517.44 1017.91C1517.33 1017.39 1517.22 1016.87 1517.11 1016.35H1517.1Z" fill="white"/>
<path d="M2423.36 224.23C2412.49 224.93 2403.92 220.59 2397.17 212.31C2397.04 212.15 2396.89 212 2396.78 211.83C2373.96 177.22 2351.66 142.3 2336.94 103.28C2334.04 95.59 2332.44 87.21 2331.51 79C2330.03 65.92 2335.69 57.63 2347.78 52.68C2358.18 48.42 2368.53 44.06 2378.86 39.64C2390.77 34.55 2393.9 36.3 2402.54 45.98C2421.14 66.79 2434.93 90.8 2449.56 114.23C2460.9 132.4 2471.36 151.16 2481.32 170.13C2485.08 177.3 2487.35 185.65 2488.48 193.72C2489.74 202.69 2484.88 210.04 2476.22 212.54C2458.88 217.55 2441.22 221.44 2423.69 225.8C2423.58 225.28 2423.47 224.76 2423.36 224.24V224.23Z" fill="white"/>
<path d="M2492.3 421.28C2492.42 431.05 2487.77 436.27 2478.34 438.05C2466.68 440.25 2454.98 442.32 2443.23 443.87C2438.94 444.43 2436.75 446.24 2434.67 449.8C2429.84 458.04 2425.09 466.47 2419.16 473.9C2408.49 487.27 2396.01 485.41 2388.67 469.97C2384.38 460.95 2380.11 451.91 2376.13 442.74C2374.73 439.51 2373.33 438.41 2369.61 439.19C2357.19 441.8 2344.62 443.73 2332.22 446.41C2329.03 447.1 2325.62 449.02 2323.4 451.4C2317.43 457.77 2312.12 464.76 2306.41 471.38C2303.97 474.21 2301.4 477.01 2298.49 479.32C2289.88 486.18 2280.75 484.6 2275.42 474.92C2269.2 463.62 2263.35 452.09 2257.86 440.42C2255.84 436.13 2253.96 435.55 2249.36 436.43C2237.53 438.7 2225.55 440.46 2213.56 441.47C2202.36 442.41 2194.23 431.39 2198.16 420.88C2203.41 406.85 2208.99 392.92 2215.01 379.2C2220 367.83 2231.64 365.31 2239.58 374.81C2247.34 384.1 2253.16 395.1 2259.25 405.68C2261.64 409.84 2263.82 411.84 2269 412.41C2281.78 413.82 2294.48 416.22 2307.09 418.84C2311.95 419.85 2314.42 419.19 2316.98 414.59C2322.94 403.87 2329.4 393.39 2336.22 383.19C2344.66 370.58 2355.81 369.38 2365.56 380.85C2374.42 391.26 2381.69 403 2389.91 413.97C2391.22 415.71 2393.79 417.42 2395.85 417.52C2403.53 417.89 2411.25 417.25 2418.93 417.64C2423.01 417.85 2424.83 416.33 2426.51 412.9C2431.72 402.24 2437.11 391.66 2442.77 381.24C2450.05 367.83 2461.67 367.08 2469.9 379.75C2476.92 390.55 2483.24 401.81 2489.56 413.05C2491.25 416.04 2491.8 419.68 2492.32 421.29L2492.3 421.28Z" fill="white"/>
<path d="M70.97 337.01C73.04 319.55 75.94 294.55 78.98 269.56C85.46 216.27 91.8 162.97 98.68 109.73C100.73 93.87 103.9 78.1 107.42 62.49C110.19 50.21 117.03 44.62 127.3 44.13C142 43.43 156.75 56.41 155.83 71.01C154.62 90.29 152.36 109.55 149.51 128.66C139.71 194.31 129.43 259.88 119.4 325.5C117.45 338.25 115.87 351.06 114.01 363.82C113.59 366.69 112.96 369.58 111.99 372.3C108.89 381.06 101.79 384.29 93.08 381.1C77.33 375.33 70.89 364.73 70.97 337.01Z" fill="white"/>
<path d="M166.32 291.87C165.9 280.84 169.19 270.75 175.39 261.91C182.78 251.36 190.62 241.08 198.87 231.19C210.34 217.45 222.05 203.88 234.26 190.79C247.56 176.54 254.1 177.2 265.82 192.64C273 202.09 273.09 207.35 266.53 217.59C256.09 233.87 244.99 249.79 235.65 266.68C230.84 275.36 228.28 285.64 226.56 295.52C225.66 300.69 227.6 307.21 230.28 311.99C243.84 336.19 261.97 356.8 282.65 375.16C298.12 388.89 298.87 391.76 284.7 406.51C273.21 418.47 260.87 429.72 248.1 440.3C239.77 447.2 235.77 445.73 230.5 436.08C214.35 406.5 198.2 376.92 182.37 347.16C172.58 328.75 166.51 306.69 166.34 291.86L166.32 291.87Z" fill="white"/>
<path d="M1285.61 751.26C1280.12 757.66 1274.86 763.24 1270.24 769.3C1263.94 777.58 1258.17 786.26 1252.08 794.7C1250.26 797.22 1248.27 799.66 1246.11 801.9C1235.84 812.56 1224.67 812.64 1215.96 800.75C1206.02 787.18 1197.41 772.64 1188.17 758.55C1185.44 754.38 1182.58 750.28 1179.69 746.22C1177.31 742.88 1174.75 742.89 1172.12 746.05C1164.14 755.64 1156.06 765.15 1148.17 774.82C1141.86 782.55 1136.24 790.91 1129.47 798.21C1118.17 810.41 1107.07 808.87 1099.08 794.25C1093.49 784.03 1088.88 773.28 1083.29 763.06C1079.88 756.83 1075.45 751.16 1071.47 745.24C1070.65 745.2 1069.83 745.17 1069.01 745.13C1068.16 746.55 1067.36 747.99 1066.44 749.37C1055.75 765.47 1044.98 781.51 1034.37 797.67C1031.44 802.13 1027.82 804.65 1022.39 803.42C1017.31 802.27 1013.44 797.19 1014.31 791.63C1014.93 787.64 1016.37 783.43 1018.62 780.11C1029.73 763.76 1040.92 747.44 1052.7 731.57C1060.31 721.31 1071.66 719.46 1081.78 727.22C1088.23 732.16 1093.8 738.75 1098.33 745.55C1103.37 753.11 1106.77 761.77 1110.92 769.93C1112.49 773.02 1114.18 776.05 1116.32 780.04C1119 776.79 1121.06 774.31 1123.09 771.8C1134.1 758.24 1144.5 744.12 1156.26 731.24C1170.49 715.67 1183.84 716.37 1196.95 733.02C1203.99 741.96 1209.36 752.21 1215.53 761.84C1220.45 769.5 1225.45 777.1 1231.04 785.7C1233.31 782.89 1234.88 781.1 1236.28 779.19C1243.15 769.78 1249.82 760.21 1256.88 750.94C1260.4 746.32 1264.41 742.02 1268.55 737.94C1283.16 723.56 1294.43 724.42 1305.87 741.3C1313.45 752.49 1320.13 764.28 1327.22 775.8C1328.61 778.05 1330.01 780.3 1331.8 783.18C1339.32 775.91 1346.2 769.02 1353.34 762.42C1360.05 756.21 1366.7 749.84 1373.99 744.36C1385.05 736.06 1395.26 737.47 1402.94 749C1409.72 759.17 1415.22 770.23 1420.96 781.06C1424.37 787.49 1427.22 794.22 1430.25 800.84C1434.42 809.97 1433.34 816.48 1427.25 819.45C1421.15 822.42 1415.18 819.11 1410.79 810.32C1403.92 796.54 1397.08 782.75 1390.16 769C1389.16 767.01 1387.76 765.22 1385.99 762.47C1382.7 765.15 1379.7 767.27 1377.08 769.78C1366.88 779.59 1356.81 789.54 1346.67 799.42C1344.59 801.45 1342.56 803.58 1340.26 805.35C1332.03 811.71 1323.44 810.61 1317.67 801.93C1312.61 794.32 1308.36 786.16 1303.59 778.34C1298.71 770.35 1293.65 762.46 1288.63 754.56C1288.09 753.71 1287.27 753.05 1285.58 751.23L1285.61 751.26Z" fill="white"/>
<path d="M1827.67 235.41C1838.81 232.08 1848.07 229.1 1857.45 226.57C1884.54 219.24 1911.53 211.5 1938.83 205.08C1958.8 200.38 1964.59 205.79 1964.92 226.33C1965.21 244.2 1959.84 250.79 1942.57 254.46C1902.81 262.91 1862.62 268.23 1822.08 270.87C1815.34 271.31 1808.28 270.65 1801.72 269.05C1791.79 266.62 1785.15 259.68 1784.05 249.45C1783.15 241.09 1783.36 232.41 1784.53 224.07C1788.99 192.21 1801.72 162.9 1813.58 133.36C1818.15 121.97 1822.94 110.65 1828.08 99.51C1834.84 84.86 1852.62 83.7 1861.94 97.17C1867.06 104.58 1869.09 112.72 1865.87 121.45C1861.98 131.99 1857.45 142.29 1853.74 152.89C1845.5 176.43 1837.56 200.08 1829.65 223.73C1828.64 226.76 1828.54 230.1 1827.67 235.44V235.41Z" fill="white"/>
<path d="M562.34 375.24C564.43 365.96 565.54 358.51 567.8 351.43C591.58 276.79 615.53 202.2 639.46 127.61C640.41 124.65 641.69 121.79 642.72 118.85C644.36 114.14 647.08 113.12 651.9 114.91C658.69 117.42 665.91 118.78 672.75 121.18C685.35 125.59 689.08 132.57 685.41 145.33C663.25 222.44 639.87 299.15 609.5 373.53C606.76 380.24 603.48 386.79 599.83 393.05C596.07 399.47 592.77 400.21 586.39 396.73C580.75 393.65 574.77 390.81 569.97 386.66C566.38 383.56 564.44 378.54 562.33 375.26L562.34 375.24Z" fill="white"/>
<path d="M987.86 966.79C990.34 937.19 992.45 911.27 994.76 885.37C995.13 881.26 996.3 877.19 997.34 873.17C1000.72 860.06 1008.87 851.41 1021.72 846.97C1039.65 840.77 1058.28 838.65 1077.01 838.2C1090.89 837.87 1104.99 838.05 1118.66 840.15C1138.07 843.14 1147.8 853.75 1149 873.4C1149.79 886.35 1148.65 899.66 1146.54 912.5C1142.12 939.39 1136.61 966.1 1131.26 992.83C1130.25 997.87 1128.41 1002.88 1126.12 1007.49C1121.42 1016.98 1112.87 1021.64 1102.77 1021.7C1079.5 1021.84 1056.23 1021.16 1032.96 1020.7C1025.68 1020.56 1018.4 1019.69 1011.14 1019.82C994.05 1020.11 990.95 1017.19 988.42 997.46C986.98 986.19 987.94 974.62 987.86 966.79ZM1010.15 962.66C1009.99 962.68 1009.83 962.71 1009.67 962.73C1009.77 972.29 1010.16 981.85 1009.86 991.39C1009.7 996.69 1011.63 998.2 1016.7 998.11C1023.13 997.99 1029.56 998.81 1036 999.04C1054.69 999.71 1073.38 1000.84 1092.07 1000.74C1106.94 1000.66 1107.58 999.7 1110.65 985.34C1114.69 966.43 1118.72 947.5 1121.91 928.44C1124.55 912.68 1126.7 896.76 1127.74 880.83C1128.62 867.34 1124.6 862.49 1112.35 861.06C1084.83 857.86 1057.57 859.62 1030.76 867.05C1023.58 869.04 1019.37 873.56 1017.95 880.79C1017.35 883.85 1016.46 886.88 1016.19 889.97C1014.11 914.2 1012.15 938.44 1010.15 962.67V962.66Z" fill="white"/>
<path d="M913.92 189.27C890.95 185.43 867.93 181.89 845.04 177.67C815.37 172.2 785.87 165.81 756.16 160.56C738.4 157.42 735.41 148.71 742.45 131.33C747.72 118.34 755.58 106.25 763.33 94.45C777.83 72.37 792.86 50.62 808.1 29.04C818.03 14.98 831.14 12.55 843.75 24.2C856.18 35.68 868.59 48.19 877.28 62.51C896.78 94.65 914.17 128.08 932.02 161.21C941.81 179.37 927.74 188.57 913.92 189.27ZM909.59 166C908.93 163.71 908.82 162.43 908.24 161.41C891.53 131.67 875.35 101.6 857.72 72.4C851.15 61.52 841.25 52.65 832.73 42.97C829.78 39.62 826.98 39.65 824.3 43.78C804.91 73.61 785.4 103.36 765.97 133.17C764.89 134.83 764.23 136.77 762.8 139.81C812.28 147.56 859.85 160.51 909.6 165.99L909.59 166Z" fill="white"/>
<path d="M340.43 196.38C344.07 197.89 346.3 198.46 348.14 199.64C367.51 212.16 384.1 227.9 399.7 244.72C404.83 250.25 405.83 256.52 402.9 263.76C391.61 291.62 377.72 318.1 361.22 343.19C355.27 352.24 351.88 352.61 344.91 344.61C329.21 326.58 313.87 308.23 298.56 289.87C295.79 286.55 292.97 282.77 291.84 278.74C290.78 274.93 290.46 269.64 292.33 266.5C304.91 245.43 318.02 224.66 331.34 204.05C333.44 200.8 337.48 198.8 340.43 196.39V196.38Z" fill="white"/>
<path d="M578.24 122.36C575.77 137 572.95 155.06 569.65 173.04C558.43 234.34 547.07 295.61 535.68 356.88C534.24 364.64 532.58 372.38 530.43 379.96C528.16 387.94 525.12 389.23 517.57 386.06C513.75 384.46 509.88 382.77 506.48 380.45C500.99 376.69 500.33 370.76 501.12 364.77C505.27 333.26 509.11 301.7 513.9 270.28C521.2 222.43 529.16 174.68 536.97 126.91C537.94 120.98 539.37 115.08 541.11 109.33C542.95 103.23 547.35 100.63 553.59 101.74C558.69 102.65 563.81 103.76 568.72 105.37C575.85 107.71 578.28 111.51 578.24 122.36Z" fill="white"/>
<path d="M1111.6 147.57C1111.14 160.53 1110.81 173.01 1110.19 185.47C1110.02 188.96 1109.32 192.53 1108.24 195.86C1104.09 208.66 1092.82 213.36 1080.98 206.9C1075.35 203.84 1070.15 199.89 1065.08 195.93C1030.28 168.79 995.55 141.57 960.87 114.29C956.47 110.83 952.16 107.14 948.36 103.04C943.36 97.65 943.48 92.26 947.24 85.9C951.82 78.14 958.07 72.37 965.95 68.07C990.05 54.9 1015.39 45.07 1042.33 39.62C1048 38.47 1053.9 38.12 1059.7 38.1C1075.76 38.06 1087.57 45.44 1095.05 59.6C1102.77 74.21 1105.92 90.17 1107.88 106.33C1109.56 120.16 1110.43 134.09 1111.62 147.57H1111.6ZM1088.23 185.27C1088.65 180.22 1089.37 176.32 1089.22 172.46C1088.39 151.48 1088.24 130.42 1086.03 109.58C1084.69 96.93 1080.58 84.46 1076.71 72.22C1073.89 63.3 1066.67 59.29 1057.21 59.93C1053.69 60.17 1050.03 60.13 1046.7 61.11C1032.54 65.25 1018.36 69.34 1004.43 74.17C992.29 78.38 980.21 83.15 973.42 95.7C1010.99 125.01 1049.08 154.72 1088.23 185.27Z" fill="white"/>
<path d="M321.38 168.38C315.35 168.8 310.47 164.32 309.69 157.03C309.3 153.16 309.56 149.13 309.52 145.21C309.14 132.74 309.14 132.79 296.58 130C281.05 126.54 266.05 121.22 253.02 112C244.4 105.9 235.91 107.05 226.93 109.16C224.72 109.69 222.47 110.72 220.31 110.64C214.87 110.45 211.37 107.41 210.11 102.15C208.79 96.78 211.45 90.92 217.11 88.99C222.52 87.17 228.45 86.2 234.18 85.99C240.92 85.72 245.68 83.6 249.79 77.88C261 62.52 275.98 51.84 293.71 45.12C297.47 43.72 299.01 41.84 298.61 37.82C297.87 29.93 297.28 22.04 296.9 14.14C296.46 5.59 300.62 0.169999 307.41 -0.010001C314.2 -0.180001 318.58 5 318.97 13.4C319.37 22.55 319.97 31.7 320.37 40.85C320.56 44.67 321.79 47.02 325.98 47.73C342.46 50.57 357.22 57.51 371.3 66.32C374.39 68.3 378.63 69.26 382.3 69.22C390.2 69.14 398.08 68.05 405.98 67.51C408.64 67.33 411.41 67.25 414.03 67.62C420.23 68.46 424.3 72.89 424.26 78.33C424.22 83.61 420.69 87.78 414.41 88.6C405.97 89.7 397.42 90.04 388.98 91.08C386.77 91.36 384.12 92.54 382.78 94.22C370.41 109.39 354.73 120.17 337.06 128.01C332.75 129.92 330.81 132 331.06 136.68C331.33 143.12 331.35 149.61 331.17 156.05C331.05 163.35 327.22 168.01 321.39 168.38H321.38Z" fill="white"/>
<path d="M902.13 1026.77C873.26 1025.32 844.34 1024.37 815.52 1022.18C804.12 1021.31 791.42 1011.51 795.38 996.08C802.01 970.21 813.05 946.86 829.81 926.13C839.61 914 852.47 907.47 867.66 905.23C888.09 902.21 908.4 903.63 928.42 908.13C948.4 912.62 957.4 921.95 957.22 942.36C957.04 962.82 954.14 983.33 951.34 1003.67C949.92 1013.97 942.22 1020.65 932.3 1023.12C922.49 1025.56 912.32 1026.52 902.3 1028.13C902.24 1027.68 902.19 1027.22 902.13 1026.77ZM816.4 1000.17C819.9 1000.59 821.52 1000.87 823.14 1000.96C845.99 1002.25 868.83 1003.82 891.7 1004.63C902.03 1004.99 912.43 1004.03 922.76 1003.24C926.93 1002.92 930.41 1000.55 930.89 995.89C932.63 978.73 934.78 961.59 935.59 944.38C936.07 934.19 933.31 931.56 923.33 929.42C906.14 925.74 888.76 924.3 871.23 926.83C860.43 928.39 851.27 932.96 845.12 942.17C838.89 951.5 832.45 960.8 827.45 970.79C822.95 979.78 820.26 989.67 816.4 1000.17Z" fill="white"/>
<path d="M2268.8 303.62C2270.49 301.13 2272.26 298.1 2274.44 295.39C2278.34 290.54 2282 285.33 2286.62 281.25C2305.65 264.47 2328.45 267.28 2343.29 287.94C2345.82 291.46 2347.92 295.29 2350.71 299.78C2352.38 297.73 2353.79 296.09 2355.1 294.38C2364.84 281.61 2377.9 274.53 2393.59 272.24C2409.58 269.9 2423.25 276.07 2429.67 290.77C2434.51 301.86 2437.05 314.07 2439.61 325.99C2441.02 332.57 2436.75 337.62 2431.15 338.54C2425.68 339.43 2420.53 335.91 2418.76 329.46C2416.95 322.84 2415.98 315.99 2414.05 309.41C2409.48 293.77 2401.75 289.97 2386.9 296.85C2381.45 299.38 2376.3 303.59 2372.45 308.22C2368.14 313.41 2365.1 319.78 2362.16 325.95C2359.58 331.36 2356.72 336.03 2350.04 335.94C2343.25 335.85 2338.74 331.95 2336.28 325.91C2334.32 321.1 2333.26 315.93 2331.24 311.16C2327.71 302.8 2323.64 293.94 2313.56 292.68C2303.77 291.45 2298.4 299.37 2293.5 306.35C2288.49 313.49 2284.19 321.14 2279.53 328.53C2276.42 333.47 2272.66 337.61 2266.15 337.25C2259.58 336.88 2256.93 331.97 2253.95 326.97C2248.98 318.65 2244.17 310.01 2237.83 302.79C2231.25 295.29 2224.64 296.47 2218.61 304.52C2212.12 313.18 2209.34 323.03 2209.7 333.81C2209.78 336.1 2210.03 338.39 2209.92 340.67C2209.62 346.75 2205.97 350.99 2200.75 351.56C2195.6 352.12 2190.89 348.75 2189.03 343.19C2182.56 323.78 2195.23 290.46 2213.11 280.41C2224.7 273.89 2236.57 273.79 2247.05 282.2C2254.74 288.37 2261.22 296.04 2268.81 303.62H2268.8Z" fill="white"/>
<path d="M2406.05 811.27C2396.19 811.37 2389.52 811.2 2382.88 811.56C2367.24 812.41 2358.49 804.75 2358.78 789.3C2359.37 758.12 2363.53 727.36 2373.83 697.87C2377.24 688.11 2382.62 678.22 2389.57 670.66C2409 649.53 2440.08 653.49 2454.71 678.11C2465.24 695.82 2469.23 715.74 2472.26 735.71C2474.78 752.34 2476.52 769.15 2477.4 785.94C2478.1 799.36 2472.08 805.75 2458.87 807.04C2440.25 808.87 2421.56 810.06 2406.06 811.27H2406.05ZM2405.18 789.32C2405.2 789.46 2405.22 789.6 2405.23 789.73C2419.92 788.45 2434.59 786.91 2449.3 786.02C2454.44 785.71 2456.21 784.19 2455.8 779.01C2453.77 753.02 2450.05 727.35 2441.98 702.48C2440.52 697.97 2438.45 693.56 2436.02 689.48C2428.55 676.93 2414.68 675.37 2404.73 686.16C2401.29 689.9 2398.28 694.49 2396.49 699.22C2386.07 726.73 2382.2 755.51 2380.68 784.71C2380.48 788.59 2382.08 789.77 2385.84 789.58C2392.27 789.26 2398.72 789.37 2405.17 789.3L2405.18 789.32Z" fill="white"/>
<path d="M488.31 133.31C486.85 153.58 485.05 178.68 483.23 203.78C481.69 224.93 480.23 246.09 478.55 267.23C476.49 293.13 474.38 319.03 471.98 344.91C471.26 352.73 469.13 353.84 461.17 352.5C459.74 352.26 458.3 352.01 456.89 351.68C444.37 348.79 440.2 343.8 440.9 331.14C442.66 299.37 444.54 267.61 446.7 235.86C448.71 206.41 451.8 177.01 453.06 147.53C453.57 135.61 454.13 123.95 457.59 112.54C459.94 104.8 461.52 103.93 469.32 105.71C469.73 105.8 470.13 105.89 470.54 105.98C487.04 109.63 488.62 111.61 488.3 133.31H488.31Z" fill="white"/>
<path d="M1350.51 529.41C1348.39 582.14 1342.35 632.3 1333.13 682.09C1331.26 692.21 1325.59 696.26 1315.5 695.8C1305.43 695.34 1298.29 689.68 1297.77 680.01C1297.28 670.93 1297.96 661.71 1298.9 652.63C1304.47 598.6 1310.25 544.59 1316.04 490.58C1316.39 487.31 1316.65 483.58 1318.38 481.04C1320.18 478.42 1323.51 475.84 1326.55 475.27C1334.98 473.71 1347.16 482.34 1348.1 491.01C1349.56 504.43 1349.85 517.97 1350.52 529.41H1350.51Z" fill="white"/>
<path d="M930.35 733.96C926.83 733.68 923.27 733.65 919.79 733.07C905.8 730.73 897.22 721.93 896.61 707.8C896.24 699.15 896.74 690.22 898.54 681.77C902.75 662.04 907.41 642.35 913.11 623.01C915.19 615.94 920.18 609.46 924.86 603.51C929.42 597.72 936.51 596.67 943.14 599.27C952.01 602.75 961.48 605.95 968.9 611.62C984.72 623.71 999.83 636.85 1014.32 650.52C1020.02 655.9 1024.19 663.46 1027.45 670.75C1032.51 682.06 1030.04 693.69 1020.47 699.89C993.89 717.1 965.77 730.9 933.48 733.65C932.45 733.74 931.4 733.68 930.36 733.69C930.36 733.78 930.35 733.87 930.34 733.96H930.35ZM931.01 711.83C931.63 711.83 932.26 711.86 932.88 711.8C959.29 709.25 982.16 697.33 1004.53 684.3C1006.06 683.41 1006.97 679.61 1006.48 677.56C1005.79 674.67 1003.88 671.85 1001.89 669.53C987.01 652.22 970.21 637.07 950.21 625.86C938.65 619.37 938.48 619.7 934.34 632.07C933.81 633.65 932.94 635.12 932.57 636.73C927.72 657.34 922.27 677.84 918.41 698.64C916.3 709.98 919.45 712.2 931.02 711.84L931.01 711.83Z" fill="white"/>
<path d="M1291.09 530.55C1288.65 567.72 1286.35 604.9 1283.65 642.05C1283.04 650.53 1281.14 658.92 1279.68 667.33C1277.78 678.28 1273.79 683.19 1266.49 683.93C1257.62 684.82 1246.83 678.7 1243.96 670.3C1242.45 665.88 1241.64 660.87 1241.97 656.23C1243.36 636.52 1245.21 616.84 1247.05 597.16C1250.36 561.73 1253.82 526.32 1257.13 490.9C1258.01 481.46 1260.67 478.75 1272.93 475.74C1279.22 474.2 1285.02 476.47 1288.46 483.19C1290.55 487.28 1291.87 492.24 1291.9 496.82C1292 508.04 1291.16 519.28 1290.69 530.51C1290.82 530.51 1290.96 530.53 1291.1 530.54L1291.09 530.55Z" fill="white"/>
<path d="M1962.25 169.23C1951.9 169.14 1938.03 166.03 1925.22 158.86C1917.84 154.73 1912.73 149.17 1911.4 140.1C1910.23 132.15 1907.7 124.37 1905.35 116.64C1895.97 85.81 1918.09 58.57 1946.43 51.91C1961.36 48.4 1976.67 48.41 1991.63 51.79C2023.92 59.08 2039.87 85.73 2031.66 117.79C2023.04 151.45 2000.97 168.86 1962.25 169.23ZM1968.92 70.18C1952.59 71.69 1944 74.15 1935.83 81C1925.56 89.6 1922.82 99.88 1927.55 112.15C1931.84 123.26 1936.77 133.32 1948.29 139.65C1956.6 144.22 1964.86 147.54 1973.88 146.58C1995.44 144.3 2006.75 132.3 2011.28 108.59C2014.15 93.56 2008.83 81.92 1994.67 76.21C1986.59 72.95 1977.53 72.12 1968.91 70.19L1968.92 70.18Z" fill="white"/>
<path d="M724.48 803.13C720.65 802.67 714.76 802.54 709.16 801.19C697.51 798.38 691.83 789.82 693.41 777.94C694.04 773.23 695.18 768.5 696.73 764.01C703.46 744.55 710.28 725.12 717.37 705.78C720.65 696.83 725.86 689.21 734.32 684.06C740.3 680.42 746.35 679.29 752.69 682.36C775.24 693.28 796.85 705.78 815.31 722.92C820.1 727.37 824.26 732.88 827.41 738.62C833.61 749.9 831.5 761.61 822.17 770.51C818.6 773.91 814.47 777.01 810.07 779.2C783.73 792.35 755.83 800.17 724.48 803.12V803.13ZM727.62 780.91C751.56 778.44 775.49 771.68 798.18 760.81C811.15 754.6 811.81 749.7 801.31 739.61C786.15 725.05 767.93 714.92 749.54 705.17C748.11 704.41 744.11 705.76 743.19 707.27C739.13 713.99 735.06 720.87 732.27 728.18C726.86 742.35 722.17 756.8 717.47 771.23C714.38 780.71 715.04 781.31 725.22 780.94C725.63 780.92 726.05 780.94 727.62 780.91Z" fill="white"/>
<path d="M2331.55 914.52C2335.76 899.12 2340.43 883.83 2344.05 868.29C2347.45 853.74 2360.46 848.45 2372.68 857.4C2373.85 858.26 2375 859.18 2375.98 860.25C2395.47 881.57 2414.97 902.88 2434.35 924.3C2436.84 927.05 2438.96 930.22 2440.8 933.46C2447.76 945.71 2443.55 958.02 2430.2 962.66C2423.2 965.09 2415.68 966.87 2408.31 967.24C2384.03 968.46 2359.72 969.2 2335.41 969.51C2324.73 969.65 2318.38 962.75 2318.55 952.01C2318.63 946.92 2320.02 941.77 2321.34 936.79C2322.4 932.8 2324.27 929.02 2325.75 925.13C2327.15 921.44 2328.51 917.73 2329.89 914.03C2330.44 914.19 2330.99 914.35 2331.54 914.51L2331.55 914.52ZM2340.25 948C2368.05 946.72 2394.13 948.99 2419.68 943.36C2420.07 942.56 2420.45 941.77 2420.83 940.97C2402.48 920.81 2384.13 900.65 2365.52 880.21C2356.95 903.19 2348.88 924.83 2340.24 948H2340.25Z" fill="white"/>
<path d="M676.36 851.06C676.69 885.74 652.69 909.67 618.29 908.93C585.44 908.23 560.53 880.48 562.68 847.13C563.81 829.55 573.42 793.52 594.17 788.73C616.64 783.54 644.84 787.92 660.02 806.22C670.78 819.19 676.21 834.18 676.36 851.06ZM655.68 850.91C653.67 843.98 652.53 836.64 649.49 830.2C638.52 806.99 612.74 802.42 593.71 819.9C592.82 820.72 591.89 821.81 591.6 822.94C589.14 832.74 585.08 842.53 584.84 852.41C584.35 872.3 600.71 887.42 619.91 886.95C641.89 886.41 654.82 873.08 655.68 850.92V850.91Z" fill="white"/>
<path d="M77.95 805.26C77.81 792.45 76.78 779.59 77.78 766.84C78.93 752.1 86.14 748.41 102.99 752.21C106.59 753.02 110.64 753.62 113.43 755.47C116.44 757.47 119.89 760.68 120.26 763.63C123.69 790.88 126.62 818.19 129.38 845.5C129.95 851.14 129.68 856.92 128.96 862.55C127.66 872.74 121.01 877.55 107.83 878.63C95.66 879.63 88.78 875.86 85.1 866.09C79.03 849.97 77.98 833.25 77.39 816.48C77.26 812.74 77.3 809 77.26 805.26C77.49 805.26 77.73 805.26 77.96 805.26H77.95Z" fill="white"/>
<path d="M1928.41 526.34C1918.29 525.33 1908.02 525.05 1898.07 523.14C1883.94 520.42 1875.76 511.12 1876.3 496.79C1877.08 475.83 1878.19 454.72 1881.58 434.07C1885.8 408.37 1904.84 396.75 1930.73 401.54C1936.73 402.65 1941.38 405.56 1942.45 411.99C1943.47 418.13 1939.78 421.3 1934.66 423.97C1926.76 428.09 1919.06 432.67 1911.62 437.57C1909.61 438.9 1907.64 442.15 1907.7 444.46C1908.03 457.35 1909.03 470.23 1909.71 483.11C1909.98 488.23 1912.49 490.46 1917.64 490.46C1929.03 490.45 1940.42 490.91 1951.81 490.78C1960.35 490.68 1965.69 496.02 1964.74 504.44C1963.17 518.28 1956.08 524.9 1942.23 525.34C1937.65 525.49 1933.07 525.45 1928.49 525.5C1928.46 525.78 1928.44 526.07 1928.41 526.35V526.34Z" fill="white"/>
<path d="M1158.25 292.8C1165.67 294.08 1174.23 296.18 1182.9 296.93C1215.44 299.72 1248.03 301.83 1280.57 304.63C1313.74 307.49 1346.88 310.74 1380 314.11C1384.87 314.61 1389.85 316.08 1394.3 318.15C1399.81 320.71 1401.84 326.82 1399.9 331.85C1398 336.78 1393.31 338.56 1386.97 337.9C1345.6 333.63 1304.27 328.83 1262.82 325.63C1228.17 322.96 1193.38 322.21 1159.2 315.07C1157.37 314.69 1155.5 314.41 1153.71 313.88C1147.19 311.97 1143.7 307.25 1144.55 301.63C1145.39 296.09 1150.31 292.59 1158.25 292.79V292.8Z" fill="white"/>
<path d="M1174.43 403.59C1191.33 405.86 1208.22 408.17 1225.13 410.39C1278.14 417.34 1331.15 424.22 1384.15 431.23C1390.12 432.02 1396.04 433.28 1401.93 434.58C1404.53 435.15 1407.2 436.02 1409.48 437.36C1414.04 440.06 1416.26 444.25 1414.67 449.53C1413.08 454.83 1408.91 457.1 1403.61 456.76C1399.9 456.52 1396.25 455.42 1392.55 454.91C1338.55 447.59 1284.54 440.31 1230.53 433.02C1213.22 430.68 1195.9 428.37 1178.6 425.91C1175.54 425.47 1172.44 424.68 1169.6 423.48C1164.05 421.14 1161.36 416.04 1162.55 411.02C1163.76 405.91 1168.26 402.95 1174.43 403.58V403.59Z" fill="white"/>
<path d="M2407.25 577.16C2401.85 577.22 2396.43 577.61 2391.05 577.26C2381.84 576.65 2376.08 571.23 2376.25 562.06C2376.45 550.88 2377.58 539.68 2378.92 528.56C2379.9 520.38 2384.96 514.68 2392.08 510.66C2401.33 505.43 2411.18 503.92 2421.59 505.33C2433.39 506.93 2440.27 514.69 2441.6 525.43C2443.14 537.86 2442.69 550.65 2441.87 563.2C2441.36 570.9 2435.25 575.05 2427.77 576.01C2420.99 576.87 2414.11 576.99 2407.27 577.43C2407.27 577.34 2407.26 577.25 2407.25 577.16Z" fill="white"/>
<path d="M2353.28 545.31C2353.85 570.18 2348.92 575.72 2324.14 576.93C2318.96 577.18 2313.71 577.1 2308.57 576.52C2298.32 575.38 2291.34 569.04 2290.6 558.85C2289.78 547.47 2290.06 536 2290.35 524.58C2290.49 519.1 2294.03 514.9 2299.09 513.47C2305.19 511.74 2311.64 510.69 2317.97 510.51C2324.37 510.33 2330.8 511.61 2337.22 512.2C2343.77 512.8 2348.23 515.97 2349.49 522.61C2350.92 530.14 2352.03 537.74 2353.28 545.3V545.31Z" fill="white"/>
<path d="M2231.13 571.47C2230.51 571.47 2229.88 571.48 2229.26 571.49C2206.37 571.8 2200.17 564.78 2203.18 541.93C2203.42 540.08 2203.77 538.23 2204.19 536.41C2208.71 516.86 2216.07 510.63 2236.09 509.67C2241.07 509.43 2246.1 509.35 2251.05 509.83C2259.58 510.66 2264.94 514.77 2266.07 523.2C2267.33 532.59 2267.53 542.26 2266.92 551.72C2266.46 558.99 2253.49 569.32 2244.82 570.56C2240.3 571.21 2235.7 571.28 2231.14 571.61C2231.14 571.56 2231.14 571.51 2231.13 571.46V571.47Z" fill="white"/>
<path d="M1078.83 664.91C1075 664.4 1070.82 664.19 1066.84 663.17C1057.11 660.86 1050.64 654.09 1051.19 644.12C1051.99 629.67 1053.45 615.12 1056.47 600.95C1059.4 587.49 1074.95 583.7 1083.76 594.02C1092.67 604.34 1101.59 614.96 1108.25 626.76C1118.91 645.66 1112.16 658.66 1090.88 663.22C1087.07 664.01 1083.09 664.31 1078.83 664.91Z" fill="white"/>
<path d="M1753.92 449.82C1753.97 467.07 1741.07 480.97 1724.84 481.19C1706.4 481.44 1692.63 467.14 1692.73 447.84C1692.82 430.15 1705.58 419.34 1726.31 419.41C1741.66 419.46 1753.87 432.92 1753.92 449.82ZM1724.22 458.99C1728.8 458.88 1732.22 454.85 1731.93 449.55C1731.72 445.59 1730.51 442.01 1725.74 441.69C1721.34 441.4 1714.9 447.42 1715.18 451.27C1715.48 455.47 1719.73 459.1 1724.23 458.99H1724.22Z" fill="white"/>
<path d="M584.34 754.21C567.96 754.25 555.86 742.83 555.95 727.43C556.04 712.66 568.82 698.66 582.42 698.43C595.98 698.21 611.05 714.6 611.07 729.59C611.09 743.6 599.61 754.17 584.34 754.2V754.21Z" fill="white"/>
<path d="M325.76 860.06C309.38 860.1 297.28 848.68 297.37 833.28C297.46 818.51 310.23 804.51 323.84 804.28C337.4 804.06 352.47 820.45 352.49 835.44C352.51 849.45 341.03 860.02 325.77 860.05L325.76 860.06Z" fill="white"/>
<path d="M1186.07 692.36C1170.93 692.52 1158.98 680.93 1158.67 665.89C1158.34 649.14 1169.89 638.05 1187.7 637.96C1201.63 637.86 1214.69 650.25 1214.84 663.73C1215.05 678.97 1201.76 692.19 1186.07 692.36Z" fill="white"/>
<path d="M2057.28 467.7C2057.32 471.64 2057.81 475.63 2057.32 479.5C2056.27 487.82 2050.28 492.64 2042.08 491.32C2035.99 490.34 2029.93 488.56 2024.14 486.38C2017.42 483.85 2014.37 478.27 2014.31 471.19C2014.29 467.88 2014.69 464.56 2014.91 461.25C2016.11 443.05 2031.5 434.41 2048.14 442.56C2052.99 444.93 2055.98 448.7 2056.63 454.05C2057.18 458.57 2057.36 463.14 2057.7 467.69C2057.56 467.69 2057.42 467.7 2057.28 467.71V467.7Z" fill="white"/>
<path d="M2047.44 330.06C2046.76 335.61 2046.59 341.28 2045.27 346.68C2043.16 355.26 2037.85 358.64 2028.04 358.75C2016.62 358.88 2010.5 355.77 2008.46 347.16C2006.51 338.92 2005.4 330.37 2004.93 321.91C2004.51 314.27 2012.01 307.33 2020.88 306.39C2024.98 305.95 2029.21 306.16 2033.32 306.6C2041.08 307.43 2045.32 311.72 2046.26 319.4C2046.69 322.9 2046.73 326.45 2046.95 329.98C2047.12 330 2047.28 330.03 2047.45 330.05L2047.44 330.06Z" fill="white"/>
<path d="M2023.78 594.36C2021.73 575.1 2038.87 566.72 2052.07 570.07C2058.85 571.79 2063.45 575.51 2064.65 582.32C2065.8 588.85 2066.55 595.54 2066.56 602.16C2066.58 611.38 2060.8 616.65 2051.48 616.75C2048.58 616.78 2045.65 616.52 2042.77 616.15C2028.32 614.32 2023.6 608.86 2023.79 594.36H2023.78Z" fill="white"/>
<path d="M2063.69 530.96C2063.71 532.9 2063.72 533.32 2063.72 533.73C2063.8 542.57 2064.21 551.7 2054.19 556.04C2047.06 559.13 2030.2 554.44 2025.06 547.57C2022.75 544.48 2021.83 540.12 2021.06 536.19C2020.56 533.66 2021.42 530.85 2021.77 528.18C2022.6 521.84 2022.33 514.48 2029.61 511.79C2038.3 508.58 2047.71 507.31 2056.11 512.17C2059.35 514.04 2061.36 518.78 2062.88 522.63C2064.04 525.57 2063.55 529.17 2063.69 530.96Z" fill="white"/>
<path d="M2012.57 399.28C2012.65 397 2012.66 394.71 2012.82 392.43C2013.91 377.82 2029.02 369.03 2042.02 375.81C2044.86 377.29 2048.23 380.61 2048.59 383.44C2049.66 391.78 2050.15 400.37 2049.32 408.71C2048.63 415.67 2043.3 419.13 2036.13 419.66C2034.89 419.75 2033.64 419.74 2032.39 419.72C2017.24 419.54 2012.24 414.39 2012.55 399.28H2012.57Z" fill="white"/>
<path d="M628.62 683.4C619.53 683.39 612.74 675.92 612.84 666.04C612.93 656.68 619.82 650.77 630.47 650.93C638.85 651.05 645.08 658.06 644.96 667.21C644.84 676.3 637.66 683.41 628.61 683.4H628.62Z" fill="white"/>
<path d="M1245.29 373.89C1245.14 363.94 1252.52 357.37 1262.22 358.82C1268.01 359.68 1272 363.77 1272.2 369.04C1272.69 381.88 1269.46 388.9 1262.45 390.19C1253.9 391.77 1245.43 383.72 1245.28 373.89H1245.29Z" fill="white"/>
<path d="M519.11 807.97C519.19 799.77 525 793.42 532.27 793.59C539.69 793.77 545.73 800.5 545.77 808.66C545.81 816.41 540.2 822.46 532.87 822.54C525.2 822.63 519.02 816.09 519.11 807.98V807.97Z" fill="white"/>
<path d="M1200.21 372.21C1200.33 380.32 1196.19 385.31 1189.34 385.29C1181.76 385.27 1175.4 378.56 1175.39 370.59C1175.39 362.92 1180.73 356.95 1187.74 356.79C1195.38 356.62 1200.06 362.41 1200.21 372.21Z" fill="white"/>
<path d="M1933.86 455.33C1935.99 450.95 1937.57 446.17 1940.4 442.31C1943.18 438.52 1947.77 437.71 1952.29 439.57C1956.89 441.47 1958.76 445.25 1958.52 450.07C1958.38 452.76 1958.03 455.46 1957.58 458.12C1956.45 464.71 1951.58 468.54 1945.31 467.91C1939.26 467.3 1935.02 462.35 1933.87 455.33H1933.86Z" fill="white"/>
<path d="M1339.42 377.67C1339.42 383.52 1335.11 387.9 1329.24 388C1321.34 388.13 1313.58 381.32 1313.49 374.18C1313.4 367.15 1319.05 361.14 1325.79 361.08C1333 361.02 1339.4 368.82 1339.41 377.67H1339.42Z" fill="white"/>
<path d="M1384.14 367.37C1390.95 367.47 1396.31 373.09 1396.14 379.95C1395.97 386.51 1390.57 391.66 1383.92 391.6C1377.4 391.54 1372.35 386.19 1372.38 379.35C1372.41 372.51 1377.54 367.29 1384.14 367.38V367.37Z" fill="white"/>
<path d="M772.38 506.24C766.3 506.27 761.62 501.36 761.54 494.88C761.44 487.85 766.62 482.01 773.13 481.8C779.29 481.6 784.26 486.43 784.37 492.73C784.5 499.89 778.89 506.22 772.38 506.25V506.24Z" fill="white"/>
<path d="M1002.21 406.99C1008.37 407.02 1013.9 412.77 1014.01 419.26C1014.11 425.21 1009.75 429.76 1003.98 429.71C997.78 429.66 992.28 423.96 992.17 417.46C992.06 411.53 996.45 406.97 1002.21 406.99Z" fill="white"/>
<path d="M1700.79 238.24C1697.89 263.42 1694.97 288.6 1692.08 313.78C1689.45 336.67 1680.36 341.53 1656.54 345.54C1641.78 348.02 1626.09 347.61 1611.16 345.76C1593.09 343.52 1575.27 338.85 1557.55 334.4C1538.39 329.59 1527.49 316.36 1526.12 297C1525.03 281.54 1525.49 265.82 1526.94 250.38C1528.68 231.97 1532.17 213.73 1535.01 195.43C1535.62 191.53 1536.56 187.67 1537.55 183.85C1543.94 159.24 1551.36 153.8 1576.54 155.91C1603.26 158.15 1629.96 160.65 1656.65 163.21C1660.97 163.63 1665.24 164.78 1669.45 165.94C1680.66 169.02 1688.68 175.96 1692.35 187.01C1694.7 194.07 1696.58 201.41 1697.52 208.77C1698.76 218.44 1698.86 228.26 1699.45 238.02C1699.89 238.09 1700.33 238.17 1700.77 238.25L1700.79 238.24ZM1676.25 237.84C1675.42 237.78 1674.59 237.72 1673.75 237.67C1673.64 227.27 1673.62 216.86 1673.39 206.46C1673.24 199.44 1669.73 194.45 1663.02 192.43C1655.28 190.1 1647.45 187.31 1639.49 186.59C1616.07 184.48 1592.54 183.59 1569.11 181.57C1561.9 180.95 1559.46 183.93 1558.5 190.08C1555.1 211.66 1551 233.16 1548.43 254.84C1546.9 267.75 1547.23 280.96 1547.65 294.01C1547.98 304.2 1553.81 310.52 1563.86 313.67C1591.15 322.22 1618.84 326.95 1647.53 324.8C1663.4 323.61 1665.94 322.51 1668.34 306.56C1671.76 283.78 1673.68 260.76 1676.25 237.85V237.84Z" fill="white"/>
<path d="M164.81 435.21C178.68 434.93 184.12 439.29 187.14 453.46C193.04 481.14 197.6 509.18 205.01 536.45C212.69 564.71 223.08 592.23 232.31 620.07C236.9 633.89 241.89 647.58 246.03 661.53C247.6 666.8 247.95 672.65 247.73 678.19C247.25 690.37 241.28 699.78 229.63 703.42C202.83 711.79 175.92 719.91 148.7 726.75C129.74 731.52 114.56 723.65 104.82 706.99C99.6099 698.08 94.9099 688.5 92.1099 678.61C79.4399 633.94 67.9199 588.96 61.1799 542.94C58.8199 526.83 58.4799 510.58 62.4399 494.52C66.1399 479.47 74.3299 467.73 87.3999 459.25C106.47 446.87 142.11 435.66 164.8 435.2L164.81 435.21ZM81.2999 524.13C81.7899 529.72 81.7399 535.43 82.8499 540.89C88.7099 569.62 94.3399 598.41 101.09 626.93C105.73 646.52 110.94 666.12 117.92 684.96C125.74 706.04 133.46 709.27 155.09 703.4C174.96 698.01 194.62 691.84 214.34 685.89C226.2 682.31 228.28 679.36 225.03 667.23C221.75 655 217.28 643.09 213.25 631.08C203.79 602.9 193.06 575.08 185.14 546.47C177.61 519.26 172.88 491.27 167.19 463.56C166.11 458.32 163.88 456.37 158.7 457.72C145.24 461.22 131.35 463.52 118.38 468.33C88.3199 479.49 80.4999 492.15 81.2999 524.13Z" fill="white"/>
<path d="M138.43 507.61C138.63 513.86 134.25 518.69 128.37 518.72C122.17 518.74 116.78 513.14 116.64 506.53C116.51 500.44 121.01 495.55 126.85 495.41C133.05 495.26 138.22 500.71 138.44 507.62L138.43 507.61Z" fill="white"/>
<path d="M163.42 620.94C163.53 626.68 159.11 631.25 153.37 631.33C147.42 631.4 142.15 626.44 141.91 620.53C141.67 614.79 145.93 610.14 151.67 609.87C157.86 609.58 163.29 614.69 163.42 620.95V620.94Z" fill="white"/>
<path d="M169.62 674.98C163.77 675.16 158.72 670.49 158.43 664.64C158.13 658.68 162.82 653.74 168.79 653.72C174.65 653.71 179.54 658.49 179.66 664.37C179.78 670.12 175.36 674.79 169.62 674.97V674.98Z" fill="white"/>
<path d="M138.11 550.23C143.93 550.29 148.5 554.85 148.41 560.54C148.33 566.31 143.38 571.03 137.38 571.05C131.53 571.07 127.04 566.56 127.14 560.76C127.23 554.91 132.16 550.18 138.1 550.23H138.11Z" fill="white"/>
<path d="M1066.58 947.11C1060.61 947.28 1055.73 942.68 1055.56 936.74C1055.38 930.43 1060.9 924.63 1067.24 924.45C1073 924.29 1077.55 928.63 1077.77 934.49C1078.02 941.14 1072.88 946.93 1066.58 947.11Z" fill="white"/>
<path d="M471.08 863.18C465.11 863.35 460.23 858.75 460.06 852.81C459.88 846.5 465.4 840.7 471.74 840.52C477.5 840.36 482.05 844.7 482.27 850.56C482.52 857.21 477.38 863 471.08 863.18Z" fill="white"/>
<path d="M713.19 1016.08C707.22 1016.25 702.34 1011.65 702.17 1005.71C701.99 999.4 707.51 993.6 713.85 993.42C719.61 993.26 724.16 997.6 724.38 1003.46C724.63 1010.11 719.49 1015.9 713.19 1016.08Z" fill="white"/>
<path d="M891.95 965.56C892.02 971.5 887.44 976.3 881.53 976.48C875.39 976.67 870.24 971.83 870.14 965.79C870.04 959.73 875.06 954.81 881.25 954.89C887.18 954.97 891.89 959.66 891.96 965.56H891.95Z" fill="white"/>
<path d="M2428.15 735.13C2427.88 742.89 2422.2 749.01 2415.56 748.7C2409.69 748.42 2405.22 743.51 2405.36 737.49C2405.53 730.23 2411.63 723.79 2418.2 723.94C2424.18 724.08 2428.37 728.79 2428.15 735.14V735.13Z" fill="white"/>
<path d="M1966.39 82.54C1981.38 82.24 1993.7 94.11 1993.86 109C1994.02 123.79 1983.04 135.49 1969.18 135.95C1951.82 136.53 1939.77 121.54 1939.74 109.7C1939.7 94.62 1950.96 82.84 1966.39 82.54ZM1973.94 109.36C1970.36 107.12 1968.5 105.06 1966.65 105.07C1965.16 105.07 1963.67 107.57 1962.18 108.97C1963.85 110.52 1965.32 112.81 1967.26 113.35C1968.53 113.7 1970.51 111.52 1973.93 109.36H1973.94Z" fill="white"/>
<path d="M2364.34 915.58C2366.51 910.54 2372.32 908.15 2377.29 910.26C2382.28 912.37 2384.57 918.19 2382.39 923.26C2380.24 928.28 2374.37 930.7 2369.45 928.61C2364.48 926.5 2362.18 920.62 2364.34 915.59V915.58Z" fill="white"/>
<path d="M614.09 845.45C619.66 845.53 624.17 850.3 624.09 856.02C624.01 861.83 619.45 866.41 613.85 866.32C608.28 866.23 603.76 861.47 603.83 855.75C603.9 850.01 608.52 845.36 614.09 845.44V845.45Z" fill="white"/>
<path d="M1576.22 253.94C1578.88 242.01 1578.36 226.77 1589.26 214.91C1593.17 210.66 1597.52 208.17 1603 209.67C1615 212.98 1627.15 216.09 1638.69 220.66C1649.77 225.05 1653.52 233.43 1650.38 244.96C1647.65 254.94 1644.4 264.92 1640.08 274.3C1635.16 284.97 1627.44 288.23 1615.91 285.84C1607.98 284.19 1599.99 282.42 1592.39 279.71C1581.25 275.73 1576.22 267.82 1576.22 253.94ZM1618.61 264.04C1619.44 263.39 1621.64 262.54 1622.23 261.06C1624.54 255.29 1626.56 249.37 1628.15 243.37C1628.48 242.12 1626.87 239.35 1625.56 238.84C1619.56 236.53 1613.39 234.61 1607.17 232.96C1605.88 232.62 1602.96 233.74 1602.76 234.63C1601.09 242.06 1599.88 249.6 1598.53 257.11C1604.21 259.23 1609.89 261.35 1615.58 263.45C1616.16 263.66 1616.8 263.7 1618.61 264.04Z" fill="white"/>
</g>
<defs>
<clipPath id="clip0_18_1476">
<rect width="2492.3" height="1033.74" fill="white"/>
</clipPath>
</defs>
</svg>
